<?xml version="1.0" encoding="UTF-8" standalone="no"?>
<svg xmlns="http://www.w3.org/2000/svg" version="1.1" viewBox="0 0 2040.0036 231.05355">

  <g
     id="topCloud1"
     style="fill:#d6dde8"
     transform="matrix(-0.00630423,0,0,0.00630423,2458.7474,-79.009994)">
    <path
       class="svgTopCloud1"
       d="m 66423.004,31646.769 c 828.002,480.364 2508.011,1919.745 5198.927,2106.203 2690.915,186.458 5988.655,-808.984 8335.334,-2913.26 971.091,3237.465 4269.37,2825.047 5993.632,1870.782 2718.366,1712.498 5598.382,432.498 6537.996,-150.088 939.614,-582.586 3296.003,-2611.837 2096.375,-7295.804 4207.813,2104.275 7970.592,-768.459 9750.672,-2184.564 -808.98,1011.613 -2144.04,1699.784 -3358.29,2387.191 1549.16,1432.163 2347.45,2710.632 4775.18,2306.14 485.54,1214.242 2403.25,2265.615 4369.91,2265.615 3155.67,0 4693.36,-1617.968 7509.52,-5134.526 -1909.3,-654.528 -2329.85,-810.513 -4353.85,-2228.911 1777.78,1137.776 5380,2819.974 8497.44,2427.717 3117.43,-392.259 3922.6,-2064.515 4863.86,-3976.869 800.59,3248.171 3390.41,5109.293 6222.65,5999.329 2832.22,890.799 5521.46,144.515 8591.47,-1646.26 -109.34,1692.902 -94.81,3588.433 2576.08,3750.536 -483.26,1396.224 1052.14,2751.157 2427.73,3641.958 1375.59,890.035 5503.11,1294.527 8820.89,161.337 -1456.65,809.749 -2053.06,880.861 -4285.05,973.381 1254.77,2023.225 3530.34,3248.171 5584.16,3560.907 2361.98,359.378 5740.92,-2.294 6388.57,-1134.718 808.98,1942.172 3336.12,4574.047 7930.07,5502.314 4594.72,928.267 9710.92,-1942.174 11896.27,-5340.977 1190.54,1991.875 3995.23,3269.58 8011.88,2751.923 2508.01,-324.206 4045.7,-2670.872 4388.26,-3641.194 -2932.38,-284.444 -3781.91,-567.359 -5561.99,-1619.497 1497.17,808.984 3476.82,1248.649 5622.4,1410.752 2145.58,162.102 4861.58,-990.967 5828.09,-1815.244 361.67,2058.398 971.08,3723.008 2508.78,4613.044 1321.3,764.635 4207.8,971.087 4936.51,81.051 0,1132.426 -242.38,3236.702 2265.63,4693.331 2508.77,1456.63 3992.95,876.273 5988.65,162.104 363.97,606.355 1803.79,1437.513 3520.4,768.458 1716.61,-669.056 1820.6,-1416.105 2225.09,-3034.837 809,2023.225 1893.26,3468.384 3803.32,3965.397 2602.08,676.703 4667.37,212.569 5333.36,103.991 666.01,-108.578 2597.5,-751.636 3851.49,-1439.044 -1253.99,890.036 -2309.2,1266.237 -3641.21,1658.495 201.87,728.696 2063.76,2913.261 6028.42,2994.311 3965.43,81.051 5584.17,-1780.07 6231.81,-2670.871 1456.64,647.646 4936.52,647.646 6445.9,-1736.486 1160.73,2707.572 4879.18,3871.347 7792.45,3077.656 1012.38,-276.033 1864.96,-1179.068 2512.6,-1947.526 640,390.729 1982.72,687.407 2994.34,-162.102 1011.61,-849.51 728.69,-1416.105 485.54,-2710.632 1623.34,518.423 3560.93,162.102 5098.62,-1133.189 1406.93,-1185.185 1712.03,-2572.234 1745.67,-5699.592 -2794.76,-329.558 -4093.12,-531.421 -6439.8,-1179.067 3314.72,473.309 7607.41,1376.343 10600.97,890.035 2994.32,-484.779 4895.98,-1455.865 5665.21,-2751.158 607.12,2791.684 3641.21,5422.029 6231.05,5988.623 877.8,191.924 1509.39,282.916 2025.51,305.855 -2.28,1069.725 118.52,1555.268 725.66,2040.812 607.12,485.543 1537.69,404.492 2527.13,123.106 577.3,992.496 1442.12,1348.052 1923.84,1576.677 768.46,363.967 3317.76,484.78 4369.91,-890.799 485.54,1456.63 1537.68,2832.973 4288.86,2913.26 2751.17,81.051 3886.66,-2731.278 4936.52,-3236.701 804.39,2723.63 4774.4,3722.244 6716.58,2508.768 -404.49,1618.732 81.06,3964.634 3803.32,5016.772 3723.03,1052.139 5907.6,-1213.476 6793.06,-2057.633 1365.65,77.993 2179.98,410.609 4086.22,20.644 1907.02,-389.963 2855.18,-1117.897 3016.52,-2493.475 -1432.94,-729.462 -1979.66,-1112.544 -4427.27,-1861.886 4126.76,808.984 6312.1,3479.089 9872.26,4045.684 3560.92,566.594 4382.92,-389.199 6000.89,-728.697 1363.35,3237.466 3467.64,3885.111 6056.71,3641.957 2589.83,-242.389 3481.4,-1947.525 6069.71,-4126.736 854.89,1578.027 6614.92,938.027 5734.56,-3326.237 2957.62,96.343 5790.6,-873.978 9027.33,-2249.557 -1982.72,1051.373 -3601.46,1658.493 -4491.5,1819.832 713.41,1154.599 1739.55,2549.293 4410.44,3277.227 2670.89,728.696 4578.91,-2618.95 5549.99,-4480.072 485.55,971.088 3024.19,1416.834 5184.37,960.907 2160.18,-455.927 3615.84,-3379.329 3204.64,-5828.445 1691.21,1169.116 5184.72,1150.698 5344.24,-3530.431 l -0.89,-19120.912 -323591.935,0.699 z"/>
  </g>
</svg>
