<?xml version="1.0" encoding="UTF-8" standalone="no"?>
<svg
   xmlns:dc="http://purl.org/dc/elements/1.1/"
   xmlns:cc="http://creativecommons.org/ns#"
   xmlns:rdf="http://www.w3.org/1999/02/22-rdf-syntax-ns#"
   xmlns:svg="http://www.w3.org/2000/svg"
   xmlns="http://www.w3.org/2000/svg"
   viewBox="0 0 707.66596 617.20032"
   id="svg2"
   height="617.20032"
   width="707.66595"
   version="1.1">
  <metadata
     id="metadata222">
    <rdf:RDF>
      <cc:Work
         rdf:about="">
        <dc:format>image/svg+xml</dc:format>
        <dc:type
           rdf:resource="http://purl.org/dc/dcmitype/StillImage" />
        <dc:title></dc:title>
      </cc:Work>
    </rdf:RDF>
  </metadata>
  <defs
     id="defs220" />
  <path
     id="path4"
     style="fill:#d7dde8;fill-rule:evenodd"
     d="m 199.46259,82.836028 c -90.204,-8.3695 -122.054895,0.6975 -152.045195,40.452302 -29.9903,39.7548 -25.1084,101.8284 -5.5795,124.1468 -25.1083,20.9239 -59.9817,106.013 -30.6883,167.3892 29.2933,61.3761 118.567395,80.9051 175.758595,86.4845 13.9494,51.6118 55.6955,107.1781 122.7523,114.3824 67.0569,7.2043 99.0385,-11.1589 149.2553,-59.9806 81.8345,6.5094 148.3763,-3.5624 173.4847,-34.2502 25.1084,-30.6879 34.1368,-87.103 14.8278,-134.534 39.2196,-22.1454 64.1656,-32.0833 59.9812,-104.6185 -4.1845,-72.5351 -40.4523,-108.8029 -83.6946,-125.5418 -4.185,-51.6117 -20.2702,-72.107502 -57.9325,-94.425902 -37.6622,-22.3184 -107.4169,-13.6416 -133.2232,6.5843 -19.529,-34.8723 -58.0163,-62.5624 -114.3292,-68.38810004 C 261.71709,-5.289272 211.55209,37.269228 199.46259,82.836028 Z" />
  <path
     id="path6"
     style="fill:#fdfdfd;fill-rule:evenodd;stroke:#000000;stroke-width:1.49979997;stroke-linecap:butt;stroke-linejoin:miter;stroke-dasharray:none"
     d="m 498.46109,258.81413 -47.2737,20.107 4.9655,15.6251 51.6488,-22.2657 -9.3406,-13.4664 z" />
  <path
     id="path8"
     style="fill:#ffffff;fill-rule:evenodd;stroke:#000000;stroke-width:1.49979997;stroke-linecap:butt;stroke-linejoin:miter;stroke-dasharray:none"
     d="m 275.27309,119.77673 308.6843,232.9953 c 0,0 1.5839,-12.1227 6.0176,-17.9967 l -303.8637,-229.358 -10.8382,14.3594 z" />
  <path
     id="path10"
     style="fill:#ffffff;fill-rule:evenodd;stroke:#000000;stroke-width:1.49979997;stroke-linecap:butt;stroke-linejoin:miter;stroke-dasharray:none"
     d="m 296.94989,91.058828 -10.8386,14.358502 303.8639,229.358 c 4.4342,-5.8739 15.6589,-10.7204 15.6589,-10.7204 L 296.94989,91.058828 Z" />
  <path
     id="path12"
     style="fill:#575c63;fill-rule:evenodd;stroke:#000000;stroke-width:1.49979997;stroke-linecap:butt;stroke-linejoin:miter;stroke-dasharray:none"
     d="m 605.63419,324.05473 c 0,0 -0.3219,-5.8395 2.5957,-9.7058 2.5531,-3.3808 7.2386,-4.7934 8.3715,-5.0933 -0.5104,-0.5405 -1.0252,-1.0256 -1.508,-1.3898 10e-5,-2e-4 -279.5578,-211.011602 -306.925,-231.669802 l -11.2185,14.8628 308.6843,232.995902 z" />
  <path
     id="path14"
     style="fill:#95b59e;fill-rule:evenodd;stroke:#000000;stroke-width:1.49979997;stroke-linecap:butt;stroke-linejoin:miter;stroke-dasharray:none"
     d="m 451.98809,276.49083 c -0.6882,-0.5198 -1.3789,-1.0409 -2.0695,-1.5623 l -1.3398,-4.2151 c -0.6991,0.5317 -1.4151,1.0629 -2.1406,1.5882 -69.1479,-52.1926 -146.6181,-110.668 -174.1437,-131.4449 2.8399,-4.4204 6.8885,-9.1593 12.6587,-13.7731 l 160.5789,121.2049 c 4.2283,14.6455 6.0917,25.8732 6.456,28.2023 z" />
  <path
     id="path16"
     style="fill:#95b59e;fill-rule:evenodd;stroke:#000000;stroke-width:1.49979997;stroke-linecap:butt;stroke-linejoin:miter;stroke-dasharray:none"
     d="m 422.91339,162.80653 c -21.7806,-16.4403 -42.5063,-32.0837 -60.284,-45.5023 17.7795,13.4204 38.4997,29.0599 60.2838,45.5025 l 2e-4,-2e-4 z m -60.4141,-45.6005 c -0.0358,-0.0268 -0.0598,-0.0452 -0.0954,-0.0722 0.0328,0.0247 0.0631,0.0477 0.0953,0.0724 z m -0.3356,-0.254 c -0.0287,-0.0213 -0.0505,-0.0372 -0.0787,-0.059 0.0264,0.02 0.0516,0.0395 0.0786,0.059 z m -0.2128,-0.1599 c -0.0567,-0.0433 -0.1205,-0.0912 -0.1774,-0.1343 0.0592,0.0445 0.1182,0.0896 0.1773,0.1343 z m -0.32,-0.2423 c -0.0569,-0.0423 -0.1143,-0.0858 -0.171,-0.1283 0.0561,0.0425 0.1141,0.086 0.171,0.1283 z" />
  <path
     id="path18"
     style="fill:#312418;fill-rule:evenodd;stroke:#000000;stroke-width:1.49979997;stroke-linecap:butt;stroke-linejoin:miter;stroke-dasharray:none"
     d="m 647.54319,375.92713 -9.1715,-20.4849 -7.6282,10.1051 16.7826,12.6655 c 0.3956,-0.5317 0.4356,-1.3363 0.0171,-2.2857 z" />
  <path
     id="path20"
     style="fill:#211e16;fill-rule:evenodd;stroke:#000000;stroke-width:1.49979997;stroke-linecap:butt;stroke-linejoin:miter;stroke-dasharray:none"
     d="m 623.11669,375.65353 22.2126,3.2069 c 1.0324,0.1429 1.7951,-0.1158 2.1965,-0.6475 l -16.7823,-12.6656 -7.6268,10.1062 z" />
  <path
     id="path22"
     style="fill:#ffffff;fill-rule:evenodd;stroke:#000000;stroke-width:1.49979997;stroke-linecap:butt;stroke-linejoin:miter;stroke-dasharray:none"
     d="m 296.11829,67.101428 c -2.5048,-1.8919 -3.9743,-2.9998 -4.0684,-3.0708 -16.1367,-12.1807 -34.2742,-5.3354 -46.4557,10.8037 l 28.4681,21.4879 22.056,-29.2208 z" />
  <path
     id="path24"
     style="fill:#ffffff;fill-rule:evenodd;stroke:#000000;stroke-width:1.49979997;stroke-linecap:butt;stroke-linejoin:miter;stroke-dasharray:none"
     d="m 245.59419,74.834328 c -12.182,16.1384 -13.7937,35.458002 2.3448,47.639502 0.0917,0.0698 1.5612,1.1781 4.0678,3.0698 l 22.0555,-29.221402 -28.4681,-21.4879 z" />
  <path
     id="path26"
     style="fill:#ffffff;fill-rule:evenodd;stroke:#000000;stroke-width:1.49979997;stroke-linecap:butt;stroke-linejoin:miter;stroke-dasharray:none"
     d="m 286.11129,105.41733 -12.049,-9.095102 -22.0555,29.221202 c 2.8404,2.1446 7.0164,5.2965 12.0501,9.0953 l 11.2162,-14.862 10.8382,-14.3594 z" />
  <path
     id="path28"
     style="fill:#ffffff;fill-rule:evenodd;stroke:#000000;stroke-width:1.49979997;stroke-linecap:butt;stroke-linejoin:miter;stroke-dasharray:none"
     d="m 286.11129,105.41733 10.8386,-14.358502 11.218,-14.863 c -5.033,-3.7977 -9.2094,-6.9497 -12.0496,-9.0944 l -22.056,29.2208 12.049,9.095102 z" />
  <path
     id="path30"
     style="fill:#fdfdfd;fill-rule:evenodd;stroke:#000000;stroke-width:1.49979997;stroke-linecap:butt;stroke-linejoin:miter;stroke-dasharray:none"
     d="m 605.63419,324.05473 c 0,0 -11.2249,4.8467 -15.6592,10.7206 l 40.7685,30.772 7.6282,-10.1051 -18.7417,-41.85 c -0.5942,-1.345 -1.7933,-3.0226 -3.0286,-4.3366 -1.1328,0.2991 -5.8184,1.7127 -8.3715,5.0933 -2.9174,3.8663 -2.5958,9.706 -2.5957,9.7058 z" />
  <path
     id="path32"
     style="fill:#ffffff;fill-rule:evenodd;stroke:#000000;stroke-width:1.49979997;stroke-linecap:butt;stroke-linejoin:miter;stroke-dasharray:none"
     d="m 589.97519,334.77533 c -4.4336,5.874 -6.018,17.9969 -6.018,17.9969 2e-4,-2e-4 -5.7037,1.2917 -8.6224,5.1582 -2.553,3.3817 -2.626,8.2749 -2.6042,9.445 1.6021,0.8298 3.5442,1.5221 5.0005,1.7246 l 45.3856,6.5535 7.6268,-10.1062 -40.7683,-30.772 z" />
  <path
     id="path34"
     style="fill:#575c63;fill-rule:evenodd;stroke:#000000;stroke-width:1.49979997;stroke-linecap:butt;stroke-linejoin:miter;stroke-dasharray:none"
     d="m 583.95739,352.77203 -308.6843,-232.9953 -11.2162,14.8618 c 27.3667,20.6578 306.9244,231.6694 306.9244,231.6694 0.4833,0.3642 1.0897,0.7256 1.7493,1.0675 -0.0218,-1.1703 0.0511,-6.0633 2.6042,-9.445 2.9189,-3.8665 8.6224,-5.1582 8.6226,-5.1584 z" />
  <path
     id="path36"
     style="fill:#050109;fill-rule:evenodd;stroke:#000000;stroke-width:1.49979997;stroke-linecap:butt;stroke-linejoin:miter;stroke-dasharray:none"
     d="m 530.42789,380.25473 c -7.6052,-16.3959 -21.7925,13.5547 -21.7925,13.5547 2e-4,0 1.8332,-23.6621 -5.1907,-30.5385 -6.7274,-6.5875 -19.3856,5.4374 -22.7531,8.4922 l -148.2422,54.9995 9.3962,23.6942 -17.8943,0.393 c 0,0 -9.051,28.9354 4.8506,28.7879 13.901,-0.1479 2.0304,-18.8337 2.0304,-18.8337 0,0 14.0353,5.3997 23.0598,1.3353 7.0368,-3.1696 -1.7567,-23.5472 -3.6783,-29.9569 99.6348,-20.1823 142.6818,-53.9506 143.9259,-55.1941 0,0 5.964,24.367 10.3483,36.3237 10e-5,0 33.5452,-16.66 25.9399,-33.0573 z" />
  <path
     id="path38"
     style="fill:#ffffff;fill-rule:evenodd;stroke:#000000;stroke-width:1.49979997;stroke-linecap:butt;stroke-linejoin:miter;stroke-dasharray:none"
     d="m 448.57879,270.71283 c 0,0 -40.743,-182.822302 -160.5232,-78.4832 0,-3e-4 -33.2418,46.5917 -4.1555,137.1222 144.4009,-17.7901 164.6786,-58.639 164.6787,-58.639 z" />
  <path
     id="path40"
     style="fill:#050109;fill-rule:evenodd;stroke:#000000;stroke-width:1.49979997;stroke-linecap:butt;stroke-linejoin:miter;stroke-dasharray:none"
     d="m 396.14349,83.793828 c 0,0 85.7693,99.083202 -92.4204,127.551102 l 0.6117,40.2606 c 0,0 -19.7969,-10.1659 -18.9584,7.3458 0.8427,17.5104 18.9863,5.5245 18.9863,5.5245 0,-2e-4 -3.9674,47.605 -20.4626,64.876 0,-2e-4 -103.6938,-145.8514 -29.8945,-160.0839 2e-4,-2e-4 -3.945,-29.2188 38.8094,-50.2315 48.5877,-23.880102 101.555,31.6587 103.3285,-35.242602 z" />
  <path
     id="path42"
     style="fill:#ffffff;fill-rule:evenodd;stroke:#000000;stroke-width:1.49979997;stroke-linecap:butt;stroke-linejoin:miter;stroke-dasharray:none"
     d="m 448.57879,270.71343 32.113,101.0497 c 0,0 -57.5101,34.53 -148.2419,54.9997 l -48.5498,-97.4106 c 0,0 115.5047,-21.2248 164.6787,-58.6388 z" />
  <path
     id="path44"
     style="fill:#050109;fill-rule:evenodd;stroke:#000000;stroke-width:1.49979997;stroke-linecap:butt;stroke-linejoin:miter;stroke-dasharray:none"
     d="m 417.26889,296.53593 5.6255,5.2638 -2.246,9.1967 c 0,-2e-4 8.5425,46.4585 -51.8274,63.8456 l -19.1807,-12.5458 13.2357,-17.1158 c 51.5944,-2.6024 48.563,-30.1789 48.563,-30.1789 l -8.3524,-6.0718 1.1776,-6.2664 13.0047,-6.1274 z" />
  <path
     id="path46"
     style="fill:#ffffff;fill-rule:evenodd;stroke:#000000;stroke-width:1.49979997;stroke-linecap:butt;stroke-linejoin:miter;stroke-dasharray:none"
     d="m 309.85179,332.59473 0.966,16.3913 31.6271,-2.7197 -2.0959,-16.1398 -30.4972,2.4682 z" />
  <path
     id="path48"
     style="fill:#ffffff;fill-rule:evenodd;stroke:#000000;stroke-width:1.49979997;stroke-linecap:butt;stroke-linejoin:miter;stroke-dasharray:none"
     d="m 520.15839,315.57113 -179.8094,14.5554 2.0959,16.1398 179.7138,-14.5131 c 0,0 4.9285,0.0843 4.8986,-2.2192 -0.0296,-2.3035 -4.1606,-1.3535 -4.1606,-1.3535 3e-4,-2e-4 4.986,-0.3705 4.635,-2.881 -0.3788,-2.7143 -5.1054,-1.6669 -5.1054,-1.6669 2e-4,0 4.6128,0.0172 4.3569,-2.7188 -0.2769,-2.9533 -4.7286,-1.9121 -4.7286,-1.9121 2e-4,-2e-4 4.093,0.0567 4.0541,-2.2818 -0.0295,-1.7579 -5.9503,-1.1488 -5.9503,-1.1488 z" />
  <path
     id="path50"
     style="fill:#050109;fill-rule:evenodd;stroke:#000000;stroke-width:1.49979997;stroke-linecap:butt;stroke-linejoin:miter;stroke-dasharray:none"
     d="m 347.18609,243.28873 c 2.277,6.8323 1.1814,11.3544 -1.7081,12.3174 -2.8897,0.9634 -6.4798,-1.9971 -8.7574,-8.8288 -2.2771,-6.8324 -1.1816,-11.3544 1.7081,-12.3174 2.8896,-0.9638 6.4797,1.9965 8.7574,8.8288 z" />
  <path
     id="path52"
     style="fill:#050109;fill-rule:evenodd;stroke:#000000;stroke-width:1.49979997;stroke-linecap:butt;stroke-linejoin:miter;stroke-dasharray:none"
     d="m 414.53909,220.83853 c 2.2771,6.8324 1.1815,11.3546 -1.7082,12.3176 -2.89,0.9633 -6.4795,-1.9966 -8.7572,-8.8289 -2.2775,-6.8324 -1.1815,-11.3544 1.7081,-12.3181 2.8903,-0.9631 6.4796,1.9972 8.7573,8.8294 z" />
  <path
     id="path54"
     style="fill:#050109;fill-rule:evenodd;stroke:#000000;stroke-width:1.49979997;stroke-linecap:butt;stroke-linejoin:miter;stroke-dasharray:none"
     d="m 358.76239,268.86303 c 5.0095,13.2874 19.8419,19.9982 33.1293,14.9881 13.2869,-5.0093 19.9975,-19.8416 14.9879,-33.1283 l -48.1172,18.1402 z" />
  <path
     id="path56"
     style="fill:#43301e;fill-rule:evenodd"
     d="m 123.83929,569.61703 c -0.8019,0.2237 -0.3574,0.6138 -0.447,0.74 1.2827,-0.5507 0.3712,-0.8546 0.447,-0.74 z" />
  <path
     id="path58"
     style="fill:#43301e;fill-rule:evenodd"
     d="m 136.41239,564.12793 -0.1618,0.2753 1.7415,-1.1298 -1.5797,0.8545 z" />
  <path
     id="path60"
     style="fill:#43301e;fill-rule:evenodd"
     d="m 148.49929,559.99823 c -1.4241,-0.4302 -4.3317,1.6349 -6.5846,2.0821 l -0.4193,-0.0687 -0.7445,0.9979 c 2.5805,-1.0036 5.8274,-2.6097 7.7484,-3.0113 z" />
  <path
     id="path62"
     style="fill:#43301e;fill-rule:evenodd"
     d="m 155.55189,559.55673 c -0.5075,-0.1836 1.2973,-0.7572 -1.5354,0.4186 0.157,-0.0172 0.2058,-0.0114 0.2993,-0.0114 0.2587,-0.0977 0.6178,-0.218 1.2361,-0.4072 z" />
  <path
     id="path64"
     style="fill:#43301e;fill-rule:evenodd"
     d="m 154.31579,559.96383 c -1.2635,0.459 0.9246,-0.023 0,0 z" />
  <path
     id="path66"
     style="fill:#43301e;fill-rule:evenodd"
     d="m 160.12499,557.74983 -1.5763,0.8661 c 0.4148,0.0631 1.921,-0.4071 1.4145,-0.0803 1.664,-0.7456 1.2458,-0.8144 0.1618,-0.7858 z" />
  <path
     id="path68"
     style="fill:#43301e;fill-rule:evenodd"
     d="m 161.50549,556.60283 -0.8259,0.4186 c 0.1795,0.0288 0.4187,-0.0229 0.8259,-0.4186 z" />
  <path
     id="path70"
     style="fill:#43301e;fill-rule:evenodd"
     d="m 158.92739,557.91053 1.7522,-0.8891 c -0.2884,-0.0517 -0.4061,-0.304 -0.8134,0.3844 0.0666,-0.2983 -0.2167,0.0631 -0.9388,0.5047 z" />
  <path
     id="path72"
     style="fill:#43301e;fill-rule:evenodd"
     d="m 157.84169,558.14563 c -1.0016,0.1492 -2.2537,0.4531 -0.6707,-0.413 -3.1649,1.2218 -2.4938,1.6405 0.6707,0.413 z" />
  <path
     id="path74"
     style="fill:#43301e;fill-rule:evenodd"
     d="m 148.82399,558.93723 -1.3393,0.1893 -0.9924,0.6482 c 0.4962,-0.3213 2.4985,-0.6081 2.3317,-0.8375 z" />
  <path
     id="path76"
     style="fill:#43301e;fill-rule:evenodd"
     d="m 170.70499,554.56663 c 0.0442,-0.2124 -0.7245,-0.2696 -0.9269,-0.4532 l -1.1665,0.631 c 0.6773,-0.0975 1.9196,-0.4073 2.0934,-0.1778 z" />
  <path
     id="path78"
     style="fill:#43301e;fill-rule:evenodd"
     d="m 169.77809,554.11343 1.7454,-0.9405 c -1.6639,0.5391 -1.9163,0.7857 -1.7454,0.9405 z" />
  <path
     id="path80"
     style="fill:#43301e;fill-rule:evenodd"
     d="m 161.48899,555.58763 -2.8225,1.6805 3.4052,-1.8928 -0.5827,0.2123 z" />
  <path
     id="path82"
     style="fill:#43301e;fill-rule:evenodd"
     d="m 177.77659,552.12893 -0.9079,0.7685 1.6558,-1.2618 -0.7479,0.4933 z" />
  <path
     id="path84"
     style="fill:#43301e;fill-rule:evenodd"
     d="m 182.43789,550.42553 c -0.6596,0.6079 1.2614,0.2006 0.5128,0.6882 1.2514,-0.499 2.2387,-1.1701 3.127,-1.7667 -0.9893,0.5047 -2.1107,0.8548 -3.6398,1.0785 z" />
  <path
     id="path86"
     style="fill:#43301e;fill-rule:evenodd"
     d="m 187.58979,548.40063 c -0.4917,0.2582 -0.9797,0.5909 -1.5121,0.9464 0.5255,-0.2695 1.0297,-0.5677 1.5121,-0.9464 z" />
  <path
     id="path88"
     style="fill:#43301e;fill-rule:evenodd"
     d="m 174.70379,552.16343 c 0.1802,0.0515 0.5514,0.2351 1.629,-0.0116 l -0.8981,-0.2352 c -0.2226,0.0746 -0.475,0.1607 -0.7309,0.2468 z" />
  <path
     id="path90"
     style="fill:#43301e;fill-rule:evenodd"
     d="m 175.40379,551.91093 0.0309,0.006 c 0.7944,-0.2638 1.3455,-0.4416 1.5813,-0.5218 -0.2036,0.0631 -0.6889,0.2179 -1.6122,0.5161 z" />
  <path
     id="path92"
     style="fill:#43301e;fill-rule:evenodd"
     d="m 174.51979,552.22063 c 0.0678,-0.0229 0.1175,-0.0343 0.184,-0.0572 -0.0865,-0.0288 -0.1348,-0.0288 -0.184,0.0572 z" />
  <path
     id="path94"
     style="fill:#43301e;fill-rule:evenodd"
     d="m 166.49449,554.35443 c 0.9923,-0.6539 3.1568,-1.7322 0.8178,-1.3937 -0.6635,0.6077 0.6751,0.4128 -0.8178,1.3937 z" />
  <path
     id="path96"
     style="fill:#43301e;fill-rule:evenodd"
     d="m 173.40299,551.92243 -2.0028,0.5736 c 0.0831,0.1146 0.5036,0.1779 0.0126,0.5047 l 1.9902,-1.0783 z" />
  <path
     id="path98"
     style="fill:#43301e;fill-rule:evenodd"
     d="m 174.31049,551.42913 -0.9075,0.4933 0.7428,-0.2123 0.1647,-0.281 z" />
  <path
     id="path100"
     style="fill:#43301e;fill-rule:evenodd"
     d="m 184.06409,549.11193 c 0.7738,-0.5103 1.6959,-0.8547 2.7324,-1.2503 -1.1574,0.2925 -2.3373,0.6481 -3.4403,1.0323 -0.1021,0.2065 -0.4904,0.6539 0.7079,0.218 z" />
  <path
     id="path102"
     style="fill:#43301e;fill-rule:evenodd"
     d="m 179.84029,550.42553 c 0.0562,-0.0288 0.1266,-0.0631 0.1788,-0.0919 -0.1301,0 -0.2276,0.0172 -0.1788,0.0919 z" />
  <path
     id="path104"
     style="fill:#43301e;fill-rule:evenodd"
     d="m 197.11439,544.25953 c -0.066,-0.0115 -0.1284,-0.0229 -0.1967,-0.0343 l -0.009,0.0974 0.2053,-0.0631 z" />
  <path
     id="path106"
     style="fill:#43301e;fill-rule:evenodd"
     d="m 183.13539,548.86533 c -0.8775,0.2008 -1.3405,0.499 -1.7689,0.8144 0.6144,-0.2696 1.2727,-0.5333 1.9897,-0.7858 0.0459,-0.0974 0.0424,-0.1434 -0.2208,-0.0286 z" />
  <path
     id="path108"
     style="fill:#43301e;fill-rule:evenodd"
     d="m 190.38869,547.16763 c -0.4754,0.0515 -1.0049,0.1377 -1.5566,0.2408 0.4847,0.006 1.4459,-0.0573 1.5566,-0.2408 z" />
  <path
     id="path110"
     style="fill:#43301e;fill-rule:evenodd"
     d="m 180.35129,550.36813 -0.1187,0.0688 c 0.3138,0.006 0.2609,-0.0287 0.1187,-0.0688 z" />
  <path
     id="path112"
     style="fill:#43301e;fill-rule:evenodd"
     d="m 180.35129,550.36813 c 0.4102,-0.2181 0.7095,-0.459 1.0152,-0.6884 -0.5006,0.218 -0.959,0.4359 -1.3474,0.6539 0.1171,0 0.2405,0.0116 0.3322,0.0345 z" />
  <path
     id="path114"
     style="fill:#43301e;fill-rule:evenodd"
     d="m 199.13569,540.00943 c 0.0109,0.5046 -2.0609,1.7035 -4.1464,1.8871 -1.7654,1.0036 -0.01,2.0705 1.9284,2.3287 -0.0109,-0.218 -0.0751,-0.4016 1.7706,-1.348 -0.7663,-0.0115 -4.5071,0.9235 -3.0147,-0.0631 2.4869,-1.1356 2.1613,-0.5736 3.4948,-0.7685 -1.26,-0.2008 2.9797,-1.9732 2.1279,-2.6098 l -2.1497,1.0782 c -0.0878,-0.1146 0.6562,-0.6079 -0.0109,-0.5046 z" />
  <path
     id="path116"
     style="fill:#43301e;fill-rule:evenodd"
     d="m 193.20549,545.47553 -0.7788,0.3327 c 0.9377,-0.2351 1.6529,-0.2811 2.9768,-0.3499 1.2503,-0.6826 1.4672,-0.9521 1.5056,-1.1357 l -3.953,1.3136 0.2494,-0.1607 z" />
  <path
     id="path118"
     style="fill:#43301e;fill-rule:evenodd"
     d="m 188.84299,547.06433 c 0.4514,-0.7113 2.2943,-1.5945 0.9331,-1.7206 -2.3308,0.8545 -1.4976,0.9864 -2.823,1.6918 3.7397,-1.4395 -0.9906,0.654 1.8411,-0.017 -0.714,0.344 -1.3737,0.6022 -1.9977,0.8431 0.7026,-0.178 1.3851,-0.3328 2.0356,-0.4532 l -0.0975,-0.006 -0.0173,0.0115 0.001,-0.0115 c -0.1846,-0.006 -0.2517,-0.023 -0.055,-0.0516 l 0.0751,-0.0344 c 0.002,-0.0804 0.0504,-0.1664 0.1056,-0.2467 1.1311,-0.2811 0.2173,0.0688 -0.1056,0.2467 l -0.0201,0.086 0.0161,0 3.6921,-1.5945 c -0.8254,0.2123 -1.8229,0.5793 -3.5837,1.2561 z" />
  <path
     id="path120"
     style="fill:#43301e;fill-rule:evenodd"
     d="m 168.96419,551.19393 c 0.1332,0.006 0.14,0.0403 0.1611,0.0746 0.2237,-0.1434 0.3023,-0.2179 -0.1611,-0.0746 z" />
  <path
     id="path122"
     style="fill:#43301e;fill-rule:evenodd"
     d="m 170.62649,550.95313 c -0.2512,0.1663 -0.4118,0.4417 -1.3251,0.7054 -0.8282,0.1205 -0.0785,-0.2408 -0.1761,-0.39 -0.4937,0.3213 -1.7653,1.0153 0.0104,0.6654 l 0.2449,-0.1606 c 1.5842,-0.3614 3.7592,-0.4245 3.5159,-0.2639 -0.5998,-0.2925 -1.1028,-0.4702 -2.27,-0.5563 z" />
  <path
     id="path124"
     style="fill:#43301e;fill-rule:evenodd"
     d="m 179.79899,548.84243 3.0703,-1.3365 -1.7563,0.1262 0.1715,0.2294 c -1.8297,0.5277 -1.3312,0.7056 -1.4855,0.9809 z" />
  <path
     id="path126"
     style="fill:#43301e;fill-rule:evenodd"
     d="m 197.56119,544.37983 -0.2351,0.6655 1.563,-1.3766 -1.3279,0.7111 z" />
  <path
     id="path128"
     style="fill:#43301e;fill-rule:evenodd"
     d="m 201.63709,542.87723 0.008,0.5105 0.9854,-0.6539 -0.9934,0.1434 z" />
  <path
     id="path130"
     style="fill:#43301e;fill-rule:evenodd;stroke:#000000;stroke-width:1.49979997;stroke-linecap:butt;stroke-linejoin:miter;stroke-dasharray:none"
     d="m 430.30559,454.84233 0.8761,-0.4627 c -0.4219,0.1977 -0.687,0.3428 -0.8761,0.4627 z" />
  <path
     id="path132"
     style="fill:#43301e;fill-rule:evenodd;stroke:#000000;stroke-width:1.49979997;stroke-linecap:butt;stroke-linejoin:miter;stroke-dasharray:none"
     d="m 423.61479,457.23233 -0.0832,0.2829 c 0.2651,-0.2353 0.359,-0.3717 0.0832,-0.2829 z" />
  <path
     id="path134"
     style="fill:#43301e;fill-rule:evenodd"
     d="m 302.13679,507.25793 c 1.498,-0.0562 3.2377,0.0649 2.8924,-0.3876 l -0.5907,-0.35 c -0.909,0.4245 -1.6507,0.6264 -2.3017,0.7376 z" />
  <path
     id="path136"
     style="fill:#43301e;fill-rule:evenodd;stroke:#000000;stroke-width:1.49979997;stroke-linecap:butt;stroke-linejoin:miter;stroke-dasharray:none"
     d="m 369.80479,479.64753 c -0.1457,-0.003 -0.2978,-0.006 -0.4481,-0.009 -0.265,0.2884 -0.5133,0.5591 -0.737,0.803 0.3569,-0.2392 0.7611,-0.5099 1.1851,-0.7939 z" />
  <path
     id="path138"
     style="fill:#43301e;fill-rule:evenodd;stroke:#000000;stroke-width:1.49979997;stroke-linecap:butt;stroke-linejoin:miter;stroke-dasharray:none"
     d="m 370.01309,477.24833 1.888,-0.319 c -0.4387,0.0316 -1.0473,0.1303 -1.888,0.319 z" />
  <path
     id="path140"
     style="fill:#43301e;fill-rule:evenodd;stroke:#000000;stroke-width:1.49979997;stroke-linecap:butt;stroke-linejoin:miter;stroke-dasharray:none"
     d="m 466.59229,441.08083 0.8924,-0.8978 c -1.6821,0.616 -0.8488,0.6012 -0.8924,0.8978 z" />
  <path
     id="path142"
     style="fill:#43301e;fill-rule:evenodd"
     d="m 243.51969,527.94153 c 1.2326,-0.218 2.1864,-0.4646 3.0082,-0.7284 -1.5019,0.2122 -2.7839,0.1834 -3.0082,0.7284 z" />
  <path
     id="path144"
     style="fill:#43301e;fill-rule:evenodd;stroke:#000000;stroke-width:1.49979997;stroke-linecap:butt;stroke-linejoin:miter;stroke-dasharray:none"
     d="m 429.58679,461.06673 c 0.5323,-0.2942 0.737,-0.4828 0.6796,-0.5879 -0.55,0.2959 -0.8443,0.5099 -0.6796,0.5879 z" />
  <path
     id="path146"
     style="fill:#43301e;fill-rule:evenodd"
     d="m 249.88629,526.02123 c -0.2226,0.0228 -0.4325,0.0688 -0.6562,0.101 -0.8207,0.3853 -1.6525,0.7581 -2.7022,1.0909 1.1105,-0.1549 2.3419,-0.4417 3.3584,-1.1919 z" />
  <path
     id="path148"
     style="fill:#43301e;fill-rule:evenodd;stroke:#000000;stroke-width:1.49979997;stroke-linecap:butt;stroke-linejoin:miter;stroke-dasharray:none"
     d="m 598.92279,393.17043 c 0.1046,-0.0132 0.2236,-0.0447 0.3205,-0.0504 0.005,-0.0782 -0.1296,-0.0327 -0.3205,0.0504 z" />
  <path
     id="path150"
     style="fill:#43301e;fill-rule:evenodd;stroke:#000000;stroke-width:1.49979997;stroke-linecap:butt;stroke-linejoin:miter;stroke-dasharray:none"
     d="m 639.24929,384.02383 c -0.3669,0.1702 -0.9865,0.398 -1.5658,0.6188 0.2926,-0.0701 0.7685,-0.2489 1.5658,-0.6188 z" />
  <path
     id="path152"
     style="fill:#43301e;fill-rule:evenodd"
     d="m 218.19879,537.31373 c -0.8574,0.3383 -0.1187,0.1032 0,0 z" />
  <path
     id="path154"
     style="fill:#43301e;fill-rule:evenodd"
     d="m 213.28219,536.83183 c 0.1647,-0.1205 0.2805,-0.2408 0.2616,-0.367 -0.0292,0.1491 -0.1234,0.2637 -0.2616,0.367 z" />
  <path
     id="path156"
     style="fill:#43301e;fill-rule:evenodd"
     d="m 257.43229,519.85643 0.0756,-0.0247 c -0.2925,-0.006 -0.2415,-0.003 -0.0756,0.0247 z" />
  <path
     id="path158"
     style="fill:#43301e;fill-rule:evenodd"
     d="m 216.81199,537.54883 c 0.3476,-0.0517 0.741,-0.1319 1.1631,-0.241 -0.1931,0.0229 -0.5477,0.0919 -1.1631,0.241 z" />
  <path
     id="path160"
     style="fill:#43301e;fill-rule:evenodd"
     d="m 217.07059,537.72083 c -0.3063,0.0919 -0.5466,0.1549 -0.776,0.2237 -0.0803,0.1205 0.035,0.1377 0.776,-0.2237 z" />
  <path
     id="path162"
     style="fill:#43301e;fill-rule:evenodd"
     d="m 219.39939,536.86053 c -0.4944,0.1834 -0.966,0.3268 -1.4243,0.4473 0.1824,-0.0286 0.2632,-0.0229 0.2237,0.006 0.2524,-0.0919 0.6091,-0.2296 1.2006,-0.4532 z" />
  <path
     id="path164"
     style="fill:#43301e;fill-rule:evenodd;stroke:#000000;stroke-width:1.49979997;stroke-linecap:butt;stroke-linejoin:miter;stroke-dasharray:none"
     d="m 528.60489,420.44483 c 0.0633,-0.005 0.1324,-0.0195 0.2025,-0.0206 0.7968,-0.5254 0.4261,-0.3522 -0.2025,0.0206 z" />
  <path
     id="path166"
     style="fill:#43301e;fill-rule:evenodd"
     d="m 322.85419,494.02813 -0.0907,0.0597 0.1343,-0.0288 -0.0436,-0.0309 z" />
  <path
     id="path168"
     style="fill:#43301e;fill-rule:evenodd"
     d="m 325.83309,492.54193 c -1.1035,1.0937 -1.8842,1.2883 -2.9355,1.5171 l 1.5436,1.0651 1.3919,-2.5822 z" />
  <path
     id="path170"
     style="fill:#050109;fill-rule:evenodd"
     d="m 539.19699,420.77923 -0.6224,0.0636 c 1.2277,-0.6287 0.9201,-0.3538 0.6224,-0.0636 z m -314.6607,113.5232 c -0.2679,0.1836 -0.221,0.2523 -0.0689,0.2868 0.156,-0.2123 0.8121,-0.4531 1.5772,-0.6825 -0.2596,-0.069 -0.675,-0.0345 -1.5083,0.3957 z m 3.0226,-0.7916 0.0586,-0.0516 c 1.4907,-0.2811 0.9589,-0.1892 -0.0586,0.0516 z m 137.0573,-53.1935 c 0.4045,-0.352 1.1643,-0.5235 2.0608,-0.6107 -0.5798,0.2603 -1.2619,0.4829 -2.0608,0.6107 z m 49.1382,-19.2351 c 0.5905,-0.3447 1.7208,-1.1591 2.3013,-1.0009 -0.4909,0.8941 -1.1576,0.7928 -2.3013,1.0009 z m 32.4941,-12.1797 -2.345,0.3452 c 2.3686,-1.6898 4.3666,-2.1273 2.0896,-2.012 0.2554,1.6666 -8.4269,3.2343 -8.1671,4.8977 l -1.5576,0.1943 c 0.4176,-0.1341 0.4506,-0.2499 0.8635,-0.3819 -3.0683,0.2694 -1.6714,1.8779 -5.3577,2.9631 -1.2995,0.3366 -2.2586,0.4284 -1.4688,-0.0666 l -2.6599,1.3994 c -0.8259,0.2651 -0.7248,-0.0773 0.0966,-0.3412 l -4.2253,1.6719 0.0148,-0.0572 c -0.5208,0.465 -1.7656,1.3421 -2.3816,1.7472 -1.1651,0.1702 0.4847,-0.362 0.1366,-0.4556 l -2.2283,1.2337 c -1.1093,-0.0538 0.7089,-1.155 2.3637,-1.6896 -2.771,-0.752 -1.8206,1.1023 -6.915,1.9232 l 2.1611,-1.0067 c -1.7583,-0.3608 -3.3857,0.5908 -6.109,0.955 0.7027,0.0704 5.5556,-0.4451 3.1295,0.8725 -0.7655,0.1443 -1.7397,0.4341 -3.0108,1.2491 -0.2125,-0.5484 -1.5153,0.0776 -3.196,0.7222 l -0.1494,-0.775 c -1.7522,0.874 -1.4732,1.196 -2.4303,1.9141 -2.0659,0.663 -2.6941,0.2478 -3.3469,-0.0574 -3.3081,1.0611 2.5845,0.0969 -1.2321,1.629 -2.8171,0.6991 -4.6166,1.6863 -7.708,3.2963 -1.9925,0.4329 0.1708,-0.5678 -0.5875,-0.5317 l -1.474,1.1918 c -0.4175,0.1349 -0.3494,-0.0929 -0.3144,-0.2077 -1.3386,0.7388 0.1475,0.7744 -2.0138,1.7787 -0.3107,1.0238 -5.009,0.4727 -7.4414,2.3855 -0.7559,0.0379 0.1669,-0.5673 -0.1434,-0.776 -3.5745,1.9684 -3.0928,1.6089 -5.9141,3.5406 l -2.8254,0.4749 c 2.1469,-0.152 -0.1085,1.3967 -2.0964,2.7182 0.787,0.0167 1.4615,0.0362 1.8973,0.004 l -3.3385,1.6485 c -0.4635,0.0309 -0.2037,-0.347 0.2562,-0.8586 -0.2126,0.1502 -0.4147,0.2931 -0.5747,0.4055 -1.3415,0.1777 -0.8489,-0.4779 -0.105,-1.2085 0.4762,0 0.9527,0 1.4167,0 0.6993,-0.7556 1.3261,-1.5384 0.9923,-1.9031 -0.1954,0.1661 -0.6051,0.3957 -1.0692,0.6097 0.1813,-0.202 0.2857,-0.3619 0.1555,-0.3975 -0.1462,-0.0345 -0.4509,0.2586 -0.9526,0.6503 l -1.0853,-0.5317 -0.0751,0.3942 -4.7365,1.1299 c -2.9613,1.9989 -5.36,4.2294 -10.4132,6.4206 1.0681,-1.0601 -0.0762,-1.0778 -0.2616,-1.8132 1.6818,0.2449 3.8928,-1.7556 6.6282,-2.5661 -1.4269,0.425 -1.2417,-0.0258 -0.928,-0.2707 l -4.5357,2.3986 c -0.101,-0.6194 -1.1724,-0.0712 -2.5078,0.1366 1.3567,0.8092 -3.2899,2.0424 -5.1092,3.0926 -0.2594,-0.3424 0.0658,-0.9034 2.4731,-1.6617 -2.929,0.0751 -2.8999,2.5622 -5.7345,2.7499 0.5766,-0.2176 0.9097,-0.2703 1.0685,-0.5484 -1.2307,0.8282 -4.6384,1.7435 -3.9799,1.1288 l 0.5754,-0.2158 c -3.8969,1.2442 -11.717,4.1928 -11.9418,5.3739 -0.0838,-0.1126 0.083,-1.3565 0.2448,-1.637 l -5.6915,5.7437 c 0.3052,-1.0543 -2.7308,-2.2168 0.2909,-3.8342 -0.9585,0.2092 -2.1424,0.4765 -3.9681,1.4649 0.6677,-0.1051 1.9915,0.6521 1.1644,1.0351 -2.6779,-0.0918 -1.8061,0.0849 -4.9803,0.3265 1.001,-0.1572 0.4302,1.5314 -1.0663,2.0172 0.1613,-0.2793 -0.5874,-1.2527 -0.0941,-1.5824 l -3.2269,2.6045 c 0.8375,-0.561 -0.2282,-1.1512 -1.1833,-1.2217 0.4733,0.1164 -3.1964,1.1134 -4.1336,1.5917 l 1.6696,-0.2582 c -4.2329,1.29 -3.4648,3.2804 -7.6199,4.6861 0.4052,-0.4452 0.6499,-2.081 -1.5085,-1.4942 -0.7266,1.0043 -3.1293,4.6988 -6.6028,6.5106 l -0.8357,-0.1279 -2.651,1.4306 c 1.3919,-1.6171 5.5464,-5.4571 7.9318,-7.2247 -1.6645,0.2564 -0.5924,-0.2909 -2.9137,0.5759 -0.9503,-0.0604 1.0801,-0.9912 1.759,-1.2568 l -5.5129,1.7087 c 0.5168,0.686 -3.8785,2.2553 -3.4427,2.8237 l 5.6153,-2.9035 c 0.5134,0.6842 -2.6316,3.4059 -6.5296,4.6425 -1.0881,0.0424 0.2438,-1.6341 0.0717,-1.8629 -0.4047,0.4439 -3.4724,1.8101 -3.8929,1.7476 l 1.4858,-0.9945 c -2.2457,0.4743 -3.1329,2.2695 -5.9699,2.452 -0.9067,0.2661 -3.0083,-0.0522 -2.9997,0.4588 1.7632,0.3665 3.0147,2.9888 2.2827,3.9933 -0.3325,0.051 -4.9693,0.8137 -6.1394,0.7393 -1.7091,-0.1709 1.6146,-2.425 0.1572,-2.5759 0.0211,0.2299 -0.6959,0.7765 -1.0032,0.9796 -0.9974,0.1513 0.1548,-0.7899 -1.8406,0.0252 -0.0607,0.9022 -4.1508,1.3973 -0.725,1.0015 -1.9053,0.9274 -2.1663,0.5868 -4.4859,1.4477 0.9219,0.2426 -1.4826,2.4628 -3.3927,3.3909 0.0465,-0.2403 -0.492,-0.3406 -0.7502,-0.3826 -4.0947,1.3726 -6.4051,1.7919 -10.2021,3.1306 -0.4169,-0.0653 -2.3286,0.3545 -1.6685,-0.2593 -0.4965,0.332 -0.904,0.7749 -2.0683,1.2092 -2.5041,0.1266 2.5725,-1.0308 0.5582,-1.2315 0.0137,0.5081 -2.8054,1.6989 -4.3736,2.5702 0.7619,0.5219 3.9021,-1.223 5.4707,-2.1011 0.3506,0.9671 -2.1967,3.0124 -6.0092,4.8587 -3.0696,1.3537 -1.5888,-0.1434 -2.0877,0.1836 -5.9847,1.9214 -4.451,3.4758 -9.6183,4.5082 -2.1702,0.0689 -0.5214,-1.1988 -1.111,-1.4913 2.4876,-1.1415 4.0832,-0.9979 5.8165,-1.6346 l -2.2471,0.4645 c 0.7445,-0.4933 2.4049,-1.256 3.403,-1.4052 -1.8319,0.0229 -10.0479,3.4185 -14.7993,4.5197 -0.7394,0.4933 -2.066,1.1988 -1.3152,1.216 l 1.4162,-0.5965 c 1.5044,0.0288 -2.4801,1.6462 -0.568,1.2332 -1.817,1.0381 -3.7981,2.3573 -6.6315,3.0285 l -0.7611,-0.5221 c 0.1307,0.1836 1.934,-0.2065 2.6269,-0.6939 -1.0295,0.7112 -4.5261,0.5162 -5.4507,1.8756 l 2.0873,-0.1836 c -1.8251,1.0382 -3.9731,2.6327 -6.4739,3.2578 1.3462,0.3097 0.5305,-0.2753 2.5375,-0.0631 -1.8475,-0.4933 6.2134,-2.1279 3.4426,-2.3573 2.0975,0.3269 3.1981,-0.6653 5.7902,-0.671 -0.1532,-0.2067 -0.9734,-0.155 1.0989,-0.7572 0.0683,-0.1032 0.2541,-0.2639 0.3745,-0.3613 0.0643,-0.0174 0.0873,-0.0229 0.1429,-0.0344 l -0.1216,0.0114 c 0.0757,-0.0631 0.0814,-0.0745 -0.0448,0.006 -0.5202,0.0688 -0.9556,0.086 -1.1603,0.0116 0.8214,-0.8892 4.0598,-2.0077 5.0554,-2.673 1.2446,-0.3154 -0.4107,0.4475 0.335,0.4588 l 1.4873,-0.9865 c 0.3436,0.4588 3.5055,-0.2696 0.7715,1.0324 l 2.5649,-0.8775 c 1.6079,-0.2409 3.7191,-0.8547 4.9194,-1.5257 1.2459,-0.3097 2.8456,-1.6403 1.9376,-0.8661 l 3.8981,-1.7379 0.082,0.1205 c 3.9799,-1.3308 7.8451,-3.7226 12.6936,-4.4004 1.2854,-0.6024 2.6045,-1.2493 4.8833,-1.8928 l 0.5926,0.2924 c 1.6537,-0.7617 5.2911,-1.3736 5.8606,-2.0986 2.2697,0.5459 8.3892,-2.6798 11.4703,-3.5327 l -0.0928,-0.6222 c 2.0808,-0.7011 4.0063,-1.5688 6.491,-2.7147 l -0.3407,-0.4584 c 2.0626,-1.2114 5.8195,-1.6627 9.301,-2.9642 -0.168,0.2817 -1.0738,0.5466 -1.7447,0.6523 4.5959,-0.3293 8.5219,-3.9915 12.6162,-4.498 0.8781,-0.5237 1.5852,-0.7043 2.2942,-0.811 -0.0876,0.0327 -0.1629,0.0699 -0.2248,0.1106 0.0975,-0.0332 0.2421,-0.082 0.39,-0.1325 0.4493,-0.0602 0.9154,-0.1106 1.4103,-0.1943 -0.4398,0.0164 -0.8557,0.0486 -1.2022,0.1187 0.7252,-0.2707 1.8074,-0.7291 2.845,-1.2441 l 0.6591,0.3876 c 0.086,-0.0373 0.1548,-0.0664 0.2449,-0.1049 1.1358,-0.1754 0.761,-0.5666 0.0458,-0.7799 0.513,-0.2852 0.9739,-0.5725 1.314,-0.8445 1.1824,0.5838 2.7354,-1.314 4.2543,-0.7834 0.5643,-0.724 5.3227,-2.2914 5.551,-3.4725 0.0826,0.1137 0.4232,0.0603 -0.159,0.2766 1.2477,-0.3202 2.4934,-0.6424 3.4782,-1.3054 l 0.7629,0.5178 2.2983,-1.8888 c 1.7546,-0.1468 2.5071,-0.1359 1.1103,0.9746 3.5426,-2.2078 3.0033,-1.4304 5.9738,-3.4247 l 0.003,0.5108 c 1.1609,-0.4357 2.8087,-1.7125 3.6473,-1.5898 2.9201,-0.0739 12.961,-4.5134 19.9504,-6.1153 -1.7797,-0.8697 3.3307,-0.5187 3.2241,-1.6491 0.5035,0.1755 1.5021,0.019 0.5151,0.6831 3.3094,-1.5354 5.3175,-1.3467 7.364,-3.0698 0.5055,0.1768 -0.565,0.7273 -0.1491,0.7892 0.2494,-0.1674 0.9864,-0.6664 1.4104,-0.6061 0.4159,0.0625 -0.405,0.4457 -0.8965,0.7788 3.4724,-1.3122 3.4753,-2.4129 3.4,-3.4184 1.9257,-0.2053 2.7865,-0.5851 3.8481,-1.6444 0.7239,0.0763 1.8643,0.0189 -0.2666,0.9086 1.236,-0.3964 7.6134,-2.2502 7.4741,-3.0274 0.4492,0.0476 1.7254,-0.5609 2.0167,-0.7617 2.7542,-0.9435 3.0188,-0.9642 5.6836,-2.0036 l -0.7886,0.1493 c 0.7427,-1.2659 2.1639,-1.0027 4.2936,-1.8906 l -0.0293,0.113 c 5.2012,-1.1552 2.0363,-1.0794 7.203,-2.1204 l -0.465,-0.4532 c 0.0302,-1.3468 4.5969,-0.8695 7.2801,-2.3476 l -1.1409,0.0568 c 1.4084,-0.9654 4.9264,0.0413 6.5393,-0.3785 0.3775,-0.0208 -0.4772,0.3596 -0.9247,0.6079 4.3372,-0.784 0.2691,-0.9119 3.2529,-2.1819 0.7022,0.184 -0.3666,1.2488 1.708,0.5788 1.1345,-0.0558 5.4874,-3.4138 8.5519,-3.6823 -0.7244,-0.0764 -1.4443,-0.1531 -0.1117,-0.8901 2.1284,-0.892 6.2685,-0.9929 7.8841,-2.6448 0.3054,-0.0184 0.4377,0.0224 0.4756,0.0923 1.5688,-0.8438 5.2372,-2.355 6.05,-3.228 2.2188,1.3427 9.964,-4.6545 10.5616,-2.8919 l 5.062,-1.9405 -0.0685,0.2272 c 3.2994,-1.0653 4.2983,-1.9015 5.2913,-2.7359 0.7963,-0.1543 0.3056,0.2081 0.2764,0.3223 4.888,-1.3703 5.3313,-1.6238 9.0034,-3.9455 l 0.6212,0.4162 c 0.9607,-0.7232 7.2,-1.615 11.6245,-3.9752 -0.0226,0.0808 -0.0792,0.226 -0.4205,0.4404 5.0064,-2.5772 13.1381,-3.0026 14.3089,-5.7689 l 3.2781,-1.7707 c -4.5394,1.4717 0.3405,-1.1396 -1.6275,-0.811 1.7182,-0.7629 4.7825,-1.0363 2.6557,-0.1416 l -0.3761,0.02 c -0.4033,1.3662 5.7068,-1.646 5.8536,-0.8695 8.7981,-3.2643 17.6109,-5.7953 25.8807,-8.7761 l -1.2564,-0.4888 2.8964,-1.0061 c 0.827,-0.0814 1.2536,0.2841 -0.8135,1.0009 1.254,0.0786 3.3003,-1.658 3.2923,-1.8611 4.146,-1.1336 -1.2148,1.5503 0.0264,1.1189 l 1.652,-0.6757 -0.4136,0.0408 c 1.2331,-0.8393 1.221,-1.2452 3.7052,-2.1078 1.6234,-0.4045 0.99,0.2231 1.6169,0.0305 0.0177,0.0599 0.2358,0.012 0.9515,-0.3213 l 3.6544,-1.2567 -1.6928,-0.1297 c 1.4893,-0.9137 3.4237,-1.2135 1.4764,-1.3496 2.8794,0.2546 13.6831,-4.538 15.3228,-4.7319 2.0761,-1.3055 4.3019,-2.1107 7.0768,-3.0606 -0.7351,0.1129 -1.4166,-0.4794 0.9911,-1.2577 -0.3066,1.8502 4.5932,-0.9265 6.9168,-0.5272 -1.9833,-0.1029 6.686,-2.6516 3.6133,-2.7044 2.0273,-0.6013 0.331,0.5294 1.9668,0.3401 4.4993,-2.3196 10.5314,-3.4322 16.2855,-5.7734 0.0172,-0.2346 -1.0715,-0.1836 0.0681,-0.9426 l 3.4462,-0.1256 c 1.1144,-0.5219 0.6331,-1.5503 2.9922,-1.6254 -0.359,-0.0603 -0.8965,-0.152 -0.1479,-0.5001 11.7755,-3.2178 23.0304,-9.3796 35.2992,-11.8019 -1.7093,0.1875 -0.6769,-0.2357 0.5162,-0.6911 -0.8143,0.194 -0.1664,-0.5031 -0.4189,-0.7193 l 5.128,-1.0277 c 0.6079,-1.0814 5.1849,-1.9645 5.4257,-2.8737 l -1.4852,0.6952 c 1.7263,-1.6049 -3.5621,-0.8443 -3.6654,-2.0494 -1.9326,1.812 -6.5616,0.783 -9.808,3.5515 -0.912,0.0815 0.5793,-0.6124 0.0401,-0.7032 -0.78,0.8192 -1.8928,1.3394 -4.0952,1.9124 l 0.195,-0.2049 c -5.941,2.3151 -8.677,2.7957 -15.5128,4.9592 l 0.6972,0.3584 c -1.4712,0.4588 -1.838,0.4009 -2.5641,0.5139 -1.356,1.4305 4.0745,-1.4459 2.8971,0.015 -2.3217,-0.3975 -10.1935,3.7294 -11.9487,2.9534 -2.2246,0.8103 0.8822,0.3871 -1.3421,1.1969 l -0.7134,-0.1227 -0.4015,0.6435 c -1.4831,0.4635 -2.3736,0.3104 -2.5336,0.0431 0.3662,-0.0958 0.9751,-0.4497 1.345,-0.6138 -2.0355,0.2959 -5.2768,2.0953 -5.9736,2.2037 l 2.2124,-0.5765 c -5.9496,2.5443 -13.5146,4.8312 -19.1253,7.6624 l 0.5388,0.093 c -4.3037,2.1105 -3.689,1.0312 -8.5241,3.0489 l 0.1566,-0.1261 c -0.8905,0.6142 -2.1572,1.2241 -3.5131,1.6868 1.1318,-0.7536 -2.5483,0.2732 -1.0416,-0.6537 -4.6681,2.2836 -2.2553,1.2772 -5.1134,3.4006 l -0.8945,-0.1531 c -0.9522,0.7835 -0.9695,1.0192 -3.3843,2.0276 1.8805,-1.1014 -1.8032,-0.0729 0.2759,-1.3796 -5.4905,0.958 -7.3061,3.7358 -10.166,3.2441 -1.9356,2.0402 4.6964,-0.9796 3.4632,-0.243 1.25,-0.0225 -1.6317,1.5915 -3.291,2.0653 -1.6552,0.5764 -3.3474,-0.4772 -7.4789,1.0601 0.4141,-0.1452 0.4096,-0.2444 0.8219,-0.3896 -1.6579,0.2673 -2.8867,1.5166 -4.9647,1.7254 -0.8058,1.0994 -2.4824,0.862 -2.4583,1.8795 l 3.7209,-1.5992 c -2.0661,1.0251 -3.6975,2.8233 -7.432,3.6073 0.2102,-0.2841 1.1776,-0.9103 1.8532,-1.3095 -1.1342,0.1124 -1.9324,0.908 -3.1071,1.0272 -0.0248,-1.0191 4.5422,-1.8863 6.5962,-3.4213 -1.2524,0.0247 -4.1229,2.253 -3.3221,0.8473 -1.2102,1.8577 -4.1366,1.3353 -6.5915,3.314 l -0.0131,-0.6104 c -0.4124,0.2478 -1.2378,0.8404 -2.0592,1.1254 l 1.2207,-1.2446 c -2.0504,1.43 -4.5664,1.0783 -6.6254,2.1967 4.5537,-1.6793 1.2623,0.2812 3.3346,-0.0268 -5.3582,2.7788 -3.7528,-0.2409 -9.9548,2.3143 0.8248,-0.3873 3.3199,-0.8398 2.078,-0.1026 -1.2387,0.3245 -2.8981,0.6928 -3.7379,0.6762 -4.1311,1.6323 0.8444,0.3251 -0.81,1.3054 -1.6619,-0.1439 -1.9507,1.0158 -3.7024,1.8933 l -0.2144,-0.5473 c -4.8833,1.3778 -0.8408,1.6096 -5.2774,2.7408 l 1.5304,-1.4243 -2.1595,1.0106 0.2317,-0.7957 c -2.258,1.3497 -3.0584,1.5046 -5.5006,2.1953 0.6941,0.1874 0.054,1.115 -2.046,1.899 -1.5552,0.1951 0.6138,-0.8173 -2.3429,0.3487 0.5484,-0.5908 1.1287,-1.2933 2.6131,-1.2584 0.0672,-0.2282 0.538,-0.5884 0.6104,-0.8162 -1.684,0.1865 -3.9181,1.3302 -4.997,1.7288 0.4239,-0.1309 0.9315,-0.2827 1.2154,-0.2965 l -4.0489,2.3412 c -0.7562,0.0408 -0.2764,-0.3229 0.1991,-0.6807 -0.8547,0.379 -1.3686,0.8534 -2.6402,1.3702 0.1704,-0.5702 -0.0781,-1.0043 1.6691,-1.8801 l -3.9413,1.9995 c -0.3466,-0.0948 -2.3113,0.2351 -1.8364,-0.125 -2.3811,0.5682 -5.2894,2.9125 -8.4462,3.6679 -0.1262,0.1444 -0.4118,0.3429 -1.0324,0.6417 -2.8858,0.9344 -5.6073,1.3072 -8.7613,3.1461 l -2.2086,-0.1102 c -2.5788,1.1415 2.9622,0.0734 -1.3316,1.9731 -3.0252,1.3869 -1.4132,-0.2644 -2.5884,-0.0917 -1.4034,0.9676 -3.7999,2.7703 -6.9024,3.1535 0.8934,-0.4957 1.68,-0.6459 2.544,-1.0267 z" />
  <path
     id="path172"
     style="fill:#43301e;fill-rule:evenodd;stroke:#000000;stroke-width:1.49979997;stroke-linecap:butt;stroke-linejoin:miter;stroke-dasharray:none"
     d="m 369.97049,477.53273 c 0.2128,0.0286 0.2993,0.1136 0.3785,0.2026 0.2158,-0.1824 0.1819,-0.2914 -0.3785,-0.2026 z" />
  <path
     id="path174"
     style="fill:#43301e;fill-rule:evenodd;stroke:#000000;stroke-width:1.49979997;stroke-linecap:butt;stroke-linejoin:miter;stroke-dasharray:none"
     d="m 466.42779,441.24713 0.1016,-0.0306 c 0.0422,-0.0526 0.0588,-0.0969 0.0629,-0.1357 l -0.1645,0.1663 z" />
  <path
     id="path176"
     style="fill:#43301e;fill-rule:evenodd"
     d="m 268.36279,513.52143 c 0.6326,-0.1343 1.0053,-0.1527 1.2669,-0.1273 -0.0155,-0.147 -0.3304,-0.1641 -1.2669,0.1273 z" />
  <path
     id="path178"
     style="fill:#43301e;fill-rule:evenodd"
     d="m 209.29299,540.72053 1.8332,-0.8028 c -0.9011,0.3498 -1.2694,0.3383 -1.7597,0.4129 0.0871,0.1147 0.5128,0.1777 -0.0735,0.3899 z" />
  <path
     id="path180"
     style="fill:#43301e;fill-rule:evenodd"
     d="m 191.74579,543.01493 c -0.2512,0.1664 -0.581,0.2122 -0.8282,0.3785 l 0.1652,0.2294 c 1.1666,-0.4243 1.9133,-0.9233 0.663,-0.6079 z" />
  <path
     id="path182"
     style="fill:#43301e;fill-rule:evenodd"
     d="m 206.90359,539.49313 c -0.3133,-0.4129 -1.4385,0.155 -2.7274,0.7055 0.0786,-0.0286 0.1525,-0.0631 0.2335,-0.0801 -0.1606,0.7856 1.1695,0.0801 2.4939,-0.6254 z" />
  <path
     id="path184"
     style="fill:#43301e;fill-rule:evenodd"
     d="m 203.87579,540.31913 c -0.3987,0.1663 -0.8094,0.3213 -1.2155,0.4417 -0.0625,0.3153 0.5139,-0.1204 1.2155,-0.4417 z" />
  <path
     id="path186"
     style="fill:#43301e;fill-rule:evenodd"
     d="m 220.91809,535.92553 c -0.6669,0.1033 -0.1824,0.7343 -0.6029,0.6712 -0.489,0.8373 3.9153,-2.1854 0.6029,-0.6712 z" />
  <path
     id="path188"
     style="fill:#43301e;fill-rule:evenodd"
     d="m 205.29689,538.32893 0.6746,0.4129 0.5764,-0.7227 -1.251,0.3098 z" />
  <path
     id="path190"
     style="fill:#43301e;fill-rule:evenodd"
     d="m 215.85869,535.09963 -2.1624,0.5851 c 0.066,0.086 -0.1817,0.2351 -0.4955,0.3899 1.3054,-0.4359 2.7669,-0.8201 2.6579,-0.975 z" />
  <path
     id="path192"
     style="fill:#43301e;fill-rule:evenodd"
     d="m 213.20079,536.07463 c -0.6808,0.2296 -1.3199,0.4647 -1.6635,0.6941 0.3644,-0.1377 1.145,-0.4302 1.6635,-0.6941 z" />
  <path
     id="path194"
     style="fill:#43301e;fill-rule:evenodd"
     d="m 208.11719,537.14733 0.6654,-0.0977 1.5027,-0.4817 -2.1681,0.5794 z" />
  <path
     id="path196"
     style="fill:#43301e;fill-rule:evenodd"
     d="m 238.53869,527.23023 2.241,-0.9732 c 0.1642,-0.28 -0.5047,-0.1802 -1.3329,0.199 -0.5019,0.3326 -1.3279,0.7111 -0.9081,0.7742 z" />
  <path
     id="path198"
     style="fill:#43301e;fill-rule:evenodd"
     d="m 231.03149,528.10793 c 0.664,-0.1033 0.7506,0.0113 1.1682,0.0803 l -0.1818,-0.7401 -0.9864,0.6598 z" />
  <path
     id="path200"
     style="fill:#43301e;fill-rule:evenodd"
     d="m 237.67559,525.57673 c 0.1588,-0.2782 3.1351,-1.7431 0.2373,-0.6716 -0.1633,0.2782 -2.4077,1.2537 -0.2373,0.6716 z" />
  <path
     id="path202"
     style="fill:#43301e;fill-rule:evenodd"
     d="m 272.60829,514.21713 -0.5811,0.2162 0.4996,1.1391 0.0815,-1.3553 z" />
  <path
     id="path204"
     style="fill:#43301e;fill-rule:evenodd"
     d="m 302.09949,500.55803 c -2.8197,0.6901 -0.389,0.9517 -2.9712,1.4788 -0.5401,0.5035 2.1102,-0.4314 1.5413,0.0408 1.5377,-0.877 2.4583,-1.0199 1.4299,-1.5196 z" />
  <path
     id="path206"
     style="fill:#43301e;fill-rule:evenodd"
     d="m 300.66959,502.07763 c -0.2467,0.1393 -0.5053,0.2948 -0.7751,0.476 0.4499,-0.2427 0.6535,-0.378 0.7751,-0.476 z" />
  <path
     id="path208"
     style="fill:#43301e;fill-rule:evenodd;stroke:#000000;stroke-width:1.49979997;stroke-linecap:butt;stroke-linejoin:miter;stroke-dasharray:none"
     d="m 645.86259,382.30073 1.8356,-0.3987 -1.2736,0.0231 -0.562,0.3756 z" />
  <path
     id="path210"
     style="fill:#43301e;fill-rule:evenodd;stroke:#000000;stroke-width:1.49979997;stroke-linecap:butt;stroke-linejoin:miter;stroke-dasharray:none"
     d="m 648.89119,380.20663 0.6824,0.5908 0.803,-1.056 c -0.3843,0.1779 -1.1243,0.5226 -1.4854,0.4652 z" />
  <path
     id="path212"
     style="fill:#43301e;fill-rule:evenodd;stroke:#000000;stroke-width:1.49979997;stroke-linecap:butt;stroke-linejoin:miter;stroke-dasharray:none"
     d="m 408.36289,461.34253 -0.068,0.2271 c 0.34,0.0953 0.7539,-0.0377 1.5833,-0.3043 l -1.5153,0.0772 z" />
  <path
     id="path214"
     style="fill:#43301e;fill-rule:evenodd;stroke:#000000;stroke-width:1.49979997;stroke-linecap:butt;stroke-linejoin:miter;stroke-dasharray:none"
     d="m 432.24199,453.31773 -0.413,0.1327 1.0046,0.396 -0.5916,-0.5287 z" />
  <path
     id="path216"
     style="fill:#43301e;fill-rule:evenodd;stroke:#000000;stroke-width:1.49979997;stroke-linecap:butt;stroke-linejoin:miter;stroke-dasharray:none"
     d="m 451.80289,445.25913 c -0.8215,0.266 -1.7203,0.7612 -2.5451,1.0279 1.7236,-0.7619 3.0687,-0.2696 2.5451,-1.0279 z" />
</svg>
