<?xml version="1.0" encoding="UTF-8" standalone="no"?>
<svg
   xmlns:dc="http://purl.org/dc/elements/1.1/"
   xmlns:cc="http://creativecommons.org/ns#"
   xmlns:rdf="http://www.w3.org/1999/02/22-rdf-syntax-ns#"
   xmlns:svg="http://www.w3.org/2000/svg"
   xmlns="http://www.w3.org/2000/svg"
   viewBox="0 0 707.66596 617.20032"
   id="svg2"
   height="617.20032"
   width="707.66595"
   version="1.1">
  <metadata
     id="metadata184">
    <rdf:RDF>
      <cc:Work
         rdf:about="">
        <dc:format>image/svg+xml</dc:format>
        <dc:type
           rdf:resource="http://purl.org/dc/dcmitype/StillImage" />
        <dc:title></dc:title>
      </cc:Work>
    </rdf:RDF>
  </metadata>
  <defs
     id="defs182" />
  <g
     transform="translate(-4.4026506,-2.000572)"
     id="Layer1000" />
  <path
     id="path5"
     style="fill:#d7dde8;fill-rule:evenodd"
     d="m 199.46265,82.836028 c -90.2041,-8.3695 -122.0549,0.6975 -152.0452,40.452302 -29.9904,39.7547 -25.1084,101.8284 -5.5795,124.1468 -25.1084,20.9239 -59.9817,106.013 -30.6884,167.3891 29.2934,61.3762 118.5674,80.9051 175.7586,86.4846 13.9495,51.6117 55.6955,107.1781 122.7524,114.3824 67.0569,7.2043 99.0385,-11.1589 149.2552,-59.9807 81.8346,6.5095 148.3764,-3.5623 173.4848,-34.2502 25.1083,-30.6878 34.1368,-87.1029 14.8277,-134.5339 39.2197,-22.1454 64.1657,-32.0834 59.9812,-104.6185 -4.1844,-72.5351 -40.4523,-108.8029 -83.6945,-125.5418 -4.185,-51.6118 -20.2702,-72.107602 -57.9325,-94.425902 -37.6623,-22.3184 -107.4169,-13.6416 -133.2233,6.5843 -19.5289,-34.8723 -58.0163,-62.5624 -114.3291,-68.38810005 C 261.71715,-5.289272 211.55205,37.269228 199.46265,82.836028 Z" />
  <path
     id="path7"
     style="fill:#ffffff;fill-rule:evenodd;stroke:#000000;stroke-width:1.49979997;stroke-linecap:butt;stroke-linejoin:miter;stroke-dasharray:none"
     d="m 124.27675,480.94703 c -1.2954,-1.8058 -1.9798,-3.6828 -1.9798,-5.6097 l 0,-8.1333 c -7.3326,3.8423 -11.5448,8.3208 -11.5448,13.1036 0,0.2137 0.009,0.4269 0.026,0.6394 l 13.4986,0 z" />
  <path
     id="path9"
     style="fill:#ffffff;fill-rule:evenodd;stroke:#000000;stroke-width:1.49979997;stroke-linecap:butt;stroke-linejoin:miter;stroke-dasharray:none"
     d="m 255.68085,473.35143 c -12.4196,4.1318 -30.147,6.7179 -49.8307,6.7179 -3.0937,0 -6.1371,-0.0645 -9.121,-0.189 -31.7673,-0.3866 -58.9766,-6.2549 -72.0002,-14.6297 5.2595,6.5927 18.711,12.1879 36.8238,15.6964 l 88.5943,0 c 23.5755,-4.5659 39.2562,-12.6665 39.2562,-21.8993 0,-3.3362 -2.0471,-6.5245 -5.7723,-9.4511 l 0,4.4806 c 0,7.6624 -10.8015,14.5445 -27.9501,19.2742 z" />
  <path
     id="path11"
     style="fill:#ffffff;fill-rule:evenodd;stroke:#000000;stroke-width:1.49979997;stroke-linecap:butt;stroke-linejoin:miter;stroke-dasharray:none"
     d="m 200.07785,463.61283 c 35.0832,0 65.1111,-6.6852 77.4933,-16.1571 -15.0689,6.7563 -40.276,11.1868 -68.835,11.1868 l -0.0666,0 c -2.8136,0.109 -5.6812,0.1659 -8.5917,0.1659 -26.8049,0 -49.9846,-4.7941 -61.0646,-11.7586 -8.7373,-4.0814 -13.8302,-8.9732 -13.8302,-14.2339 l 0,-4.1008 c -0.7821,-0.2713 -1.5481,-0.5482 -2.2929,-0.8296 -4.0987,3.0488 -6.3655,6.3933 -6.3655,9.9007 0,14.2637 37.4077,25.8266 83.5532,25.8266 z" />
  <path
     id="path13"
     style="fill:#ffffff;fill-rule:evenodd;stroke:#000000;stroke-width:1.49979997;stroke-linecap:butt;stroke-linejoin:miter;stroke-dasharray:none"
     d="m 292.28935,432.81593 0,-16.2897 c 0,14.2628 -37.4077,25.8253 -83.5532,25.8253 -23.8071,-2e-4 -45.2881,-3.0772 -60.5076,-8.0156 11.7366,1.9429 25.146,3.0465 39.3905,3.0465 3.1084,0 6.1745,-0.0548 9.1948,-0.1562 3.8712,0.211 7.8543,0.3215 11.9223,0.3215 37.5609,0 68.0106,-9.4119 68.0106,-21.0215 0,-2.9659 -1.9908,-5.7867 -5.5746,-8.3444 l 0,-8.8155 0,-4.1008 c 0,14.2637 -37.4079,25.8259 -83.5531,25.8259 -38.1901,0 -70.3953,-7.92 -80.3637,-18.7364 13.6645,7.983 40.4652,13.4854 71.5067,13.7556 2.8992,0.1163 5.8553,0.177 8.857,0.177 21.4568,0 40.5886,-3.0725 53.0538,-7.8704 14.8583,-4.6623 24.0311,-11.0606 24.0311,-18.1222 l 0,-5.0088 0,-11.2808 c 0,14.2629 -37.4086,25.8253 -83.5531,25.8253 -46.1454,-2e-4 -83.5534,-11.5624 -83.5534,-25.8253 l 0,16.2896 c 0,3.5378 2.3038,6.9089 6.4689,9.98 l 0,11.2809 c 0,6.1955 7.0597,11.8792 18.8238,16.3296 0.7448,0.2814 1.5108,0.5583 2.2929,0.8296 l 0,4.1008 c 0,5.2607 5.0926,10.1525 13.8302,14.2339 11.08,6.9645 34.2595,11.7586 61.0646,11.7586 2.9105,0 5.7778,-0.0569 8.5917,-0.1659 l 0.0666,0 c 28.559,0 53.7661,-4.4305 68.835,-11.1868 -12.382,9.4719 -42.4101,16.1571 -77.4933,16.1571 -46.1453,0 -83.5532,-11.5629 -83.5532,-25.8266 l 0,16.291 c 0,3.3348 2.0469,6.5231 5.7723,9.4497 l 0,3.6771 0,8.1333 c 0,1.9269 0.6844,3.8039 1.9798,5.6097 l 37.276,0 c -18.1128,-3.5085 -31.5643,-9.1037 -36.8238,-15.6964 13.0236,8.3748 40.2329,14.2431 72.0002,14.6297 2.9839,0.1245 6.0273,0.189 9.121,0.189 19.6839,0 37.4109,-2.5861 49.8307,-6.7179 17.1486,-4.7297 27.9501,-11.6118 27.9501,-19.2742 l 0,-4.4806 0,-5.323 c 5.5388,-3.4526 8.6584,-7.3422 8.6584,-11.4577 z m -181.5112,48.1311 c -0.0168,-0.2125 -0.026,-0.4257 -0.026,-0.6394 l 0,0.6394 0.026,0 z m 176.6463,0 c 1.2952,-1.806 1.9788,-3.683 1.9788,-5.6097 l 0,-16.2896 c 0,9.2328 -15.6807,17.3334 -39.2562,21.8993 l 37.2774,0 z" />
  <path
     id="path15"
     style="fill:#ffffff;fill-rule:evenodd;stroke:#000000;stroke-width:1.49979997;stroke-linecap:butt;stroke-linejoin:miter;stroke-dasharray:none"
     d="m 276.74675,416.52623 c 0,11.6096 -30.4497,21.0215 -68.0106,21.0215 -4.0677,0 -8.0513,-0.1105 -11.9223,-0.3215 -3.0203,0.1014 -6.0864,0.1562 -9.1948,0.1562 -14.2443,0 -27.6539,-1.1036 -39.3905,-3.0465 15.2195,4.9384 36.7005,8.0156 60.5076,8.0156 46.1455,-2e-4 83.5532,-11.5625 83.5532,-25.8253 0,-6.5873 -7.9838,-12.5978 -21.1172,-17.1599 l 0,8.8155 c 3.584,2.5577 5.5746,5.3785 5.5746,8.3444 z" />
  <path
     id="path17"
     style="fill:#ffffff;fill-rule:evenodd;stroke:#000000;stroke-width:1.49979997;stroke-linecap:butt;stroke-linejoin:miter;stroke-dasharray:none"
     d="m 240.67285,408.41723 c -12.4652,4.7979 -31.5973,7.8704 -53.0538,7.8704 -3.0017,0 -5.9578,-0.0607 -8.857,-0.177 -31.0415,-0.2704 -57.8422,-5.7726 -71.5067,-13.7556 9.9684,10.8164 42.1736,18.7364 80.3637,18.7364 46.1454,0 83.5531,-11.5622 83.5531,-25.8259 0,-3.5379 -2.3035,-6.909 -6.4682,-9.9793 l 0,5.0088 c 0,7.0616 -9.1728,13.4601 -24.0311,18.1222 z" />
  <path
     id="path19"
     style="fill:#ffffff;fill-rule:evenodd;stroke:#000000;stroke-width:1.49979997;stroke-linecap:butt;stroke-linejoin:miter;stroke-dasharray:none"
     d="m 97.59745,374.00463 0,8e-4 0,-8e-4 z" />
  <path
     id="path21"
     style="fill:#ffffff;fill-rule:evenodd;stroke:#000000;stroke-width:1.49979997;stroke-linecap:butt;stroke-linejoin:miter;stroke-dasharray:none"
     d="m 264.70395,374.00463 0,8e-4 0,-8e-4 z" />
  <path
     id="path23"
     style="fill:#ffffff;fill-rule:evenodd;stroke:#000000;stroke-width:1.49979997;stroke-linecap:butt;stroke-linejoin:miter;stroke-dasharray:none"
     d="m 181.15085,352.98323 c 37.5609,0 68.0104,9.4119 68.0104,21.0222 2e-4,11.6097 -30.4495,21.0215 -68.0104,21.0215 -37.5618,0 -68.0113,-9.4118 -68.0113,-21.0215 0,-11.6105 30.4495,-21.0222 68.0113,-21.0222 z m 0,46.8475 c 46.1445,-2e-4 83.5531,-11.5624 83.5531,-25.8253 l 0,-8e-4 c -9e-4,-14.2629 -37.4086,-25.8251 -83.5531,-25.8251 -46.1454,0 -83.5529,11.5622 -83.5534,25.8253 l 0,6e-4 c 0,14.2629 37.408,25.8253 83.5534,25.8253 z" />
  <path
     id="path25"
     style="fill:#ffffff;fill-rule:evenodd;stroke:#000000;stroke-width:1.49979997;stroke-linecap:butt;stroke-linejoin:miter;stroke-dasharray:none"
     d="m 181.15085,395.02693 c 37.5609,0 68.0104,-9.4118 68.0104,-21.0215 2e-4,-11.6105 -30.4495,-21.0222 -68.0104,-21.0222 -37.5618,0 -68.0113,9.4119 -68.0113,21.0222 0,11.6097 30.4495,21.0215 68.0113,21.0215 z" />
  <path
     id="path27"
     style="fill:#ffffff;fill-rule:evenodd;stroke:#000000;stroke-width:1.49979997;stroke-linecap:butt;stroke-linejoin:miter;stroke-dasharray:none"
     d="m 432.99875,474.49223 0,-16.2904 c 0,9.8341 17.7826,18.3832 43.949,22.7452 l -41.3145,0 c -1.7191,-2.0628 -2.6348,-4.2255 -2.6345,-6.4548 z m 123.1554,6.4548 c 14.1446,-2.3585 25.8388,-5.9406 33.5992,-10.2875 -15.2767,5.1607 -37.2434,8.3977 -61.6571,8.3977 -0.8792,0 -1.7555,-0.006 -2.6281,-0.0132 -2.9183,0.1178 -5.8944,0.1793 -8.9172,0.1793 -33.0386,0 -60.5713,-7.2823 -66.7221,-16.9378 -3.4143,-2.8172 -5.2864,-5.8675 -5.2864,-9.0542 l 0,-8.1332 0,-8.157 c 0,14.2637 37.4079,25.8259 83.5538,25.8259 46.145,0 83.5525,-11.5622 83.5525,-25.8259 l 9e-4,0 0,16.2902 c 0,4.783 -4.2129,9.2615 -11.5456,13.103 l 0,1.6705 0,6.4874 c 0,2.2288 -0.9145,4.3918 -2.6334,6.4548 l -41.3165,0 z m 52.4678,0 c 0.0902,-0.4916 0.1407,-0.9867 0.1407,-1.4852 l 0,1.4852 -0.1407,0 z" />
  <path
     id="path29"
     style="fill:#ffffff;fill-rule:evenodd;stroke:#000000;stroke-width:1.49979997;stroke-linecap:butt;stroke-linejoin:miter;stroke-dasharray:none"
     d="m 449.82885,462.28553 c 6.151,9.6555 33.6833,16.9378 66.7221,16.9378 3.0228,0 5.9986,-0.0615 8.9172,-0.1793 0.8731,0.007 1.7484,0.0132 2.6281,0.0132 24.4139,0 46.3799,-3.237 61.6571,-8.3977 -7.7602,4.3469 -19.4546,7.929 -33.5992,10.2875 l -79.2064,0 c -26.1664,-4.362 -43.9493,-12.9111 -43.9493,-22.7452 3e-4,-4.783 4.2122,-9.2616 11.544,-13.1037 l 0,8.1332 c 0,3.1867 1.8721,6.2372 5.2864,9.0542 z" />
  <path
     id="path31"
     style="fill:#ffffff;fill-rule:evenodd;stroke:#000000;stroke-width:1.49979997;stroke-linecap:butt;stroke-linejoin:miter;stroke-dasharray:none"
     d="m 528.09655,462.76703 c -46.1462,0 -83.5541,-11.5622 -83.5541,-25.8259 0,-1.0667 0.2141,-2.1178 0.6202,-3.1505 2.5143,11.1614 27.9697,20.3681 61.8931,23.1452 6.6264,0.6659 13.6959,1.0274 21.0405,1.0274 6.1383,0 12.0837,-0.2526 17.7404,-0.7244 34.5812,-2.2549 61.2752,-11.1194 65.6028,-22.1172 0.1357,0.601 0.2093,1.2076 0.2093,1.8195 0,14.2637 -37.4079,25.8259 -83.5522,25.8259 z" />
  <path
     id="path33"
     style="fill:#ffffff;fill-rule:evenodd;stroke:#000000;stroke-width:1.49979997;stroke-linecap:butt;stroke-linejoin:miter;stroke-dasharray:none"
     d="m 545.83685,457.23883 c -5.6569,0.4718 -11.6028,0.7244 -17.7406,0.7244 -7.3444,0 -14.4145,-0.3615 -21.0405,-1.0274 -33.9234,-2.7771 -59.379,-11.9836 -61.8931,-23.1452 -0.135,-0.6016 -0.2093,-1.2073 -0.2093,-1.8192 l 2e-4,-16.2904 c 0,14.2629 37.4077,25.826 83.5532,25.826 46.1457,0 83.5529,-11.5631 83.5529,-25.826 l 2e-4,16.2904 c 0,1.0658 -0.2141,2.117 -0.6204,3.1502 -4.3273,10.9978 -31.0216,19.8623 -65.6026,22.1172 z" />
  <path
     id="path35"
     style="fill:#ffffff;fill-rule:evenodd;stroke:#000000;stroke-width:1.49979997;stroke-linecap:butt;stroke-linejoin:miter;stroke-dasharray:none"
     d="m 596.51755,415.68103 c 0,11.6097 -30.4502,21.0207 -68.0108,21.0207 -37.5616,0 -68.0106,-9.411 -68.0106,-21.0207 2e-4,-11.6105 30.4488,-21.0221 68.0106,-21.0221 37.5609,-3e-4 68.0103,9.4118 68.0103,21.0221 z m 15.5423,0 c 0,-14.2637 -37.4079,-25.8268 -83.5531,-25.8268 -46.1455,0 -83.5534,11.5631 -83.5534,25.8268 2e-4,14.2629 37.4079,25.826 83.5534,25.826 46.1457,0 83.5529,-11.5631 83.5531,-25.826 z" />
  <path
     id="path37"
     style="fill:#ffffff;fill-rule:evenodd;stroke:#000000;stroke-width:1.49979997;stroke-linecap:butt;stroke-linejoin:miter;stroke-dasharray:none"
     d="m 528.50675,436.70173 c -37.5616,0 -68.0106,-9.411 -68.0106,-21.0207 2e-4,-11.6105 30.4488,-21.0221 68.0106,-21.0221 37.5609,-3e-4 68.0103,9.4118 68.0103,21.0221 5e-4,11.6097 -30.4497,21.0207 -68.0103,21.0207 z" />
  <path
     id="path39"
     style="fill:#ffffff;fill-rule:evenodd;stroke:#000000;stroke-width:1.49979997;stroke-linecap:butt;stroke-linejoin:miter;stroke-dasharray:none"
     d="m 264.70305,373.93653 c 0,-8e-4 0,-0.003 0,-0.004 0,0.001 0,0.003 0,0.004 z" />
  <path
     id="path41"
     style="fill:#ffffff;fill-rule:evenodd;stroke:#000000;stroke-width:1.49979997;stroke-linecap:butt;stroke-linejoin:miter;stroke-dasharray:none"
     d="m 248.98145,372.46693 c -0.6234,-0.9312 -1.0606,-1.8807 -1.2998,-2.8436 0.6356,0.9272 1.0735,1.8754 1.2998,2.8436 z" />
  <path
     id="path43"
     style="fill:#ffffff;fill-rule:evenodd;stroke:#000000;stroke-width:1.49979997;stroke-linecap:butt;stroke-linejoin:miter;stroke-dasharray:none"
     d="m 289.40325,472.39373 c -0.8707,-0.4267 -1.7036,-0.8615 -2.4947,-1.3052 0.8133,0.2748 1.6441,0.5436 2.4947,0.8073 l 0,0.4979 z m 2.8651,-38.9964 c -3.9264,-1.3467 -7.3994,-2.8201 -10.3484,-4.4008 0.4275,-0.2385 0.8426,-0.48 1.2461,-0.7236 2.8131,0.98 5.8628,1.8934 9.1226,2.7318 l 0,1.8112 c 0,0.194 -0.007,0.3881 -0.0203,0.5814 z" />
  <path
     id="path45"
     style="fill:#ffffff;fill-rule:evenodd;stroke:#000000;stroke-width:1.49979997;stroke-linecap:butt;stroke-linejoin:miter;stroke-dasharray:none"
     d="m 281.92015,428.99653 c -1.9216,-1.0295 -3.6213,-2.1044 -5.0765,-3.2176 1.9436,0.8718 4.0558,1.7043 6.3224,2.494 -0.4035,0.2436 -0.8188,0.4851 -1.2459,0.7236 z" />
  <path
     id="path47"
     style="fill:#ffffff;fill-rule:evenodd;stroke:#000000;stroke-width:1.49979997;stroke-linecap:butt;stroke-linejoin:miter;stroke-dasharray:none"
     d="m 471.05195,480.94703 -18.729,0 0,-1.0549 c 0,0.3533 -0.0231,0.7044 -0.0685,1.0549 l -10.8791,0 c 1.4962,-1.9333 2.2881,-3.9505 2.2881,-6.0261 l 0,-4.0844 c 6.6393,3.6519 16.0635,6.7534 27.3885,9.0297 l 0,1.0808 z" />
  <path
     id="path49"
     style="fill:#ffffff;fill-rule:evenodd;stroke:#000000;stroke-width:1.49979997;stroke-linecap:butt;stroke-linejoin:miter;stroke-dasharray:none"
     d="m 432.99875,458.14553 c 0.0325,-4.7616 4.2403,-9.2208 11.5437,-13.0474 -7.3034,3.8274 -11.5112,8.2858 -11.5437,13.0474 z" />
  <path
     id="path51"
     style="fill:#ffffff;fill-rule:evenodd;stroke:#000000;stroke-width:1.49979997;stroke-linecap:butt;stroke-linejoin:miter;stroke-dasharray:none"
     d="m 444.95355,415.68103 c 0,-0.007 -2e-4,-0.0141 -2e-4,-0.0208 2e-4,0.007 0,0.0135 0,0.0208 z m 0,-0.0281 c 0,-0.005 -2e-4,-0.008 -2e-4,-0.0135 2e-4,0.004 0,0.009 0,0.0135 z m 0,-0.0223 c 0,-0.004 -2e-4,-0.007 -2e-4,-0.0111 2e-4,0.004 0,0.007 0,0.0111 z m 7e-4,-0.0208 c 0,-0.004 0,-0.007 0,-0.0111 0,0.004 0,0.008 0,0.0111 z m 0,-0.0199 c 0,-0.004 0,-0.007 0,-0.0118 0,0.004 0,0.008 0,0.0118 z m 0,-0.0208 c 0,-0.004 0,-0.008 0,-0.0118 0,0.004 0,0.008 0,0.0118 z m 0,-0.02 c 10e-4,-0.004 7e-4,-0.008 7e-4,-0.0119 3e-4,0.005 0,0.007 -7e-4,0.0119 z m 10e-4,-0.0216 c 0,-0.004 -3e-4,-0.007 -3e-4,-0.0103 3e-4,0.003 0,0.007 0,0.0105 z m 0,-0.0206 c 7e-4,-0.004 7e-4,-0.007 7e-4,-0.0102 0,0.004 0,0.007 -10e-4,0.0102 z m 7e-4,-0.0207 c 0,-0.004 0,-0.007 0,-0.01 0,0.002 0,0.007 0,0.01 z m 9e-4,-0.0208 c 0,-0.003 0,-0.006 0,-0.009 0,0.002 0,0.006 0,0.009 z m 0,-0.0215 c 0,-0.002 7e-4,-0.005 7e-4,-0.008 0,0.003 -7e-4,0.006 -7e-4,0.008 z m 7e-4,-0.0199 c 0,-0.003 0,-0.005 0,-0.008 0,0.003 0,0.005 0,0.008 z m 9e-4,-0.0208 c 0,-0.002 0,-0.005 0,-0.007 0,0.002 0,0.005 0,0.007 z m 9e-4,-0.0208 c 0,-10e-4 -2e-4,-0.004 -2e-4,-0.007 2e-4,0.003 0,0.005 0,0.007 z m 7e-4,-0.0208 c 0,-10e-4 0,-0.004 0,-0.006 0,0.002 0,0.004 0,0.006 z m 9e-4,-0.0191 c 0,-0.002 -2e-4,-0.006 -2e-4,-0.008 2e-4,0.002 0,0.006 0,0.008 z m 7e-4,-0.0208 c 0,-0.002 0,-0.004 0,-0.007 0,10e-4 0,0.005 0,0.007 z m 9e-4,-0.0199 c 0,-0.002 -2e-4,-0.005 -2e-4,-0.007 2e-4,0.003 0,0.004 0,0.007 z m 7e-4,-0.0216 c 0,-0.002 0,-0.002 7e-4,-0.004 -7e-4,6e-4 -7e-4,0.003 -7e-4,0.004 z m 10e-4,-0.02 c 6e-4,-10e-4 6e-4,-0.002 6e-4,-0.004 0,10e-4 0,0.002 -9e-4,0.004 z m 0.002,-0.0208 c 0,0 -3e-4,-6e-4 -3e-4,-6e-4 3e-4,6e-4 0,0 3e-4,6e-4 z" />
  <path
     id="path53"
     style="fill:#ffffff;fill-rule:evenodd;stroke:#000000;stroke-width:1.49979997;stroke-linecap:butt;stroke-linejoin:miter;stroke-dasharray:none"
     d="m 460.98785,413.14033 c 0.8951,-2.2979 2.9887,-4.4808 6.0831,-6.489 -0.979,2.266 -3.0554,4.4416 -6.0831,6.489 z" />
  <path
     id="path55"
     style="fill:#ffffff;fill-rule:evenodd;stroke:#000000;stroke-width:1.49979997;stroke-linecap:butt;stroke-linejoin:miter;stroke-dasharray:none"
     d="m 452.32295,479.89143 0,7e-4 0,-7e-4 z" />
  <path
     id="path57"
     style="fill:#ffffff;fill-rule:evenodd;stroke:#000000;stroke-width:1.49979997;stroke-linecap:butt;stroke-linejoin:miter;stroke-dasharray:none"
     d="m 441.37445,480.94703 c 1.496,-1.9333 2.289,-3.9509 2.289,-6.0261 l 0,-6.4865 c 5.5395,3.4532 8.6584,7.3422 8.6593,11.457 l 2e-4,7e-4 c 0,0.3536 -0.0295,0.7048 -0.075,1.0549 l -10.8735,0 z" />
  <path
     id="path59"
     style="fill:#ffffff;fill-rule:evenodd;stroke:#000000;stroke-width:1.49979997;stroke-linecap:butt;stroke-linejoin:miter;stroke-dasharray:none"
     d="m 318.03495,480.94703 c -13.0351,-2.3538 -23.823,-5.7674 -31.1264,-9.8585 15.2774,5.1614 37.2434,8.3985 61.6571,8.3985 0.8783,0 1.7506,-0.006 2.6216,-0.0141 2.9214,0.1185 5.8985,0.1808 8.9237,0.1808 33.0398,0 60.5713,-7.2831 66.723,-16.9379 3.4137,-2.8179 5.2855,-5.8682 5.2855,-9.0547 l 2e-4,-8.1327 c 7.3327,3.8408 11.5438,8.3193 11.5438,13.103 0,9.5206 -16.6706,17.837 -41.4787,22.3156 l -84.1498,0 z" />
  <path
     id="path61"
     style="fill:#ffffff;fill-rule:evenodd;stroke:#000000;stroke-width:1.49979997;stroke-linecap:butt;stroke-linejoin:miter;stroke-dasharray:none"
     d="m 298.73395,451.67433 c 12.4198,4.1327 30.147,6.7185 49.8317,6.7185 3.092,0 6.1345,-0.0651 9.1175,-0.1889 31.7673,-0.3866 58.9791,-6.2539 72.0027,-14.6295 -8.9879,11.2665 -41.894,19.6222 -81.1202,19.6222 -46.1388,0 -83.5426,-11.5593 -83.5525,-25.8192 l -7e-4,-0.007 c 0,-3.3357 2.0469,-6.5237 5.7724,-9.4512 l 0,4.4807 c 0,7.663 10.8006,14.5453 27.9491,19.2741 z" />
  <path
     id="path63"
     style="fill:#ffffff;fill-rule:evenodd;stroke:#000000;stroke-width:1.49979997;stroke-linecap:butt;stroke-linejoin:miter;stroke-dasharray:none"
     d="m 354.33815,441.93663 c -35.0834,0 -65.1116,-6.6846 -77.4945,-16.1577 15.0689,6.7575 40.2769,11.1874 68.8366,11.1874 l 0.0692,-9e-4 c 2.8129,0.1096 5.6794,0.1667 8.5885,0.1667 26.805,0 49.9837,-4.7941 61.0644,-11.7585 8.7375,-4.0808 13.831,-8.9734 13.831,-14.2333 l 3e-4,-6.4875 c 5.5386,3.4526 8.6581,7.3423 8.6581,11.4578 3e-4,14.2629 -37.4077,25.826 -83.5536,25.826 z" />
  <path
     id="path65"
     style="fill:#ffffff;fill-rule:evenodd;stroke:#000000;stroke-width:1.49979997;stroke-linecap:butt;stroke-linejoin:miter;stroke-dasharray:none"
     d="m 262.12715,411.14033 0,-16.2904 c 0,14.2629 37.4079,25.826 83.5522,25.826 31.5299,-2e-4 58.9768,-5.3993 73.2026,-13.3682 -15.2774,5.1607 -37.2434,8.3977 -61.657,8.3977 -0.8781,0 -1.7523,-0.006 -2.6233,-0.0141 -2.9204,0.1178 -5.8976,0.1802 -8.9223,0.1802 -33.0377,0 -60.5695,-7.2824 -66.7221,-16.9365 -3.4141,-2.8185 -5.2864,-5.8696 -5.2864,-9.0556 l 2e-4,-8.1333 0,-8.1571 c 0,14.2631 37.4077,25.826 83.5539,25.826 35.0834,0 65.1114,-6.6843 77.4942,-16.1569 -15.0696,6.757 -40.2769,11.1874 -68.8358,11.1874 l -0.0723,-8e-4 c -2.8122,0.1096 -5.6779,0.1659 -8.5861,0.1659 -26.8049,0 -49.9837,-4.7933 -61.0637,-11.7577 -8.7382,-4.0815 -13.8318,-8.9735 -13.8318,-14.2342 l 0,-6.4867 0,-1.6703 c -7.3327,-3.8415 -11.544,-8.32 -11.544,-13.1037 l 3e-4,-16.2897 c 0,14.2631 37.407,25.8253 83.5522,25.8253 39.2214,0 72.1241,-8.3526 81.117,-19.617 -13.0266,8.3733 -40.2345,14.2385 -71.997,14.6244 -2.9838,0.1237 -6.0272,0.1888 -9.12,0.1888 -19.6927,0 -37.4266,-2.5881 -49.8471,-6.7221 -17.137,-4.7297 -27.9305,-11.6097 -27.9305,-19.2703 l 0,-4.4832 0,-11.8066 c 0,14.2637 37.4079,25.8259 83.5532,25.8259 46.1454,0 83.5531,-11.5622 83.5531,-25.8259 l 0,16.2895 c 0,3.3372 -2.0469,6.5269 -5.7756,9.4543 l 0,3.6739 0,8.1327 c 0,3.1866 -1.8711,6.2377 -5.2855,9.0562 -6.1523,9.6542 -33.6844,16.9363 -66.7222,16.9363 -3.0243,0 -6.0017,-0.0622 -8.9215,-0.18 -0.8714,0.008 -1.7449,0.0141 -2.6232,0.0141 -24.4141,0 -46.3813,-3.2378 -61.6578,-8.3977 14.2259,7.969 41.6728,13.3682 73.2025,13.3682 46.1447,-2e-4 83.5524,-11.563 83.5524,-25.8268 l 0,16.2904 c 0,4.1155 -3.1191,8.0044 -8.6586,11.457 l 2e-4,9.8037 c 0,4.7839 -4.2113,9.2624 -11.544,13.103 l 3e-4,1.6704 0,6.4875 c 0,5.2599 -5.0938,10.1525 -13.8313,14.2333 -11.0805,6.9644 -34.2596,11.7585 -61.0644,11.7585 -2.9089,0 -5.7756,-0.0571 -8.5885,-0.1667 l -0.0692,9e-4 c -28.5597,0 -53.767,-4.4305 -68.8366,-11.1874 12.3831,9.4725 42.4109,16.1577 77.4943,16.1577 46.1454,0 83.5531,-11.5637 83.5531,-25.826 l 0,16.2896 c 0,3.3365 -2.0462,6.5245 -5.7716,9.4519 l 2e-4,3.6763 0,8.1327 c 0,3.1865 -1.872,6.2368 -5.2866,9.0547 -6.1508,9.6548 -33.6826,16.9379 -66.7221,16.9379 -3.0252,0 -6.0026,-0.0623 -8.9237,-0.1808 -0.8707,0.008 -1.7435,0.0141 -2.6216,0.0141 -24.4135,0 -46.3806,-3.2371 -61.6571,-8.3985 7.3034,4.0911 18.0913,7.5047 31.1261,9.8585 l -39.1869,0 c -1.4965,-1.9333 -2.2899,-3.9509 -2.2899,-6.0261 l 2e-4,-8.1568 c -7.3336,-3.8417 -11.5449,-8.3202 -11.5449,-13.103 l 2e-4,-16.2837 c 0.01,14.2599 37.4135,25.8192 83.5523,25.8192 39.2262,0 72.133,-8.3557 81.1202,-19.6222 -13.0234,8.3756 -40.2354,14.2429 -72.0027,14.6295 -2.983,0.1238 -6.0255,0.1889 -9.1175,0.1889 -19.6847,0 -37.4119,-2.5866 -49.8317,-6.7185 -17.1474,-4.7288 -27.9485,-11.6111 -27.9485,-19.2741 l 3e-4,-4.4807 0,-5.3222 c -5.5398,-3.4534 -8.6586,-7.3423 -8.6586,-11.457 z m 140.0576,69.8067 c 24.8081,-4.4786 41.4787,-12.795 41.4787,-22.3156 l 0,9.803 0,6.4865 c 0,2.0752 -0.793,4.0928 -2.289,6.0261 l -39.1897,0 z m 50.063,0 c 0.0454,-0.3501 0.075,-0.7013 0.075,-1.0549 l 0,1.0549 -0.075,0 z" />
  <path
     id="path67"
     style="fill:#ffffff;fill-rule:evenodd;stroke:#000000;stroke-width:1.49979997;stroke-linecap:butt;stroke-linejoin:miter;stroke-dasharray:none"
     d="m 278.95725,398.93503 c 6.1526,9.6541 33.6842,16.9365 66.7221,16.9365 3.0247,0 6.0019,-0.0624 8.9223,-0.1802 0.871,0.008 1.7449,0.0141 2.6233,0.0141 24.4136,0 46.3805,-3.237 61.657,-8.3977 -14.2258,7.9689 -41.6729,13.3682 -73.2026,13.3682 -46.1443,-2e-4 -83.5522,-11.5631 -83.5522,-25.826 0,-4.783 4.2119,-9.2615 11.5437,-13.1038 l 2e-4,8.1333 c 0,3.186 1.8718,6.2371 5.2862,9.0556 z" />
  <path
     id="path69"
     style="fill:#ffffff;fill-rule:evenodd;stroke:#000000;stroke-width:1.49979997;stroke-linecap:butt;stroke-linejoin:miter;stroke-dasharray:none"
     d="m 296.16125,382.85293 c 11.08,6.9644 34.2588,11.7577 61.0637,11.7577 2.9082,0 5.7739,-0.0563 8.5859,-0.1659 l 0.0727,8e-4 c 28.5587,0 53.7658,-4.4304 68.8356,-11.1874 -12.3828,9.4726 -42.411,16.1569 -77.4942,16.1569 -46.1462,0 -83.5541,-11.5629 -83.5541,-25.826 2e-4,-4.1148 3.1198,-8.0044 8.6593,-11.457 l 2e-4,6.4867 c 0,5.2607 5.0927,10.1527 13.8309,14.2342 z" />
  <path
     id="path71"
     style="fill:#ffffff;fill-rule:evenodd;stroke:#000000;stroke-width:1.49979997;stroke-linecap:butt;stroke-linejoin:miter;stroke-dasharray:none"
     d="m 365.88355,378.15433 c -31.5297,0 -58.9768,-5.3984 -73.2027,-13.3674 15.2768,5.1599 37.2434,8.3977 61.6578,8.3977 0.8786,0 1.7516,-0.006 2.6232,-0.0141 2.9198,0.1178 5.897,0.18 8.9215,0.18 33.0381,0 60.5697,-7.2821 66.7222,-16.9363 3.4144,-2.8185 5.2862,-5.8696 5.2862,-9.0562 l 3e-4,-8.1327 c 7.3317,3.8415 11.5437,8.32 11.5437,13.103 0,14.2638 -37.4079,25.826 -83.5522,25.826 z" />
  <path
     id="path73"
     style="fill:#ffffff;fill-rule:evenodd;stroke:#000000;stroke-width:1.49979997;stroke-linecap:butt;stroke-linejoin:miter;stroke-dasharray:none"
     d="m 270.78485,331.06743 0,0 0,9e-4 0,-9e-4 z" />
  <path
     id="path75"
     style="fill:#ffffff;fill-rule:evenodd;stroke:#000000;stroke-width:1.49979997;stroke-linecap:butt;stroke-linejoin:miter;stroke-dasharray:none"
     d="m 304.49175,345.36753 c 12.4196,4.1342 30.1533,6.7223 49.8462,6.7223 3.0937,0 6.1362,-0.0651 9.12,-0.1888 31.7625,-0.3859 58.9702,-6.2511 71.997,-14.6244 -8.9929,11.2644 -41.8959,19.617 -81.117,19.617 -46.1452,0 -83.5531,-11.5622 -83.5531,-25.8253 l 0,-9e-4 c 0,-3.336 2.0485,-6.5249 5.7755,-9.4532 l 0,4.4829 c 0,7.6609 10.7935,14.5409 27.9314,19.2704 z" />
  <path
     id="path77"
     style="fill:#ffffff;fill-rule:evenodd;stroke:#000000;stroke-width:1.49979997;stroke-linecap:butt;stroke-linejoin:miter;stroke-dasharray:none"
     d="m 428.12405,309.80763 c 0,11.6103 -30.4497,21.0224 -68.0105,21.0224 -37.5609,-3e-4 -68.0106,-9.4119 -68.0106,-21.0224 2e-4,-11.6103 30.4497,-21.0215 68.0106,-21.0215 37.5611,0 68.0105,9.4112 68.0105,21.0215 z m 15.5426,0 c 0,-14.2637 -37.4079,-25.826 -83.5531,-25.826 -46.1453,0 -83.5532,11.5623 -83.5532,25.826 0,14.2637 37.4079,25.8259 83.5532,25.8259 46.1454,0 83.5531,-11.5622 83.5531,-25.8259 z" />
  <path
     id="path79"
     style="fill:#ffffff;fill-rule:evenodd;stroke:#000000;stroke-width:1.49979997;stroke-linecap:butt;stroke-linejoin:miter;stroke-dasharray:none"
     d="m 360.11375,330.82973 c -37.5611,0 -68.0108,-9.4116 -68.0108,-21.0221 2e-4,-11.6103 30.4497,-21.0215 68.0106,-21.0215 37.5611,0 68.0105,9.4112 68.0105,21.0215 0,11.6103 -30.4497,21.0224 -68.0103,21.0221 z" />
  <path
     id="path81"
     style="fill:none"
     d="m 393.99885,196.75753 -10.3263,-2.2495 c 0,0 1.3682,-4.1054 3.3858,-11.9729 l 9.9527,2.4344 c -0.9408,3.7604 -1.9387,7.6748 -3.0122,11.788 z" />
  <path
     id="path83"
     style="fill:#ffffff;fill-rule:evenodd;stroke:#000000;stroke-width:1.49979997;stroke-linecap:butt;stroke-linejoin:miter;stroke-dasharray:none"
     d="m 387.05865,182.53513 c 3.388,-13.2058 9.7872,-50.5736 13.4547,-83.428502 l 11.8403,3.539002 c -0.9818,4.6148 -4.3775,38.4773 -15.3426,82.3241 l -9.9524,-2.4346 z" />
  <path
     id="path85"
     style="fill:none"
     d="m 429.46645,67.356328 c 6.946,6.3005 13.6402,12.125 20.0572,17.4993 -16.2596,5.651 -29.0668,16.114002 -37.1539,29.572302 l -5.8342,-4.9512 c -1.9996,-2.8062 -4.116,-5.7463 -6.3477,-8.8384 6.2225,-13.785802 16.2815,-25.319702 29.2786,-33.282002 z" />
  <path
     id="path87"
     style="fill:none;stroke:#000000;stroke-width:1.49979997;stroke-linecap:butt;stroke-linejoin:miter;stroke-dasharray:none"
     d="m 408.69345,108.27463 c -1.1452,-1.5645 -2.3297,-3.1726 -3.5514,-4.8266 0.9882,-1.8598 0.8417,-4.682402 -0.4631,-6.381002 2.0405,-3.5618 4.3618,-6.9358 6.9486,-10.0952 -0.7261,2.8009 0.0747,6.2586 2.12,8.6733 2.154,2.5352 5.1035,3.3143 7.7854,2.4816 -3.1075,3.083102 -5.8928,6.442102 -8.3322,10.040402 l -0.0332,-0.0457 c -1.3365,-1.7562 -3.4137,-1.7285 -4.4741,0.1532 z m 15.2168,-22.931302 c -2.4707,-2.4977 -5.9221,-3.5029 -8.5322,-2.6094 3.0822,-3.2224 6.4689,-6.1731 10.1325,-8.8171 1.8843,1.7855 5.1309,2.0725 7.3806,0.7886 2.0038,1.8137 3.9818,3.5824 5.9318,5.3058 -2.4408,1.2214 -2.5946,3.8858 -0.4972,5.767 l 0.0545,0.048 c -4.4561,2.3409 -8.574,5.0871 -12.3172,8.191 1.1283,-2.6955 0.4486,-6.0437 -2.1528,-8.6739 z m -15.7882,24.631502 c 0.5258,0.7309 1.0416,1.4514 1.5495,2.1627 l 1.8697,1.5872 c 0.7773,-1.3227 1.5961,-2.6201 2.462,-3.8856 6.509,-9.5231 15.4913,-17.349502 26.4483,-22.766302 2.0317,-1.0052 4.1308,-1.9276 6.2933,-2.7633 -1.8644,-1.5855 -3.7537,-3.21 -5.6673,-4.8753 -2.2364,-1.947 -4.5066,-3.9487 -6.8085,-6.0065 -1.6146,-1.4445 -3.2457,-2.9168 -4.8917,-4.4173 -1.696,1.0536 -3.3419,2.1689 -4.9339,3.3419 -8.6381,6.363 -15.7119,14.4441 -20.8959,23.7649 -0.8022,1.4429 -1.5601,2.9153 -2.2723,4.415502 1.0029,1.3753 1.9825,2.7208 2.9391,4.0378 1.3495,1.8572 2.6523,3.6578 3.9077,5.4043 z" />
  <path
     id="path89"
     style="fill:none"
     d="m 425.38275,64.582928 c 7.5721,5.4422 15.0063,10.6354 22.2965,15.5859 -15.7714,7.1684 -28.0673,19.1657 -35.543,34.060402 l -5.1621,-4.3797 c -2.2269,-2.3985 -4.5716,-4.9177 -7.0362,-7.5742 5.0553,-14.892202 13.8113,-27.881102 25.4448,-37.692402 z" />
  <path
     id="path91"
     style="fill:none;stroke:#000000;stroke-width:1.49979997;stroke-linecap:butt;stroke-linejoin:miter;stroke-dasharray:none"
     d="m 436.27305,76.239228 c -2.2555,1.4835 -2.0723,4.1509 0.2953,5.8157 l 0.0621,0.0422 c -4.1691,2.7534 -8.014,5.8882 -11.4976,9.3557 0.8677,-2.7472 -0.2067,-5.9507 -3.0889,-8.197 -2.7402,-2.1332 -6.2501,-2.6237 -8.7285,-1.3289 2.7169,-3.6555 5.7285,-7.0706 9.0109,-10.2114 2.0617,1.5244 5.31,1.406 7.3604,-0.1518 2.2107,1.5846 4.4065,3.1431 6.5863,4.6755 z m -27.5683,31.645502 c -1.2308,-1.2777 -2.4947,-2.5923 -3.793,-3.9441 0.8516,-2.0066 0.512,-4.715902 -0.8806,-6.110102 1.7306,-3.8816 3.7335,-7.6019 5.992,-11.1338 -0.4596,2.8681 0.6047,6.0945 2.8399,8.092 2.3489,2.0982 5.3985,2.3882 8.0578,1.2217 -2.8835,3.3964 -5.4583,7.050202 -7.7007,10.924502 l -0.0373,-0.0383 c -1.4658,-1.4455 -3.5365,-1.0369 -4.4781,0.9881 z m 12.3903,-37.586502 c -7.703,7.5731 -13.88,16.6729 -18.2304,26.8355 -0.6737,1.574 -1.3038,3.173602 -1.8898,4.795702 1.0541,1.1222 2.0877,2.2212 3.1001,3.2954 1.4286,1.5163 2.8146,2.9864 4.1576,4.4106 1.1381,1.2071 2.2432,2.3817 3.3168,3.5252 0.8068,-1.6255 1.6708,-3.2165 2.5891,-4.7713 6.036,-10.226802 14.4494,-18.875302 24.7521,-25.244702 1.9104,-1.182 3.8848,-2.2855 5.9205,-3.3069 -2.113,-1.4464 -4.2397,-2.9151 -6.378,-4.4062 -2.5019,-1.7433 -5.0209,-3.5162 -7.5581,-5.3204 -1.7807,-1.2664 -3.5697,-2.5473 -5.3677,-3.8442 -1.5211,1.2902 -2.9928,2.6348 -4.4122,4.0313 z" />
  <path
     id="path93"
     style="fill:#f9f4e7;fill-rule:evenodd;stroke:#000000;stroke-width:1.49979997;stroke-linecap:butt;stroke-linejoin:miter;stroke-dasharray:none"
     d="m 411.35825,113.50393 c -3.772,-3.1482 -7.8684,-6.59 -12.2693,-10.356 4.1047,-15.560602 11.714,-29.549002 22.1005,-40.771802 7.9699,4.6699 15.9114,9.2882 23.8227,13.8553 -15.0559,8.42 -26.7219,21.4858 -33.6539,37.272502 z" />
  <path
     id="path95"
     style="fill:none;stroke:#000000;stroke-width:1.49979997;stroke-linecap:butt;stroke-linejoin:miter;stroke-dasharray:none"
     d="m 433.17615,73.090628 c -2.0772,1.6872 -1.6199,4.3347 0.9383,5.8118 l 0.0669,0.0374 c -3.8809,3.0715 -7.454,6.4935 -10.6878,10.221 0.6449,-2.7665 -0.7422,-5.8305 -3.8188,-7.7477 -2.9269,-1.8202 -6.4391,-1.8915 -8.7832,-0.2926 2.3932,-3.9586 5.0675,-7.7104 8.0027,-11.2221 2.1754,1.2948 5.3847,0.847 7.2478,-0.921 2.35,1.3797 4.6948,2.7508 7.0341,4.1132 z m -25.1933,34.033002 c -1.2901,-1.044 -2.6087,-2.1152 -3.9549,-3.2174 0.7376,-2.0967 0.2489,-4.684702 -1.1982,-5.826802 1.4718,-4.0851 3.2003,-8.0331 5.1732,-11.8183 -0.2439,2.8877 1.0191,5.8947 3.3835,7.5461 2.4844,1.7334 5.5894,1.64 8.2027,0.2245 -2.671,3.6115 -5.0504,7.457302 -7.1144,11.502502 l -0.039,-0.0319 c -1.562,-1.1916 -3.6114,-0.4923 -4.4529,1.6213 z m 9.5619,-38.507302 c -6.8525,8.475 -12.2407,18.2777 -15.896,28.9731 -0.5657,1.6563 -1.0906,3.333902 -1.5733,5.031002 1.0835,0.9132 2.1471,1.8068 3.1939,2.681 1.4779,1.2339 2.9195,2.4313 4.3234,3.5918 1.1893,0.9831 2.3524,1.9413 3.4868,2.8731 0.7492,-1.6849 1.5491,-3.3394 2.402,-4.96 5.6049,-10.661702 13.4541,-19.878602 23.0878,-26.987702 1.7873,-1.3188 3.634,-2.5654 5.5395,-3.7358 -2.2897,-1.3225 -4.5825,-2.6512 -6.8784,-3.985 -2.6851,-1.5596 -5.3744,-3.1269 -8.0684,-4.7022 -1.8899,-1.1061 -3.7841,-2.2156 -5.6796,-3.3298 -1.3608,1.4699 -2.6738,2.9883 -3.9377,4.5505 z" />
  <path
     id="path97"
     style="fill:#ffffff;fill-rule:evenodd;stroke:#000000;stroke-width:1.49979997;stroke-linecap:butt;stroke-linejoin:miter;stroke-dasharray:none"
     d="m 399.66715,101.05023 c 0,0 -2.8734,-6.584502 -0.5025,-7.819102 2.372,-1.2341 7.5297,-2.8161 7.9634,-0.3966 0.4739,2.6475 -6.054,3.7051 -6.054,3.7051 l -1.4069,4.510602 z" />
  <path
     id="path99"
     style="fill:none"
     d="m 387.05865,182.53513 c 1.1319,-4.4138 2.6018,-11.5372 4.1923,-20.2787 0,7e-4 7e-4,0.002 7e-4,0.003 -1.591,8.7453 -3.0602,15.8607 -4.193,20.2761 z" />
  <path
     id="path101"
     style="fill:#ffffff;fill-rule:evenodd;stroke:#000000;stroke-width:1.49979997;stroke-linecap:butt;stroke-linejoin:miter;stroke-dasharray:none"
     d="m 393.99885,196.75683 -10.3263,-2.2488 c 0,0 1.3682,-4.1054 3.3858,-11.9729 l 3e-4,0 9.9524,2.4344 c -0.0731,0.2939 -0.1474,0.5887 -0.2215,0.8841 -0.8755,3.4891 -1.8012,7.1121 -2.7907,10.9032 z" />
  <path
     id="path103"
     style="fill:none"
     d="m 397.01105,184.96953 0,0 -9.9524,-2.4344 c 1.1328,-4.4154 2.6018,-11.5308 4.193,-20.2761 1.5131,4.1637 4.2999,12.151 6.4244,20.0117 -0.2206,0.8968 -0.4389,1.7923 -0.665,2.699 l 0,-2e-4 z" />
  <path
     id="path105"
     style="fill:#ffffff;fill-rule:evenodd;stroke:#000000;stroke-width:1.49979997;stroke-linecap:butt;stroke-linejoin:miter;stroke-dasharray:none"
     d="m 360.91455,316.23133 c -33.7469,0 -61.0907,-3.7489 -61.0745,-8.3725 0.0173,-4.6238 27.3885,-8.3727 61.1361,-8.3727 33.7462,0 61.0907,3.7489 61.0743,8.3727 -0.0171,4.6236 -27.3883,8.3725 -61.1359,8.3725 z" />
  <path
     id="path107"
     style="fill:#ffffff;fill-rule:evenodd;stroke:#000000;stroke-width:1.49979997;stroke-linecap:butt;stroke-linejoin:miter;stroke-dasharray:none"
     d="m 393.26055,186.21163 c 0,0 -5.7594,-110.178902 -86.861,-67.7288 3e-4,0 -13.2409,27.8866 -8.2793,79.8198 65.3599,6.2645 95.1403,-12.091 95.1403,-12.091 z" />
  <path
     id="path109"
     style="fill:#050109;fill-rule:evenodd;stroke:#000000;stroke-width:1.49979997;stroke-linecap:butt;stroke-linejoin:miter;stroke-dasharray:none"
     d="m 371.45395,71.966528 c 0,0 46.5075,61.472102 -54.9162,66.849002 l 0.5828,19.818 c 0,0 -9.6197,-7.4114 -10.8993,2.069 -1.2777,9.4807 10.748,4.8177 10.748,4.8177 0,0 -7.9367,25.178 -18.4948,32.8173 0,0 -40.3697,-81.2612 -2.187,-84.2864 0,0 -0.3126,-14.678302 19.7474,-24.248402 28.6157,-13.6525 47.8576,17.890802 55.4191,-17.8362 z" />
  <path
     id="path111"
     style="fill:#050109;fill-rule:evenodd;stroke:#000000;stroke-width:1.49979997;stroke-linecap:butt;stroke-linejoin:miter;stroke-dasharray:none"
     d="m 311.98805,255.06623 3.4414,22.597 -3.2208,32.4355 c 0,0 33.9427,9.1786 25.3868,-4.212 -7.9014,-12.3674 -20.2298,-2.0933 -20.2298,-2.0933 l 6.075,-27.2942 0.6594,-15.1616 c 0,0 34.4067,1.4087 63.8406,-7.778 l 2.0236,18.6568 -5.7063,34.2588 c 0,0 31.4187,10.5469 22.7195,-4.0606 -4.8223,-8.0977 -16.6715,-3.0164 -16.6715,-3.0164 l 7.523,-27.2224 0.4649,-27.982 -86.3058,10.8724 z" />
  <path
     id="path113"
     style="fill:#f9f9f9;fill-rule:evenodd;stroke:#000000;stroke-width:1.49979997;stroke-linecap:butt;stroke-linejoin:miter;stroke-dasharray:none"
     d="m 393.26055,186.21163 5.0333,57.9822 c 0,0 -35.1965,11.1825 -86.3058,10.8724 l -13.8678,-56.7638 c 0,0 59.173,4.0323 95.1403,-12.0908 z" />
  <path
     id="path115"
     style="fill:none"
     d="m 372.96705,197.48683 2.0958,3.1263 -2.0836,4.1291 5.5257,34.3191 -8.6773,8.5525 -8.791,-7.4416 7.1169,-34.5413 -3.3046,-3.8116 1.2526,-2.8517 6.8655,-1.4808 z" />
  <path
     id="path117"
     style="fill:#050109;fill-rule:evenodd;stroke:#000000;stroke-width:1.49979997;stroke-linecap:butt;stroke-linejoin:miter;stroke-dasharray:none"
     d="m 372.96705,197.48683 2.0958,3.1263 -2.0836,4.1291 7.5281,33.5245 -8.678,8.552 -8.7906,-7.4409 5.1148,-33.7469 -3.3046,-3.8116 1.2526,-2.8517 6.8655,-1.4808 z" />
  <path
     id="path119"
     style="fill:#050109;fill-rule:evenodd"
     d="m 372.81895,167.95123 c 0,0 -17.6541,1.8585 -27.9169,6.7785 2e-4,0 1.0029,14.452 17.4058,10.9651 16.2363,-3.4504 10.5111,-17.7433 10.5111,-17.7436 z" />
  <path
     id="path121"
     style="fill:#f9f9f9;fill-rule:evenodd;stroke:#000000;stroke-width:1.49979997;stroke-linecap:butt;stroke-linejoin:miter;stroke-dasharray:none"
     d="m 301.13825,211.12503 8.2494,-6.605 c 0,0 -3.0492,-3.0683 -8.3543,-9.2192 l -7.8331,6.6031 c 2.5141,2.9516 5.148,6.0144 7.938,9.2211 z" />
  <path
     id="path123"
     style="fill:#ffffff;fill-rule:evenodd;stroke:#000000;stroke-width:1.49979997;stroke-linecap:butt;stroke-linejoin:miter;stroke-dasharray:none"
     d="m 301.03355,195.30083 c -8.9036,-10.324 -30.3514,-38.9868 -48.2397,-66.788 l -9.033,8.4329 c 2.9294,3.6978 20.1283,30.5547 49.4394,64.9585 l 7.8333,-6.6034 z" />
  <path
     id="path125"
     style="fill:#050109;fill-rule:evenodd"
     d="m 339.22495,158.21683 c 0.7425,3.4598 -0.1001,6.5741 -1.881,6.9559 -1.7807,0.3816 -3.8253,-2.1129 -4.5678,-5.573 -0.7419,-3.4592 0.1002,-6.5732 1.8811,-6.9557 1.7811,-0.3818 3.8262,2.1139 4.5677,5.5728 z" />
  <path
     id="path127"
     style="fill:#050109;fill-rule:evenodd"
     d="m 379.48895,149.58193 c 0.7416,3.4601 -0.1001,6.5734 -1.8817,6.9559 -1.7802,0.3817 -3.8255,-2.1129 -4.5678,-5.5729 -0.7422,-3.4601 0.1002,-6.5741 1.8802,-6.9557 1.7816,-0.3821 3.8269,2.1129 4.5693,5.5727 z" />
  <path
     id="path129"
     style="fill:none"
     d="m 218.96395,100.44803 c -5.7274,7.4252 -11.29,14.338 -16.6586,20.76 17.0005,2.6962 31.4517,10.7388 41.7835,22.561 l 4.8698,-5.9018 c 1.4747,-3.1158 3.0383,-6.3819 4.6907,-9.8184 -8.5543,-12.474 -20.4898,-22.0548 -34.6854,-27.6008 z" />
  <path
     id="path131"
     style="fill:none;stroke:#000000;stroke-width:1.49979997;stroke-linecap:butt;stroke-linejoin:miter;stroke-dasharray:none"
     d="m 242.19265,137.70183 -0.0245,0.0514 c -3.036,-3.1123 -6.3699,-5.9285 -9.9714,-8.4152 2.7862,0.3468 5.5525,-0.9399 7.2252,-3.8156 1.588,-2.7372 1.767,-6.2817 0.5592,-8.9108 3.1018,2.6542 5.9823,5.5666 8.6185,8.7122 -0.9856,1.902 -0.6324,4.7062 0.6675,6.3634 -0.91,1.8434 -1.7932,3.635 -2.6452,5.3767 -1.3749,-1.6654 -3.4243,-1.3267 -4.4293,0.6379 z m -15.1806,-11.6113 c -4.2316,-2.3947 -8.7691,-4.3724 -13.5674,-5.891 l 0.0457,-0.0572 c 1.7329,-2.2218 1.1109,-4.8174 -1.5075,-5.5891 1.6166,-2.0405 3.2517,-4.1299 4.9048,-6.2689 2.441,0.8684 5.586,0.0139 7.126,-2.0762 4.0729,1.9567 7.9259,4.265 11.5274,6.8932 -2.7264,-0.4195 -5.9456,1.1775 -7.9381,4.0719 -2.0966,3.048 -2.1757,6.4633 -0.5909,8.9173 z m 23.3678,6.5383 c 0.7088,-1.4651 1.4365,-2.9618 2.1803,-4.4921 -0.9644,-1.352 -1.9703,-2.668 -3.0148,-3.9474 -6.7448,-8.2606 -15.1332,-14.9689 -24.757,-19.7091 -1.7735,-0.8744 -3.5902,-1.6817 -5.4458,-2.4206 -1.3553,1.767 -2.7015,3.5039 -4.0371,5.2107 -1.9021,2.4311 -3.784,4.8013 -5.6429,7.1119 -1.5897,1.9763 -3.1629,3.9086 -4.7191,5.7984 2.2758,0.4411 4.505,0.9792 6.6813,1.6109 11.7401,3.4003 21.9614,9.5219 30.0469,17.7484 1.0751,1.0929 2.1104,2.2253 3.1082,3.3907 l 1.5613,-1.8915 c 0.3745,-0.7904 0.7551,-1.5905 1.1434,-2.4027 0.928,-1.9396 1.894,-3.9418 2.8953,-6.0076 z" />
  <path
     id="path133"
     style="fill:none"
     d="m 222.49395,96.997828 c -6.4943,6.691102 -12.8965,13.113802 -19.1997,19.271202 16.7873,4.2771 31.0057,13.9188 40.9891,27.263 l 4.3091,-5.2204 c 1.7703,-2.7534 3.6341,-5.6461 5.5915,-8.6967 -7.5994,-13.7676 -18.5094,-25.0103 -31.69,-32.617102 z" />
  <path
     id="path135"
     style="fill:none;stroke:#000000;stroke-width:1.49979997;stroke-linecap:butt;stroke-linejoin:miter;stroke-dasharray:none"
     d="m 219.48815,104.62723 c 2.2938,1.1721 5.5118,0.7166 7.2715,-1.1473 3.7849,2.5134 7.3514,5.3441 10.6698,8.4632 -2.6671,-0.8378 -6.0354,0.2644 -8.3573,2.847 -2.441,2.7186 -2.935,6.0612 -1.5954,8.6129 -4.0411,-2.7999 -8.3776,-5.2075 -12.9666,-7.1829 l 0.0537,-0.0531 c 2.0366,-2.0557 1.7475,-4.714 -0.7348,-5.7762 1.876,-1.8924 3.7619,-3.814 5.6591,-5.7636 z m 22.4724,31.8719 -0.0293,0.0438 c -2.8902,-3.4183 -6.0686,-6.5609 -9.5059,-9.3958 2.8229,0.6795 5.774,-0.1432 7.7169,-2.6225 1.8476,-2.3605 2.327,-5.7244 1.3691,-8.4665 2.8454,3.0783 5.4726,6.387 7.8601,9.9038 -1.125,1.6174 -0.9818,4.3447 0.2106,6.1697 -1.0401,1.5592 -2.0534,3.0766 -3.0393,4.5513 -1.2834,-1.8279 -3.3947,-1.8655 -4.5822,-0.1838 z m -19.2915,-37.822302 c -1.5417,1.593802 -3.0776,3.170302 -4.6061,4.730602 -2.1796,2.2227 -4.3472,4.4123 -6.5023,6.5692 -1.8428,1.8442 -3.6765,3.665 -5.5022,5.4614 2.1847,0.646 4.3228,1.3845 6.4112,2.2114 11.2639,4.4538 21.0701,11.4845 28.8137,20.4873 1.1785,1.3682 2.3083,2.7827 3.3892,4.2404 0.8556,-1.3154 1.7376,-2.6664 2.6436,-4.0549 1.0712,-1.6386 2.1764,-3.3297 3.3159,-5.0749 0.8066,-1.2355 1.6302,-2.4987 2.4703,-3.7895 -0.862,-1.4944 -1.7645,-2.9569 -2.7054,-4.3871 -6.0737,-9.2373 -13.757,-17.1061 -22.6743,-23.2033 -1.6434,-1.1241 -3.329,-2.188602 -5.0536,-3.190602 z" />
  <path
     id="path137"
     style="fill:#f9f4e7;fill-rule:evenodd;stroke:#000000;stroke-width:2.2499001;stroke-linecap:butt;stroke-linejoin:miter;stroke-dasharray:none"
     d="m 244.92155,142.68073 c 3.1581,-3.7628 6.5831,-7.8737 10.2522,-12.3561 -6.7831,-14.5938 -16.7384,-27.0215 -28.9399,-36.238202 -7.0224,6.001702 -14.0254,11.946802 -21.0073,17.837002 16.303,5.6349 30.089,16.4396 39.695,30.7573 z" />
  <path
     id="path139"
     style="fill:none;stroke:#000000;stroke-width:1.49979997;stroke-linecap:butt;stroke-linejoin:miter;stroke-dasharray:none"
     d="m 222.52155,101.45723 c 2.1457,1.4119 5.3841,1.2869 7.297,-0.371 3.508,2.9398 6.8011,6.1613 9.8549,9.6368 -2.5882,-1.1616 -6.0336,-0.472 -8.5943,1.8354 -2.6899,2.4294 -3.5152,5.6902 -2.3937,8.2994 -3.8391,-3.0995 -7.9602,-5.8374 -12.322,-8.1774 l 0.0593,-0.0482 c 2.2581,-1.9053 2.2426,-4.591 -0.0999,-5.887 2.0631,-1.7532 4.129,-3.5161 6.1987,-5.288 z m 19.929,33.5376 -0.0325,0.0383 c -2.7453,-3.6188 -5.7652,-6.985 -9.0306,-10.069 2.822,0.9325 5.8953,0.4778 8.035,-1.666 2.0366,-2.043 2.7504,-5.2256 2.0006,-8.0246 2.6087,3.3779 5.0066,6.9598 7.1748,10.7219 -1.2225,1.3788 -1.2477,4.0117 -0.1522,5.9465 -1.1312,1.3218 -2.2408,2.6094 -3.3256,3.8636 -1.2007,-1.9315 -3.3419,-2.2585 -4.6695,-0.8107 z m -16.2077,-39.192802 c -1.6693,1.4302 -3.3378,2.8554 -5.004,4.277302 -2.3748,2.0257 -4.7452,4.0426 -7.1129,6.0506 -2.0257,1.7181 -4.0484,3.4298 -6.0685,5.136 2.0813,0.8154 4.1201,1.7172 6.1101,2.7006 10.7374,5.3002 20.0877,12.9894 27.4829,22.4959 1.125,1.4454 2.2056,2.9326 3.2386,4.4595 0.9531,-1.1176 1.929,-2.2652 2.9259,-3.443 1.1778,-1.3894 2.3857,-2.8226 3.623,-4.2973 0.8765,-1.0454 1.7668,-2.1123 2.6719,-3.2022 -0.7747,-1.5855 -1.5871,-3.144 -2.4359,-4.6743 -5.4835,-9.8842 -12.5141,-18.5834 -20.7535,-25.718102 -1.5186,-1.3156 -3.079,-2.5786 -4.6776,-3.785 z" />
  <path
     id="path141"
     style="fill:#f8f9f8;fill-rule:evenodd;stroke:#000000;stroke-width:1.49979997;stroke-linecap:butt;stroke-linejoin:miter;stroke-dasharray:none"
     d="m 254.23535,128.36123 c 0,0 1.6668,-6.9873 -0.8841,-7.7842 -2.5524,-0.7969 -7.9087,-1.4455 -7.9087,1.0126 0,2.6899 6.6123,2.5801 6.6123,2.5801 l 2.1805,4.1915 z" />
  <path
     id="path143"
     style="fill:none"
     d="m 429.67065,228.71873 c -0.8327,0 -1.5101,-0.6714 -1.5101,-1.4967 2e-4,-0.8336 0.6749,-1.5107 1.5034,-1.5107 0.8296,0 1.504,0.6739 1.504,1.5042 2e-4,0.8283 -0.6714,1.5034 -1.4973,1.5032 z m 6.0222,2.4719 c -0.3973,0 -0.7734,-0.1521 -1.0583,-0.4289 -0.5819,-0.5916 -0.5868,-1.5537 -0.005,-2.1365 0.2842,-0.2842 0.6617,-0.4404 1.0648,-0.4404 0.4003,0 0.777,0.1564 1.0613,0.4404 0.5828,0.5828 0.5876,1.5359 0.01,2.1226 -0.297,0.2873 -0.6707,0.4428 -1.0726,0.4428 z m -12.0428,0.0383 c -0.3996,0 -0.7776,-0.1571 -1.0632,-0.4412 -0.5851,-0.5867 -0.5851,-1.5407 0,-2.1258 0.2817,-0.2859 0.6569,-0.442 1.0606,-0.442 0.4015,-3e-4 0.7796,0.1571 1.0646,0.4427 0.2858,0.2808 0.4411,0.6536 0.4427,1.0532 0.002,0.4045 -0.1555,0.7863 -0.4434,1.0729 -0.2831,0.284 -0.6601,0.4402 -1.0613,0.4402 z m 14.5608,6.0139 c -0.8276,0 -1.5031,-0.6779 -1.5031,-1.5112 0,-0.8458 0.6714,-1.5334 1.496,-1.5334 0.8236,-2e-4 1.5008,0.6691 1.5114,1.4918 0,0.8694 -0.661,1.553 -1.5043,1.5528 z m -17.0344,0.0147 c -0.8326,0 -1.51,-0.6737 -1.51,-1.5031 2e-4,-0.8297 0.6739,-1.5033 1.5033,-1.5033 0.8288,-3e-4 1.5034,0.6706 1.5034,1.4959 2e-4,0.8327 -0.6714,1.5108 -1.4967,1.5105 z m 14.539,5.9994 c -0.4013,0 -0.778,-0.1569 -1.0623,-0.4409 -0.5809,-0.5821 -0.5828,-1.5343 -0.002,-2.1235 0.2866,-0.2817 0.6675,-0.4389 1.0678,-0.4389 0.4008,0 0.7773,0.1549 1.059,0.4363 0.2882,0.2873 0.4444,0.6675 0.4437,1.0713 -0.002,0.4009 -0.1604,0.7763 -0.4453,1.0564 -0.275,0.2863 -0.6495,0.4395 -1.0606,0.4393 z m -12.0435,0.0148 c -0.3027,0 -0.5943,-0.0912 -0.8426,-0.2637 l -0.0967,-0.0667 -0.009,0 -0.1179,-0.1149 c -0.577,-0.5764 -0.5779,-1.5285 10e-4,-2.1185 0.2859,-0.2858 0.6659,-0.4443 1.068,-0.4443 0.4031,-3e-4 0.7796,0.1578 1.0613,0.4443 0.5893,0.5784 0.5902,1.5276 0.009,2.121 -0.2969,0.2873 -0.6707,0.4428 -1.0735,0.4428 z m 6.0296,2.489 c -0.8295,0 -1.5034,-0.6747 -1.5034,-1.5034 0,-0.8304 0.6739,-1.5041 1.5031,-1.5041 0.8295,-2e-4 1.5043,0.674 1.5043,1.5041 0,0.8287 -0.6748,1.5034 -1.504,1.5034 z" />
  <g
     transform="translate(-4.4026506,-2.000572)"
     id="Layer1001">
    <path
       id="path146"
       style="fill:#000000;fill-rule:evenodd;stroke:#000000;stroke-width:1.49979997;stroke-linecap:butt;stroke-linejoin:miter;stroke-dasharray:none"
       d="m 266.3491,239.7286 c -0.6162,0 -1.1169,-0.5007 -1.1169,-1.116 l 2e-4,-15.9945 c 0,-0.6154 0.5005,-1.1165 1.1167,-1.1165 0.616,0 1.1167,0.5014 1.1167,1.1167 l 0,15.9943 c 0,0.6153 -0.5007,1.116 -1.1167,1.116 z" />
    <path
       id="path148"
       style="fill:#000000;fill-rule:evenodd;stroke:#000000;stroke-width:1.49979997;stroke-linecap:butt;stroke-linejoin:miter;stroke-dasharray:none"
       d="m 258.3531,231.7317 c -0.6162,0 -1.1167,-0.5014 -1.1167,-1.1158 0,-0.6162 0.5005,-1.1167 1.1167,-1.1167 l 15.9927,0 c 0.616,0 1.1167,0.5005 1.1167,1.1167 0,0.6144 -0.5007,1.1158 -1.1167,1.1158 l -15.9927,0 z" />
    <path
       id="path150"
       style="fill:#000000;fill-rule:evenodd;stroke:#000000;stroke-width:1.49979997;stroke-linecap:butt;stroke-linejoin:miter;stroke-dasharray:none"
       d="m 477.4397,106.8378 c -0.5738,0 -1.0403,-0.4663 -1.0403,-1.0401 l 2e-4,-14.9005 c 0,-0.574 0.4663,-1.04 1.0401,-1.04 0.574,-3e-4 1.0401,0.4662 1.0401,1.04 l 2e-4,14.9003 c 0,0.574 -0.4665,1.0403 -1.0403,1.0403 z" />
    <path
       id="path152"
       style="fill:#000000;fill-rule:evenodd;stroke:#000000;stroke-width:1.49979997;stroke-linecap:butt;stroke-linejoin:miter;stroke-dasharray:none"
       d="m 469.99,99.3879 c -0.574,0 -1.0405,-0.467 -1.0405,-1.0401 2e-4,-0.5738 0.4665,-1.041 1.0403,-1.041 l 14.8998,0 c 0.5738,0 1.0401,0.4672 1.0401,1.041 2e-4,0.5729 -0.4663,1.0403 -1.0401,1.0403 l -14.8996,-2e-4 z" />
    <path
       id="path154"
       style="fill:#000000;fill-rule:evenodd;stroke:#000000;stroke-width:1.49979997;stroke-linecap:butt;stroke-linejoin:miter;stroke-dasharray:none"
       d="m 277.2411,76.1214 c -0.5741,0 -1.0403,-0.4666 -1.0403,-1.0403 l 0,-14.9005 c 0,-0.5738 0.4662,-1.0403 1.04,-1.0403 0.5741,0 1.0403,0.4665 1.0403,1.0405 l 0,14.9003 c 0,0.5735 -0.4665,1.0403 -1.04,1.0403 z" />
    <path
       id="path156"
       style="fill:#000000;fill-rule:evenodd;stroke:#000000;stroke-width:1.49979997;stroke-linecap:butt;stroke-linejoin:miter;stroke-dasharray:none"
       d="m 269.7919,68.6712 c -0.5738,0 -1.041,-0.4669 -1.041,-1.0403 0,-0.5735 0.4672,-1.0405 1.041,-1.0405 l 14.8988,-2e-4 c 0.5741,0 1.041,0.4672 1.041,1.0407 3e-4,0.5734 -0.4672,1.0406 -1.041,1.0406 l -14.8988,-3e-4 z" />
    <path
       id="path158"
       style="fill:#000000;fill-rule:evenodd;stroke:#000000;stroke-width:1.49979997;stroke-linecap:butt;stroke-linejoin:miter;stroke-dasharray:none"
       d="m 363.5183,43.3975 c -1.6058,0 -2.9124,1.3065 -2.9124,2.9121 3e-4,1.6056 1.3066,2.9119 2.9124,2.9119 1.6058,-2e-4 2.9121,-1.3063 2.9121,-2.9119 3e-4,-1.6058 -1.3063,-2.9119 -2.9121,-2.9121 z m 0,7.5816 c -2.5753,0 -4.6695,-2.0947 -4.6695,-4.6695 2e-4,-2.5751 2.0942,-4.6697 4.6695,-4.6697 2.5753,-3e-4 4.6695,2.0949 4.6695,4.6697 0,2.5748 -2.0942,4.6697 -4.6695,4.6695 z" />
    <path
       id="path160"
       style="fill:#000000;fill-rule:evenodd;stroke:#000000;stroke-width:1.49979997;stroke-linecap:butt;stroke-linejoin:miter;stroke-dasharray:none"
       d="m 230.2524,166.9654 c -0.8318,0 -1.5099,-0.6704 -1.5099,-1.496 0,-0.8326 0.6749,-1.5105 1.5034,-1.5105 0.8294,-2e-4 1.5033,0.6749 1.5033,1.5034 0,0.8292 -0.6716,1.5034 -1.4968,1.5031 z m 6.0222,2.4735 c -0.3971,0 -0.7732,-0.1529 -1.0581,-0.4289 -0.5819,-0.5927 -0.5867,-1.5545 -0.005,-2.1373 0.284,-0.2831 0.6624,-0.4402 1.0646,-0.4402 0.4014,-3e-4 0.7773,0.1571 1.0613,0.4402 0.583,0.5835 0.5876,1.5359 0.01,2.1228 -0.2963,0.2882 -0.67,0.4437 -1.0728,0.4434 z m -12.0419,0.0374 c -0.4005,0 -0.7782,-0.1562 -1.0639,-0.4409 -0.5844,-0.5862 -0.5844,-1.5407 0,-2.1251 0.2818,-0.2859 0.6576,-0.4428 1.0607,-0.4428 0.4012,-2e-4 0.7796,0.1578 1.0645,0.4428 0.2849,0.2805 0.442,0.6536 0.4427,1.0532 0.002,0.4045 -0.1555,0.7854 -0.4427,1.0726 -0.284,0.2847 -0.661,0.4405 -1.0613,0.4402 z m 14.5611,6.0142 c -0.8285,0 -1.5034,-0.6779 -1.5034,-1.5115 0,-0.8458 0.6707,-1.5333 1.496,-1.5333 0.823,0 1.5008,0.669 1.5105,1.4911 2e-4,0.8691 -0.6608,1.5537 -1.5031,1.5537 z m -17.0346,0.0145 c -0.8334,0 -1.5108,-0.6737 -1.5108,-1.5031 0,-0.8295 0.6739,-1.5034 1.5034,-1.5034 0.8287,0 1.5033,0.6707 1.5033,1.496 0,0.8333 -0.6707,1.5107 -1.4959,1.5105 z m 14.5382,5.9996 c -0.4003,0 -0.7782,-0.1571 -1.0622,-0.4412 -0.581,-0.5818 -0.5819,-1.5342 -0.002,-2.1235 0.2865,-0.2817 0.6672,-0.4386 1.0677,-0.4386 0.4006,-2e-4 0.7773,0.1546 1.059,0.4363 0.2882,0.287 0.4451,0.6672 0.4435,1.071 -0.001,0.4012 -0.1604,0.7766 -0.4444,1.0574 -0.2766,0.2847 -0.6511,0.4386 -1.0613,0.4386 z m -12.0435,0.0145 c -0.3029,0 -0.5943,-0.0909 -0.8426,-0.2635 l -0.0966,-0.0669 -0.009,0 -0.1182,-0.1149 c -0.577,-0.5761 -0.5779,-1.5282 0.003,-2.1184 0.2849,-0.2866 0.6649,-0.4444 1.067,-0.4444 0.4022,0 0.7796,0.1571 1.062,0.4444 0.5886,0.5779 0.5893,1.5278 0.008,2.1212 -0.2971,0.287 -0.6707,0.4427 -1.0735,0.4425 z m 6.0294,2.489 c -0.8285,0 -1.5034,-0.6746 -1.5034,-1.5041 2e-4,-0.8285 0.6749,-1.5031 1.5034,-1.5031 0.8294,-2e-4 1.5042,0.6746 1.5042,1.5031 0,0.8295 -0.6748,1.5043 -1.5042,1.5041 z" />
    <path
       id="path162"
       style="fill:#000000;fill-rule:evenodd;stroke:#000000;stroke-width:1.49979997;stroke-linecap:butt;stroke-linejoin:miter;stroke-dasharray:none"
       d="m 438.8078,224.5593 c -0.8326,0 -1.51,-0.6714 -1.51,-1.4966 2e-4,-0.8336 0.6748,-1.5108 1.5033,-1.5108 0.8297,0 1.5041,0.6739 1.5041,1.5043 2e-4,0.8283 -0.6714,1.5034 -1.4974,1.5031 z m 6.0222,2.4719 c -0.3973,0 -0.7733,-0.152 -1.0583,-0.4289 -0.5819,-0.5915 -0.5867,-1.5536 -0.005,-2.1364 0.2842,-0.2843 0.6617,-0.4405 1.0647,-0.4405 0.4003,0 0.7771,0.1565 1.0613,0.4405 0.5828,0.5828 0.5877,1.5359 0.01,2.1226 -0.2969,0.2872 -0.6707,0.4427 -1.0726,0.4427 z m -12.0428,0.0383 c -0.3996,0 -0.7775,-0.1571 -1.0631,-0.4411 -0.5851,-0.5867 -0.5851,-1.5407 0,-2.1258 0.2817,-0.2859 0.6568,-0.4421 1.0606,-0.4421 0.4014,-2e-4 0.7796,0.1571 1.0645,0.4428 0.2859,0.2807 0.4412,0.6536 0.4428,1.0532 0.002,0.4044 -0.1555,0.7863 -0.4435,1.0728 -0.2831,0.284 -0.6601,0.4402 -1.0613,0.4402 z m 14.5609,6.0139 c -0.8276,0 -1.5032,-0.6778 -1.5032,-1.5112 0,-0.8458 0.6714,-1.5333 1.496,-1.5333 0.8237,-3e-4 1.5008,0.6691 1.5115,1.4918 0,0.8693 -0.6611,1.553 -1.5043,1.5527 z m -17.0344,0.0148 c -0.8327,0 -1.51,-0.6737 -1.51,-1.5031 2e-4,-0.8297 0.6739,-1.5034 1.5033,-1.5034 0.8288,-2e-4 1.5034,0.6707 1.5034,1.496 2e-4,0.8326 -0.6714,1.5107 -1.4967,1.5105 z m 14.5389,5.9994 c -0.4012,0 -0.778,-0.1569 -1.0622,-0.4409 -0.5809,-0.5821 -0.5828,-1.5343 -0.002,-2.1236 0.2865,-0.2817 0.6675,-0.4388 1.0678,-0.4388 0.4007,0 0.7772,0.1548 1.059,0.4363 0.2881,0.2872 0.4443,0.6675 0.4436,1.0712 -0.002,0.401 -0.1603,0.7764 -0.4453,1.0565 -0.275,0.2863 -0.6494,0.4395 -1.0606,0.4393 z m -12.0435,0.0147 c -0.3027,0 -0.5943,-0.0911 -0.8425,-0.2637 l -0.0967,-0.0667 -0.009,0 -0.1179,-0.1149 c -0.577,-0.5763 -0.5779,-1.5285 0.001,-2.1184 0.2858,-0.2859 0.6658,-0.4444 1.068,-0.4444 0.403,-2e-4 0.7796,0.1578 1.0613,0.4444 0.5892,0.5784 0.5902,1.5276 0.009,2.121 -0.297,0.2872 -0.6707,0.4427 -1.0736,0.4427 z m 6.0296,2.489 c -0.8294,0 -1.5033,-0.6746 -1.5033,-1.5033 0,-0.8304 0.6739,-1.5041 1.5031,-1.5041 0.8294,-2e-4 1.5043,0.6739 1.5043,1.5041 0,0.8287 -0.6749,1.5033 -1.5041,1.5033 z" />
    <path
       id="path164"
       style="fill:#000000;fill-rule:evenodd;stroke:#000000;stroke-width:1.49979997;stroke-linecap:butt;stroke-linejoin:miter;stroke-dasharray:none"
       d="m 472.7434,163.0903 c -0.5518,0 -1.0004,-0.449 -1.0004,-1.0009 l 3e-4,-5.6927 c 0,-0.5528 0.4483,-1.0011 0.9999,-1.0011 0.5521,0 1.002,0.4485 1.002,1.0011 l 0,5.6925 c 0,0.5519 -0.4501,1.0013 -1.0018,1.0011 z" />
    <path
       id="path166"
       style="fill:#000000;fill-rule:evenodd;stroke:#000000;stroke-width:1.49979997;stroke-linecap:butt;stroke-linejoin:miter;stroke-dasharray:none"
       d="m 467.7401,164.7907 c -0.267,0 -0.5184,-0.1041 -0.7072,-0.293 l -4.0265,-4.0258 c -0.1889,-0.1888 -0.293,-0.4402 -0.293,-0.7072 0,-0.2676 0.1041,-0.5184 0.293,-0.7081 0.1897,-0.1896 0.4403,-0.293 0.7088,-0.293 0.2672,0 0.5187,0.1043 0.7083,0.293 l 4.024,4.0247 c 0.3899,0.3899 0.3899,1.0258 0,1.4164 -0.1878,0.1889 -0.4405,0.293 -0.7074,0.293 z" />
    <path
       id="path168"
       style="fill:#000000;fill-rule:evenodd;stroke:#000000;stroke-width:1.49979997;stroke-linecap:butt;stroke-linejoin:miter;stroke-dasharray:none"
       d="m 459.7116,169.5317 c -0.5526,0 -1.0018,-0.4492 -1.0018,-1.0018 0,-0.5521 0.4492,-1.0011 1.0018,-1.0011 l 5.6927,0 c 0.5519,0 1.0002,0.4492 1.0002,1.0011 2e-4,0.5526 -0.4486,1.002 -1.0002,1.002 l -5.6927,-2e-4 z" />
    <path
       id="path170"
       style="fill:#000000;fill-rule:evenodd;stroke:#000000;stroke-width:1.49979997;stroke-linecap:butt;stroke-linejoin:miter;stroke-dasharray:none"
       d="m 463.0789,178.5606 c -0.267,0 -0.5187,-0.104 -0.7081,-0.293 -0.1889,-0.1896 -0.2932,-0.4411 -0.2932,-0.7088 2e-4,-0.2671 0.1043,-0.5186 0.2932,-0.7083 l 4.0256,-4.0248 c 0.1889,-0.1897 0.4395,-0.2928 0.7081,-0.2928 0.2678,-3e-4 0.5184,0.104 0.708,0.293 0.3893,0.3897 0.3899,1.0255 0,1.4152 l -4.0265,4.0265 c -0.1878,0.189 -0.4402,0.293 -0.7071,0.293 z" />
    <path
       id="path172"
       style="fill:#000000;fill-rule:evenodd;stroke:#000000;stroke-width:1.49979997;stroke-linecap:butt;stroke-linejoin:miter;stroke-dasharray:none"
       d="m 471.8448,182.5633 c -0.5526,0 -1.0011,-0.4489 -1.0011,-1.0008 l 0,-5.6927 c 0,-0.5519 0.4485,-1.0011 1.0011,-1.0011 0.5526,0 1.0011,0.4494 1.0011,1.0011 l 0,5.6927 c 0,0.5516 -0.4485,1.0011 -1.0011,1.0008 z" />
    <path
       id="path174"
       style="fill:#000000;fill-rule:evenodd;stroke:#000000;stroke-width:1.49979997;stroke-linecap:butt;stroke-linejoin:miter;stroke-dasharray:none"
       d="m 480.8744,179.1962 c -0.2676,0 -0.5193,-0.1049 -0.709,-0.2937 l -4.0246,-4.0248 c -0.189,-0.189 -0.2933,-0.4402 -0.2933,-0.7081 2e-4,-0.2679 0.1043,-0.5194 0.293,-0.7081 0.1906,-0.1889 0.4412,-0.293 0.7083,-0.293 0.267,-2e-4 0.5185,0.1041 0.7081,0.293 l 4.0249,4.0256 c 0.1896,0.1887 0.2937,0.4404 0.2937,0.7081 2e-4,0.2669 -0.1041,0.5184 -0.2937,0.7083 -0.189,0.1887 -0.4405,0.293 -0.7074,0.2927 z" />
    <path
       id="path176"
       style="fill:#000000;fill-rule:evenodd;stroke:#000000;stroke-width:1.49979997;stroke-linecap:butt;stroke-linejoin:miter;stroke-dasharray:none"
       d="m 479.1849,170.4303 c -0.5519,0 -1.0021,-0.4492 -1.0021,-1.001 0,-0.5526 0.4502,-1.0021 1.0018,-1.0021 l 5.6928,0 c 0.5518,0 1.001,0.4495 1.001,1.0021 0,0.5518 -0.4494,1.001 -1.001,1.001 l -5.6925,0 z" />
    <path
       id="path178"
       style="fill:#000000;fill-rule:evenodd;stroke:#000000;stroke-width:1.49979997;stroke-linecap:butt;stroke-linejoin:miter;stroke-dasharray:none"
       d="m 477.4845,165.4263 c -0.267,0 -0.5185,-0.105 -0.7074,-0.2928 -0.1897,-0.1899 -0.2937,-0.4411 -0.2937,-0.709 0,-0.2669 0.104,-0.5184 0.2937,-0.7081 l 4.0242,-4.0241 c 0.1887,-0.189 0.4418,-0.293 0.7087,-0.293 0.267,0 0.5185,0.1042 0.7074,0.293 0.3892,0.3899 0.3899,1.0255 0,1.4154 l -4.0239,4.0256 c -0.1913,0.188 -0.4421,0.2932 -0.709,0.293 z" />
  </g>
</svg>
