<?xml version="1.0" encoding="UTF-8" standalone="no"?>
<svg
   xmlns:dc="http://purl.org/dc/elements/1.1/"
   xmlns:cc="http://creativecommons.org/ns#"
   xmlns:rdf="http://www.w3.org/1999/02/22-rdf-syntax-ns#"
   xmlns:svg="http://www.w3.org/2000/svg"
   xmlns="http://www.w3.org/2000/svg"
   viewBox="0 0 707.66596 617.20032"
   id="svg2"
   height="617.20032"
   width="707.66595"
   version="1.1">
  <metadata
     id="metadata187">
    <rdf:RDF>
      <cc:Work
         rdf:about="">
        <dc:format>image/svg+xml</dc:format>
        <dc:type
           rdf:resource="http://purl.org/dc/dcmitype/StillImage" />
        <dc:title></dc:title>
      </cc:Work>
    </rdf:RDF>
  </metadata>
  <defs
     id="defs185" />
  <g
     transform="translate(-5.7338051,-8.000672)"
     id="Layer1000" />
  <path
     id="path5"
     style="fill:#d7dde8;fill-rule:evenodd"
     d="m 199.46259,82.836028 c -90.204,-8.3695 -122.054895,0.6975 -152.045195,40.452302 -29.9903,39.7547 -25.1084,101.8284 -5.5795,124.1468 -25.1083,20.9239 -59.9817,106.0129 -30.6883,167.3891 29.2933,61.3762 118.567395,80.9051 175.758595,86.4846 13.9494,51.6117 55.6955,107.1781 122.7524,114.3824 67.0568,7.2043 99.0384,-11.1589 149.2552,-59.9807 81.8345,6.5095 148.3763,-3.5623 173.4847,-34.2502 25.1084,-30.6878 34.1368,-87.1029 14.8278,-134.5339 39.2197,-22.1455 64.1656,-32.0834 59.9812,-104.6185 -4.1845,-72.5351 -40.4523,-108.8029 -83.6946,-125.5418 -4.185,-51.6118 -20.2701,-72.107602 -57.9324,-94.425902 -37.6623,-22.3184 -107.4169,-13.6416 -133.2233,6.5843 -19.5289,-34.8723 -58.0163,-62.5624 -114.3292,-68.38810004 C 261.71709,-5.289272 211.55209,37.269228 199.46259,82.836028 Z" />
  <path
     id="path7"
     style="fill:#fcfbfb;fill-rule:evenodd;stroke:#000000;stroke-width:1.49979997;stroke-linecap:butt;stroke-linejoin:miter;stroke-dasharray:none"
     d="m 493.91939,119.12903 c -2.5145,-2.5139 -20.819,14.6789 -22.5446,16.418 -1.3486,1.355 -39.0053,35.3242 -75.8009,60.949 l 7.2532,9.3649 c 41.4538,-27.9494 77.8629,-57.8127 79.5071,-59.1411 2.0557,-1.662 4.0695,-3.1976 3.5807,-5.0198 -0.3292,-1.2274 -1.543,-1.3793 -2.4237,-0.8112 0.8606,-1.0112 1.9119,-1.8701 0.8224,-3.3234 -0.4879,-0.6504 -1.6703,-0.646 -2.3566,-0.1161 1.2917,-1.3111 2.0638,-2.7419 1.5289,-3.7298 -0.5745,-1.0605 -2.2779,-1.4173 -3.1618,-0.8553 1.0014,-1.1833 15.3441,-11.9885 13.5953,-13.7352 z" />
  <path
     id="path9"
     style="fill:#f9f9f9;fill-rule:evenodd;stroke:#000000;stroke-width:1.49979997;stroke-linecap:butt;stroke-linejoin:miter;stroke-dasharray:none"
     d="m 395.57409,196.49583 7.253,9.3651 c 4.4371,-2.9921 8.8116,-6.0048 13.0966,-9.0035 l -6.9992,-9.9755 c -4.4189,3.2786 -8.8912,6.5077 -13.3504,9.6139 z" />
  <path
     id="path11"
     style="fill:#7ea78c;fill-rule:evenodd;stroke:#000000;stroke-width:1.49979997;stroke-linecap:butt;stroke-linejoin:miter;stroke-dasharray:none"
     d="m 395.79049,196.34563 c 3.2021,-2.2331 6.4101,-4.5305 9.5995,-6.8616 l 8e-4,7e-4 c -3.19,2.3311 -6.3984,4.6278 -9.6005,6.8609 l 2e-4,0 z" />
  <path
     id="path13"
     style="fill:#f9f9f9;fill-rule:evenodd;stroke:#000000;stroke-width:1.49979997;stroke-linecap:butt;stroke-linejoin:miter;stroke-dasharray:none"
     d="m 283.95309,402.56633 26.3711,32.4363 c 2.2779,2.8012 5.7023,4.4505 9.3123,4.4025 38.1597,-0.5095 78.9009,-14.8486 113.6856,-43.1286 43.3359,-35.2328 67.405,-83.9358 68.9788,-129.897 0.291,-8.4975 -5.7114,-15.8813 -14.0901,-17.331 -45.3151,-7.8403 -97.906,5.7809 -141.2425,41.0139 -34.7831,28.2792 -57.1371,65.2362 -65.4241,102.4889 -0.7842,3.5239 0.1317,7.2126 2.4089,10.015 z" />
  <path
     id="path15"
     style="fill:#575c63;fill-rule:evenodd;stroke:#000000;stroke-width:1.49979997;stroke-linecap:butt;stroke-linejoin:miter;stroke-dasharray:none"
     d="m 328.19019,439.99873 c 13.0667,16.0722 12.0841,38.976 -1.4003,53.8711 -1.8812,2.0788 -2.0326,5.1912 -0.2643,7.3659 l 0.5254,0.6466 c 1.6727,2.0572 4.5672,2.6784 6.9169,1.4503 6.4855,-3.3923 12.734,-7.4692 18.6331,-12.2655 22.1452,-18.0036 35.542,-42.7723 39.6592,-68.9083 -21.2492,9.9762 -43.3471,15.6254 -64.8314,16.9508 0.2548,0.2947 0.5136,0.5844 0.7614,0.8891 z" />
  <path
     id="path17"
     style="fill:#ffffff;fill-rule:evenodd;stroke:#000000;stroke-width:1.49979997;stroke-linecap:butt;stroke-linejoin:miter;stroke-dasharray:none"
     d="m 282.70119,384.08143 c -13.067,-16.0722 -35.6895,-19.7854 -53.0233,-9.6244 -2.4187,1.4175 -5.4967,0.9294 -7.265,-1.2452 l -0.5261,-0.6467 c -1.6726,-2.0571 -1.6889,-5.0175 -0.007,-7.0665 4.645,-5.6568 9.9109,-10.9416 15.8102,-15.7377 22.1459,-18.0044 49.1266,-26.0634 75.5529,-24.7591 -14.1032,18.7648 -24.1437,39.2448 -29.826,60.007 -0.2378,-0.3099 -0.4678,-0.6228 -0.7153,-0.9274 z" />
  <path
     id="path19"
     style="fill:#ffffff;fill-rule:evenodd;stroke:#000000;stroke-width:1.49979997;stroke-linecap:butt;stroke-linejoin:miter;stroke-dasharray:none"
     d="m 488.31649,249.06863 c -19.8303,-3.443 -41.0579,-2.7665 -62.2952,2.0244 l 61.585,75.7497 c 9.0237,-19.8133 14.0187,-40.4554 14.6967,-60.571 0.283,-8.4128 -5.6927,-15.764 -13.9865,-17.2031 z" />
  <path
     id="path21"
     style="fill:#050109;fill-rule:evenodd;stroke:#000000;stroke-width:1.49979997;stroke-linecap:butt;stroke-linejoin:miter;stroke-dasharray:none"
     d="m 437.13109,258.36993 c -0.0785,0 -0.1572,-0.004 -0.2356,-0.0119 -0.6016,-0.0624 -1.1772,-0.3736 -1.5649,-0.8487 -0.3808,-0.4693 -0.5679,-1.0963 -0.506,-1.6979 0.0637,-0.6146 0.3677,-1.1848 0.8435,-1.5723 0.4109,-0.3339 0.9346,-0.5187 1.4607,-0.5187 0.084,0 0.1669,0.005 0.2507,0.0142 1.2164,0.1256 2.1949,1.3307 2.07,2.5467 -0.0636,0.6149 -0.3727,1.1788 -0.8485,1.5648 -0.4154,0.3382 -0.9355,0.5238 -1.4699,0.5238 z" />
  <path
     id="path23"
     style="fill:#050109;fill-rule:evenodd;stroke:#000000;stroke-width:1.49979997;stroke-linecap:butt;stroke-linejoin:miter;stroke-dasharray:none"
     d="m 445.20649,268.29353 c -0.6757,0 -1.3462,-0.2932 -1.8057,-0.8581 -0.809,-0.9955 -0.6578,-2.4598 0.3382,-3.2695 0.4304,-0.3502 0.949,-0.5202 1.4639,-0.5202 0.6764,0 1.3461,0.2928 1.8056,0.8577 0.8097,0.9951 0.6587,2.4605 -0.3375,3.2695 -0.4302,0.3503 -0.9488,0.5208 -1.4645,0.5206 z" />
  <path
     id="path25"
     style="fill:#050109;fill-rule:evenodd;stroke:#000000;stroke-width:1.49979997;stroke-linecap:butt;stroke-linejoin:miter;stroke-dasharray:none"
     d="m 469.41869,298.07413 c -0.6758,0 -1.3464,-0.2933 -1.8061,-0.8582 -0.8086,-0.9954 -0.6584,-2.4599 0.3375,-3.2696 0.4313,-0.3504 0.9497,-0.5208 1.4646,-0.5208 0.676,-2e-4 1.3464,0.2932 1.805,0.8575 0.8099,0.9961 0.6586,2.4607 -0.3367,3.2704 -0.431,0.35 -0.9488,0.5207 -1.4645,0.5207 z m -8.0711,-9.927 c -0.6758,0 -1.3455,-0.2931 -1.805,-0.8574 -0.8089,-0.9962 -0.6587,-2.4605 0.3375,-3.2702 0.4304,-0.3502 0.9497,-0.5208 1.4645,-0.5208 0.6759,-2e-4 1.3462,0.2934 1.805,0.8575 0.8091,0.9959 0.6585,2.4613 -0.3368,3.2704 -0.4309,0.3502 -0.9497,0.5207 -1.4652,0.5207 z m -8.07,-9.9266 c -0.6759,0 -1.3464,-0.2925 -1.8053,-0.8576 -0.8103,-0.996 -0.6584,-2.4605 0.3369,-3.2696 0.4311,-0.351 0.9497,-0.5214 1.4652,-0.5214 0.6758,-2e-4 1.3455,0.2934 1.805,0.8583 0.8091,0.9953 0.6587,2.4605 -0.3375,3.2702 -0.431,0.3502 -0.9489,0.5201 -1.4643,0.5201 z" />
  <path
     id="path27"
     style="fill:#e5e5e5;fill-rule:evenodd;stroke:#000000;stroke-width:1.49979997;stroke-linecap:butt;stroke-linejoin:miter;stroke-dasharray:none"
     d="m 467.65169,304.91023 -43.428,-53.4169 c 0.5995,-0.1415 1.1981,-0.2648 1.7976,-0.4003 l 42.7118,52.5353 c -0.36,0.4287 -0.717,0.8524 -1.0814,1.2819 z" />
  <path
     id="path29"
     style="fill:#7ea78c;fill-rule:evenodd;stroke:#000000;stroke-width:1.49979997;stroke-linecap:butt;stroke-linejoin:miter;stroke-dasharray:none"
     d="m 282.65769,384.02833 c -0.003,-0.003 -0.006,-0.007 -0.008,-0.01 0.002,0.003 0.005,0.007 0.008,0.01 z m -0.0486,-0.0592 c -0.005,-0.006 -0.0106,-0.0127 -0.0157,-0.0193 0.005,0.007 0.0104,0.0128 0.0157,0.0193 z m -0.0352,-0.0426 c -1.2191,-1.4855 -2.5242,-2.8587 -3.896,-4.1299 9e-4,-0.002 0.002,-0.005 0.002,-0.007 1.3719,1.2713 2.6746,2.6514 3.8937,4.1367 z m 30.6635,-58.9249 c -0.3046,-0.0148 -0.6084,-0.0288 -0.9139,-0.0416 0.3055,0.0126 0.6099,0.0261 0.9145,0.0412 l -6e-4,4e-4 z" />
  <path
     id="path31"
     style="fill:#e5e5e5;fill-rule:evenodd;stroke:#000000;stroke-width:1.49979997;stroke-linecap:butt;stroke-linejoin:miter;stroke-dasharray:none"
     d="m 313.24269,325.00163 c -10e-4,0 -0.004,2e-4 -0.005,2e-4 l 8e-4,-8e-4 c 0.002,0 0.003,2e-4 0.004,2e-4 l 2e-4,4e-4 z" />
  <path
     id="path33"
     style="fill:#ffffff;fill-rule:evenodd;stroke:#000000;stroke-width:1.49979997;stroke-linecap:butt;stroke-linejoin:miter;stroke-dasharray:none"
     d="m 283.41649,385.00863 c -0.2378,-0.3097 -0.4678,-0.6226 -0.7153,-0.927 l 0,-2e-4 c -0.0151,-0.0179 -0.0293,-0.035 -0.0435,-0.0531 -0.003,-0.003 -0.006,-0.007 -0.008,-0.01 -0.0134,-0.0166 -0.0269,-0.0329 -0.0403,-0.0495 -0.005,-0.007 -0.0106,-0.0127 -0.0157,-0.0193 -0.007,-0.007 -0.0127,-0.015 -0.0195,-0.0233 -1.2191,-1.4855 -2.522,-2.8654 -3.8937,-4.1367 6.2292,-19.0022 15.894,-37.6411 28.7955,-54.9182 0.0983,0 0.1954,0 0.2928,0 1.5199,0 3.0381,0.0278 4.555,0.0884 0.3055,0.0126 0.6093,0.027 0.9139,0.0418 0.001,-2e-4 0.004,0 0.005,0 -13.2494,17.6288 -22.9136,36.7708 -28.7461,56.2389 -0.3757,1.2541 -0.7363,2.5108 -1.0799,3.7679 z" />
  <path
     id="path35"
     style="fill:#7ea78c;fill-rule:evenodd;stroke:#000000;stroke-width:1.49979997;stroke-linecap:butt;stroke-linejoin:miter;stroke-dasharray:none"
     d="m 331.58089,444.83883 c -0.9623,-1.6022 -2.0395,-3.1601 -3.2427,-4.6569 1.2043,1.4975 2.2862,3.0532 3.2492,4.6563 -0.002,0 -0.004,0 -0.006,6e-4 z m -3.2755,-4.6989 c -7e-4,0 -9e-4,-6e-4 -0.002,-6e-4 l 0.002,6e-4 z m -0.0374,-0.0456 c -8e-4,-0.002 -0.002,-0.002 -0.003,-0.003 10e-4,6e-4 0.002,10e-4 0.003,0.003 z m -0.0375,-0.0464 c -9e-4,-7e-4 -0.002,-0.002 -0.003,-0.004 6e-4,6e-4 0.002,0.003 0.003,0.004 z m 63.9994,-17.6961 c 7e-4,-0.008 0.003,-0.0195 0.004,-0.0269 -10e-4,0.009 -0.003,0.018 -0.005,0.0269 z m 0.0102,-0.0651 c 0.007,-0.0426 0.0136,-0.0844 0.0201,-0.1279 l 3e-4,0 c -0.007,0.0426 -0.0136,0.0853 -0.0204,0.1279 z" />
  <path
     id="path37"
     style="fill:#575c63;fill-rule:evenodd;stroke:#000000;stroke-width:1.49979997;stroke-linecap:butt;stroke-linejoin:miter;stroke-dasharray:none"
     d="m 331.58759,444.83823 c -0.9632,-1.6031 -2.0453,-3.1588 -3.2494,-4.6563 -0.0112,-0.0142 -0.0218,-0.0275 -0.033,-0.042 l -10e-4,-6e-4 c -0.0121,-0.0151 -0.024,-0.0299 -0.0361,-0.045 -6e-4,-0.002 -0.002,-0.002 -0.003,-0.003 -0.0112,-0.0151 -0.0231,-0.0291 -0.0343,-0.0435 -9e-4,-7e-4 -0.002,-0.003 -0.003,-0.004 -0.0127,-0.0151 -0.0248,-0.0308 -0.0375,-0.0456 l 2e-4,0 c -0.2469,-0.304 -0.5062,-0.5936 -0.7599,-0.8876 1.9563,-0.1213 3.9155,-0.2783 5.8807,-0.4716 19.6188,-1.9201 39.6353,-7.413 58.9492,-16.4807 -0.007,0.0433 -0.0133,0.0853 -0.0201,0.1279 -0.002,0.0127 -0.005,0.0255 -0.006,0.0382 -0.001,0.007 -0.004,0.0187 -0.005,0.0269 -0.2946,1.8477 -0.6415,3.6879 -1.029,5.5198 -19.5384,9.0962 -39.7484,14.7486 -59.6131,16.9666 z" />
  <path
     id="path39"
     style="fill:#050109;fill-rule:evenodd;stroke:#000000;stroke-width:1.49979997;stroke-linecap:butt;stroke-linejoin:miter;stroke-dasharray:none"
     d="m 290.95169,467.66123 c -28.6945,23.3289 -85.7022,25.8299 -85.7022,25.8299 0,0 14.0848,-55.2953 42.78,-78.6249 14.5794,-11.8531 31.6789,-6.1252 43.5312,8.454 11.8532,14.5784 13.9702,32.4872 -0.609,44.341 z" />
  <path
     id="path41"
     style="fill:#ffffff;fill-rule:evenodd;stroke:#000000;stroke-width:1.49979997;stroke-linecap:butt;stroke-linejoin:miter;stroke-dasharray:none"
     d="m 288.88789,460.70143 c -11.7089,9.5198 -36.0338,13.5332 -45.552,1.8254 -9.5189,-11.7072 -0.6241,-34.7022 11.0837,-44.2205 11.7079,-9.5191 24.5869,-4.2258 34.1051,7.4812 9.5191,11.7078 12.07,25.3965 0.3632,34.9139 z" />
  <path
     id="path43"
     style="fill:#f9f9f9;fill-rule:evenodd;stroke:#000000;stroke-width:1.49979997;stroke-linecap:butt;stroke-linejoin:miter;stroke-dasharray:none"
     d="m 287.80179,447.21193 c -6.9281,5.632 -21.5082,8.1577 -27.1409,1.2295 -5.6329,-6.9281 -0.185,-20.6858 6.7432,-26.3193 6.9283,-5.6314 12.7848,-1.0649 18.4168,5.8632 5.6329,6.929 8.9084,13.5937 1.9809,19.2266 z" />
  <path
     id="path45"
     style="fill:#ffffff;fill-rule:evenodd;stroke:#000000;stroke-width:1.49979997;stroke-linecap:butt;stroke-linejoin:miter;stroke-dasharray:none"
     d="m 281.54419,392.55133 c -0.7842,3.5239 0.1317,7.2126 2.4089,10.015 l 26.3711,32.4363 c 2.2779,2.8012 5.7023,4.4505 9.3123,4.4025 2.5848,-0.0352 5.1829,-0.1385 7.7894,-0.2993 l -44.0056,-54.0928 c -0.6878,2.5093 -1.3171,5.0224 -1.8761,7.5383 z" />
  <path
     id="path47"
     style="fill:#e5e5e5;fill-rule:evenodd;stroke:#000000;stroke-width:1.49979997;stroke-linecap:butt;stroke-linejoin:miter;stroke-dasharray:none"
     d="m 287.40919,389.91623 -0.3766,-0.4631 0.3766,0.4631 z" />
  <path
     id="path49"
     style="fill:#a24328;fill-rule:evenodd;stroke:#000000;stroke-width:1.49979997;stroke-linecap:butt;stroke-linejoin:miter;stroke-dasharray:none"
     d="m 281.30319,395.70033 c -0.0293,-0.5314 -0.0284,-1.0649 0.0157,-1.5992 l 5.7137,-4.648 0.3766,0.4631 0.3994,0.4911 -6.5054,5.293 z" />
  <path
     id="path51"
     style="fill:#a24328;fill-rule:evenodd;stroke:#000000;stroke-width:1.49979997;stroke-linecap:butt;stroke-linejoin:miter;stroke-dasharray:none"
     d="m 283.56619,402.03203 c -0.2439,-0.3367 -0.4692,-0.681 -0.675,-1.0371 l 8.142,-6.6244 0.7762,0.955 -8.2432,6.7065 z" />
  <path
     id="path53"
     style="fill:#a24328;fill-rule:evenodd;stroke:#000000;stroke-width:1.49979997;stroke-linecap:butt;stroke-linejoin:miter;stroke-dasharray:none"
     d="m 287.53709,406.97333 -0.7769,-0.9548 8.2731,-6.73 0.7766,0.9544 -8.2728,6.7304 z" />
  <path
     id="path55"
     style="fill:#a24328;fill-rule:evenodd;stroke:#000000;stroke-width:1.49979997;stroke-linecap:butt;stroke-linejoin:miter;stroke-dasharray:none"
     d="m 291.53529,411.89223 -0.0134,-0.0164 -0.7626,-0.9384 8.2745,-6.7315 0.7766,0.9541 -8.2751,6.7322 z" />
  <path
     id="path57"
     style="fill:#a24328;fill-rule:evenodd;stroke:#000000;stroke-width:1.49979997;stroke-linecap:butt;stroke-linejoin:miter;stroke-dasharray:none"
     d="m 295.53459,416.81123 -0.5104,-0.6279 -0.2656,-0.3271 8.276,-6.733 0.7766,0.955 -8.2766,6.733 z" />
  <path
     id="path59"
     style="fill:#e5e5e5;fill-rule:evenodd;stroke:#000000;stroke-width:1.49979997;stroke-linecap:butt;stroke-linejoin:miter;stroke-dasharray:none"
     d="m 307.79249,414.97163 -0.7574,-0.931 0.7574,0.931 z" />
  <path
     id="path61"
     style="fill:#a24328;fill-rule:evenodd;stroke:#000000;stroke-width:1.49979997;stroke-linecap:butt;stroke-linejoin:miter;stroke-dasharray:none"
     d="m 299.53379,421.72993 -0.7762,-0.9548 8.2775,-6.7345 0.7574,0.931 0.0195,0.024 -8.2782,6.7343 z" />
  <path
     id="path63"
     style="fill:#a24328;fill-rule:evenodd;stroke:#000000;stroke-width:1.49979997;stroke-linecap:butt;stroke-linejoin:miter;stroke-dasharray:none"
     d="m 304.40029,425.87513 c -0.5897,0 -1.095,-0.1004 -1.4991,-0.2993 l 8.1347,-6.617 0.7766,0.9542 -7.3278,5.9612 c -0.0284,9e-4 -0.0562,9e-4 -0.0844,9e-4 z" />
  <path
     id="path65"
     style="fill:#8ab196;fill-rule:evenodd;stroke:#000000;stroke-width:1.49979997;stroke-linecap:butt;stroke-linejoin:miter;stroke-dasharray:none"
     d="m 319.48229,439.40603 c -3.553,-2e-4 -6.9133,-1.6419 -9.1583,-4.4034 l -8.0836,-9.9425 8e-4,0 1.0747,1.3224 0.217,0.2664 6.7913,8.3537 c 2.245,2.7613 5.6049,4.4034 9.1581,4.4034 0.0509,-2e-4 0.1024,0 0.1542,-9e-4 l 0,0 c 2.5869,-0.0343 5.1853,-0.1323 7.7938,-0.294 l 2e-4,0 c -2.6087,0.1614 -5.2071,0.2597 -7.794,0.294 -0.0516,7e-4 -0.1033,9e-4 -0.1542,9e-4 z" />
  <path
     id="path67"
     style="fill:#575c63;fill-rule:evenodd;stroke:#000000;stroke-width:1.49979997;stroke-linecap:butt;stroke-linejoin:miter;stroke-dasharray:none"
     d="m 319.63649,439.40513 c 2.5848,-0.0352 5.1829,-0.1385 7.7894,-0.2993 l -3.613,-4.4413 -0.776,-0.9542 -3.8442,-4.725 -0.1563,-0.1924 -3.7282,-4.583 -0.2717,-0.3343 -1.1023,-1.3539 c 27.783,-12.1637 60.4885,-32.4369 92.9174,-58.8026 23.8641,-19.4018 44.5393,-39.6294 60.8001,-58.8089 l 19.1951,23.6096 c 0.2612,-0.5577 0.5051,-1.1188 0.7595,-1.6771 l -18.8732,-23.2144 18.8732,23.2144 c 9.0237,-19.8133 14.0187,-40.4554 14.6967,-60.571 0.002,-0.066 0.004,-0.1309 0.006,-0.196 -10e-4,0.101 -0.004,0.2019 -0.008,0.3031 -1.5738,45.9617 -25.6429,94.6649 -68.9796,129.8977 -30.6567,24.9243 -65.9443,39.0209 -100.0103,42.363 -1.965,0.1924 -3.9251,0.3488 -5.8822,0.4701 l 3e-4,0 c 6e-4,-2e-4 6e-4,7e-4 10e-4,0.002 -2.6085,0.1614 -5.2069,0.2597 -7.7938,0.294 z" />
  <path
     id="path69"
     style="fill:#575c63;fill-rule:evenodd;stroke:#000000;stroke-width:1.49979997;stroke-linecap:butt;stroke-linejoin:miter;stroke-dasharray:none"
     d="m 487.60629,326.84273 -18.8732,-23.2144 c 12.7473,-15.1834 22.7017,-29.683 29.249,-42.562 1.3838,-2.7219 1.496,-4.7963 0.5268,-5.9921 2.4509,3.015 3.869,6.869 3.8,11.0015 -0.001,0.0649 -0.004,0.1302 -0.006,0.196 -0.678,20.1156 -5.6732,40.7579 -14.6967,60.571 z m -2.0286,-13.5644 c -0.5365,0 -1.0673,0.1818 -1.4864,0.5216 -0.475,0.3876 -0.7798,0.9578 -0.8485,1.5647 -0.056,0.6099 0.1249,1.2297 0.5118,1.7055 0.3869,0.4758 0.9571,0.7792 1.5641,0.8487 0.0733,0.007 0.1459,0.0104 0.2191,0.0104 0.5367,0 1.0672,-0.1811 1.4862,-0.5216 0.476,-0.3869 0.7791,-0.9578 0.8487,-1.5655 0.1258,-1.2159 -0.8591,-2.4276 -2.0759,-2.5534 -0.0734,-0.007 -0.146,-0.0104 -0.2194,-0.0104 z m -8.0913,-9.9253 c -0.5155,0 -1.0341,0.1705 -1.4652,0.5208 -0.9961,0.8096 -1.1472,2.2736 -0.3375,3.2695 0.4595,0.5649 1.1298,0.8585 1.8057,0.8585 0.515,-2e-4 1.0335,-0.1708 1.4645,-0.521 0.9955,-0.8097 1.1466,-2.2742 0.3367,-3.2696 -0.4587,-0.5657 -1.1292,-0.8582 -1.8042,-0.8582 z" />
  <path
     id="path71"
     style="fill:#050109;fill-rule:evenodd;stroke:#000000;stroke-width:1.49979997;stroke-linecap:butt;stroke-linejoin:miter;stroke-dasharray:none"
     d="m 477.48959,308.00163 c -0.6759,0 -1.3464,-0.2932 -1.8059,-0.8583 -0.8097,-0.9962 -0.6586,-2.4599 0.3375,-3.2695 0.4311,-0.3503 0.9495,-0.5208 1.4652,-0.5208 0.675,0 1.3455,0.2925 1.8042,0.8582 0.8099,0.9954 0.6586,2.4599 -0.3367,3.2696 -0.4308,0.3502 -0.9497,0.521 -1.4643,0.5208 z" />
  <path
     id="path73"
     style="fill:#050109;fill-rule:evenodd;stroke:#000000;stroke-width:1.49979997;stroke-linecap:butt;stroke-linejoin:miter;stroke-dasharray:none"
     d="m 485.53799,317.92923 c -0.0734,0 -0.1462,-0.004 -0.2193,-0.0104 -0.607,-0.0698 -1.1774,-0.3727 -1.5641,-0.8487 -0.3869,-0.476 -0.5681,-1.0956 -0.5118,-1.7055 0.0689,-0.6069 0.3733,-1.1771 0.8485,-1.5647 0.4191,-0.3398 0.9497,-0.5216 1.4861,-0.5216 0.0734,0 0.146,0.004 0.2194,0.0104 1.2168,0.1256 2.2017,1.3375 2.0759,2.5534 -0.0696,0.6075 -0.3727,1.1786 -0.8487,1.5655 -0.4188,0.3405 -0.9495,0.5216 -1.486,0.5216 z" />
  <path
     id="path75"
     style="fill:#dddedd;fill-rule:evenodd;stroke:#000000;stroke-width:1.49979997;stroke-linecap:butt;stroke-linejoin:miter;stroke-dasharray:none"
     d="m 486.84679,328.51983 -19.1951,-23.6096 c 0.3646,-0.4295 0.7214,-0.853 1.0814,-1.2819 l 18.8732,23.2144 c -0.2544,0.5581 -0.4985,1.1196 -0.7595,1.6771 z" />
  <path
     id="path77"
     style="fill:#9e4125;fill-rule:evenodd;stroke:#000000;stroke-width:1.49979997;stroke-linecap:butt;stroke-linejoin:miter;stroke-dasharray:none"
     d="m 327.43049,439.11113 0,0 c -8e-4,-8e-4 -8e-4,-0.002 -0.002,-0.002 1.9571,-0.1213 3.917,-0.2777 5.8822,-0.4701 -1.965,0.1931 -3.9244,0.3503 -5.8805,0.4716 z" />
  <path
     id="path79"
     style="fill:#575c63;fill-rule:evenodd;stroke:#000000;stroke-width:1.49979997;stroke-linecap:butt;stroke-linejoin:miter;stroke-dasharray:none"
     d="m 319.48229,439.40603 c -3.553,-2e-4 -6.9133,-1.6419 -9.1583,-4.4034 l -6.7911,-8.3537 0.9518,-0.7747 c 0.9616,-0.0148 2.1425,-0.2902 3.476,-0.8313 1.963,-0.797 3.9566,-1.6381 5.9733,-2.5212 l 1.1016,1.3539 -8.2805,6.7365 0.7771,0.9548 8.2802,-6.7357 -0.5042,-0.6213 3.7282,4.583 -8.2521,6.7141 c 0.2792,0.3068 0.5717,0.5972 0.8785,0.871 l 8.1504,-6.6294 -0.6205,-0.7633 3.8436,4.725 -6.5075,5.2945 c 0.5148,0.1354 1.0377,0.244 1.5706,0.3083 l 5.7135,-4.6486 3.6132,4.4413 c -2.6064,0.1608 -5.2048,0.2641 -7.7896,0.2993 l 0,0 c -0.0516,7e-4 -0.1033,9e-4 -0.1542,9e-4 z m -16.1664,-13.0235 -1.0747,-1.3224 0,-9e-4 c 0.1744,0.2141 0.3959,0.3863 0.66,0.5166 l -0.1443,0.1181 0.559,0.6886 z" />
  <path
     id="path81"
     style="fill:#7ba284;fill-rule:evenodd;stroke:#000000;stroke-width:1.49979997;stroke-linecap:butt;stroke-linejoin:miter;stroke-dasharray:none"
     d="m 303.53289,426.64893 -0.217,-0.2664 0.217,0.2664 z" />
  <path
     id="path83"
     style="fill:#9e4125;fill-rule:evenodd;stroke:#000000;stroke-width:1.49979997;stroke-linecap:butt;stroke-linejoin:miter;stroke-dasharray:none"
     d="m 303.53289,426.64893 -0.217,-0.2664 -0.559,-0.6886 0.1445,-0.1181 c 0.4041,0.1989 0.909,0.2993 1.4987,0.2993 0.0286,0 0.0562,0 0.0846,-9e-4 l -0.9518,0.7747 z" />
  <path
     id="path85"
     style="fill:#dddedd;fill-rule:evenodd;stroke:#000000;stroke-width:1.49979997;stroke-linecap:butt;stroke-linejoin:miter;stroke-dasharray:none"
     d="m 315.30819,424.20993 -0.2726,-0.3343 9e-4,0 0.2717,0.3343 z" />
  <path
     id="path87"
     style="fill:#9e4125;fill-rule:evenodd;stroke:#000000;stroke-width:1.49979997;stroke-linecap:butt;stroke-linejoin:miter;stroke-dasharray:none"
     d="m 307.53219,431.56693 -0.7771,-0.9548 8.2814,-6.7365 0.2717,0.3343 0.5042,0.6213 -8.2802,6.7357 z" />
  <path
     id="path89"
     style="fill:#dddedd;fill-rule:evenodd;stroke:#000000;stroke-width:1.49979997;stroke-linecap:butt;stroke-linejoin:miter;stroke-dasharray:none"
     d="m 319.19269,428.98533 -0.1563,-0.1924 0.1563,0.1924 z" />
  <path
     id="path91"
     style="fill:#9e4125;fill-rule:evenodd;stroke:#000000;stroke-width:1.49979997;stroke-linecap:butt;stroke-linejoin:miter;stroke-dasharray:none"
     d="m 311.66279,436.37803 c -0.3066,-0.2738 -0.5995,-0.5642 -0.8785,-0.871 l 8.2521,-6.7141 0.1563,0.1924 0.6205,0.7633 -8.1504,6.6294 z" />
  <path
     id="path93"
     style="fill:#dddedd;fill-rule:evenodd;stroke:#000000;stroke-width:1.49979997;stroke-linecap:butt;stroke-linejoin:miter;stroke-dasharray:none"
     d="m 323.81289,434.66453 -0.7766,-0.9542 6e-4,0 0.776,0.9542 z" />
  <path
     id="path95"
     style="fill:#9e4125;fill-rule:evenodd;stroke:#000000;stroke-width:1.49979997;stroke-linecap:butt;stroke-linejoin:miter;stroke-dasharray:none"
     d="m 318.09939,439.31313 c -0.5329,-0.0643 -1.056,-0.1729 -1.5708,-0.3083 l 6.5083,-5.2945 0.776,0.9542 -5.7135,4.6486 z" />
  <path
     id="path97"
     style="fill:#f9f9f9;fill-rule:evenodd;stroke:#000000;stroke-width:1.49979997;stroke-linecap:butt;stroke-linejoin:miter;stroke-dasharray:none"
     d="m 300.06349,204.46293 104.5753,-8.868 c -0.746,14.066 -1.7736,32.4483 4.9024,48.1667 -13.1979,15.8609 -64.0765,47.2077 -83.2027,48.2166 -13.0629,-22.1563 -22.7549,-55.0858 -26.275,-87.5153 z" />
  <path
     id="path99"
     style="fill:#050109;fill-rule:evenodd;stroke:#000000;stroke-width:1.49979997;stroke-linecap:butt;stroke-linejoin:miter;stroke-dasharray:none"
     d="m 409.54119,243.76143 -83.2025,48.2166 10.4431,18.9151 -18.5095,22.7693 c 0,0 16.8123,35.0727 20.616,17.9229 4.0217,-18.1301 -12.4,-18.6121 -12.4,-18.6121 l 21.0256,-19.225 -6.1431,-20.5967 c 0,0 30.1343,-20.8901 61.7399,-37.0828 l 1.1194,1.3986 c 3.7141,-1.3424 7.4423,-2.5556 11.1781,-3.6421 l -5.867,-10.0638 z" />
  <path
     id="path101"
     style="fill:#ffffff;fill-rule:evenodd;stroke:#000000;stroke-width:1.49979997;stroke-linecap:butt;stroke-linejoin:miter;stroke-dasharray:none"
     d="m 404.63879,195.59493 c 0,0 6.9679,-106.138602 -76.1007,-80.9087 0,-2e-4 -26.523,31.3406 -28.4746,89.7767 70.06,18.178 104.5753,-8.8678 104.5753,-8.868 z" />
  <path
     id="path103"
     style="fill:#050109;fill-rule:evenodd;stroke:#000000;stroke-width:1.49979997;stroke-linecap:butt;stroke-linejoin:miter;stroke-dasharray:none"
     d="m 396.93159,64.809528 c 7.7656,29.6749 12.0962,71.862202 -74.8698,76.355302 l -1.0484,22.5544 c 0,0 -9.8326,-7.4917 -11.3478,3.1782 -1.5176,10.6775 10.6698,5.4375 10.6698,5.4375 0,0 -9.6372,19.9045 -20.2719,32.128 -0.6368,0.7317 -46.2306,-92.6863 1.0806,-97.4115 2e-4,-2e-4 2.0182,-23.560802 35.0353,-27.550902 30.141,-3.6425 45.5219,23.956802 60.7522,-14.691 z" />
  <path
     id="path105"
     style="fill:#050109;fill-rule:evenodd;stroke:#000000;stroke-width:1.49979997;stroke-linecap:butt;stroke-linejoin:miter;stroke-dasharray:none"
     d="m 356.13039,180.84493 c 0,0 13.1416,-3.5642 30.6819,-5.0824 3e-4,-3e-4 2.1328,16.6116 -12.6433,19.0594 -16.283,2.697 -18.0388,-13.9768 -18.0386,-13.977 z" />
  <path
     id="path107"
     style="fill:#050109;fill-rule:evenodd;stroke:#000000;stroke-width:1.49979997;stroke-linecap:butt;stroke-linejoin:miter;stroke-dasharray:none"
     d="m 349.91819,160.73033 c 1.0485,4.2925 0.2963,8.1638 -1.6801,8.6471 -1.977,0.4826 -4.4295,-2.6056 -5.4785,-6.8983 -1.0483,-4.2926 -0.2963,-8.1636 1.6807,-8.647 1.9765,-0.4828 4.4295,2.6058 5.4779,6.8982 z" />
  <path
     id="path109"
     style="fill:#050109;fill-rule:evenodd;stroke:#000000;stroke-width:1.49979997;stroke-linecap:butt;stroke-linejoin:miter;stroke-dasharray:none"
     d="m 391.84809,150.48623 c 1.0485,4.2924 0.2955,8.1638 -1.6809,8.6464 -1.9769,0.4832 -4.4295,-2.605 -5.4787,-6.8974 -1.0481,-4.2927 -0.2963,-8.1638 1.6801,-8.6473 1.9772,-0.4828 4.4303,2.6058 5.4795,6.8983 z" />
  <path
     id="path111"
     style="fill:#523c27;fill-rule:evenodd;stroke:#000000;stroke-width:1.49979997;stroke-linecap:butt;stroke-linejoin:miter;stroke-dasharray:none"
     d="m 366.04379,277.15203 c -2.3268,-1.1622 -4.7799,-2.4689 -7.3378,-3.9312 l 16.4174,-9.5137 c 2.7725,1.4233 5.2608,2.6072 7.4332,3.5809 -5.8923,3.3951 -11.473,6.7515 -16.5128,9.864 z" />
  <path
     id="path113"
     style="fill:#ffffff;fill-rule:evenodd;stroke:#000000;stroke-width:1.49979997;stroke-linecap:butt;stroke-linejoin:miter;stroke-dasharray:none"
     d="m 312.41199,216.74313 c 42.8951,42.0203 78.6644,53.4044 80.3998,53.6407 2.2229,0.3017 6.6581,1.2565 6.114,3.3175 -0.2775,1.0484 -1.0191,1.4181 -2.4351,1.3396 0.898,0.3358 1.8343,0.7925 1.7811,1.7855 -0.0448,0.8846 -1.615,1.5993 -2.623,1.5715 -0.0882,-0.0134 -0.178,-0.0276 -0.2635,-0.0255 0.0855,-0.002 0.1753,0.0121 0.2635,0.0255 0.8579,0.1347 1.8207,1.0634 1.7774,1.8754 -0.0462,1.0647 -1.4592,1.4098 -2.5128,1.3222 0.9026,0.3316 1.5481,0.8449 1.4995,1.8305 -0.1018,2.0744 -4.0485,1.127 -6.3968,0.5426 -1.8775,-0.4686 -39.3661,-12.1756 -85.426,-58.3299 l 7.8219,-8.8956 z" />
  <path
     id="path115"
     style="fill:#f9f9f9;fill-rule:evenodd;stroke:#000000;stroke-width:1.49979997;stroke-linecap:butt;stroke-linejoin:miter;stroke-dasharray:none"
     d="m 312.41199,216.74313 -7.8216,8.8965 c 3.3698,3.3756 6.6863,6.5471 9.9535,9.5638 l 7.4769,-9.4488 c -3.1567,-2.8405 -6.3588,-5.8272 -9.6088,-9.0115 z" />
  <path
     id="path117"
     style="fill:#050109;fill-rule:evenodd;stroke:#000000;stroke-width:1.49979997;stroke-linecap:butt;stroke-linejoin:miter;stroke-dasharray:none"
     d="m 396.53509,207.76903 2.9895,3.1384 -1.5596,5.0918 c 0,0 3.2912,26.3681 -31.1762,34.1748 l -10.3651,-7.6676 7.9878,-9.1831 c 29.0606,0.212 28.2514,-15.3738 28.2514,-15.3738 l -4.4938,-3.6803 0.8644,-3.4814 7.5016,-3.0188 z" />
  <path
     id="path119"
     style="fill:#eff4f1;fill-rule:evenodd;stroke:#000000;stroke-width:1.49979997;stroke-linecap:butt;stroke-linejoin:miter;stroke-dasharray:none"
     d="m 243.03739,244.72973 c -0.3233,0 -0.5867,-0.2632 -0.5867,-0.5873 l 0,-3.563 c 0,-0.3241 0.2632,-0.5874 0.5873,-0.5874 0.3233,0 0.5868,0.2635 0.5868,0.5874 l 0,3.563 c 0,0.3241 -0.2635,0.5876 -0.5874,0.5873 z" />
  <path
     id="path121"
     style="fill:#eff4f1;fill-rule:evenodd;stroke:#000000;stroke-width:1.49979997;stroke-linecap:butt;stroke-linejoin:miter;stroke-dasharray:none"
     d="m 239.90549,245.79323 c -0.1572,0 -0.3046,-0.0605 -0.4153,-0.1721 l -2.5197,-2.519 c -0.1107,-0.1108 -0.1722,-0.2582 -0.1722,-0.4152 2e-4,-0.1565 0.0615,-0.3039 0.1722,-0.4147 0.1107,-0.1116 0.2588,-0.172 0.4145,-0.172 0.1572,0 0.3046,0.0607 0.4162,0.172 l 2.5188,2.5191 c 0.1116,0.1113 0.1729,0.2588 0.1729,0.4153 0,0.157 -0.0613,0.3038 -0.1729,0.4154 -0.1107,0.1107 -0.2581,0.1712 -0.4145,0.1712 z" />
  <path
     id="path123"
     style="fill:#eff4f1;fill-rule:evenodd;stroke:#000000;stroke-width:1.49979997;stroke-linecap:butt;stroke-linejoin:miter;stroke-dasharray:none"
     d="m 234.87959,248.76113 c -0.324,0 -0.5868,-0.2633 -0.5868,-0.5874 2e-4,-0.3233 0.2628,-0.5866 0.5868,-0.5866 l 3.5637,-2e-4 c 0.3233,0 0.5866,0.2635 0.5866,0.5868 0,0.3239 -0.2635,0.5876 -0.5868,0.5876 l -3.5635,-2e-4 z" />
  <path
     id="path125"
     style="fill:#eff4f1;fill-rule:evenodd;stroke:#000000;stroke-width:1.49979997;stroke-linecap:butt;stroke-linejoin:miter;stroke-dasharray:none"
     d="m 236.98709,254.41263 c -0.1566,0 -0.304,-0.0605 -0.4148,-0.172 -0.1107,-0.111 -0.172,-0.2582 -0.172,-0.4145 0,-0.1574 0.0613,-0.3047 0.172,-0.4154 l 2.5197,-2.5199 c 0.1107,-0.1107 0.2582,-0.172 0.4154,-0.172 0.1563,0 0.3037,0.0615 0.4153,0.1722 0.1107,0.1114 0.1714,0.2588 0.1714,0.4154 0,0.157 -0.0607,0.3038 -0.1714,0.4153 l -2.5205,2.5189 c -0.1107,0.1113 -0.2582,0.172 -0.4151,0.172 z" />
  <path
     id="path127"
     style="fill:#eff4f1;fill-rule:evenodd;stroke:#000000;stroke-width:1.49979997;stroke-linecap:butt;stroke-linejoin:miter;stroke-dasharray:none"
     d="m 242.47379,256.91893 c -0.3233,0 -0.5868,-0.2635 -0.5868,-0.5874 l 0,-3.5629 c 0,-0.3233 0.2635,-0.5867 0.5874,-0.5867 0.3233,-3e-4 0.5868,0.2634 0.5868,0.5867 l 2e-4,3.5627 c 0,0.3239 -0.2637,0.5876 -0.5876,0.5876 z" />
  <path
     id="path129"
     style="fill:#eff4f1;fill-rule:evenodd;stroke:#000000;stroke-width:1.49979997;stroke-linecap:butt;stroke-linejoin:miter;stroke-dasharray:none"
     d="m 248.12619,254.81163 c -0.1566,0 -0.304,-0.0615 -0.4156,-0.1722 l -2.5188,-2.5197 c -0.1107,-0.1107 -0.1723,-0.2582 -0.1723,-0.4154 3e-4,-0.1563 0.0616,-0.3037 0.1723,-0.4145 0.1116,-0.1115 0.2582,-0.172 0.4153,-0.172 0.1564,-2e-4 0.3038,0.0605 0.4154,0.172 l 2.5188,2.5197 c 0.111,0.1108 0.1723,0.2582 0.1723,0.4145 0,0.1572 -0.0615,0.3046 -0.1723,0.4154 -0.1113,0.1107 -0.2588,0.1722 -0.4151,0.1722 z" />
  <path
     id="path131"
     style="fill:#eff4f1;fill-rule:evenodd;stroke:#000000;stroke-width:1.49979997;stroke-linecap:butt;stroke-linejoin:miter;stroke-dasharray:none"
     d="m 247.06869,249.32453 c -0.3233,0 -0.5867,-0.2633 -0.5867,-0.5872 0,-0.3241 0.2634,-0.5876 0.5867,-0.5876 l 3.5636,8e-4 c 0.3241,0 0.5874,0.2635 0.5874,0.5868 -7e-4,0.3239 -0.2641,0.5874 -0.5874,0.5874 l -3.5636,-2e-4 z" />
  <path
     id="path133"
     style="fill:#eff4f1;fill-rule:evenodd;stroke:#000000;stroke-width:1.49979997;stroke-linecap:butt;stroke-linejoin:miter;stroke-dasharray:none"
     d="m 246.00529,246.19223 c -0.1572,0 -0.3046,-0.0616 -0.4153,-0.1723 -0.1108,-0.1107 -0.1723,-0.2581 -0.1723,-0.4153 2e-4,-0.1566 0.0615,-0.3038 0.1723,-0.4152 l 2.5196,-2.5192 c 0.1108,-0.1105 0.2582,-0.1712 0.4154,-0.1712 0.1563,0 0.3038,0.0607 0.4145,0.1714 0.2291,0.2289 0.2291,0.6016 0,0.8307 l -2.5197,2.5188 c -0.1107,0.1107 -0.2581,0.1723 -0.4145,0.1723 z" />
  <path
     id="path135"
     style="fill:#eff4f1;fill-rule:evenodd;stroke:#000000;stroke-width:1.49979997;stroke-linecap:butt;stroke-linejoin:miter;stroke-dasharray:none"
     d="m 538.46489,155.13273 c -0.431,0 -0.7823,-0.3503 -0.7823,-0.7819 l 2e-4,-11.2007 c 0,-0.4317 0.3506,-0.7819 0.7817,-0.7819 0.4315,0 0.7821,0.3502 0.7821,0.7819 l 4e-4,11.2007 c 0,0.4316 -0.3515,0.7819 -0.7821,0.7819 z" />
  <path
     id="path137"
     style="fill:#eff4f1;fill-rule:evenodd;stroke:#000000;stroke-width:1.49979997;stroke-linecap:butt;stroke-linejoin:miter;stroke-dasharray:none"
     d="m 532.86429,149.53293 c -0.4311,0 -0.7824,-0.3511 -0.7824,-0.7822 2e-4,-0.4316 0.3511,-0.7819 0.7822,-0.7819 l 11.2014,0 c 0.4311,0 0.7817,0.3503 0.7817,0.7819 0,0.4311 -0.351,0.7822 -0.7821,0.7822 l -11.2008,0 z" />
  <path
     id="path139"
     style="fill:#eff4f1;fill-rule:evenodd;stroke:#000000;stroke-width:1.49979997;stroke-linecap:butt;stroke-linejoin:miter;stroke-dasharray:none"
     d="m 217.04879,162.02943 c -0.3653,0 -0.6616,-0.2963 -0.6616,-0.6614 l 0,-9.4765 c 0,-0.3644 0.2963,-0.6614 0.6616,-0.6614 0.3644,0 0.6614,0.297 0.6614,0.6614 l 2e-4,9.4763 c 0,0.3653 -0.2972,0.6616 -0.6616,0.6616 z" />
  <path
     id="path141"
     style="fill:#eff4f1;fill-rule:evenodd;stroke:#000000;stroke-width:1.49979997;stroke-linecap:butt;stroke-linejoin:miter;stroke-dasharray:none"
     d="m 212.31169,157.29173 c -0.365,0 -0.6622,-0.2972 -0.6622,-0.6623 0,-0.3644 0.297,-0.6616 0.6622,-0.6616 l 9.4757,0 c 0.365,0 0.6614,0.2972 0.6614,0.6616 0,0.3651 -0.2964,0.6623 -0.6614,0.6623 l -9.4757,0 z" />
  <path
     id="path143"
     style="fill:#eff4f1;fill-rule:evenodd;stroke:#000000;stroke-width:1.49979997;stroke-linecap:butt;stroke-linejoin:miter;stroke-dasharray:none"
     d="m 599.25039,223.98413 c -0.5257,0 -0.9542,-0.4278 -0.9542,-0.9539 l 4e-4,-13.6718 c 0,-0.526 0.4277,-0.9547 0.9538,-0.9547 0.5263,-3e-4 0.955,0.4287 0.955,0.955 l 2e-4,13.6713 c 0,0.5261 -0.4291,0.9541 -0.9552,0.9541 z" />
  <path
     id="path145"
     style="fill:#eff4f1;fill-rule:evenodd;stroke:#000000;stroke-width:1.49979997;stroke-linecap:butt;stroke-linejoin:miter;stroke-dasharray:none"
     d="m 592.41509,217.14893 c -0.526,0 -0.9541,-0.4281 -0.9541,-0.9542 0,-0.5269 0.4281,-0.955 0.9541,-0.955 l 13.6711,0 c 0.5265,0 0.9538,0.4281 0.9538,0.955 0,0.5261 -0.4273,0.9542 -0.9542,0.9542 l -13.6707,0 z" />
  <path
     id="path147"
     style="fill:#eff4f1;fill-rule:evenodd;stroke:#000000;stroke-width:1.49979997;stroke-linecap:butt;stroke-linejoin:miter;stroke-dasharray:none"
     d="m 273.97479,35.162528 c -1.1525,0 -2.0903,0.9378 -2.0903,2.0901 0,1.1525 0.9378,2.0897 2.0901,2.0897 1.1525,-2e-4 2.0894,-0.9372 2.0894,-2.0897 0,-1.1523 -0.9369,-2.0899 -2.0892,-2.0901 z m 0,5.4411 c -1.8485,0 -3.3512,-1.5034 -3.3512,-3.351 0,-1.8477 1.5027,-3.3508 3.351,-3.3508 1.8478,0 3.3512,1.5031 3.3512,3.3508 0,1.8474 -1.5036,3.351 -3.351,3.351 z" />
  <path
     id="path149"
     style="fill:#eff4f1;fill-rule:evenodd;stroke:#000000;stroke-width:1.49979997;stroke-linecap:butt;stroke-linejoin:miter;stroke-dasharray:none"
     d="m 514.47049,221.59923 c -1.0623,-0.0344 -1.9547,0.8016 -1.9893,1.8635 -0.035,1.0626 0.8008,1.9554 1.8633,1.9898 1.0632,0.035 1.9556,-0.8014 1.9892,-1.8642 0.0354,-1.0619 -0.8006,-1.9539 -1.8632,-1.9891 z m -0.1637,5.016 c -1.7034,-0.0554 -3.0439,-1.4868 -2.9885,-3.19 0.0554,-1.7032 1.487,-3.0443 3.1902,-2.9881 1.7036,0.0554 3.0436,1.4862 2.9883,3.1894 -0.0552,1.7038 -1.4864,3.0442 -3.19,2.9887 z" />
  <path
     id="path151"
     style="fill:#eff4f1;fill-rule:evenodd;stroke:#000000;stroke-width:1.49979997;stroke-linecap:butt;stroke-linejoin:miter;stroke-dasharray:none"
     d="m 143.27609,93.641728 c -1.5394,0 -2.7912,1.2522 -2.7912,2.7907 0,1.539 1.2518,2.7914 2.7912,2.7914 1.5393,0 2.7912,-1.2519 2.7912,-2.7914 3e-4,-1.5388 -1.2519,-2.7905 -2.7912,-2.7907 z m 0,7.267102 c -2.4681,0 -4.4757,-2.008202 -4.4757,-4.476402 0,-2.4675 2.0076,-4.4757 4.4757,-4.4757 2.4682,0 4.4758,2.0085 4.4758,4.4757 0,2.4682 -2.0078,4.476602 -4.4758,4.476402 z" />
  <path
     id="path153"
     style="fill:#eff4f1;fill-rule:evenodd;stroke:#000000;stroke-width:1.49979997;stroke-linecap:butt;stroke-linejoin:miter;stroke-dasharray:none"
     d="m 566.93839,71.165728 c -0.7316,0 -1.3275,-0.5893 -1.3275,-1.3152 2e-4,-0.7323 0.5927,-1.3269 1.3216,-1.3269 0.7282,0 1.3207,0.5921 1.3207,1.321 2e-4,0.7284 -0.5897,1.3215 -1.3148,1.3211 z m 5.2916,2.1735 c -0.3486,0 -0.678,-0.1339 -0.9296,-0.377 -0.5116,-0.521 -0.5163,-1.3659 -0.004,-1.8777 0.2495,-0.2499 0.5817,-0.3868 0.9349,-0.3868 0.3517,-4e-4 0.6839,0.1369 0.9331,0.3868 0.5123,0.5118 0.5163,1.3493 0.008,1.8656 -0.2609,0.2523 -0.5897,0.3893 -0.9429,0.3891 z m -10.5838,0.0329 c -0.3511,0 -0.6826,-0.1375 -0.934,-0.3876 -0.5132,-0.5159 -0.5142,-1.3536 0,-1.8678 0.248,-0.2522 0.5776,-0.389 0.9317,-0.389 0.3534,0 0.6854,0.1376 0.9361,0.389 0.2507,0.2452 0.3884,0.5734 0.3899,0.9257 0.001,0.3547 -0.1371,0.6901 -0.3899,0.9421 -0.2497,0.249 -0.5815,0.3878 -0.9338,0.3876 z m 12.7975,5.2856 c -0.729,0 -1.3217,-0.5963 -1.3217,-1.3282 0,-0.7433 0.5897,-1.3478 1.3141,-1.3478 0.7246,-2e-4 1.3207,0.5882 1.3282,1.3111 4e-4,0.7639 -0.58,1.3651 -1.3206,1.3649 z m -14.9708,0.0127 c -0.7325,0 -1.3277,-0.5927 -1.3277,-1.3216 4e-4,-0.7288 0.5927,-1.3213 1.3209,-1.3213 0.7291,-2e-4 1.3216,0.5895 1.3216,1.3148 2e-4,0.7325 -0.5897,1.3283 -1.3148,1.3281 z m 12.7766,5.2727 c -0.3524,0 -0.6833,-0.1375 -0.9334,-0.3882 -0.511,-0.5104 -0.511,-1.347 -0.002,-1.8655 0.2522,-0.2479 0.5859,-0.3862 0.9385,-0.3862 0.3534,-3e-4 0.6839,0.137 0.9308,0.3848 0.2524,0.252 0.3914,0.5865 0.3899,0.9412 -0.001,0.3525 -0.1407,0.6818 -0.3914,0.928 -0.2425,0.2504 -0.5711,0.3861 -0.9323,0.3859 z m -10.5832,0.0123 c -0.2672,0 -0.5239,-0.0802 -0.7418,-0.2312 l -0.0844,-0.0592 -0.008,0 -0.1035,-0.1003 c -0.5072,-0.5077 -0.508,-1.3441 0.002,-1.8625 0.2515,-0.2518 0.5844,-0.3908 0.9376,-0.3908 0.354,0 0.6856,0.1385 0.9331,0.3908 0.5176,0.5087 0.518,1.3425 0.006,1.8633 -0.2603,0.2527 -0.5883,0.3899 -0.9415,0.3899 z m 5.2986,2.1873 c -0.7291,-0.0017 -1.322,-0.5934 -1.322,-1.3216 2e-4,-0.728 0.5921,-1.3207 1.3201,-1.3207 0.7293,0 1.3224,0.5933 1.3224,1.3216 0,0.728 -0.5927,1.3207 -1.3205,1.3207 z" />
  <path
     id="path155"
     style="fill:#eff4f1;fill-rule:evenodd;stroke:#000000;stroke-width:1.49979997;stroke-linecap:butt;stroke-linejoin:miter;stroke-dasharray:none"
     d="m 132.42169,220.09943 c -0.776,0 -1.4068,-0.6256 -1.4068,-1.3939 0,-0.7762 0.6283,-1.4077 1.4004,-1.4077 0.7722,-2e-4 1.4009,0.6286 1.4009,1.4009 0,0.773 -0.6257,1.4009 -1.3945,1.4007 z m 5.6102,2.3035 c -0.37,0 -0.7202,-0.1421 -0.9862,-0.3996 -0.5414,-0.5516 -0.5462,-1.448 -0.004,-1.9904 0.2645,-0.2644 0.6168,-0.4103 0.9917,-0.4103 0.3735,0 0.7242,0.1459 0.9889,0.4103 0.5433,0.543 0.5473,1.4308 0.009,1.9776 -0.2764,0.268 -0.6245,0.4124 -0.9995,0.4124 z m -11.2195,0.035 c -0.3728,0 -0.7242,-0.1449 -0.9905,-0.4098 -0.5449,-0.5471 -0.5451,-1.4361 0,-1.9809 0.2622,-0.2666 0.6122,-0.4124 0.9877,-0.4124 0.3742,-2e-4 0.7265,0.1466 0.9926,0.4131 0.2653,0.2611 0.4111,0.6083 0.4121,0.9811 0.001,0.3765 -0.1446,0.7318 -0.413,0.9991 -0.2645,0.2656 -0.6156,0.41 -0.9889,0.4098 z m 13.5663,5.6036 c -0.7722,0 -1.4007,-0.6321 -1.4007,-1.4081 0,-0.788 0.6247,-1.4287 1.3937,-1.4287 0.7672,0 1.3979,0.6235 1.4077,1.3897 0,0.8097 -0.6159,1.4473 -1.4007,1.4471 z m -15.8703,0.0136 c -0.7766,0 -1.4079,-0.6285 -1.4079,-1.4007 0,-0.7723 0.6286,-1.4003 1.4009,-1.4003 0.7722,0 1.4005,0.625 1.4005,1.3935 2e-4,0.7758 -0.6251,1.4077 -1.3935,1.4075 z m 13.5447,5.5894 c -0.3734,0 -0.7248,-0.1457 -0.9894,-0.4107 -0.5411,-0.542 -0.5426,-1.4293 -0.002,-1.9787 0.2669,-0.262 0.622,-0.4092 0.9942,-0.4092 0.374,-2e-4 0.7247,0.1451 0.9875,0.4071 0.2677,0.2677 0.4143,0.6217 0.4128,0.9982 -0.001,0.3732 -0.1491,0.723 -0.4143,0.9841 -0.2573,0.2662 -0.6062,0.4094 -0.9885,0.4092 z m -11.2204,0.0136 c -0.2821,0 -0.5536,-0.0847 -0.7849,-0.2455 l -0.0901,-0.0623 -0.008,0 -0.1099,-0.1069 c -0.5379,-0.5365 -0.5384,-1.4241 0.002,-1.9733 0.2656,-0.2672 0.6193,-0.4153 0.9943,-0.4153 0.3748,0 0.7263,0.1474 0.9892,0.4145 0.5483,0.5388 0.5498,1.4234 0.008,1.9764 -0.277,0.2671 -0.6253,0.4124 -1.0002,0.4124 z m 5.6176,2.319 c -0.7723,0 -1.4009,-0.6286 -1.4009,-1.4007 0,-0.7732 0.6286,-1.4009 1.4009,-1.4009 0.7722,-2e-4 1.4007,0.6277 1.4007,1.4009 0,0.7721 -0.6285,1.4009 -1.4007,1.4007 z" />
  <path
     id="path157"
     style="fill:#eff4f1;fill-rule:evenodd;stroke:#000000;stroke-width:1.49979997;stroke-linecap:butt;stroke-linejoin:miter;stroke-dasharray:none"
     d="m 437.59439,31.622228 c -0.4586,0 -0.8315,-0.3725 -0.8315,-0.8311 l 2e-4,-4.726 c 0,-0.4584 0.3725,-0.8311 0.8313,-0.8311 0.458,0 0.8314,0.3729 0.8314,0.8313 l 0,4.7256 c 0,0.4584 -0.3734,0.8315 -0.8314,0.8313 z" />
  <path
     id="path159"
     style="fill:#eff4f1;fill-rule:evenodd;stroke:#000000;stroke-width:1.49979997;stroke-linecap:butt;stroke-linejoin:miter;stroke-dasharray:none"
     d="m 433.44029,33.033728 c -0.2215,0 -0.4296,-0.0859 -0.5868,-0.2428 l -3.3418,-3.3419 c -0.1581,-0.1574 -0.2442,-0.3657 -0.2442,-0.5876 2e-4,-0.2219 0.0861,-0.4309 0.2439,-0.5878 0.1566,-0.1574 0.3645,-0.2433 0.5874,-0.2433 0.2217,-3e-4 0.4311,0.0865 0.5876,0.2437 l 3.3413,3.3408 c 0.3241,0.3241 0.3241,0.8517 0,1.1758 -0.1564,0.1564 -0.3651,0.2434 -0.5874,0.2431 z" />
  <path
     id="path161"
     style="fill:#eff4f1;fill-rule:evenodd;stroke:#000000;stroke-width:1.49979997;stroke-linecap:butt;stroke-linejoin:miter;stroke-dasharray:none"
     d="m 426.77559,36.969628 c -0.4595,0 -0.8322,-0.3727 -0.8322,-0.8311 0,-0.4582 0.3727,-0.8314 0.8322,-0.8314 l 4.725,-2e-4 c 0.4588,0 0.8307,0.3734 0.8307,0.8316 0,0.4582 -0.3719,0.8313 -0.8307,0.8313 l -4.725,-2e-4 z" />
  <path
     id="path163"
     style="fill:#eff4f1;fill-rule:evenodd;stroke:#000000;stroke-width:1.49979997;stroke-linecap:butt;stroke-linejoin:miter;stroke-dasharray:none"
     d="m 429.57079,44.465428 c -0.2216,0 -0.4306,-0.0863 -0.5876,-0.2431 -0.1571,-0.1574 -0.2433,-0.3661 -0.2433,-0.5884 2e-4,-0.2217 0.0862,-0.4305 0.2433,-0.5879 l 3.3421,-3.3416 c 0.1566,-0.1574 0.3651,-0.2433 0.5874,-0.2433 0.2223,-5e-4 0.4302,0.0869 0.5883,0.2437 0.3232,0.3233 0.3232,0.8513 0,1.1752 l -3.3428,3.3421 c -0.1563,0.1565 -0.3653,0.2435 -0.5874,0.2433 z" />
  <path
     id="path165"
     style="fill:#eff4f1;fill-rule:evenodd;stroke:#000000;stroke-width:1.49979997;stroke-linecap:butt;stroke-linejoin:miter;stroke-dasharray:none"
     d="m 436.84839,47.788228 c -0.4587,0 -0.8316,-0.3727 -0.8316,-0.8309 l 0,-4.7256 c 0,-0.4586 0.3727,-0.8307 0.8316,-0.8307 0.4579,-2e-4 0.8313,0.3723 0.8313,0.8309 l 2e-4,4.7254 c 0,0.458 -0.3736,0.8313 -0.8315,0.8309 z" />
  <path
     id="path167"
     style="fill:#eff4f1;fill-rule:evenodd;stroke:#000000;stroke-width:1.49979997;stroke-linecap:butt;stroke-linejoin:miter;stroke-dasharray:none"
     d="m 444.34369,44.993228 c -0.2221,0 -0.431,-0.0866 -0.5876,-0.2433 l -3.3412,-3.3423 c -0.1578,-0.1566 -0.244,-0.3655 -0.244,-0.5876 0,-0.2219 0.0862,-0.4305 0.244,-0.5881 0.1572,-0.1565 0.3651,-0.2433 0.5874,-0.2433 0.2217,0 0.431,0.0868 0.5874,0.2438 l 3.3416,3.3418 c 0.1572,0.1566 0.2446,0.366 0.2446,0.5876 0,0.2224 -0.0876,0.4309 -0.2448,0.5881 -0.1563,0.1569 -0.3653,0.2433 -0.5874,0.2433 z" />
  <path
     id="path169"
     style="fill:#eff4f1;fill-rule:evenodd;stroke:#000000;stroke-width:1.49979997;stroke-linecap:butt;stroke-linejoin:miter;stroke-dasharray:none"
     d="m 442.94139,37.715428 c -0.458,0 -0.8316,-0.3722 -0.8316,-0.8309 2e-4,-0.4584 0.3736,-0.8311 0.8316,-0.8311 l 4.7266,-2e-4 c 0.458,0 0.8305,0.3731 0.8305,0.8313 0,0.4584 -0.3727,0.8314 -0.8307,0.8314 l -4.7264,-5e-4 z" />
  <path
     id="path171"
     style="fill:#eff4f1;fill-rule:evenodd;stroke:#000000;stroke-width:1.49979997;stroke-linecap:butt;stroke-linejoin:miter;stroke-dasharray:none"
     d="m 441.53009,33.561528 c -0.2209,0 -0.4305,-0.0865 -0.5876,-0.2433 -0.1572,-0.1574 -0.244,-0.3661 -0.244,-0.588 2e-4,-0.2219 0.0868,-0.4308 0.244,-0.5878 l 3.3408,-3.3413 c 0.1578,-0.1569 0.3665,-0.2433 0.588,-0.2433 0.2223,-4e-4 0.4302,0.0866 0.5882,0.2438 0.3233,0.3232 0.3233,0.8512 0,1.1749 l -3.3412,3.3413 c -0.158,0.1572 -0.3668,0.2439 -0.5882,0.2437 z" />
  <path
     id="path173"
     style="fill:#ffffff;fill-rule:evenodd;stroke:#000000;stroke-width:1.49979997;stroke-linecap:butt;stroke-linejoin:miter;stroke-dasharray:none"
     d="m 194.82439,341.76393 c -0.6554,0 -1.2946,0.0668 -1.9195,0.1737 0.008,-0.217 0.0322,-0.4296 0.0322,-0.6487 0,-8.7751 -7.1137,-15.8889 -15.8889,-15.8889 -7.5868,0 -13.9208,5.3215 -15.5005,12.4323 -0.1302,-0.005 -0.2573,-0.0202 -0.3884,-0.0202 -7.4048,-2e-4 -13.4074,6.0024 -13.4074,13.4066 0,7.4054 6.0026,13.4072 13.4074,13.4072 l 33.6651,0 c 6.313,0 11.4317,-5.1178 11.4317,-11.4308 0,-6.314 -5.1187,-11.431 -11.4317,-11.4312 z" />
  <path
     id="path175"
     style="fill:#ffffff;fill-rule:evenodd;stroke:#000000;stroke-width:1.49979997;stroke-linecap:butt;stroke-linejoin:miter;stroke-dasharray:none"
     d="m 574.02329,359.59343 c -0.5848,0 -1.1536,0.0598 -1.711,0.1542 0.008,-0.1933 0.029,-0.3825 0.029,-0.5779 2e-4,-7.8186 -6.3384,-14.1571 -14.1571,-14.1571 -6.7588,0 -12.4023,4.7416 -13.8106,11.077 -0.1152,-0.004 -0.2283,-0.0172 -0.3458,-0.0172 -6.5972,0 -11.9459,5.3476 -11.9459,11.9459 2e-4,6.5966 5.3485,11.945 11.9459,11.945 l 29.9955,0 c 5.625,0 10.1854,-4.5597 10.1854,-10.185 2e-4,-5.6252 -4.5604,-10.1849 -10.1854,-10.1849 z" />
  <path
     id="path177"
     style="fill:#ffffff;fill-rule:evenodd;stroke:#000000;stroke-width:1.49979997;stroke-linecap:butt;stroke-linejoin:miter;stroke-dasharray:none"
     d="m 614.64179,468.52183 c -0.4183,0 -0.8264,0.0426 -1.2267,0.1069 0.0636,-0.514 0.1003,-1.0348 0.1003,-1.5655 0,-6.9678 -5.6485,-12.6156 -12.6164,-12.6156 -6.6472,0 -12.0918,5.1442 -12.576,11.6682 -0.6939,-0.169 -1.4158,-0.2694 -2.1619,-0.2694 -5.013,0 -9.0782,4.0644 -9.0782,9.0775 2e-4,5.0132 4.065,9.0782 9.0782,9.0782 l 28.4807,0 c 4.2747,0 7.7392,-3.4657 7.7392,-7.7401 4e-4,-4.2747 -3.4647,-7.7402 -7.7392,-7.7402 z" />
  <path
     id="path179"
     style="fill:#ffffff;fill-rule:evenodd;stroke:#000000;stroke-width:1.49979997;stroke-linecap:butt;stroke-linejoin:miter;stroke-dasharray:none"
     d="m 146.49099,453.03103 c -0.3944,0 -0.7783,0.0403 -1.1555,0.1004 0.06,-0.4835 0.0944,-0.9752 0.0944,-1.4752 0,-6.5658 -5.3236,-11.8896 -11.8899,-11.8896 -6.2654,0 -11.3958,4.8486 -11.8525,10.9976 -0.654,-0.1601 -1.3341,-0.2543 -2.0375,-0.2543 -4.7247,0 -8.5547,3.83 -8.5547,8.5549 0,4.7244 3.83,8.5544 8.5547,8.5544 l 26.841,2e-4 c 4.0283,-2e-4 7.294,-3.2651 7.294,-7.2943 2e-4,-4.0283 -3.2657,-7.2941 -7.294,-7.2941 z" />
  <path
     id="path181"
     style="fill:#ffffff;fill-rule:evenodd;stroke:#000000;stroke-width:1.49979997;stroke-linecap:butt;stroke-linejoin:miter;stroke-dasharray:none"
     d="m 466.93869,510.92903 c -0.3481,0 -0.6858,0.0352 -1.0186,0.0882 0.0524,-0.4257 0.0837,-0.8591 0.0837,-1.299 0,-5.7848 -4.6899,-10.4739 -10.4753,-10.4739 -5.5198,0 -10.039,4.2708 -10.441,9.6873 -0.5762,-0.1407 -1.1748,-0.2244 -1.7944,-0.2244 -4.1631,0 -7.5368,3.3743 -7.5368,7.5373 2e-4,4.1616 3.3737,7.5359 7.5368,7.5359 l 23.6456,0 c 3.5485,0 6.4243,-2.8767 6.4243,-6.4254 0,-3.5493 -2.8758,-6.426 -6.4243,-6.426 z" />
</svg>
