<?xml version="1.0" encoding="UTF-8" standalone="no"?>
<svg
   xmlns:dc="http://purl.org/dc/elements/1.1/"
   xmlns:cc="http://creativecommons.org/ns#"
   xmlns:rdf="http://www.w3.org/1999/02/22-rdf-syntax-ns#"
   xmlns:svg="http://www.w3.org/2000/svg"
   xmlns="http://www.w3.org/2000/svg"
   viewBox="0 0 707.66596 617.20032"
   id="svg4612"
   height="617.20032"
   width="707.66595"
   version="1.1">
  <metadata
     id="metadata4742">
    <rdf:RDF>
      <cc:Work
         rdf:about="">
        <dc:format>image/svg+xml</dc:format>
        <dc:type
           rdf:resource="http://purl.org/dc/dcmitype/StillImage" />
        <dc:title></dc:title>
      </cc:Work>
    </rdf:RDF>
  </metadata>
  <defs
     id="defs4740" />
  <path
     id="path4614"
     style="fill:#d7dde8;fill-rule:evenodd"
     d="m 199.46259,82.836028 c -90.204,-8.3695 -122.054895,0.6975 -152.045195,40.452302 -29.9903,39.7548 -25.1084,101.8284 -5.5795,124.1468 -25.1083,20.9239 -59.9817,106.013 -30.6883,167.3892 29.2933,61.3761 118.567395,80.9051 175.758595,86.4845 13.9494,51.6118 55.6955,107.1781 122.7523,114.3824 67.0569,7.2043 99.0385,-11.1589 149.2553,-59.9806 81.8345,6.5094 148.3763,-3.5624 173.4847,-34.2502 25.1084,-30.6879 34.1368,-87.103 14.8278,-134.534 39.2196,-22.1454 64.1656,-32.0833 59.9812,-104.6185 -4.1845,-72.5351 -40.4523,-108.8029 -83.6946,-125.5418 -4.185,-51.6117 -20.2702,-72.107502 -57.9325,-94.425902 -37.6622,-22.3184 -107.4169,-13.6416 -133.2232,6.5843 -19.529,-34.8723 -58.0163,-62.5624 -114.3292,-68.38810004 C 261.71709,-5.289272 211.55209,37.269228 199.46259,82.836028 Z" />
  <path
     id="path4616"
     style="fill:#050109;fill-rule:evenodd;stroke:#000000;stroke-width:1.49979997;stroke-linecap:butt;stroke-linejoin:miter;stroke-dasharray:none"
     d="m 523.80799,82.516628 2.9354,-20.0133 c 0.2088,-1.4327 1.5401,-2.423 2.9749,-2.2122 1.4305,0.2089 2.422,1.5399 2.211,2.9729 l -2.933,20.0131 0.3148,12.2321 -1.4835,10.118602 -9.3161,-1.3656 1.4838,-10.119802 3.8127,-11.6258 z" />
  <path
     id="path4618"
     style="fill:#ffffff;fill-rule:evenodd;stroke:#000000;stroke-width:1.49979997;stroke-linecap:butt;stroke-linejoin:miter;stroke-dasharray:none"
     d="m 511.24659,173.84953 5.717,-38.993 -4.3975,-11.8474 2.8815,-19.6559 20.5099,3.0531 -12.8511,87.6316 -20.5085,-3.0524 0.8738,-5.9565 7.7749,-11.1795 z" />
  <path
     id="path4620"
     style="fill:#ffffff;fill-rule:evenodd;stroke:#000000;stroke-width:1.49979997;stroke-linecap:butt;stroke-linejoin:miter;stroke-dasharray:none"
     d="m 478.28309,117.98233 2.8814,-19.656102 34.2831,5.027002 -2.8815,19.6559 4.3975,11.8474 -5.717,38.993 -7.7749,11.1795 -0.8738,5.9565 -34.2817,-5.0273 0.8733,-5.9562 7.7727,-11.1801 5.719,-38.9927 -4.3981,-11.8469 z" />
  <path
     id="path4622"
     style="fill:#050109;fill-rule:evenodd"
     d="m 502.26569,140.16743 -0.5455,3.7117 -7.2668,-1.0669 0.5437,-3.7102 7.2686,1.0654 z" />
  <path
     id="path4624"
     style="fill:#050109;fill-rule:evenodd"
     d="m 502.36799,139.47723 -7.2704,-1.0661 0.5434,-3.7111 7.271,1.0657 -0.544,3.7115 z" />
  <path
     id="path4626"
     style="fill:#050109;fill-rule:evenodd"
     d="m 502.13359,149.13993 7.2805,1.067 -0.5431,3.7126 -7.2808,-1.068 0.5434,-3.7116 z" />
  <path
     id="path4628"
     style="fill:#050109;fill-rule:evenodd"
     d="m 493.80679,147.21413 0.5446,-3.7102 7.2688,1.0661 -0.5451,3.7097 -7.2683,-1.0656 z" />
  <path
     id="path4630"
     style="fill:#050109;fill-rule:evenodd"
     d="m 493.93839,138.24093 -7.2793,-1.067 0.5453,-3.7113 7.2793,1.0683 -0.5453,3.71 z" />
  <path
     id="path4632"
     style="fill:#050109;fill-rule:evenodd"
     d="m 510.80649,140.71423 -7.2804,-1.0682 0.544,-3.7097 7.2798,1.0673 -0.5434,3.7106 z" />
  <path
     id="path4634"
     style="fill:#050109;fill-rule:evenodd"
     d="m 502.23339,148.44963 0.5459,-3.7101 7.2798,1.0677 -0.5436,3.7087 -7.2821,-1.0663 z" />
  <path
     id="path4636"
     style="fill:#050109;fill-rule:evenodd"
     d="m 493.19219,143.33393 -0.5447,3.7103 -7.2786,-1.0676 0.5431,-3.7097 7.2802,1.067 z" />
  <path
     id="path4638"
     style="fill:#050109;fill-rule:evenodd"
     d="m 502.88069,144.04793 0.545,-3.7103 7.2791,1.0676 -0.5447,3.711 -7.2794,-1.0683 z" />
  <path
     id="path4640"
     style="fill:#050109;fill-rule:evenodd"
     d="m 493.83789,138.93133 -0.5446,3.711 -7.2806,-1.067 0.5447,-3.711 7.2805,1.067 z" />
  <path
     id="path4642"
     style="fill:#050109;fill-rule:evenodd"
     d="m 485.26579,146.66693 7.2803,1.0667 -0.5443,3.7126 -7.2801,-1.068 0.5441,-3.7113 z" />
  <path
     id="path4644"
     style="fill:#050109;fill-rule:evenodd"
     d="m 493.70569,147.90433 7.2693,1.0654 -0.5453,3.7116 -7.2679,-1.0654 0.5439,-3.7116 z" />
  <path
     id="path4646"
     style="fill:#050109;fill-rule:evenodd"
     d="m 499.19249,161.12423 -0.544,3.7104 -7.2682,-1.0659 0.5446,-3.7111 7.2676,1.0666 z" />
  <path
     id="path4648"
     style="fill:#050109;fill-rule:evenodd"
     d="m 499.29449,160.43343 -7.2698,-1.0654 0.5437,-3.7118 7.2698,1.0658 -0.5437,3.7114 z" />
  <path
     id="path4650"
     style="fill:#050109;fill-rule:evenodd"
     d="m 490.73299,168.17083 0.5462,-3.7116 7.2671,1.0651 -0.5424,3.7116 -7.2709,-1.0651 z" />
  <path
     id="path4652"
     style="fill:#050109;fill-rule:evenodd"
     d="m 490.86459,159.19783 -7.2793,-1.0683 0.544,-3.7103 7.2806,1.0673 -0.5453,3.7113 z" />
  <path
     id="path4654"
     style="fill:#050109;fill-rule:evenodd"
     d="m 507.73429,161.67113 -7.282,-1.0676 0.545,-3.7116 7.2788,1.0685 -0.5418,3.7107 z" />
  <path
     id="path4656"
     style="fill:#050109;fill-rule:evenodd"
     d="m 499.16149,169.40683 0.5427,-3.7117 7.2826,1.067 -0.5446,3.7113 -7.2807,-1.0666 z" />
  <path
     id="path4658"
     style="fill:#050109;fill-rule:evenodd"
     d="m 490.11899,164.28953 -0.544,3.711 -7.2799,-1.068 0.5453,-3.7116 7.2786,1.0686 z" />
  <path
     id="path4660"
     style="fill:#050109;fill-rule:evenodd"
     d="m 499.80659,165.00613 0.5453,-3.7129 7.28,1.0682 -0.5446,3.711 -7.2807,-1.0663 z" />
  <path
     id="path4662"
     style="fill:#050109;fill-rule:evenodd"
     d="m 490.76539,159.88813 -0.544,3.7117 -7.2812,-1.0677 0.5453,-3.7116 7.2799,1.0676 z" />
  <path
     id="path4664"
     style="fill:#ffffff;fill-rule:evenodd;stroke:#000000;stroke-width:1.49979997;stroke-linecap:butt;stroke-linejoin:miter;stroke-dasharray:none"
     d="m 483.50619,113.09693 c -0.2423,1.6518 0.9117,3.2007 2.5624,3.4433 l 19.4523,2.8521 c 1.6515,0.2423 3.2005,-0.91 3.4432,-2.5618 l 1.2592,-8.591 c 0.241,-1.6527 -0.9115,-3.2014 -2.5622,-3.4447 l -19.4522,-2.8523 c -1.6509,-0.2418 -3.2007,0.9115 -3.4422,2.5649 l -1.2605,8.5895 z" />
  <path
     id="path4666"
     style="fill:#bc5432;fill-rule:evenodd;stroke:#000000;stroke-width:1.49979997;stroke-linecap:butt;stroke-linejoin:miter;stroke-dasharray:none"
     d="m 505.59639,108.18323 c -0.3762,-0.0546 -0.6376,-0.4056 -0.5828,-0.7833 0.0553,-0.3759 0.4062,-0.6363 0.7841,-0.5811 0.3768,0.0546 0.6372,0.4053 0.5814,0.7813 -0.0562,0.3779 -0.4067,0.6396 -0.7829,0.5833 l 2e-4,-2e-4 z m -4.0957,-0.6011 c -0.3751,-0.0539 -0.6374,-0.4039 -0.5822,-0.7823 0.0543,-0.376 0.4062,-0.6371 0.7819,-0.5819 0.3773,0.0555 0.639,0.4062 0.5842,0.7817 -0.0563,0.3784 -0.4062,0.6385 -0.7841,0.5827 l 2e-4,-2e-4 z m -4.0972,-0.5999 c -0.3738,-0.0552 -0.6353,-0.4045 -0.5812,-0.7827 0.0562,-0.3768 0.4058,-0.6367 0.7831,-0.5821 0.3774,0.0552 0.6367,0.4057 0.582,0.7819 -0.0552,0.3776 -0.4052,0.6389 -0.784,0.5831 l 10e-5,-2e-4 z m -4.0933,-0.5992 c -0.3763,-0.0558 -0.6364,-0.4056 -0.5823,-0.784 0.0565,-0.3774 0.4062,-0.6373 0.7835,-0.5821 0.3773,0.0558 0.6374,0.4062 0.5822,0.7819 -0.0551,0.3776 -0.4064,0.6383 -0.7837,0.5842 l 3e-4,0 z m -4.094,-0.6005 c -0.3772,-0.0564 -0.6386,-0.4062 -0.5838,-0.7846 0.0545,-0.3762 0.4067,-0.6361 0.7846,-0.5815 0.3752,0.0552 0.6361,0.4058 0.5804,0.7824 -0.0548,0.3778 -0.4047,0.6385 -0.7813,0.5837 l 10e-5,0 z" />
  <path
     id="path4668"
     style="fill:#bc5432;fill-rule:evenodd;stroke:#000000;stroke-width:1.49979997;stroke-linecap:butt;stroke-linejoin:miter;stroke-dasharray:none"
     d="m 503.22899,110.06743 c -0.3779,-0.0553 -0.6397,-0.4062 -0.5838,-0.7824 0.056,-0.3776 0.4046,-0.6389 0.7839,-0.5832 0.3754,0.055 0.6369,0.4064 0.5811,0.7835 -0.0544,0.3762 -0.4069,0.6367 -0.7813,0.5821 l 1e-4,0 z m -4.0955,-0.6013 c -0.3779,-0.0545 -0.6386,-0.4049 -0.5828,-0.7822 0.0549,-0.3773 0.4069,-0.6378 0.7829,-0.582 0.3779,0.0551 0.638,0.4056 0.5826,0.7824 -0.055,0.3773 -0.4062,0.6378 -0.7829,0.582 l 2e-4,-2e-4 z m -4.0955,-0.5998 c -0.3767,-0.0546 -0.6376,-0.4061 -0.5823,-0.7834 0.0548,-0.3768 0.4057,-0.6367 0.7817,-0.582 0.3775,0.0553 0.6385,0.4063 0.5822,0.784 -0.054,0.3756 -0.404,0.6368 -0.782,0.5815 l 4e-4,-10e-5 z m -4.0946,-0.5999 c -0.3767,-0.0552 -0.638,-0.4062 -0.5839,-0.7835 0.0558,-0.3766 0.408,-0.6372 0.783,-0.582 0.3768,0.0552 0.6378,0.4063 0.5815,0.7824 -0.0539,0.3772 -0.4057,0.6379 -0.7808,0.5833 l 2e-4,-2e-4 z" />
  <path
     id="path4670"
     style="fill:#bc5432;fill-rule:evenodd;stroke:#000000;stroke-width:1.49979997;stroke-linecap:butt;stroke-linejoin:miter;stroke-dasharray:none"
     d="m 504.95619,112.55163 c -0.378,-0.0545 -0.6374,-0.4054 -0.5827,-0.7827 0.0554,-0.3762 0.4052,-0.6378 0.7829,-0.5826 0.3753,0.0557 0.6363,0.4062 0.5815,0.7824 -0.055,0.3776 -0.4051,0.6385 -0.7817,0.5831 l 0,-2e-4 z m -4.0962,-0.6004 c -0.3773,-0.0553 -0.6367,-0.4055 -0.5822,-0.7828 0.0556,-0.3769 0.4064,-0.6378 0.7825,-0.5831 0.3768,0.0562 0.6373,0.4074 0.5837,0.7836 -0.0557,0.3776 -0.408,0.6371 -0.784,0.5826 l 0,-3e-4 z m -4.0949,-0.5999 c -0.3767,-0.0563 -0.6369,-0.4061 -0.5834,-0.7834 0.0566,-0.3763 0.4068,-0.6378 0.7835,-0.5826 0.3774,0.0551 0.6369,0.4063 0.5832,0.7824 -0.0563,0.3773 -0.4062,0.639 -0.7835,0.5838 l 2e-4,-2e-4 z m -4.0946,-0.6008 c -0.376,-0.0554 -0.638,-0.4058 -0.5837,-0.7824 0.0563,-0.3776 0.4062,-0.6385 0.7839,-0.5837 0.3764,0.0561 0.6379,0.4062 0.5822,0.7828 -0.0557,0.3776 -0.4058,0.6391 -0.7826,0.5833 l 2e-4,0 z m -4.0943,-0.6007 c -0.3779,-0.0552 -0.6397,-0.4056 -0.5851,-0.7833 0.0542,-0.3762 0.4075,-0.6374 0.7841,-0.5826 0.3763,0.0558 0.6378,0.4067 0.5815,0.7829 -0.0541,0.3772 -0.4046,0.6378 -0.7808,0.5832 l 3e-4,-2e-4 z" />
  <path
     id="path4672"
     style="fill:#bc5432;fill-rule:evenodd;stroke:#000000;stroke-width:1.49979997;stroke-linecap:butt;stroke-linejoin:miter;stroke-dasharray:none"
     d="m 504.31549,116.91903 c -0.3776,-0.054 -0.6385,-0.4044 -0.5833,-0.7817 0.056,-0.3772 0.4058,-0.6378 0.7842,-0.5826 0.3752,0.0548 0.6361,0.4058 0.5815,0.7831 -0.0551,0.3766 -0.4058,0.6367 -0.7824,0.5815 l 0,-3e-4 z m -4.0949,-0.5993 c -0.3767,-0.0558 -0.6386,-0.406 -0.5839,-0.7822 0.0571,-0.3779 0.4069,-0.639 0.7851,-0.5837 0.3747,0.0558 0.6373,0.4062 0.5821,0.7835 -0.0563,0.376 -0.4062,0.6373 -0.7835,0.5826 l 2e-4,-2e-4 z m -4.0946,-0.6017 c -0.3782,-0.0552 -0.6385,-0.4048 -0.5855,-0.7815 0.0565,-0.3781 0.4074,-0.638 0.7846,-0.5826 0.3762,0.0544 0.6368,0.4051 0.5816,0.7823 -0.0556,0.3771 -0.4047,0.6379 -0.7807,0.5821 l 0,-3e-4 z m -4.0962,-0.5992 c -0.377,-0.0559 -0.6378,-0.4061 -0.5821,-0.7823 0.0547,-0.3773 0.4051,-0.6385 0.7824,-0.5831 0.3773,0.0551 0.6384,0.4056 0.5815,0.7829 -0.0535,0.3759 -0.4051,0.6373 -0.7818,0.5826 l 0,-1e-4 z m -4.0949,-0.6015 c -0.3768,-0.0549 -0.6391,-0.4051 -0.5828,-0.7824 0.0541,-0.3774 0.4069,-0.6378 0.7824,-0.582 0.3757,0.0551 0.6374,0.4051 0.5838,0.7829 -0.0559,0.3759 -0.4074,0.6369 -0.7836,0.5815 l 2e-4,0 z" />
  <path
     id="path4674"
     style="fill:#bc5432;fill-rule:evenodd;stroke:#000000;stroke-width:1.49979997;stroke-linecap:butt;stroke-linejoin:miter;stroke-dasharray:none"
     d="m 502.58899,114.43573 c -0.3779,-0.0562 -0.6386,-0.4061 -0.5839,-0.7834 0.0548,-0.3761 0.4058,-0.6378 0.7824,-0.582 0.377,0.0551 0.6379,0.4063 0.5826,0.7818 -0.0563,0.3776 -0.4063,0.6378 -0.7813,0.5837 l 2e-4,-10e-5 z m -4.0974,-0.6011 c -0.3767,-0.0546 -0.6374,-0.4055 -0.5822,-0.7832 0.0548,-0.3764 0.4064,-0.6369 0.7835,-0.5822 0.3768,0.0557 0.6374,0.4069 0.5826,0.7831 -0.0556,0.3776 -0.4056,0.6378 -0.7839,0.5826 l 0,-3e-4 z m -4.0937,-0.6002 c -0.3779,-0.0549 -0.6392,-0.4051 -0.5829,-0.7831 0.0549,-0.3755 0.4051,-0.6371 0.7824,-0.5819 0.3768,0.055 0.6373,0.4068 0.5837,0.7824 -0.0555,0.3776 -0.4057,0.6384 -0.7835,0.5826 l 3e-4,0 z m -4.0946,-0.6011 c -0.376,-0.0538 -0.6386,-0.4045 -0.5839,-0.7823 0.0565,-0.3758 0.408,-0.6373 0.7829,-0.5816 0.3773,0.0539 0.6367,0.4063 0.5822,0.7825 -0.0551,0.377 -0.4064,0.6372 -0.7813,0.5814 l 1e-4,0 z" />
  <path
     id="path4676"
     style="fill:#050109;fill-rule:evenodd;stroke:#000000;stroke-width:1.49979997;stroke-linecap:butt;stroke-linejoin:miter;stroke-dasharray:none"
     d="m 478.91319,185.54613 13.6518,2.0011 c 0.6017,0.0886 1.1635,-0.3276 1.2517,-0.9308 0.0878,-0.6039 -0.3287,-1.1652 -0.932,-1.2533 l -13.6501,-2.0016 c -0.6043,-0.0878 -1.1641,0.3295 -1.2518,0.9322 -0.0887,0.6032 0.327,1.1648 0.9304,1.2524 z" />
  <path
     id="path4678"
     style="fill:#ffffff;fill-rule:evenodd;stroke:#000000;stroke-width:1.49979997;stroke-linecap:butt;stroke-linejoin:miter;stroke-dasharray:none"
     d="m 215.79479,126.92803 c -0.8689,7.4434 -0.3377,17.4472 1.597,29.8528 1.9338,12.404 4.4723,22.0959 7.5668,28.921 8.4105,20.9254 18.3172,18.2575 21.4663,17.7658 l 2.8964,-0.4516 c 2.3109,-0.36 3.8914,-2.525 3.532,-4.836 l -2.4131,-15.4767 c -0.3611,-2.3117 -2.5258,-3.8924 -4.8368,-3.5326 l -3.0809,0.4911 c -4.2575,0.6737 -6.4893,-0.7918 -7.4362,-3.4889 l -0.003,0.002 c -1.6447,-4.902 -3.3552,-11.7731 -4.8553,-21.3958 -1.5,-9.6234 -1.9627,-16.6894 -1.8896,-21.8586 l 0.004,0.002 c 0.0814,-2.8579 1.7606,-4.9338 6.0219,-5.5873 l 3.084,-0.4717 c 2.3103,-0.3599 3.8911,-2.525 3.5312,-4.8365 l -2.4135,-15.4772 c -0.36,-2.31 -2.5253,-3.8919 -4.835,-3.5314 l -2.8975,0.4513 c -3.1491,0.4915 -13.3979,0.9656 -15.0385,23.4587 z" />
  <path
     id="path4680"
     style="fill:#ffffff;fill-rule:evenodd;stroke:#000000;stroke-width:1.49979997;stroke-linecap:butt;stroke-linejoin:miter;stroke-dasharray:none"
     d="m 478.32009,419.15153 -214.5066,0 0,-120.6 214.5066,0 0,120.6 z" />
  <path
     id="path4682"
     style="fill:#050109;fill-rule:evenodd;stroke:#000000;stroke-width:1.49979997;stroke-linecap:butt;stroke-linejoin:miter;stroke-dasharray:none"
     d="m 383.63809,358.85263 c 0,6.9423 -5.6278,12.5709 -12.5711,12.5709 -6.9439,-2e-4 -12.5726,-5.6286 -12.5726,-12.5709 10e-5,-6.9439 5.6287,-12.5714 12.5726,-12.5714 6.9433,0 12.5708,5.6275 12.5711,12.5714 z" />
  <path
     id="path4684"
     style="fill:#050109;fill-rule:evenodd;stroke:#000000;stroke-width:1.49979997;stroke-linecap:butt;stroke-linejoin:miter;stroke-dasharray:none"
     d="m 478.32009,428.48663 -214.5066,0 0,-9.3351 214.5066,0 0,9.3351 z" />
  <path
     id="path4686"
     style="fill:#ffffff;fill-rule:evenodd;stroke:#000000;stroke-width:1.49979997;stroke-linecap:butt;stroke-linejoin:miter;stroke-dasharray:none"
     d="m 185.33179,508.16433 85.4503,-39.3292 -36.582,-63.9297 -65.7941,21.5327 16.9258,81.7262 z" />
  <path
     id="path4688"
     style="fill:#050109;fill-rule:evenodd;stroke:#000000;stroke-width:1.49979997;stroke-linecap:butt;stroke-linejoin:miter;stroke-dasharray:none"
     d="m 263.81349,443.08443 -60.8792,28.1827 0.5665,1.2216 59.7057,-27.639 0.607,-1.7653 z" />
  <path
     id="path4690"
     style="fill:#050109;fill-rule:evenodd;stroke:#000000;stroke-width:1.49979997;stroke-linecap:butt;stroke-linejoin:miter;stroke-dasharray:none"
     d="m 260.72129,439.47993 -59.7068,27.643 0.5665,1.2199 60.8782,-28.1831 -1.7379,-0.6798 z" />
  <path
     id="path4692"
     style="fill:#ffffff;fill-rule:evenodd;stroke:#000000;stroke-width:1.49979997;stroke-linecap:butt;stroke-linejoin:miter;stroke-dasharray:none"
     d="m 262.45919,440.15973 -60.8782,28.1831 1.3533,2.9243 60.8792,-28.1827 -1.3543,-2.9247 z" />
  <path
     id="path4694"
     style="fill:#ffffff;fill-rule:evenodd;stroke:#000000;stroke-width:1.49979997;stroke-linecap:butt;stroke-linejoin:miter;stroke-dasharray:none"
     d="m 203.50079,472.48873 0.5065,-1.7183 -1.7494,-0.9643 0.3962,-1.96 -1.6396,-0.7232 -4.2781,3.9919 0.9526,2.0534 5.8118,-0.6795 z" />
  <path
     id="path4696"
     style="fill:#42423e;fill-rule:evenodd;stroke:#000000;stroke-width:1.49979997;stroke-linecap:butt;stroke-linejoin:miter;stroke-dasharray:none"
     d="m 197.68899,473.16823 -0.9526,-2.0534 -2.6536,2.4753 3.6062,-0.4219 z" />
  <path
     id="path4698"
     style="fill:#050109;fill-rule:evenodd;stroke:#000000;stroke-width:1.49979997;stroke-linecap:butt;stroke-linejoin:miter;stroke-dasharray:none"
     d="m 454.37549,499.84533 c -3.3261,0 -6.9162,-0.6886 -10.97,-2.0559 -5.7132,-1.9275 -11.9693,-0.9989 -18.0169,-0.1059 -3.447,0.51 -7.0117,1.0374 -10.4599,1.0396 -0.005,-2e-4 -0.0128,0 -0.0177,0 -7.2837,-2e-4 -15.8434,-2.6771 -18.0449,-10.1947 -2.049,-6.9936 2.8367,-14.1161 8.5388,-16.706 3.44,-1.5622 7.9658,-1.9773 11.9609,-2.3433 1.1168,-0.1016 2.196,-0.2015 3.1988,-0.3203 l 0.8028,-0.095 c 7.2111,-0.851 14.0226,-1.654 17.6401,-8.1643 3.2887,-5.9184 3.8979,-13.456 3.8299,-18.737 -0.0508,-3.9862 -0.1201,-9.4451 -0.8616,-14.793 l 2.3268,-0.323 c 0.7615,5.4939 0.8317,11.0383 0.8843,15.0848 0.0715,5.5672 -0.5872,13.5397 -4.1258,19.9105 -4.2011,7.5599 -11.9369,8.4736 -19.4183,9.3547 l -0.799,0.0949 c -1.0234,0.1228 -2.1241,0.2243 -3.2637,0.327 -3.8087,0.3499 -8.1259,0.7451 -11.2041,2.1435 -4.8287,2.1931 -8.8966,8.3056 -7.2554,13.9063 1.8374,6.2715 9.3576,8.5048 15.7904,8.5048 0.005,0 0.0104,0 0.0161,0 3.2771,-0.002 6.5996,-0.4932 10.1182,-1.0138 6.3222,-0.936 12.8621,-1.902 19.1108,0.2029 8.4537,2.8512 14.6636,2.5375 20.7653,-1.054 6.5007,-3.8239 11.2818,-9.8967 15.9063,-15.7714 0.7106,-0.9012 1.3741,-1.7646 2.0386,-2.6296 2.2789,-2.9627 4.632,-6.0259 7.3665,-8.7224 1.7559,-1.7322 3.6787,-3.2942 5.5382,-4.8038 1.9766,-1.605 4.0214,-3.2647 5.8116,-5.0956 l 1.6795,1.6428 c -1.8847,1.9271 -3.9815,3.6297 -6.0095,5.277 -1.8163,1.4744 -3.6955,3.0003 -5.3696,4.6521 -2.6187,2.5837 -4.9249,5.5822 -7.1543,8.4818 -0.6684,0.8718 -1.3388,1.7423 -2.0174,2.6046 -4.7959,6.0918 -9.7175,12.3414 -16.5989,16.3901 -3.7637,2.215 -7.5411,3.3116 -11.7372,3.3116 l 3e-4,0 z" />
  <path
     id="path4700"
     style="fill:#ffffff;fill-rule:evenodd;stroke:#000000;stroke-width:1.49979997;stroke-linecap:butt;stroke-linejoin:miter;stroke-dasharray:none"
     d="m 536.72149,450.77303 c -10.4734,12.8637 -26.3684,17.2623 -35.5005,9.8267 -9.1325,-7.4367 -8.0427,-23.8933 2.4315,-36.7559 10.4743,-12.863 26.3683,-17.2625 35.5009,-9.8259 9.1323,7.4356 8.0433,23.8928 -2.4319,36.7551 z" />
  <path
     id="path4702"
     style="fill:#ffffff;fill-rule:evenodd;stroke:#000000;stroke-width:1.49979997;stroke-linecap:butt;stroke-linejoin:miter;stroke-dasharray:none"
     d="m 299.36309,246.87443 c 0,0 -14.7535,-116.9071 74.2291,-108.7249 86.6218,7.9646 74.5941,111.0383 74.5941,111.0383 2e-4,-2e-4 -78.6529,16.1921 -148.8232,-2.3134 z" />
  <path
     id="path4704"
     style="fill:#050109;fill-rule:evenodd;stroke:#000000;stroke-width:1.49979997;stroke-linecap:butt;stroke-linejoin:miter;stroke-dasharray:none"
     d="m 265.48769,107.92363 c 0,0 9.5835,84.4459 150.2766,64.2535 l 5.5958,23.4595 c 0,0 10.9216,-15.3854 15.8649,-3.1985 5.8535,14.4324 -9.6472,15.7496 -9.6472,15.7496 l 21.0669,34.0054 c 0,-4e-4 40.7092,-148.984802 -14.9032,-121.7793 10e-5,0 -8.575,-31.780402 -54.8656,-31.780402 -60.7608,-10e-5 -74.6545,60.446902 -113.3882,19.290202 z" />
  <path
     id="path4706"
     style="fill:#575c63;fill-rule:evenodd;stroke:#000000;stroke-width:1.49979997;stroke-linecap:butt;stroke-linejoin:miter;stroke-dasharray:none"
     d="m 204.27399,350.61623 c 0,-51.1183 57.7636,-64.1617 91.764,-64.1722 l 0.1429,12.1077 153.7543,0 0.4465,-12.0983 c 34.1761,0.4065 90.1964,13.822 90.1964,64.1628 0,19.8204 -11.8327,41.8651 -21.1224,56.1169 l 30.8705,18.2052 c 8.4446,-15.6351 17.4753,-40.2066 17.346,-73.6824 -0.163,-41.9539 -36.2248,-72.0555 -84.3585,-81.3945 51.4653,-3.2613 95.1534,-17.9587 95.1534,-65.6187 -6e-4,-36.9156 -20.0869,-52.9645 -36.6066,-59.925 l -7.3826,26.3067 c 9.3904,3.7794 20.0963,12.1028 20.0963,30.4194 5e-4,50.345 -68.2722,50.6582 -102.907,50.5698 l 0.3741,-10.137 c -85.5907,18.5063 -156.5339,0 -156.5339,0 l 0.1196,10.1387 c -34.8392,0.0808 -102.2304,-0.551 -102.2304,-50.5715 0,-16.1079 8.2792,-24.4842 16.6618,-28.8408 l -5.8362,-27.0567 c -16.1224,7.3752 -34.7191,23.5763 -34.7191,59.0964 -10e-4,46.9449 42.3882,61.9061 92.8432,65.461 -48.5382,9.1585 -85.0023,39.3636 -85.1655,81.5522 -0.1406,36.1168 10.383,61.8716 19.3303,77.2169 l 28.2398,-22.7344 c -9.1822,-14.2705 -20.4769,-35.7579 -20.4769,-55.1222 z" />
  <path
     id="path4708"
     style="fill:#ffffff;fill-rule:evenodd;stroke:#000000;stroke-width:1.49979997;stroke-linecap:butt;stroke-linejoin:miter;stroke-dasharray:none"
     d="m 224.75109,405.73843 -28.2401,22.7343 c 6.584,11.2931 12.3141,16.9523 12.3141,16.9523 1.5112,1.8644 6.185,7.0572 9.9937,4.3249 1.8238,-1.3087 1.7143,-3.5268 1.0341,-5.6051 1.879,1.2628 4.0582,1.9543 6.0198,0.5525 1.6526,-1.1843 1.7048,-3.1117 1.2093,-5.0103 1.7456,1.0425 3.7055,1.4935 5.488,0.2227 1.8215,-1.2992 1.6999,-3.5325 1.0279,-5.6018 1.8728,1.2573 4.0593,1.9571 6.0169,0.5548 4.0853,-2.9261 -2.1852,-11.6311 -3.2752,-12.9628 0,0 -5.2987,-6.388 -11.5885,-16.1615 z" />
  <path
     id="path4710"
     style="fill:#ffffff;fill-rule:evenodd;stroke:#000000;stroke-width:1.49979997;stroke-linecap:butt;stroke-linejoin:miter;stroke-dasharray:none"
     d="m 519.45569,406.73303 c -6.0025,9.209 -10.9425,15.1669 -10.9425,15.1669 -1.0902,1.3317 -7.3609,10.0369 -3.2758,12.9628 1.9589,1.4023 4.1435,0.7025 6.0176,-0.5548 -0.672,2.0691 -0.7941,4.3026 1.0284,5.6018 1.7815,1.2706 3.7413,0.8198 5.487,-0.2227 -0.4955,1.8984 -0.4433,3.8261 1.2098,5.0103 1.9619,1.4018 4.1401,0.7105 6.0198,-0.5525 -0.6806,2.0781 -0.7897,4.2966 1.0329,5.6051 3.8107,2.7323 8.4831,-2.4605 9.9943,-4.3249 0,0 6.9261,-6.8397 14.2992,-20.4869 l -30.8707,-18.2051 z" />
  <path
     id="path4712"
     style="fill:#ffffff;fill-rule:evenodd;stroke:#000000;stroke-width:1.49979997;stroke-linecap:butt;stroke-linejoin:miter;stroke-dasharray:none"
     d="m 227.36499,167.49503 c 1.3532,-0.0264 9.7632,-0.7025 9.435,-4.6408 -0.1562,-1.8875 -1.6892,-2.8405 -3.3969,-3.3221 1.5827,-0.6519 2.9829,-1.7166 2.8332,-3.4695 -0.1466,-1.7157 -1.4151,-2.6596 -2.9281,-3.1753 1.3897,-0.6693 2.5175,-1.6825 2.3857,-3.2769 -0.1584,-1.8888 -1.683,-2.8427 -3.3975,-3.3249 1.5922,-0.6514 2.9767,-1.7155 2.8323,-3.4751 -0.3031,-3.6732 -5.7944,-3.8295 -7.6817,-3.7842 1e-4,-2e-4 -10.8884,0.4777 -23.2249,6.1202 l 5.8363,27.0564 c 8.5986,-4.4695 17.3065,-4.7078 17.3066,-4.7078 z" />
  <path
     id="path4714"
     style="fill:#ffffff;fill-rule:evenodd;stroke:#000000;stroke-width:1.49979997;stroke-linecap:butt;stroke-linejoin:miter;stroke-dasharray:none"
     d="m 520.52329,139.02603 c -1.8872,-0.0452 -7.3794,0.1108 -7.6818,3.7844 -0.1456,1.7596 1.24,2.8239 2.8316,3.4751 -1.7131,0.4819 -3.2385,1.4364 -3.3964,3.3249 -0.1319,1.5944 0.9961,2.6077 2.3846,3.2769 -1.512,0.5154 -2.7819,1.4599 -2.9275,3.1753 -0.1499,1.7528 1.2505,2.8177 2.8332,3.4695 -1.7075,0.4815 -3.2412,1.4347 -3.3974,3.3221 -0.3277,3.938 8.0824,4.6146 9.4357,4.6408 0,0 6.5348,0.1769 13.8721,3.1297 l 7.3829,-26.3071 c -11.5368,-4.8611 -21.3371,-5.2914 -21.337,-5.2916 z" />
  <path
     id="path4716"
     style="fill:#050109;fill-rule:evenodd;stroke:#000000;stroke-width:1.49979997;stroke-linecap:butt;stroke-linejoin:miter;stroke-dasharray:none"
     d="m 168.25469,324.48743 -82.013295,0 0,-7.4799 82.013295,0 0,7.4799 z" />
  <path
     id="path4718"
     style="fill:#ffffff;fill-rule:evenodd;stroke:#000000;stroke-width:1.49979997;stroke-linecap:butt;stroke-linejoin:miter;stroke-dasharray:none"
     d="m 168.25469,317.00753 -82.013295,0 10.9108,-66.5414 60.191395,0 10.9111,66.5414 z" />
  <path
     id="path4720"
     style="fill:#050109;fill-rule:evenodd;stroke:#000000;stroke-width:1.49979997;stroke-linecap:butt;stroke-linejoin:miter;stroke-dasharray:none"
     d="m 127.24789,300.55943 c -9.2916,0 -16.8227,-7.5316 -16.8227,-16.8228 0,-9.2895 7.5309,-16.8214 16.8227,-16.8214 9.2896,-3e-4 16.8216,7.532 16.8216,16.8214 0,9.2912 -7.5322,16.8228 -16.8216,16.8228 z m 0,-44.9933 c -15.5586,0 -28.170795,12.6119 -28.170795,28.1705 0,15.5604 12.611995,28.1726 28.170795,28.1726 15.5582,0 28.1714,-12.6127 28.1714,-28.1726 0,-15.5589 -12.6132,-28.1703 -28.1714,-28.1705 z" />
  <path
     id="path4722"
     style="fill:#ffffff;fill-rule:evenodd;stroke:#000000;stroke-width:1.49979997;stroke-linecap:butt;stroke-linejoin:miter;stroke-dasharray:none"
     d="m 128.19939,265.29703 c -0.0547,0 -0.1128,2e-4 -0.168,-0.003 -1.0564,-0.0408 -2.0297,-0.4956 -2.7446,-1.2719 -0.7148,-0.777 -1.0864,-1.7896 -1.0418,-2.8437 0.0887,-2.1812 1.9085,-3.8752 4.1167,-3.7876 2.1766,0.0935 3.8747,1.937 3.7853,4.1174 -0.0885,2.1243 -1.822,3.7891 -3.9476,3.7891 l 0,-2e-4 z m -10.3581,2.0467 c -1.5364,-3e-4 -2.946,-0.9002 -3.5895,-2.2931 -0.4442,-0.9577 -0.4888,-2.0342 -0.1239,-3.0241 0.3605,-0.993 1.0893,-1.7808 2.0503,-2.2245 0.5252,-0.2444 1.0827,-0.3678 1.6602,-0.3678 1.533,0 2.9438,0.8981 3.5895,2.2898 0.9152,1.9809 0.0519,4.3373 -1.9248,5.2513 -0.5301,0.2444 -1.0871,0.3684 -1.6618,0.3684 l 0,0 z m 20.4959,0.8693 c -0.6809,0 -1.3579,-0.1785 -1.9527,-0.5194 -0.918,-0.526 -1.5794,-1.3745 -1.8578,-2.3935 -0.2784,-1.018 -0.144,-2.0833 0.3817,-3.0012 0.7014,-1.2303 2.0185,-1.9951 3.4392,-1.9951 0.681,-2e-4 1.359,0.179 1.956,0.5195 1.8925,1.0826 2.5521,3.5001 1.4728,5.3958 -0.7009,1.2304 -2.0185,1.994 -3.4394,1.994 l 2e-4,-10e-5 z m -28.7693,5.6983 c -0.8877,0 -1.7293,-0.2928 -2.4314,-0.8403 -0.8314,-0.648 -1.3617,-1.5843 -1.4884,-2.6329 -0.1316,-1.0487 0.1546,-2.0832 0.8043,-2.9158 0.7561,-0.9668 1.8907,-1.5208 3.1206,-1.5208 0.889,0 1.7284,0.2891 2.4304,0.8366 0.8354,0.65 1.3639,1.5843 1.4916,2.6341 0.1307,1.0483 -0.1585,2.0836 -0.8085,2.9168 -0.7524,0.9655 -1.8896,1.5225 -3.1186,1.5225 l 0,-2e-4 z m 36.4621,1.5441 c -1.341,0 -2.5784,-0.6706 -3.3155,-1.7956 -1.1892,-1.8244 -0.6736,-4.2803 1.1535,-5.4701 0.6429,-0.4238 1.3895,-0.6457 2.1558,-0.6457 1.3434,0 2.5821,0.6691 3.3155,1.7937 1.1931,1.8257 0.6758,4.2808 -1.1502,5.4712 -0.6429,0.4239 -1.3895,0.6466 -2.1591,0.6466 l 0,-1e-4 z m -40.806,8.0753 c -0.2444,0 -0.4916,-0.0245 -0.7316,-0.0685 -2.1462,-0.4026 -3.5598,-2.474 -3.1575,-4.6158 0.351,-1.8697 1.9812,-3.2255 3.8792,-3.2255 0.2483,-4e-4 0.4921,0.0212 0.736,0.0691 2.143,0.4018 3.5587,2.4728 3.1569,4.6145 -0.3498,1.8705 -1.9839,3.2263 -3.883,3.2263 l 0,-10e-5 z m 0.5303,10.5434 c -1.7368,0 -3.2948,-1.1624 -3.7899,-2.8315 -0.299,-1.0118 -0.1886,-2.0827 0.3159,-3.013 0.5022,-0.9259 1.3383,-1.6 2.3516,-1.9029 0.3678,-0.1068 0.7478,-0.1618 1.1251,-0.1618 1.7367,-2e-4 3.2981,1.1606 3.7904,2.8298 0.6183,2.091 -0.5782,4.2949 -2.6654,4.9148 -0.3671,0.1098 -0.7455,0.1647 -1.1277,0.1647 l 0,-10e-5 z m 5.3126,9.1266 0,0 c -1.0904,-2e-4 -2.105,-0.4325 -2.8545,-1.2165 -0.7326,-0.7641 -1.1211,-1.7692 -1.0993,-2.8245 0.0206,-1.0558 0.4537,-2.0397 1.2165,-2.768 0.7396,-0.712 1.7127,-1.1004 2.7345,-1.1004 1.0894,-1e-4 2.1034,0.4319 2.8574,1.216 0.7281,0.765 1.12,1.764 1.0966,2.8215 -0.0201,1.0564 -0.4544,2.0392 -1.2134,2.7709 -0.7422,0.7091 -1.7121,1.101 -2.7378,1.101 l 0,0 z m 8.8933,5.6904 -0.004,0 c -0.436,0 -0.8662,-0.0714 -1.282,-0.2136 -1.001,-0.3421 -1.8059,-1.0553 -2.2695,-2.0034 -0.4638,-0.9493 -0.5303,-2.0219 -0.1854,-3.0231 0.5508,-1.5956 2.0527,-2.6691 3.7413,-2.6691 0.4365,0 0.8661,0.072 1.2863,0.2137 l 0.0547,0.0245 c 0.9734,0.3504 1.7573,1.0509 2.211,1.9828 0.4643,0.9469 0.5297,2.0202 0.1848,3.0208 -0.5486,1.5936 -2.052,2.6676 -3.7368,2.6676 l 0,-2e-4 z m 10.5105,0.9833 c -1.9543,0 -3.6336,-1.4565 -3.9114,-3.3884 -0.1512,-1.0469 0.1144,-2.0872 0.746,-2.9348 0.6329,-0.8461 1.5576,-1.3968 2.604,-1.548 0.1892,-0.0264 0.3784,-0.0404 0.5665,-0.0404 1.9498,0 3.6312,1.4595 3.9103,3.3953 0.313,2.1553 -1.1893,4.1632 -3.3495,4.4763 -0.1897,0.0261 -0.3773,0.0402 -0.5659,0.0402 l 0,-2e-4 z" />
  <path
     id="path4724"
     style="fill:#ffffff;fill-rule:evenodd;stroke:#000000;stroke-width:1.49979997;stroke-linecap:butt;stroke-linejoin:miter;stroke-dasharray:none"
     d="m 146.09969,306.21143 -4.2853,2.8645 -5.8194,-10.038 3.0631,-2.0446 7.0416,9.2181 z" />
  <path
     id="path4726"
     style="fill:#ffffff;fill-rule:evenodd;stroke:#000000;stroke-width:1.49979997;stroke-linecap:butt;stroke-linejoin:miter;stroke-dasharray:none"
     d="m 113.54529,244.19073 -6.9847,0 0,11.3754 6.9847,0 0,-11.3754 z" />
  <path
     id="path4728"
     style="fill:#ffffff;fill-rule:evenodd;stroke:#000000;stroke-width:1.49979997;stroke-linecap:butt;stroke-linejoin:miter;stroke-dasharray:none"
     d="m 147.93569,244.19073 -6.9846,0 0,11.3754 6.9846,0 0,-11.3754 z" />
  <path
     id="path4730"
     style="fill:#050109;fill-rule:evenodd;stroke:#000000;stroke-width:1.49979997;stroke-linecap:butt;stroke-linejoin:miter;stroke-dasharray:none"
     d="m 243.81549,203.81333 c 1.8839,7.1923 1.1634,15.0825 -4.6275,20.2814 -4.5342,4.0707 -10.8688,5.45 -16.7379,6.1452 -10.4284,1.2344 -21.6354,0.1914 -30.998,5.8005 -11.7332,7.0287 -13.1401,21.4876 -11.2013,33.6846 1.1976,7.5314 4.0112,16.1206 1.4604,23.6136 -2.1737,6.3824 -9.5004,9.0651 -15.6017,10.5882 l 0.3811,2.3247 c 5.2364,-1.2997 10.352,-3.2288 14.2439,-7.109 4.911,-4.896 4.5309,-11.9481 3.7452,-18.2966 -0.986,-7.9652 -3.2619,-15.7238 -2.7138,-23.8208 0.5758,-8.5021 5.5939,-16.4242 13.1964,-20.2312 10.9069,-5.4623 24.3225,-2.5616 35.8804,-5.7672 5.3799,-1.493 10.4313,-4.6145 13.5195,-9.3289 3.401,-5.192 3.2798,-12.3411 1.8037,-18.1878 -0.6025,0.1014 -1.4008,0.2449 -2.3504,0.3033 z" />
  <path
     id="path4732"
     style="fill:#050109;fill-rule:evenodd;stroke:#000000;stroke-width:1.49979997;stroke-linecap:butt;stroke-linejoin:miter;stroke-dasharray:none"
     d="m 368.72359,224.94933 c 0,0 -16.5331,-4.484 -38.6001,-6.3941 -3e-4,-2e-4 -2.6832,20.8987 15.9062,23.9782 20.4853,3.393 22.6942,-17.5838 22.6939,-17.5841 z" />
  <path
     id="path4734"
     style="fill:#050109;fill-rule:evenodd;stroke:#000000;stroke-width:1.49979997;stroke-linecap:butt;stroke-linejoin:miter;stroke-dasharray:none"
     d="m 321.09349,194.48563 c -1.1316,4.6324 -0.3198,8.8104 1.8132,9.3319 2.1336,0.5208 4.7803,-2.8119 5.9124,-7.4446 1.1314,-4.6327 0.3198,-8.8102 -1.8139,-9.332 -2.1329,-0.521 -4.7803,2.8122 -5.9117,7.4447 z" />
  <path
     id="path4736"
     style="fill:#050109;fill-rule:evenodd;stroke:#000000;stroke-width:1.49979997;stroke-linecap:butt;stroke-linejoin:miter;stroke-dasharray:none"
     d="m 379.74669,198.21453 c -1.0985,4.497 -0.3095,8.5529 1.7611,9.0585 2.0711,0.5063 4.6406,-2.7291 5.7398,-7.2262 1.0981,-4.4972 0.3105,-8.5529 -1.7601,-9.0594 -2.0715,-0.5058 -4.6415,2.73 -5.7408,7.2271 z" />
</svg>
