<?xml version="1.0" encoding="UTF-8" standalone="no"?>
<svg
   xmlns:dc="http://purl.org/dc/elements/1.1/"
   xmlns:cc="http://creativecommons.org/ns#"
   xmlns:rdf="http://www.w3.org/1999/02/22-rdf-syntax-ns#"
   xmlns:svg="http://www.w3.org/2000/svg"
   xmlns="http://www.w3.org/2000/svg"
   xmlns:sodipodi="http://sodipodi.sourceforge.net/DTD/sodipodi-0.dtd"
   xmlns:inkscape="http://www.inkscape.org/namespaces/inkscape"
   version="1.1"
   viewBox="0 0 1373.466 176.68598"
   id="svg2"
   inkscape:version="0.91 r13725"
   sodipodi:docname="bottomCloud2.svg"
   width="1373.4661"
   height="176.68597">
  <metadata
     id="metadata12">
    <rdf:RDF>
      <cc:Work
         rdf:about="">
        <dc:format>image/svg+xml</dc:format>
        <dc:type
           rdf:resource="http://purl.org/dc/dcmitype/StillImage" />
        <dc:title></dc:title>
      </cc:Work>
    </rdf:RDF>
  </metadata>
  <defs
     id="defs10" />
  <sodipodi:namedview
     pagecolor="#ffffff"
     bordercolor="#666666"
     borderopacity="1"
     objecttolerance="10"
     gridtolerance="10"
     guidetolerance="10"
     inkscape:pageopacity="0"
     inkscape:pageshadow="2"
     inkscape:window-width="1920"
     inkscape:window-height="1026"
     id="namedview8"
     showgrid="false"
     fit-margin-top="0"
     fit-margin-left="0"
     fit-margin-right="0"
     fit-margin-bottom="0"
     inkscape:zoom="0.35355339"
     inkscape:cx="1666.9374"
     inkscape:cy="33.865949"
     inkscape:window-x="0"
     inkscape:window-y="27"
     inkscape:window-maximized="1"
     inkscape:current-layer="svg2" />
  <g
     transform="matrix(0.67162131,0,0,0.67162131,652.52853,173.95951)"
     id="g4">
    <path
       style="fill:#f0f1f3;fill-rule:evenodd"
       d="m -971.5722,-161.16034 c 14.00094,-11.00144 28.00094,-2.00144 33.50419,8.87388 4.49675,-8.87532 17.49675,-12.87532 26.24825,2.89287 15.2485,-3.76819 26.2485,2.23181 26.43625,15.63469 6.138,-20.5861 26.95134,-17.904 37.85086,-11.837 5.46834,-7.61112 24.552,-7.71983 35.29364,-3.08796 10.74156,4.63174 20.97143,17.49828 19.43686,39.62843 26.59814,-13.38104 50.38282,4.88912 61.63575,13.895681 -5.11493,-6.433241 -13.55461,-10.807721 -21.22725,-15.182341 9.78895,-9.1105 14.8335,-17.24089 30.1785,-14.66771 3.069,-7.71969 15.1938,-14.41025 27.621,-14.41025 19.94857,0 29.66712,10.29302 47.46541,32.65764 -12.06902,4.16027 -14.72541,5.15469 -27.51684,14.176119 11.23668,-7.235951 34.00279,-17.933939 53.70741,-15.439729 19.70462,2.49421 24.79288,13.129386 30.74667,25.291083 5.05847,-20.659213 21.42612,-32.496273 39.32883,-38.157493 17.90264,-5.66114 34.90128,-0.91681 54.30589,10.47232 -0.69326,-10.76544 -0.59832,-22.82402 16.28125,-23.85343 -3.05564,-8.88059 6.64936,-17.49828 15.345,-23.15942 8.6957,-5.66122 34.78186,-8.23468 55.75336,-1.02941 -9.207,-5.14658 -12.97716,-5.59929 -27.08127,-6.18868 7.92839,-12.86654 22.31177,-20.65757 35.29344,-22.64492 14.93014,-2.28559 36.28826,0.0128 40.38033,7.21808 5.11493,-12.35177 21.08785,-29.09098 50.127,-34.99669 29.03922,-5.90572 61.38,12.35177 75.19043,33.96728 7.52526,-12.66624 25.25378,-20.79377 50.63857,-17.49828 15.85657,2.05855 25.57493,16.98365 27.73796,23.15615 -18.53096,1.80471 -23.90185,3.60587 -35.15478,10.29643 9.46282,-5.14637 21.97793,-7.94155 35.53834,-8.97123 13.56048,-1.02969 30.7273,6.30106 36.83905,11.54455 2.2862,-13.08887 6.13779,-23.67433 15.85636,-29.33534 8.352114,-4.86525 26.59807,-6.17578 31.201501,-0.51464 0,-7.20519 -1.534227,-20.58624 14.322137,-29.84998 15.856364,-9.26382 25.234205,-5.57249 37.850864,-1.02942 2.301682,-3.85991 11.3994936,-9.14316 22.2503182,-4.88919 10.8508248,4.25418 11.5088868,9.00657 14.0663188,19.29945 5.114931,-12.86621 11.965553,-22.05936 24.040295,-25.21811 16.446975,-4.30233 29.50066,-1.34989 33.709487,-0.66052 4.208894,0.68936 16.41758,4.77775 24.345967,9.15258 -7.928387,-5.66135 -14.596505,-8.05327 -23.017636,-10.55061 1.278818,-4.63174 13.043522,-18.52769 38.106818,-19.04233 25.06336,-0.51464 35.29343,11.32263 39.3855,16.98378 9.207,-4.11737 31.2015,-4.11737 40.74357,11.0454 7.33736,-17.22132 30.84099,-24.61836 49.25615,-19.57156 6.39784,1.75308 11.78878,7.49675 15.88071,12.38614 4.04719,-2.48698 12.53175,-4.37462 18.9255,1.02914 6.39375,5.4039 4.60357,9.00656 3.069,17.24117 10.26233,-3.2955 22.50607,-1.02941 32.22457,7.20492 8.89655,7.53788 10.82436,16.3575 11.03585,36.24619 -17.66373,2.09694 -25.86949,3.38238 -40.70292,7.49961 20.9494,-3.01048 48.08073,-8.7491 67.00643,-5.66114 18.92571,3.08796 30.94596,9.26381 35.80514,17.49827 3.83632,-17.75552 23.01743,-34.48205 39.3855,-38.08438 5.54739,-1.22105 9.54138,-1.79925 12.80448,-1.94772 -0.017,-6.80165 0.75013,-9.88948 4.58645,-12.97751 3.83625,-3.08795 9.7185,-2.57332 15.97346,-0.78279 3.64918,-6.3098 9.11152,-8.57247 12.15904,-10.02486 4.85918,-2.31567 20.9715,-3.08797 27.621,5.66115 3.069,-9.26375 9.71857,-18.01293 27.1095,-18.5277 17.39093,-0.51464 24.56626,17.37191 31.2015,20.58625 5.08574,-17.3194 30.1785,-23.67407 42.4545,-15.95417 -2.5575,-10.29323 0.5115,-25.21818 24.04043,-31.90874 23.52893,-6.69055 37.33957,7.7197 42.93797,13.08717 8.63133,-0.4969 13.77483,-2.61076 25.827,-0.1291 12.05212,2.48166 18.0424,7.10589 19.06526,15.855 -9.05927,4.63958 -12.51472,7.07684 -27.98459,11.84478 26.08659,-5.14652 39.89682,-22.13016 62.40288,-25.73289 22.50607,-3.6026 23.45332,14.22511 33.67718,16.38746 24.47335,-20.19786 49.47335,-0.19786 42.53626,21.08499 24.93709,-9.28285 44.93709,3.71715 38.36263,26.24752 6.6495,-10.29316 13.75853,-15.75475 32.45427,-16.36923 18.69566,-0.61455 36.59987,5.55693 57.06001,14.30604 -12.53353,-6.68606 -22.7636,-10.5459 -28.3901,-11.57518 4.50987,-7.33914 10.99739,-16.21162 27.87682,-20.84362 16.87937,-4.63194 32.73593,-0.51464 38.87393,11.32242 3.069,-6.17591 9.49818,-17.22644 25.96619,-15.92741 19.7333,1.55661 19.7333,11.55661 22.7367,29.47906 26.9966,-7.92245 35.9966,7.07755 36.9965,27.07969 l -10e-5,165.2152794 -2044.99976,0.0039 z"
       id="path6"
       inkscape:connector-curvature="0"
       sodipodi:nodetypes="cccccsccccsccscsccsccscscsccscccsccccsccsccccscsccscccscccsccscsccscccsccscsccccc" />
  </g>
</svg>
