<?xml version="1.0" encoding="UTF-8" standalone="no"?>
<svg xmlns="http://www.w3.org/2000/svg" viewBox="0 0 1000 750" version="1.1" id="moneyBg01">
  <g
     transform="matrix(1.25,0,0,-1.25,0,750)"
     id="g10"><path
       d="m 234.79,109.837 c -1.022,0 -2.018,-0.106 -2.993,-0.271 0.014,0.338 0.051,0.669 0.051,1.01 0,13.679 -11.089,24.768 -24.767,24.768 -11.825,0 -21.699,-8.294 -24.161,-19.378 -0.203,0.006 -0.401,0.03 -0.606,0.03 -11.542,0 -20.898,-9.356 -20.898,-20.898 0,-11.5417 9.356,-20.8992 20.898,-20.8992 l 52.476,0 c 9.84,0 17.818,7.9782 17.818,17.8203 0,9.8399 -7.978,17.8179 -17.818,17.8179"
       style="fill:#afc0d7;fill-opacity:1;fill-rule:nonzero;stroke:none;stroke-opacity:1"
       id="path16" /><path
       d="m 734.438,288.36 c -0.95,0 -1.875,-0.095 -2.783,-0.241 0.145,1.165 0.227,2.348 0.227,3.552 0,15.808 -12.816,28.623 -28.623,28.623 -15.085,0 -27.436,-11.671 -28.536,-26.476 -1.575,0.386 -3.211,0.614 -4.906,0.614 -11.375,0 -20.595,-9.222 -20.595,-20.597 0,-11.375 9.22,-20.597 20.595,-20.597 l 64.621,0 c 9.698,0 17.56,7.864 17.56,17.562 0,9.698 -7.862,17.56 -17.56,17.56"
       style="fill:#afc0d7;fill-opacity:1;fill-rule:nonzero;stroke:none;stroke-opacity:1"
       id="path18" /><path
       d="m 107.299,255.554 c -0.615,0 -1.214,-0.063 -1.801,-0.157 0.093,0.754 0.147,1.52 0.147,2.299 0,10.236 -8.2977,18.533 -18.5329,18.533 -9.7668,0 -17.7629,-7.557 -18.475,-17.142 -1.0199,0.25 -2.0797,0.397 -3.1762,0.397 -7.364,0 -13.3343,-5.97 -13.3343,-13.335 0,-7.365 5.9703,-13.335 13.3343,-13.335 l 41.8381,0 c 6.279,0 11.369,5.09 11.369,11.37 0,6.279 -5.09,11.37 -11.369,11.37"
       style="fill:#afc0d7;fill-opacity:1;fill-rule:nonzero;stroke:none;stroke-opacity:1"
       id="path20" /><path
       d="m 639.17,111.477 c -0.709,0 -1.4,-0.073 -2.079,-0.181 0.107,0.87 0.17,1.755 0.17,2.654 0,11.816 -9.578,21.394 -21.394,21.394 -11.274,0 -20.505,-8.724 -21.327,-19.788 -1.177,0.288 -2.4,0.458 -3.666,0.458 -8.501,0 -15.394,-6.892 -15.394,-15.394 0,-8.502 6.893,-15.393 15.394,-15.393 l 48.296,0 c 7.249,0 13.125,5.8761 13.125,13.125 0,7.249 -5.876,13.125 -13.125,13.125"
       style="fill:#afc0d7;fill-opacity:1;fill-rule:nonzero;stroke:none;stroke-opacity:1"
       id="path22" /><path
       d="m 440.753,148.691 c -0.408,0 -0.806,-0.041 -1.196,-0.103 0.061,0.501 0.097,1.01 0.097,1.527 0,6.801 -5.512,12.313 -12.312,12.313 -6.489,0 -11.802,-5.021 -12.275,-11.388 -0.677,0.165 -1.381,0.263 -2.11,0.263 -4.894,0 -8.859,-3.966 -8.859,-8.86 0,-4.892 3.965,-8.859 8.859,-8.859 l 27.796,0 c 4.172,0 7.554,3.382 7.554,7.554 0,4.172 -3.382,7.553 -7.554,7.553"
       style="fill:#afc0d7;fill-opacity:1;fill-rule:nonzero;stroke:none;stroke-opacity:1"
       id="path24" /><path
       d="m 466.519,402.515 -0.001,0 -0.409,2.324 0,0 0.41,-2.324 m -28.791,29.248 0,0.001 2.064,2.945 -2.064,-2.946"
       style="fill:none;fill-opacity:1;fill-rule:nonzero;stroke:#000000;stroke-opacity:1"
       id="path28" /><path
       d="m 547.393,295.739 0,0 4.499,0.792 0,0 -4.499,-0.792 m -9.062,51.456 0,0 0.841,0.148 0,0 -0.841,-0.148"
       style="fill:none;fill-opacity:1;fill-rule:nonzero;stroke:#000000;stroke-opacity:1"
       id="path34" /><path
       d="m 387.109,384.601 0,0 0,0 0,0"
       style="fill:none;fill-opacity:1;fill-rule:nonzero;stroke:#000000;stroke-opacity:1"
       id="path54" /><path
       d="m 164.675,174.791 c 0,-12.772 -10.354,-23.126 -23.126,-23.126 -12.772,0 -23.125,10.355 -23.125,23.126 0,12.771 10.354,23.125 23.125,23.125 12.772,0 23.126,-10.354 23.126,-23.125"
       style="fill:none;fill-opacity:1;fill-rule:nonzero;stroke:#000000;stroke-opacity:1"
       id="path58" /><path
       d="m 141.549,192.378 c -9.697,0 -17.587,-7.89 -17.587,-17.587 0,-9.698 7.89,-17.588 17.587,-17.588 9.698,0 17.588,7.89 17.588,17.588 0,9.697 -7.89,17.587 -17.588,17.587 z m 0,-37.647 c -11.061,0 -20.059,8.998 -20.059,20.06 0,11.061 8.998,20.06 20.059,20.06 11.061,0 20.06,-8.999 20.06,-20.06 0,-11.062 -8.999,-20.06 -20.06,-20.06"
       style="fill:none;fill-opacity:1;fill-rule:nonzero;stroke:#000000;stroke-opacity:1"
       id="path60" /><path
       d="m 135.853,166.446 c -0.94,0.835 -1.411,2.162 -1.411,3.986 l 0,0.777 5.18,0 0,-0.547 c 0,-0.863 0.163,-1.459 0.489,-1.784 0.326,-0.327 0.758,-0.489 1.295,-0.489 0.556,0 0.982,0.181 1.281,0.547 0.296,0.364 0.445,0.805 0.445,1.323 0,0.652 -0.206,1.17 -0.619,1.553 -0.412,0.384 -0.93,0.715 -1.553,0.994 -0.624,0.277 -1.3,0.555 -2.028,0.834 -0.73,0.278 -1.406,0.642 -2.029,1.093 -0.624,0.451 -1.142,1.04 -1.554,1.77 -0.413,0.728 -0.619,1.678 -0.619,2.849 0,3.586 1.756,5.668 5.266,6.244 l 0,1.669 2.647,0 0,-1.669 c 1.918,-0.193 3.309,-0.773 4.172,-1.742 0.864,-0.968 1.295,-2.441 1.295,-4.417 l -5.006,0 0,0.432 c 0,0.576 -0.125,1.079 -0.374,1.511 -0.25,0.432 -0.633,0.647 -1.151,0.647 -0.576,0 -0.998,-0.186 -1.266,-0.561 -0.27,-0.373 -0.403,-0.781 -0.403,-1.223 0,-0.672 0.216,-1.199 0.647,-1.582 0.431,-0.384 0.973,-0.715 1.626,-0.993 0.652,-0.278 1.352,-0.547 2.1,-0.806 0.748,-0.258 1.449,-0.618 2.101,-1.079 0.652,-0.46 1.194,-1.064 1.625,-1.812 0.432,-0.748 0.648,-1.746 0.648,-2.992 0,-1.958 -0.509,-3.406 -1.525,-4.345 -1.017,-0.941 -2.513,-1.516 -4.489,-1.727 l 0,-2.59 -2.647,0 0,2.59 c -1.823,0.192 -3.204,0.705 -4.143,1.539"
       style="fill:none;fill-opacity:1;fill-rule:nonzero;stroke:#000000;stroke-opacity:1"
       id="path62" /><path
       d="m 669.749,466.129 c 0,-12.772 -10.353,-23.125 -23.125,-23.125 -12.772,0 -23.126,10.353 -23.126,23.125 10e-4,12.772 10.355,23.125 23.126,23.125 12.772,0 23.125,-10.353 23.125,-23.125"
       style="fill:none;fill-opacity:1;fill-rule:nonzero;stroke:#000000;stroke-opacity:1"
       id="path64" /><path
       d="m 646.624,483.716 c -9.697,0 -17.588,-7.889 -17.588,-17.587 0,-9.697 7.891,-17.587 17.588,-17.587 9.697,0 17.587,7.89 17.587,17.587 0,9.698 -7.89,17.587 -17.587,17.587 z m 0,-37.647 c -11.061,0 -20.06,8.999 -20.06,20.06 0,11.061 8.999,20.059 20.06,20.059 11.061,0 20.06,-8.998 20.06,-20.059 0,-11.061 -8.999,-20.06 -20.06,-20.06"
       style="fill:none;fill-opacity:1;fill-rule:nonzero;stroke:#000000;stroke-opacity:1"
       id="path66" /><path
       d="m 640.927,457.785 c -0.94,0.834 -1.41,2.162 -1.41,3.985 l 0,0.777 5.179,0 0,-0.547 c 0,-0.863 0.163,-1.458 0.49,-1.784 0.325,-0.326 0.757,-0.489 1.294,-0.489 0.557,0 0.983,0.182 1.281,0.547 0.297,0.364 0.446,0.805 0.446,1.323 0,0.652 -0.207,1.17 -0.619,1.554 -0.412,0.384 -0.931,0.714 -1.553,0.993 -0.624,0.277 -1.301,0.556 -2.029,0.834 -0.73,0.278 -1.405,0.643 -2.028,1.094 -0.624,0.45 -1.142,1.04 -1.554,1.769 -0.413,0.729 -0.619,1.679 -0.619,2.849 0,3.586 1.756,5.668 5.265,6.244 l 0,1.669 2.648,0 0,-1.669 c 1.918,-0.192 3.308,-0.772 4.172,-1.741 0.863,-0.969 1.295,-2.442 1.295,-4.417 l -5.007,0 0,0.431 c 0,0.576 -0.125,1.08 -0.373,1.511 -0.25,0.432 -0.634,0.648 -1.152,0.648 -0.576,0 -0.998,-0.187 -1.266,-0.561 -0.269,-0.374 -0.403,-0.782 -0.403,-1.223 0,-0.672 0.216,-1.199 0.648,-1.583 0.431,-0.384 0.972,-0.715 1.625,-0.992 0.652,-0.279 1.353,-0.547 2.1,-0.806 0.748,-0.259 1.45,-0.619 2.102,-1.079 0.651,-0.46 1.193,-1.065 1.625,-1.813 0.432,-0.748 0.647,-1.746 0.647,-2.993 0,-1.956 -0.508,-3.405 -1.525,-4.344 -1.017,-0.94 -2.513,-1.515 -4.488,-1.726 l 0,-2.59 -2.648,0 0,2.59 c -1.822,0.191 -3.203,0.704 -4.143,1.539"
       style="fill:none;fill-opacity:1;fill-rule:nonzero;stroke:#000000;stroke-opacity:1"
       id="path68" /><path
       d="m 418.353,527.065 c 0,-12.771 -10.354,-23.125 -23.125,-23.125 -12.772,0 -23.126,10.354 -23.126,23.125 0.001,12.773 10.354,23.126 23.126,23.126 12.771,0 23.125,-10.353 23.125,-23.126"
       style="fill:none;fill-opacity:1;fill-rule:nonzero;stroke:#000000;stroke-opacity:1"
       id="path70" /><path
       d="m 395.228,544.653 c -9.698,0 -17.588,-7.89 -17.588,-17.588 0,-9.697 7.89,-17.587 17.588,-17.587 9.697,0 17.586,7.89 17.586,17.587 0,9.698 -7.889,17.588 -17.586,17.588 z m 0,-37.647 c -11.061,0 -20.06,8.998 -20.06,20.059 0,11.062 8.999,20.06 20.06,20.06 11.06,0 20.059,-8.998 20.059,-20.06 0,-11.061 -8.999,-20.059 -20.059,-20.059"
       style="fill:none;fill-opacity:1;fill-rule:nonzero;stroke:#000000;stroke-opacity:1"
       id="path72" /><path
       d="m 389.531,518.721 c -0.94,0.834 -1.41,2.162 -1.41,3.986 l 0,0.777 5.179,0 0,-0.547 c 0,-0.864 0.163,-1.458 0.49,-1.784 0.325,-0.327 0.757,-0.49 1.294,-0.49 0.557,0 0.983,0.183 1.281,0.547 0.297,0.364 0.446,0.806 0.446,1.324 0,0.652 -0.207,1.17 -0.62,1.554 -0.412,0.383 -0.93,0.714 -1.552,0.992 -0.624,0.278 -1.301,0.556 -2.029,0.834 -0.73,0.279 -1.406,0.643 -2.029,1.094 -0.623,0.451 -1.142,1.04 -1.554,1.77 -0.413,0.728 -0.618,1.678 -0.618,2.849 0,3.586 1.755,5.668 5.265,6.243 l 0,1.669 2.647,0 0,-1.669 c 1.918,-0.192 3.309,-0.772 4.173,-1.741 0.863,-0.969 1.294,-2.441 1.294,-4.416 l -5.006,0 0,0.431 c 0,0.576 -0.125,1.079 -0.374,1.511 -0.25,0.431 -0.633,0.647 -1.152,0.647 -0.575,0 -0.997,-0.187 -1.265,-0.561 -0.269,-0.374 -0.403,-0.782 -0.403,-1.223 0,-0.671 0.216,-1.199 0.647,-1.582 0.432,-0.384 0.973,-0.715 1.626,-0.993 0.652,-0.279 1.353,-0.547 2.1,-0.806 0.748,-0.258 1.449,-0.619 2.102,-1.079 0.651,-0.46 1.194,-1.064 1.625,-1.812 0.431,-0.748 0.648,-1.746 0.648,-2.993 0,-1.957 -0.51,-3.405 -1.526,-4.345 -1.017,-0.94 -2.513,-1.515 -4.489,-1.726 l 0,-2.59 -2.647,0 0,2.59 c -1.822,0.191 -3.203,0.705 -4.143,1.539"
       style="fill:none;fill-opacity:1;fill-rule:nonzero;stroke:#000000;stroke-opacity:1"
       id="path74" /><path
       d="m 682.057,191.59 c 0,-12.773 -10.354,-23.126 -23.126,-23.126 -12.772,0 -23.125,10.353 -23.125,23.126 0,12.771 10.353,23.125 23.126,23.125 12.771,0 23.125,-10.354 23.125,-23.125"
       style="fill:none;fill-opacity:1;fill-rule:nonzero;stroke:#000000;stroke-opacity:1"
       id="path76" /><path
       d="m 658.932,209.177 c -9.699,0 -17.588,-7.89 -17.588,-17.588 0,-9.697 7.889,-17.587 17.588,-17.587 9.697,0 17.587,7.89 17.587,17.587 0,9.698 -7.89,17.588 -17.587,17.588 z m 0,-37.648 c -11.062,0 -20.061,8.999 -20.061,20.06 0,11.061 8.999,20.06 20.061,20.06 11.06,0 20.059,-8.999 20.059,-20.06 0,-11.061 -8.999,-20.06 -20.059,-20.06"
       style="fill:none;fill-opacity:1;fill-rule:nonzero;stroke:#000000;stroke-opacity:1"
       id="path78" /><path
       d="m 653.234,183.245 c -0.94,0.835 -1.41,2.162 -1.41,3.985 l 0,0.777 5.18,0 0,-0.547 c 0,-0.863 0.163,-1.458 0.489,-1.783 0.325,-0.327 0.758,-0.49 1.295,-0.49 0.557,0 0.983,0.182 1.28,0.547 0.297,0.364 0.446,0.806 0.446,1.324 0,0.652 -0.206,1.17 -0.618,1.553 -0.413,0.384 -0.931,0.715 -1.554,0.993 -0.624,0.278 -1.3,0.556 -2.029,0.834 -0.729,0.278 -1.405,0.643 -2.028,1.094 -0.624,0.45 -1.141,1.04 -1.554,1.77 -0.413,0.728 -0.619,1.677 -0.619,2.848 0,3.587 1.755,5.668 5.266,6.245 l 0,1.668 2.646,0 0,-1.669 c 1.919,-0.192 3.31,-0.772 4.173,-1.741 0.864,-0.968 1.295,-2.441 1.295,-4.417 l -5.007,0 0,0.432 c 0,0.575 -0.125,1.079 -0.374,1.511 -0.25,0.431 -0.632,0.647 -1.151,0.647 -0.575,0 -0.997,-0.187 -1.266,-0.561 -0.268,-0.374 -0.402,-0.782 -0.402,-1.223 0,-0.672 0.215,-1.199 0.647,-1.582 0.431,-0.385 0.973,-0.716 1.625,-0.993 0.653,-0.279 1.353,-0.547 2.101,-0.806 0.748,-0.259 1.448,-0.618 2.101,-1.079 0.652,-0.46 1.194,-1.064 1.626,-1.812 0.431,-0.749 0.647,-1.747 0.647,-2.993 0,-1.957 -0.509,-3.405 -1.525,-4.345 -1.017,-0.94 -2.513,-1.515 -4.49,-1.726 l 0,-2.59 -2.646,0 0,2.59 c -1.822,0.191 -3.204,0.704 -4.144,1.539"
       style="fill:none;fill-opacity:1;fill-rule:nonzero;stroke:#000000;stroke-opacity:1"
       id="path80" /><path
       d="m 427.74,66.5672 c 0,-12.7711 -10.353,-23.125 -23.125,-23.125 -12.772,0 -23.125,10.3539 -23.125,23.125 0,12.7719 10.353,23.125 23.125,23.125 12.772,0 23.125,-10.3531 23.125,-23.125"
       style="fill:none;fill-opacity:1;fill-rule:nonzero;stroke:#000000;stroke-opacity:1"
       id="path82" /><path
       d="m 404.615,84.1539 c -9.698,0 -17.587,-7.8887 -17.587,-17.5867 0,-9.6973 7.889,-17.5871 17.587,-17.5871 9.698,0 17.587,7.8898 17.587,17.5871 0,9.698 -7.889,17.5867 -17.587,17.5867 z m 0,-37.6457 c -11.061,0 -20.06,8.9988 -20.06,20.059 0,11.0609 8.999,20.0598 20.06,20.0598 11.061,0 20.06,-8.9989 20.06,-20.0598 0,-11.0602 -8.999,-20.059 -20.06,-20.059"
       style="fill:none;fill-opacity:1;fill-rule:nonzero;stroke:#000000;stroke-opacity:1"
       id="path84" /><path
       d="m 398.918,58.223 c -0.94,0.8352 -1.41,2.1629 -1.41,3.9852 l 0,0.777 5.18,0 0,-0.5473 c 0,-0.8629 0.163,-1.4578 0.489,-1.784 0.326,-0.3258 0.758,-0.4891 1.295,-0.4891 0.556,0 0.982,0.1832 1.28,0.5473 0.297,0.3641 0.446,0.8059 0.446,1.3231 0,0.6519 -0.207,1.1699 -0.619,1.5539 -0.412,0.3839 -0.931,0.7148 -1.553,0.9929 -0.624,0.277 -1.3,0.5559 -2.029,0.834 -0.729,0.2781 -1.405,0.643 -2.029,1.0942 -0.623,0.45 -1.141,1.0398 -1.553,1.7687 -0.413,0.7293 -0.619,1.6793 -0.619,2.8492 0,3.5871 1.755,5.6688 5.266,6.2438 l 0,1.6691 2.647,0 0,-1.6691 c 1.918,-0.1918 3.309,-0.7719 4.172,-1.741 0.863,-0.9688 1.295,-2.4418 1.295,-4.4157 l -5.007,0 0,0.4309 c 0,0.5758 -0.125,1.0789 -0.373,1.5098 -0.25,0.432 -0.634,0.648 -1.151,0.648 -0.577,0 -0.999,-0.1867 -1.267,-0.5609 -0.269,-0.3739 -0.402,-0.7821 -0.402,-1.2219 0,-0.6719 0.215,-1.2 0.647,-1.584 0.431,-0.3832 0.973,-0.7141 1.625,-0.993 0.652,-0.2781 1.354,-0.5461 2.101,-0.8039 0.748,-0.2601 1.449,-0.6191 2.101,-1.08 0.652,-0.4602 1.194,-1.0653 1.625,-1.8133 0.432,-0.7477 0.648,-1.7449 0.648,-2.9918 0,-1.9571 -0.509,-3.4051 -1.526,-4.3449 -1.016,-0.9403 -2.512,-1.5153 -4.488,-1.7262 l 0,-2.5899 -2.647,0 0,2.5899 c -1.823,0.1922 -3.204,0.7051 -4.144,1.539"
       style="fill:none;fill-opacity:1;fill-rule:nonzero;stroke:#000000;stroke-opacity:1"
       id="path86" /><path
       d="m 191.8,478.716 c 0,-12.772 -10.354,-23.125 -23.126,-23.125 -12.771,0 -23.125,10.354 -23.125,23.125 0,12.772 10.354,23.126 23.126,23.126 12.771,0 23.125,-10.354 23.125,-23.126"
       style="fill:none;fill-opacity:1;fill-rule:nonzero;stroke:#000000;stroke-opacity:1"
       id="path88" /><path
       d="m 168.675,496.303 c -9.698,0 -17.588,-7.889 -17.588,-17.587 0,-9.697 7.89,-17.587 17.588,-17.587 9.697,0 17.587,7.89 17.587,17.587 0,9.698 -7.89,17.587 -17.587,17.587 z m 0,-37.646 c -11.061,0 -20.06,8.998 -20.06,20.059 0,11.061 8.999,20.06 20.06,20.06 11.06,0 20.059,-8.999 20.059,-20.06 0,-11.061 -8.999,-20.059 -20.059,-20.059"
       style="fill:none;fill-opacity:1;fill-rule:nonzero;stroke:#000000;stroke-opacity:1"
       id="path90" /><path
       d="m 162.978,470.372 c -0.94,0.835 -1.41,2.162 -1.41,3.985 l 0,0.777 5.179,0 0,-0.547 c 0,-0.863 0.163,-1.458 0.489,-1.784 0.326,-0.326 0.758,-0.489 1.295,-0.489 0.557,0 0.983,0.182 1.281,0.547 0.297,0.364 0.445,0.805 0.445,1.324 0,0.651 -0.206,1.169 -0.618,1.553 -0.412,0.384 -0.931,0.715 -1.554,0.993 -0.624,0.278 -1.299,0.556 -2.028,0.834 -0.729,0.278 -1.406,0.643 -2.029,1.094 -0.624,0.45 -1.141,1.04 -1.553,1.769 -0.413,0.729 -0.619,1.678 -0.619,2.849 0,3.587 1.755,5.668 5.266,6.244 l 0,1.669 2.646,0 0,-1.669 c 1.919,-0.192 3.309,-0.772 4.173,-1.741 0.863,-0.969 1.294,-2.441 1.294,-4.417 l -5.006,0 0,0.432 c 0,0.576 -0.125,1.079 -0.374,1.511 -0.25,0.431 -0.633,0.647 -1.151,0.647 -0.576,0 -0.998,-0.187 -1.266,-0.561 -0.269,-0.374 -0.403,-0.782 -0.403,-1.223 0,-0.672 0.216,-1.199 0.648,-1.583 0.431,-0.383 0.973,-0.714 1.625,-0.992 0.652,-0.279 1.353,-0.547 2.1,-0.806 0.749,-0.259 1.449,-0.619 2.101,-1.079 0.652,-0.46 1.195,-1.064 1.626,-1.813 0.431,-0.748 0.648,-1.746 0.648,-2.992 0,-1.957 -0.51,-3.405 -1.526,-4.345 -1.017,-0.94 -2.512,-1.516 -4.489,-1.727 l 0,-2.589 -2.646,0 0,2.589 c -1.823,0.192 -3.205,0.706 -4.144,1.54"
       style="fill:none;fill-opacity:1;fill-rule:nonzero;stroke:#000000;stroke-opacity:1"
       id="path92" /><path
       d="m 315.391,113.579 c -0.812,0 -1.473,0.66 -1.473,1.473 l 0,21.093 c 0,0.812 0.661,1.472 1.473,1.472 0.812,0 1.472,-0.66 1.472,-1.472 l 0,-21.093 c 0,-0.813 -0.66,-1.473 -1.472,-1.473"
       style="fill:#000000;fill-opacity:1;fill-rule:nonzero;stroke:#000000;stroke-opacity:1"
       id="path94" /><path
       d="m 304.845,124.125 c -0.812,0 -1.472,0.661 -1.472,1.473 0,0.812 0.66,1.472 1.472,1.472 l 21.092,0 c 0.813,0 1.473,-0.66 1.473,-1.472 0,-0.812 -0.66,-1.473 -1.473,-1.473 l -21.092,0"
       style="fill:#000000;fill-opacity:1;fill-rule:nonzero;stroke:#000000;stroke-opacity:1"
       id="path96" /><path
       d="m 547.771,418.01 c -0.756,0 -1.372,0.615 -1.372,1.372 l 0,19.651 c 0,0.757 0.616,1.372 1.372,1.372 0.757,0 1.373,-0.615 1.373,-1.372 l 0,-19.651 c 0,-0.757 -0.616,-1.372 -1.373,-1.372"
       style="fill:#000000;fill-opacity:1;fill-rule:nonzero;stroke:#000000;stroke-opacity:1"
       id="path98" /><path
       d="m 537.946,427.836 c -0.756,0 -1.372,0.615 -1.372,1.371 0,0.757 0.616,1.373 1.372,1.373 l 19.651,0 c 0.757,0 1.372,-0.616 1.372,-1.373 0,-0.756 -0.615,-1.371 -1.372,-1.371 l -19.651,0"
       style="fill:#000000;fill-opacity:1;fill-rule:nonzero;stroke:#000000;stroke-opacity:1"
       id="path100" /><path
       d="m 100.594,355.675 c -0.7565,0 -1.3721,0.615 -1.3721,1.372 l 0,19.651 c 0,0.757 0.6156,1.372 1.3721,1.372 0.757,0 1.372,-0.615 1.372,-1.372 l 0,-19.651 c 0,-0.757 -0.615,-1.372 -1.372,-1.372"
       style="fill:#000000;fill-opacity:1;fill-rule:nonzero;stroke:#000000;stroke-opacity:1"
       id="path102" /><path
       d="m 90.7691,365.5 c -0.7562,0 -1.3714,0.616 -1.3714,1.373 0,0.756 0.6152,1.372 1.3714,1.372 l 19.6499,0 c 0.757,0 1.373,-0.616 1.373,-1.372 0,-0.757 -0.616,-1.373 -1.373,-1.373 l -19.6499,0"
       style="fill:#000000;fill-opacity:1;fill-rule:nonzero;stroke:#000000;stroke-opacity:1"
       id="path104" /><path
       d="m 298.299,452.374 c -0.757,0 -1.372,0.615 -1.372,1.372 l 0,19.651 c 0,0.756 0.615,1.372 1.372,1.372 0.756,0 1.371,-0.616 1.371,-1.372 l 0,-19.651 c 0,-0.757 -0.615,-1.372 -1.371,-1.372"
       style="fill:#000000;fill-opacity:1;fill-rule:nonzero;stroke:#000000;stroke-opacity:1"
       id="path106" /><path
       d="m 288.474,462.199 c -0.757,0 -1.372,0.616 -1.372,1.372 0,0.757 0.615,1.372 1.372,1.372 l 19.65,0 c 0.757,0 1.372,-0.615 1.372,-1.372 0,-0.756 -0.615,-1.372 -1.372,-1.372 l -19.65,0"
       style="fill:#000000;fill-opacity:1;fill-rule:nonzero;stroke:#000000;stroke-opacity:1"
       id="path108" /><path
       d="m 480.753,511.623 c -2.118,0 -3.841,-1.723 -3.841,-3.841 0,-2.118 1.723,-3.841 3.841,-3.841 2.117,0 3.84,1.723 3.84,3.841 0,2.118 -1.723,3.841 -3.84,3.841 z m 0,-10 c -3.397,0 -6.159,2.763 -6.159,6.159 0,3.396 2.762,6.158 6.159,6.158 3.395,0 6.158,-2.762 6.158,-6.158 0,-3.396 -2.763,-6.159 -6.158,-6.159"
       style="fill:none;fill-opacity:1;fill-rule:nonzero;stroke:#000000;stroke-opacity:1"
       id="path110" /><path
       d="m 213.197,227.075 c -1.098,0 -1.992,0.885 -1.992,1.973 0,1.099 0.89,1.993 1.983,1.993 1.093,0 1.983,-0.89 1.983,-1.983 0,-1.094 -0.886,-1.983 -1.974,-1.983 z m 7.942,-3.261 c -0.524,0 -1.02,0.201 -1.396,0.566 -0.767,0.781 -0.774,2.05 -0.006,2.818 0.374,0.374 0.873,0.58 1.404,0.58 0.528,0 1.025,-0.206 1.4,-0.58 0.769,-0.769 0.774,-2.025 0.012,-2.8 -0.391,-0.379 -0.884,-0.584 -1.414,-0.584 z m -15.883,-0.05 c -0.527,0 -1.025,0.207 -1.401,0.582 -0.772,0.773 -0.772,2.032 0,2.803 0.371,0.377 0.866,0.583 1.398,0.583 0.529,0 1.028,-0.207 1.405,-0.584 0.375,-0.37 0.581,-0.861 0.583,-1.388 0.002,-0.534 -0.205,-1.036 -0.584,-1.415 -0.375,-0.375 -0.872,-0.581 -1.401,-0.581 z m 19.204,-7.932 c -1.092,0 -1.982,0.895 -1.982,1.994 0,1.115 0.885,2.023 1.973,2.023 1.085,0 1.979,-0.883 1.992,-1.968 0,-1.146 -0.871,-2.049 -1.983,-2.049 z m -22.465,-0.019 c -1.099,0 -1.993,0.889 -1.993,1.983 0,1.094 0.89,1.983 1.983,1.983 1.093,0 1.983,-0.885 1.983,-1.973 0,-1.099 -0.885,-1.993 -1.973,-1.993 z m 19.173,-7.912 c -0.528,0 -1.025,0.206 -1.4,0.581 -0.766,0.768 -0.768,2.024 -0.003,2.801 0.378,0.371 0.88,0.579 1.407,0.579 0.529,0 1.026,-0.205 1.398,-0.576 0.379,-0.379 0.587,-0.88 0.585,-1.412 -0.002,-0.529 -0.212,-1.024 -0.587,-1.395 -0.364,-0.375 -0.858,-0.578 -1.4,-0.578 z m -15.882,-0.019 c -0.4,0 -0.785,0.12 -1.112,0.347 l -0.128,0.088 -0.011,0 -0.156,0.152 c -0.761,0.76 -0.762,2.015 0.003,2.794 0.376,0.378 0.877,0.587 1.408,0.587 0.53,0 1.028,-0.208 1.399,-0.587 0.777,-0.763 0.779,-2.015 0.012,-2.797 -0.392,-0.379 -0.885,-0.584 -1.415,-0.584 z m 7.951,-3.282 c -1.092,0 -1.983,0.888 -1.983,1.982 0,1.094 0.891,1.983 1.983,1.983 1.094,0 1.983,-0.889 1.983,-1.983 0,-1.094 -0.889,-1.982 -1.983,-1.982"
       style="fill:none;fill-opacity:1;fill-rule:nonzero;stroke:#000000;stroke-opacity:1"
       id="path112" /><path
       d="m 533.705,161.261 c -1.098,0 -1.991,0.885 -1.991,1.973 0,1.099 0.89,1.993 1.982,1.993 1.093,0 1.984,-0.889 1.984,-1.983 0,-1.094 -0.886,-1.983 -1.975,-1.983 z M 541.647,158 c -0.524,0 -1.019,0.201 -1.396,0.565 -0.767,0.782 -0.773,2.05 -0.006,2.819 0.375,0.374 0.873,0.581 1.404,0.581 0.529,0 1.026,-0.207 1.4,-0.581 0.768,-0.769 0.775,-2.026 0.013,-2.8 -0.391,-0.379 -0.884,-0.584 -1.415,-0.584 z m -15.882,-0.051 c -0.528,0 -1.026,0.207 -1.402,0.582 -0.772,0.775 -0.772,2.032 0,2.804 0.371,0.377 0.866,0.583 1.399,0.583 0.529,0 1.027,-0.207 1.404,-0.583 0.375,-0.37 0.582,-0.862 0.584,-1.39 0.002,-0.533 -0.206,-1.036 -0.585,-1.415 -0.375,-0.375 -0.871,-0.581 -1.4,-0.581 z m 19.204,-7.93 c -1.093,0 -1.983,0.893 -1.983,1.993 0,1.115 0.885,2.022 1.973,2.022 1.086,0 1.979,-0.883 1.993,-1.967 0,-1.146 -0.872,-2.048 -1.983,-2.048 z m -22.466,-0.02 c -1.099,0 -1.992,0.89 -1.992,1.983 0,1.093 0.889,1.983 1.982,1.983 1.094,0 1.984,-0.885 1.984,-1.974 0,-1.098 -0.886,-1.992 -1.974,-1.992 z m 19.174,-7.912 c -0.529,0 -1.026,0.207 -1.401,0.582 -0.765,0.767 -0.767,2.022 -0.003,2.801 0.378,0.371 0.88,0.578 1.408,0.578 0.529,0 1.025,-0.204 1.397,-0.575 0.38,-0.38 0.587,-0.88 0.585,-1.413 -0.002,-0.53 -0.211,-1.024 -0.587,-1.394 -0.364,-0.377 -0.857,-0.579 -1.399,-0.579 z m -15.883,-0.02 c -0.399,0 -0.784,0.12 -1.111,0.348 l -0.128,0.088 -0.012,0 -0.155,0.151 c -0.762,0.76 -0.763,2.017 0.003,2.794 0.376,0.378 0.877,0.587 1.407,0.587 0.53,0 1.028,-0.208 1.4,-0.586 0.777,-0.762 0.779,-2.015 0.012,-2.798 -0.393,-0.379 -0.886,-0.584 -1.416,-0.584 z m 7.952,-3.282 c -1.094,0 -1.983,0.89 -1.983,1.984 0,1.092 0.889,1.982 1.983,1.982 1.093,0 1.983,-0.89 1.983,-1.982 0,-1.094 -0.89,-1.984 -1.983,-1.984"
       style="fill:none;fill-opacity:1;fill-rule:nonzero;stroke:#000000;stroke-opacity:1"
       id="path114" /><path
       d="m 632.796,364.004 c -0.729,0 -1.32,0.592 -1.32,1.321 l 0,7.507 c 0,0.729 0.591,1.321 1.32,1.321 0.728,0 1.321,-0.592 1.321,-1.321 l 0,-7.507 c 0,-0.729 -0.593,-1.321 -1.321,-1.321"
       style="fill:none;fill-opacity:1;fill-rule:nonzero;stroke:#000000;stroke-opacity:1"
       id="path116" /><path
       d="m 626.197,361.762 c -0.351,0 -0.682,0.137 -0.932,0.386 l -5.31,5.309 c -0.25,0.249 -0.388,0.581 -0.388,0.934 0,0.352 0.138,0.683 0.388,0.934 0.249,0.249 0.58,0.386 0.934,0.386 0.352,0 0.684,-0.138 0.933,-0.387 l 5.309,-5.308 c 0.514,-0.515 0.514,-1.352 0,-1.868 -0.249,-0.249 -0.581,-0.386 -0.934,-0.386"
       style="fill:none;fill-opacity:1;fill-rule:nonzero;stroke:#000000;stroke-opacity:1"
       id="path118" /><path
       d="m 615.608,355.509 c -0.727,0 -1.32,0.593 -1.32,1.321 0,0.728 0.593,1.32 1.32,1.32 l 7.508,0 c 0.729,0 1.321,-0.592 1.321,-1.32 0,-0.728 -0.592,-1.321 -1.321,-1.321 l -7.508,0"
       style="fill:none;fill-opacity:1;fill-rule:nonzero;stroke:#000000;stroke-opacity:1"
       id="path120" /><path
       d="m 620.05,343.602 c -0.352,0 -0.685,0.137 -0.934,0.386 -0.25,0.249 -0.387,0.581 -0.387,0.934 0,0.353 0.137,0.684 0.387,0.934 l 5.31,5.309 c 0.249,0.25 0.58,0.386 0.933,0.386 0.353,0 0.684,-0.137 0.934,-0.386 0.513,-0.515 0.514,-1.353 0,-1.868 l -5.31,-5.309 c -0.248,-0.249 -0.581,-0.386 -0.933,-0.386"
       style="fill:none;fill-opacity:1;fill-rule:nonzero;stroke:#000000;stroke-opacity:1"
       id="path122" /><path
       d="m 631.61,338.323 c -0.728,0 -1.319,0.592 -1.319,1.32 l 0,7.507 c 0,0.728 0.591,1.32 1.319,1.32 0.729,0 1.322,-0.592 1.322,-1.32 l 0,-7.507 c 0,-0.728 -0.593,-1.32 -1.322,-1.32"
       style="fill:none;fill-opacity:1;fill-rule:nonzero;stroke:#000000;stroke-opacity:1"
       id="path124" /><path
       d="m 643.519,342.763 c -0.353,0 -0.685,0.138 -0.934,0.387 l -5.308,5.308 c -0.25,0.25 -0.387,0.582 -0.387,0.935 0,0.352 0.137,0.684 0.387,0.934 0.25,0.249 0.581,0.386 0.934,0.386 0.352,0 0.684,-0.137 0.934,-0.387 l 5.307,-5.309 c 0.25,-0.249 0.388,-0.581 0.388,-0.934 0,-0.352 -0.138,-0.684 -0.388,-0.934 -0.249,-0.249 -0.581,-0.386 -0.933,-0.386"
       style="fill:none;fill-opacity:1;fill-rule:nonzero;stroke:#000000;stroke-opacity:1"
       id="path126" /><path
       d="m 641.291,354.324 c -0.728,0 -1.321,0.592 -1.321,1.321 0,0.728 0.593,1.32 1.321,1.32 l 7.508,0 c 0.728,0 1.32,-0.592 1.32,-1.32 0,-0.729 -0.592,-1.321 -1.32,-1.321 l -7.508,0"
       style="fill:none;fill-opacity:1;fill-rule:nonzero;stroke:#000000;stroke-opacity:1"
       id="path128" /><path
       d="m 639.049,360.924 c -0.352,0 -0.685,0.137 -0.933,0.387 -0.25,0.249 -0.387,0.581 -0.387,0.933 0,0.353 0.137,0.684 0.387,0.934 l 5.307,5.308 c 0.25,0.249 0.582,0.387 0.934,0.387 0.353,0 0.684,-0.138 0.934,-0.387 0.514,-0.514 0.515,-1.353 0,-1.867 l -5.309,-5.308 c -0.25,-0.25 -0.581,-0.387 -0.933,-0.387"
       style="fill:none;fill-opacity:1;fill-rule:nonzero;stroke:#000000;stroke-opacity:1"
       id="path130" /><path
       d="m 324.39669,313.98255 c 0,-12.771 -10.354,-23.125 -23.125,-23.125 -12.772,0 -23.126,10.354 -23.126,23.125 10e-4,12.773 10.354,23.126 23.126,23.126 12.771,0 23.125,-10.353 23.125,-23.126"
       style="fill:none;fill-opacity:1;fill-rule:nonzero;stroke:#000000;stroke-opacity:1"
       id="path70-3" /><path
       d="m 301.27169,331.57055 c -9.698,0 -17.588,-7.89 -17.588,-17.588 0,-9.697 7.89,-17.587 17.588,-17.587 9.697,0 17.586,7.89 17.586,17.587 0,9.698 -7.889,17.588 -17.586,17.588 z m 0,-37.647 c -11.061,0 -20.06,8.998 -20.06,20.059 0,11.062 8.999,20.06 20.06,20.06 11.06,0 20.059,-8.998 20.059,-20.06 0,-11.061 -8.999,-20.059 -20.059,-20.059"
       style="fill:none;fill-opacity:1;fill-rule:nonzero;stroke:#000000;stroke-opacity:1"
       id="path72-6" /><path
       d="m 295.57469,305.63855 c -0.94,0.834 -1.41,2.162 -1.41,3.986 l 0,0.777 5.179,0 0,-0.547 c 0,-0.864 0.163,-1.458 0.49,-1.784 0.325,-0.327 0.757,-0.49 1.294,-0.49 0.557,0 0.983,0.183 1.281,0.547 0.297,0.364 0.446,0.806 0.446,1.324 0,0.652 -0.207,1.17 -0.62,1.554 -0.412,0.383 -0.93,0.714 -1.552,0.992 -0.624,0.278 -1.301,0.556 -2.029,0.834 -0.73,0.279 -1.406,0.643 -2.029,1.094 -0.623,0.451 -1.142,1.04 -1.554,1.77 -0.413,0.728 -0.618,1.678 -0.618,2.849 0,3.586 1.755,5.668 5.265,6.243 l 0,1.669 2.647,0 0,-1.669 c 1.918,-0.192 3.309,-0.772 4.173,-1.741 0.863,-0.969 1.294,-2.441 1.294,-4.416 l -5.006,0 0,0.431 c 0,0.576 -0.125,1.079 -0.374,1.511 -0.25,0.431 -0.633,0.647 -1.152,0.647 -0.575,0 -0.997,-0.187 -1.265,-0.561 -0.269,-0.374 -0.403,-0.782 -0.403,-1.223 0,-0.671 0.216,-1.199 0.647,-1.582 0.432,-0.384 0.973,-0.715 1.626,-0.993 0.652,-0.279 1.353,-0.547 2.1,-0.806 0.748,-0.258 1.449,-0.619 2.102,-1.079 0.651,-0.46 1.194,-1.064 1.625,-1.812 0.431,-0.748 0.648,-1.746 0.648,-2.993 0,-1.957 -0.51,-3.405 -1.526,-4.345 -1.017,-0.94 -2.513,-1.515 -4.489,-1.726 l 0,-2.59 -2.647,0 0,2.59 c -1.822,0.191 -3.203,0.705 -4.143,1.539"
       style="fill:none;fill-opacity:1;fill-rule:nonzero;stroke:#000000;stroke-opacity:1"
       id="path74-7" /><path
       d="m 530.32889,296.18594 c 0,-12.771 -10.354,-23.125 -23.125,-23.125 -12.772,0 -23.126,10.354 -23.126,23.125 10e-4,12.773 10.354,23.126 23.126,23.126 12.771,0 23.125,-10.353 23.125,-23.126"
       style="fill:none;fill-opacity:1;fill-rule:nonzero;stroke:#000000;stroke-opacity:1"
       id="path70-5" /><path
       d="m 507.20389,313.77394 c -9.698,0 -17.588,-7.89 -17.588,-17.588 0,-9.697 7.89,-17.587 17.588,-17.587 9.697,0 17.586,7.89 17.586,17.587 0,9.698 -7.889,17.588 -17.586,17.588 z m 0,-37.647 c -11.061,0 -20.06,8.998 -20.06,20.059 0,11.062 8.999,20.06 20.06,20.06 11.06,0 20.059,-8.998 20.059,-20.06 0,-11.061 -8.999,-20.059 -20.059,-20.059"
       style="fill:none;fill-opacity:1;fill-rule:nonzero;stroke:#000000;stroke-opacity:1"
       id="path72-3" /><path
       d="m 501.50689,287.84194 c -0.94,0.834 -1.41,2.162 -1.41,3.986 l 0,0.777 5.179,0 0,-0.547 c 0,-0.864 0.163,-1.458 0.49,-1.784 0.325,-0.327 0.757,-0.49 1.294,-0.49 0.557,0 0.983,0.183 1.281,0.547 0.297,0.364 0.446,0.806 0.446,1.324 0,0.652 -0.207,1.17 -0.62,1.554 -0.412,0.383 -0.93,0.714 -1.552,0.992 -0.624,0.278 -1.301,0.556 -2.029,0.834 -0.73,0.279 -1.406,0.643 -2.029,1.094 -0.623,0.451 -1.142,1.04 -1.554,1.77 -0.413,0.728 -0.618,1.678 -0.618,2.849 0,3.586 1.755,5.668 5.265,6.243 l 0,1.669 2.647,0 0,-1.669 c 1.918,-0.192 3.309,-0.772 4.173,-1.741 0.863,-0.969 1.294,-2.441 1.294,-4.416 l -5.006,0 0,0.431 c 0,0.576 -0.125,1.079 -0.374,1.511 -0.25,0.431 -0.633,0.647 -1.152,0.647 -0.575,0 -0.997,-0.187 -1.265,-0.561 -0.269,-0.374 -0.403,-0.782 -0.403,-1.223 0,-0.671 0.216,-1.199 0.647,-1.582 0.432,-0.384 0.973,-0.715 1.626,-0.993 0.652,-0.279 1.353,-0.547 2.1,-0.806 0.748,-0.258 1.449,-0.619 2.102,-1.079 0.651,-0.46 1.194,-1.064 1.625,-1.812 0.431,-0.748 0.648,-1.746 0.648,-2.993 0,-1.957 -0.51,-3.405 -1.526,-4.345 -1.017,-0.94 -2.513,-1.515 -4.489,-1.726 l 0,-2.59 -2.647,0 0,2.59 c -1.822,0.191 -3.203,0.705 -4.143,1.539"
       style="fill:none;fill-opacity:1;fill-rule:nonzero;stroke:#000000;stroke-opacity:1"
       id="path74-5" /><path
       d="m 411.86391,332.02283 c -0.756,0 -1.372,0.615 -1.372,1.372 l 0,19.651 c 0,0.757 0.616,1.372 1.372,1.372 0.757,0 1.373,-0.615 1.373,-1.372 l 0,-19.651 c 0,-0.757 -0.616,-1.372 -1.373,-1.372"
       style="fill:#000000;fill-opacity:1;fill-rule:nonzero;stroke:#000000;stroke-opacity:1"
       id="path98-6" /><path
       d="m 402.03891,341.84883 c -0.756,0 -1.372,0.615 -1.372,1.371 0,0.757 0.616,1.373 1.372,1.373 l 19.651,0 c 0.757,0 1.372,-0.616 1.372,-1.373 0,-0.756 -0.615,-1.371 -1.372,-1.371 l -19.651,0"
       style="fill:#000000;fill-opacity:1;fill-rule:nonzero;stroke:#000000;stroke-opacity:1"
       id="path100-2" /><path
       d="m 260.45199,404.15761 c -0.709,0 -1.4,-0.073 -2.079,-0.181 0.107,0.87 0.17,1.755 0.17,2.654 0,11.816 -9.578,21.394 -21.394,21.394 -11.274,0 -20.505,-8.724 -21.327,-19.788 -1.177,0.288 -2.4,0.458 -3.666,0.458 -8.501,0 -15.394,-6.892 -15.394,-15.394 0,-8.502 6.893,-15.39301 15.394,-15.39301 l 48.296,0 c 7.249,0 13.125,5.87611 13.125,13.12501 0,7.249 -5.876,13.125 -13.125,13.125"
       style="fill:#afc0d7;fill-opacity:1;fill-rule:nonzero;stroke:none;stroke-opacity:1"
       id="path22-9" /><path
       d="m 488.70305,444.32906 c -0.408,0 -0.806,-0.041 -1.196,-0.103 0.061,0.501 0.097,1.01 0.097,1.527 0,6.801 -5.512,12.313 -12.312,12.313 -6.489,0 -11.802,-5.021 -12.275,-11.388 -0.677,0.165 -1.381,0.263 -2.11,0.263 -4.894,0 -8.859,-3.966 -8.859,-8.86 0,-4.892 3.965,-8.859 8.859,-8.859 l 27.796,0 c 4.172,0 7.554,3.382 7.554,7.554 0,4.172 -3.382,7.553 -7.554,7.553"
       style="fill:#afc0d7;fill-opacity:1;fill-rule:nonzero;stroke:none;stroke-opacity:1"
       id="path24-1" /><path
       d="m 711.86391,142.61606 c -0.756,0 -1.372,0.615 -1.372,1.372 l 0,19.651 c 0,0.757 0.616,1.372 1.372,1.372 0.757,0 1.373,-0.615 1.373,-1.372 l 0,-19.651 c 0,-0.757 -0.616,-1.372 -1.373,-1.372"
       style="fill:#000000;fill-opacity:1;fill-rule:nonzero;stroke:#000000;stroke-width:1;stroke-opacity:1"
       id="path98-6-2" /><path
       d="m 702.03891,152.44206 c -0.756,0 -1.372,0.615 -1.372,1.371 0,0.757 0.616,1.373 1.372,1.373 l 19.651,0 c 0.757,0 1.372,-0.616 1.372,-1.373 0,-0.756 -0.615,-1.371 -1.372,-1.371 l -19.651,0"
       style="fill:#000000;fill-opacity:1;fill-rule:nonzero;stroke:#000000;stroke-width:1;stroke-opacity:1"
       id="path100-2-7" /></g></svg>