<?xml version="1.0" encoding="UTF-8" standalone="no"?>
<svg
   xmlns:dc="http://purl.org/dc/elements/1.1/"
   xmlns:cc="http://creativecommons.org/ns#"
   xmlns:rdf="http://www.w3.org/1999/02/22-rdf-syntax-ns#"
   xmlns:svg="http://www.w3.org/2000/svg"
   xmlns="http://www.w3.org/2000/svg"
   width="69.822594mm"
   height="33.962902mm"
   viewBox="0 0 247.40289 120.34099"
   id="svg6508"
   version="1.1">
  <metadata
     id="metadata11">
    <rdf:RDF>
      <cc:Work
         rdf:about="">
        <dc:format>image/svg+xml</dc:format>
        <dc:type
           rdf:resource="http://purl.org/dc/dcmitype/StillImage" />
        <dc:title></dc:title>
      </cc:Work>
    </rdf:RDF>
  </metadata>
  <defs
     id="defs6510" />
  <g
     id="layer1"
     transform="matrix(0.64855496,0,0,0.64855496,364.59328,91.066229)">
    <path
       id="path6135"
       style="fill:#f0f0ef;fill-opacity:1;fill-rule:nonzero;stroke:none"
       d="m -416.67839,29.702205 c 14.685,9.75125 32.3025,15.43625 51.25,15.43625 17.4825,0 33.83375,-4.84 47.79375,-13.24625 10.5725,8.29 23.88375,13.24625 38.36125,13.24625 10.6525,0 20.6775,-2.68125 29.445,-7.3975 7.04625,4.67 15.49375,7.3975 24.58,7.3975 24.60625,0 44.55375,-19.9475 44.55375,-44.55375028 0,-23.88124972 -18.79125,-43.37124972 -42.3925,-44.49874972 -9.8725,-20.655 -30.7975,-34.99875 -55.12,-35.40875 -12.94875,-35.636255 -47.11125,-61.091255 -87.22125,-61.091255 -39.16375,0 -72.6575,24.2675 -86.27,58.585005 -2.14,-0.2175 -4.31,-0.32875 -6.50625,-0.32875 -29.29625,0 -53.95349,19.8 -61.36024,46.74375 -0.75725,-0.0425 -1.519,-0.0688 -2.28663,-0.0688 -22.26362,0 -40.311,18.0475 -40.311,40.3099997 0,22.2637503 18.04738,40.3112503 40.311,40.3112503 10.75738,0 20.52313,-4.2225 27.75188,-11.09125 10.21874,6.99375 22.57749,11.09125 35.89499,11.09125 15.87375,0 30.37875,-5.825 41.52625,-15.43625" />
    <path
       id="path6137"
       style="fill:#f8f8f8;fill-opacity:1;fill-rule:nonzero;stroke:none"
       d="m -410.79214,-59.411545 c -7.985,-9.95125 -22.34125,-14.2525 -34.48375,-10.3325 -12.1425,3.92125 -21.27125,15.80625 -21.92875,28.54875 5.93,-8.81 14.82375,-14.04875 24.81125,-17.6575 9.98875,-3.61 21.41,-3.5425 31.60125,-0.55875" />
    <path
       id="path6139"
       style="fill:#f8f8f8;fill-opacity:1;fill-rule:nonzero;stroke:none"
       d="m -327.54839,-132.3403 c -11.5675,-5.18125 -24.385,-8.07375 -37.88,-8.07375 -39.16375,0 -72.6575,24.2675 -86.27,58.585005 -2.14,-0.2175 -4.31,-0.32875 -6.50625,-0.32875 -29.29625,0 -53.95349,19.8 -61.36024,46.74375 -0.75725,-0.0425 -1.519,-0.0688 -2.28663,-0.0688 -15.18787,0 -28.40812,8.40375 -35.28125,20.81 3.31213,-3.3375 7.16663,-6.08375 11.50788,-7.92375 10.208,-4.3275 23.11325,-2.85875 30.93112,5.0025 2.812,-15.92375 11.79663,-29.40875 24.95162,-38.81125 13.155,-9.40375 30.05,-13.41125 46.02625,-10.9175 7.8725,-27.2525 29.5025,-50.532505 55.7475,-61.297505 19.00875,-7.79875 40.5725,-8.9475 60.42,-3.72" />
    <path
       id="path6141"
       style="fill:#f8f8f8;fill-opacity:1;fill-rule:nonzero;stroke:none"
       d="m -185.57839,-19.697795 c -7.0725,-13.8025 -21.1275,-23.43375 -37.50875,-24.21625 -9.8225,-20.55 -30.5875,-34.8475 -54.75125,-35.39625 -15.895,4.135 -30.63625,12.7875 -41.6125,25.02125 12.10125,-9.29 27.83625,-11.9475 42.89375,-9.4925 15.0575,2.45375 28.95375,11.355 37.47875,24.0075 12.89,-2.14 26.9875,1.6 38.405,7.95625 5.665,3.15375 10.775,7.28375 15.095,12.12" />
  </g>
</svg>
