<?xml version="1.0" encoding="utf-8"?>
<svg  xmlns="http://www.w3.org/2000/svg" xmlns:xlink="http://www.w3.org/1999/xlink">
	<simbol id="bman01" viewBox="0 0 728 644">
		<path class="" d="M204 85c-90,-9 -122,1 -152,40 -30,40 -25,102 -6,124 -25,21 -60,106 -30,168 29,61 118,81 175,86 14,52 56,107 123,115 67,7 99,-11 149,-60 82,6 149,-4 174,-35 25,-30 34,-87 15,-134 39,-22 64,-32 60,-105 -5,-72 -41,-108 -84,-125 -4,-52 -20,-72 -58,-95 -38,-22 -107,-13 -133,7 -20,-35 -58,-63 -115,-68 -56,-6 -106,36 -118,82z"/>
		<path class="" d="M129 483c-2,-2 -2,-4 -2,-6l0 -8c-8,4 -12,9 -12,13 0,1 0,1 0,1l14 0z"/>
		<path class="" d="M260 475c-12,4 -30,7 -50,7 -3,0 -6,0 -9,0 -32,-1 -59,-6 -72,-15 5,7 19,12 37,16l89 0c23,-5 39,-13 39,-22 0,-3 -2,-6 -6,-9l0 4c0,8 -11,15 -28,19z"/>
		<path class="" d="M204 466c36,0 66,-7 78,-17 -15,7 -40,12 -69,12l0 0c-3,0 -6,0 -9,0 -26,0 -50,-5 -61,-12 -8,-4 -13,-9 -13,-14l0 -4c-1,-1 -2,-1 -3,-1 -4,3 -6,6 -6,10 0,14 37,26 83,26z"/>
		<path class="" d="M297 435l0 -16c0,14 -38,25 -84,25 -24,0 -45,-3 -60,-8 11,2 25,3 39,3 3,0 6,0 9,0 4,0 8,1 12,1 38,0 68,-10 68,-21 0,-3 -2,-6 -5,-9l0 -9 0 -4c0,15 -38,26 -84,26 -38,0 -70,-8 -80,-19 13,8 40,14 71,14 3,0 6,0 9,0 21,0 41,-3 53,-8 15,-4 24,-11 24,-18l0 -5 0 -11c0,14 -37,26 -83,26 -47,0 -84,-12 -84,-26l0 16c0,4 2,7 6,10l0 12c0,6 8,11 19,16 1,0 2,0 3,1l0 4c0,5 5,10 13,14 11,7 35,12 61,12 3,0 6,0 9,0l0 0c29,0 54,-5 69,-12 -12,10 -42,17 -78,17 -46,0 -83,-12 -83,-26l0 16c0,3 2,7 6,10l0 3 0 8c0,2 0,4 2,6l37 0c-18,-4 -32,-9 -37,-16 13,9 40,14 72,15 3,0 6,0 9,0 20,0 38,-3 50,-7 17,-4 28,-11 28,-19l0 -4 0 -6c6,-3 9,-7 9,-11zm-182 48c0,0 0,0 0,-1l0 1 0 0zm177 0c1,-2 2,-4 2,-6l0 -16c0,9 -16,17 -39,22l37 0z"/>
		<path class="" d="M281 419c0,11 -30,21 -68,21 -4,0 -8,-1 -12,-1 -3,0 -6,0 -9,0 -14,0 -28,-1 -39,-3 15,5 36,8 60,8 46,0 84,-11 84,-25 0,-7 -8,-13 -21,-18l0 9c3,3 5,6 5,9z"/>
		<path class="" d="M245 410c-12,5 -32,8 -53,8 -3,0 -6,0 -9,0 -31,0 -58,-6 -71,-14 10,11 42,19 80,19 46,0 84,-11 84,-26 0,-3 -3,-7 -7,-10l0 5c0,7 -9,14 -24,18z"/>
		<polygon class="" points="102,376 102,376 "/>
		<polygon class="" points="269,376 269,376 "/>
		<path class="" d="M186 355c37,0 68,9 68,21 0,12 -31,21 -68,21 -38,0 -68,-9 -68,-21 0,-12 30,-21 68,-21zm0 47c46,0 83,-12 83,-26l0 0c0,-14 -37,-26 -83,-26 -47,0 -84,12 -84,26l0 0c0,14 37,26 84,26z"/>
		<path class="" d="M186 397c37,0 68,-9 68,-21 0,-12 -31,-21 -68,-21 -38,0 -68,9 -68,21 0,12 30,21 68,21z"/>
		<path class="" d="M437 476l0 -16c0,10 18,19 44,23l-41 0c-2,-2 -3,-4 -3,-7zm124 7c14,-2 25,-6 33,-10 -15,5 -37,8 -62,8 0,0 -1,0 -2,0 -3,0 -6,0 -9,0 -33,0 -61,-7 -67,-17 -3,-3 -5,-6 -5,-9l0 -8 0 -8c0,14 37,26 83,26 47,0 84,-12 84,-26l0 0 0 16c0,5 -4,9 -11,13l0 2 0 6c0,3 -1,5 -3,7l-41 0zm52 0c0,-1 0,-1 0,-2l0 2 0 0z"/>
		<path class="" d="M454 464c6,10 34,17 67,17 3,0 6,0 9,0 1,0 2,0 2,0 25,0 47,-3 62,-8 -8,4 -19,8 -33,10l-80 0c-26,-4 -44,-13 -44,-23 0,-5 5,-9 12,-13l0 8c0,3 2,6 5,9z"/>
		<path class="" d="M532 465c-46,0 -83,-12 -83,-26 0,-1 0,-2 1,-3 2,11 28,20 61,23 7,1 14,1 21,1 7,0 13,0 18,-1 35,-2 62,-11 66,-22 0,1 0,1 0,2 0,14 -37,26 -84,26z"/>
		<path class="" d="M550 459c-5,1 -11,1 -18,1 -7,0 -14,0 -21,-1 -33,-3 -59,-12 -61,-23 -1,-1 -1,-1 -1,-2l0 -16c0,14 38,26 84,26 46,0 83,-12 83,-26l0 16c0,1 0,2 0,3 -4,11 -31,20 -66,22z"/>
		<path class="" d="M601 418c0,11 -31,21 -68,21 -38,0 -68,-10 -68,-21 0,-12 30,-21 68,-21 37,0 68,9 68,21zm15 0c0,-15 -37,-26 -83,-26 -46,0 -84,11 -84,26 0,14 38,26 84,26 46,0 83,-12 83,-26z"/>
		<path class="" d="M533 439c-38,0 -68,-10 -68,-21 0,-12 30,-21 68,-21 37,0 68,9 68,21 0,11 -31,21 -68,21z"/>
		<path class="" d="M269 376c0,0 0,0 0,0 0,0 0,0 0,0z"/>
		<path class="" d="M253 374c0,0 -1,-1 -1,-2 1,1 1,1 1,2z"/>
		<path class="" d="M294 474c-1,0 -2,0 -3,-1 1,0 2,1 3,1l0 0zm3 -39c-4,-1 -8,-2 -11,-4 1,0 1,0 2,-1 2,1 5,2 9,3l0 2c0,0 0,0 0,0z"/>
		<path class="" d="M286 431c-2,-1 -3,-2 -5,-3 2,1 4,1 7,2 -1,1 -1,1 -2,1z"/>
		<path class="" d="M475 483l-18 0 0 -1c0,0 0,1 0,1l-11 0c1,-2 2,-4 2,-6l0 -4c7,3 16,7 27,9l0 1z"/>
		<path class="" d="M437 460c0,-5 5,-9 12,-13 -7,4 -12,8 -12,13z"/>
		<path class="" d="M449 418c0,0 0,0 0,0 0,0 0,0 0,0zm0 0c0,0 0,0 0,0 0,0 0,0 0,0zm0 0c0,0 0,0 0,0 0,0 0,0 0,0zm0 0c0,0 0,0 0,0 0,0 0,0 0,0zm0 0c0,0 0,0 0,0 0,0 0,0 0,0zm0 0c0,0 0,0 0,0 0,0 0,0 0,0zm0 0c0,0 0,0 0,0 0,0 0,0 0,0zm0 0c0,0 0,0 0,0 0,0 0,0 0,0zm0 0c0,0 0,0 0,-1 0,1 0,1 0,1zm0 -1c0,0 0,0 0,0 0,0 0,0 0,0zm0 0c0,0 0,0 0,0 0,0 0,0 0,0zm0 0c0,0 0,0 0,0 0,0 0,0 0,0zm0 0c0,0 0,0 0,0 0,0 0,0 0,0zm0 0c0,0 0,0 0,0 0,0 0,0 0,0zm0 0c0,0 0,0 0,0 0,0 0,0 0,0zm0 0c0,0 0,0 0,0 0,0 0,0 0,0zm0 0c0,0 0,0 0,0 0,0 0,0 0,0zm0 0c0,0 0,0 0,0 0,0 0,0 0,0zm0 0c0,0 0,0 0,0 0,0 0,0 0,0zm0 0c0,0 0,0 0,0 0,0 0,0 0,0zm0 0c0,0 0,0 0,0 0,0 0,0 0,0zm0 0c0,0 0,0 0,0 0,0 0,0 0,0z"/>
		<path class="" d="M465 415c1,-2 3,-4 6,-6 -1,2 -3,4 -6,6z"/>
		<polygon class="" points="457,482 457,482 "/>
		<path class="" d="M446 483c1,-2 2,-4 2,-6l0 -7c6,4 9,8 9,12l0 0c0,0 0,1 0,1l-11 0z"/>
		<path class="" d="M322 483c-13,-2 -23,-6 -31,-10 16,5 38,8 62,8 1,0 2,0 3,0 3,1 5,1 9,1 33,0 60,-8 66,-17 4,-3 6,-6 6,-9l0 -8c7,3 11,8 11,13 0,9 -17,17 -41,22l-85 0z"/>
		<path class="" d="M303 454c13,4 30,6 50,6 3,0 6,0 9,0 32,0 59,-6 72,-14 -9,11 -42,19 -81,19 -46,0 -84,-11 -84,-26l0 0c0,-3 2,-6 6,-9l0 4c0,8 11,15 28,20z"/>
		<path class="" d="M359 444c-35,0 -65,-7 -78,-16 15,7 41,11 69,11l0 0c3,0 6,0 9,0 27,0 50,-5 61,-12 9,-4 14,-9 14,-14l0 -6c5,3 8,7 8,11 0,14 -37,26 -83,26z"/>
		<path class="" d="M267 413l0 -16c0,14 37,26 83,26 32,0 59,-6 73,-14 -15,5 -37,9 -61,9 -1,0 -2,0 -3,0 -3,0 -6,0 -9,0 -33,0 -60,-7 -67,-17 -3,-3 -5,-6 -5,-9l0 -8 0 -8c0,14 37,25 84,25 35,0 65,-6 77,-16 -15,7 -40,11 -69,11l0 0c-3,1 -5,1 -8,1 -27,0 -50,-5 -61,-12 -9,-4 -14,-9 -14,-14l0 -7 0 -2c-8,-3 -12,-8 -12,-13l0 -16c0,14 38,26 84,26 39,0 72,-8 81,-20 -13,9 -40,15 -72,15 -3,0 -6,0 -9,0 -20,0 -38,-2 -50,-7 -17,-4 -28,-11 -28,-19l0 -4 0 -12c0,14 37,26 84,26 46,0 83,-12 83,-26l0 16c0,3 -2,7 -6,10l0 3 0 8c0,4 -2,7 -5,9 -6,10 -34,17 -67,17 -3,0 -6,0 -9,0 -1,0 -1,0 -2,0 -25,0 -47,-3 -62,-8 14,8 42,13 73,13 46,0 84,-11 84,-26l0 17c0,4 -3,8 -9,11l0 10c0,5 -4,9 -11,13l0 2 0 6c0,5 -5,10 -14,14 -11,7 -34,12 -61,12 -3,0 -6,0 -9,0l0 0c-28,0 -54,-4 -69,-11 13,9 43,16 78,16 46,0 83,-12 83,-26l0 16c0,4 -2,7 -5,10l0 4 0 8c0,3 -2,6 -6,9 -6,9 -33,17 -66,17 -4,0 -6,0 -9,-1 -1,0 -2,0 -3,0 -24,0 -46,-3 -62,-8 8,4 18,8 31,10l-39 0c-1,-2 -2,-4 -2,-6l0 -8c-7,-4 -12,-9 -12,-13l0 -17c0,15 38,26 84,26 39,0 72,-8 81,-19 -13,8 -40,14 -72,14 -3,0 -6,0 -9,0 -20,0 -37,-2 -50,-6 -17,-5 -28,-12 -28,-20l0 -4 0 -5c-5,-4 -8,-8 -8,-12zm140 70c24,-5 41,-13 41,-22l0 9 0 7c0,2 -1,4 -2,6l-39 0zm50 0c0,0 0,-1 0,-1l0 1 0 0z"/>
		<path class="" d="M283 401c7,10 34,17 67,17 3,0 6,0 9,0 1,0 2,0 3,0 24,0 46,-4 61,-9 -14,8 -41,14 -73,14 -46,0 -83,-12 -83,-26 0,-5 4,-9 11,-13l0 8c0,3 2,6 5,9z"/>
		<path class="" d="M301 385c11,7 34,12 61,12 3,0 5,0 8,-1l0 0c29,0 54,-4 69,-11 -12,10 -42,16 -77,16 -47,0 -84,-11 -84,-25 0,-5 3,-8 9,-12l0 7c0,5 5,10 14,14z"/>
		<path class="" d="M370 380c-31,0 -59,-5 -73,-13 15,5 37,8 62,8 1,0 1,0 2,0 3,0 6,0 9,0 33,0 61,-7 67,-17 3,-2 5,-5 5,-9l0 -8c8,4 12,9 12,13 0,15 -38,26 -84,26z"/>
		<polygon class="" points="275,333 275,333 275,333 "/>
		<path class="" d="M309 347c12,5 30,7 50,7 3,0 6,0 9,0 32,0 59,-6 72,-15 -9,12 -42,20 -81,20 -46,0 -84,-12 -84,-26l0 0c0,-3 2,-6 6,-9l0 4c0,8 11,15 28,19z"/>
		<path class="" d="M433 312c0,11 -31,21 -68,21 -38,0 -68,-10 -68,-21 0,-12 30,-21 68,-21 37,0 68,9 68,21zm15 0c0,-14 -37,-26 -83,-26 -47,0 -84,12 -84,26 0,14 37,26 84,26 46,0 83,-12 83,-26z"/>
		<path class="" d="M365 333c-38,0 -68,-10 -68,-21 0,-12 30,-21 68,-21 37,0 68,9 68,21 0,11 -31,21 -68,21z"/>
		<path class="" d="M398 199l-10 -2c0,0 1,-5 3,-12l10 2c-1,4 -2,8 -3,12z"/>
		<path class="" d="M391 185c4,-14 10,-51 14,-84l12 4c-1,4 -5,38 -16,82l-10 -2z"/>
		<path class="" d="M434 69c7,7 14,12 20,18 -16,6 -29,16 -37,29l-6 -5c-2,-2 -4,-5 -6,-8 6,-14 16,-26 29,-34z"/>
		<path class="" d="M413 110c-1,-1 -2,-3 -3,-5 1,-1 0,-4 -1,-6 2,-3 4,-7 7,-10 -1,3 0,6 2,9 2,2 5,3 8,2 -3,3 -6,7 -8,10l0 0c-2,-2 -4,-2 -5,0zm15 -23c-2,-2 -6,-3 -8,-2 3,-3 6,-6 10,-9 2,2 5,2 7,1 2,2 4,3 6,5 -2,1 -2,4 0,6l0 0c-5,2 -9,5 -13,8 2,-3 1,-6 -2,-9zm-15 25c0,1 1,1 1,2l2 2c1,-2 2,-3 2,-4 7,-10 16,-18 27,-23 2,-1 4,-2 6,-3 -2,-1 -4,-3 -6,-5 -2,-2 -4,-4 -6,-6 -2,-1 -4,-2 -5,-4 -2,1 -4,2 -5,3 -9,7 -16,15 -21,24 -1,2 -2,3 -2,5 1,1 2,2 3,4 1,1 2,3 4,5z"/>
		<path class="" d="M430 67c7,5 15,10 22,15 -16,7 -28,19 -35,34l-6 -4c-2,-3 -4,-5 -7,-8 5,-15 14,-28 26,-37z"/>
		<path class="" d="M441 78c-3,2 -2,4 0,6l0 0c-4,3 -8,6 -11,9 0,-2 -1,-5 -4,-8 -2,-2 -6,-2 -8,-1 2,-4 5,-7 9,-10 2,1 5,1 7,0 2,1 4,3 7,4zm-28 32c-1,-1 -2,-3 -4,-4 1,-2 1,-5 -1,-6 2,-4 4,-8 6,-11 0,3 1,6 3,8 3,2 6,2 8,1 -3,3 -5,7 -7,11l0 0c-2,-2 -4,-1 -5,1zm12 -38c-7,8 -13,17 -18,27 0,2 -1,3 -2,5 1,1 2,2 3,3 2,2 3,3 5,5 1,1 2,2 3,3 1,-1 2,-3 3,-5 6,-10 14,-18 24,-25 2,-1 4,-2 6,-3 -2,-2 -4,-3 -6,-5 -3,-1 -5,-3 -8,-5 -2,-1 -3,-2 -5,-4 -2,2 -3,3 -5,4z"/>
		<path class="" d="M416 116c-4,-4 -8,-7 -13,-11 5,-15 12,-29 23,-41 8,5 16,10 23,14 -15,9 -26,22 -33,38z"/>
		<path class="" d="M438 75c-2,2 -2,4 1,6l0 0c-4,3 -8,6 -11,10 1,-3 -1,-6 -4,-8 -3,-1 -6,-1 -9,0 3,-4 5,-8 8,-11 2,1 6,1 8,-1 2,1 4,3 7,4zm-26 34c-1,-1 -2,-2 -4,-3 1,-2 1,-5 -1,-6 2,-4 3,-8 5,-12 0,3 1,6 4,8 2,2 5,1 8,0 -3,4 -5,7 -7,12l0 0c-2,-2 -4,-1 -5,1zm10 -38c-7,8 -12,18 -16,29 -1,1 -1,3 -2,5 2,1 3,1 4,2 1,2 3,3 4,4 1,1 2,2 3,3 1,-2 2,-4 3,-5 5,-11 13,-20 23,-27 2,-1 4,-3 6,-4 -3,-1 -5,-3 -7,-4 -3,-1 -6,-3 -8,-5 -2,-1 -4,-2 -6,-3 -1,2 -3,3 -4,5z"/>
		<path class="" d="M404 103c0,0 -3,-7 0,-8 2,-1 7,-3 8,0 0,2 -7,4 -7,4l-1 4z"/>
		<path class="" d="M391 185c2,-5 3,-12 5,-21 0,0 0,0 0,0 -2,9 -3,16 -5,21z"/>
		<path class="" d="M398 199l-10 -2c0,0 1,-5 3,-12l0 0 10 2c0,0 0,1 0,1 -1,3 -2,7 -3,11z"/>
		<path class="" d="M401 187l0 0 -10 -2c2,-5 3,-12 5,-21 1,4 4,12 6,20 0,1 0,2 -1,3l0 0z"/>
		<path class="" d="M365 318c-33,0 -61,-4 -61,-8 0,-5 28,-9 61,-9 34,0 61,4 61,9 0,4 -27,8 -61,8z"/>
		<path class="" d="M398 188c0,0 -6,-110 -87,-68 0,0 -13,28 -8,80 65,7 95,-12 95,-12z"/>
		<path class="" d="M376 74c0,0 46,61 -55,67l1 20c0,0 -10,-8 -11,2 -2,9 10,5 10,5 0,0 -8,25 -18,32 0,0 -40,-81 -2,-84 0,0 -1,-15 19,-24 29,-14 48,18 56,-18z"/>
		<path class="" d="M316 257l4 23 -3 32c0,0 34,9 25,-4 -8,-12 -20,-2 -20,-2l6 -28 1 -15c0,0 34,2 63,-7l2 18 -5 34c0,0 31,11 22,-4 -4,-8 -16,-3 -16,-3l7 -27 1 -28 -87 11z"/>
		<path class="" d="M398 188l5 58c0,0 -36,11 -87,11l-13 -57c0,0 59,4 95,-12z"/>
		<polygon class="" points="377,199 379,203 377,207 383,241 374,250 365,242 373,208 369,204 371,201 "/>
		<polygon class="" points="377,199 379,203 377,207 385,240 376,249 367,241 373,208 369,204 371,201 "/>
		<path class="" d="M377 170c0,0 -17,2 -28,7 0,0 1,14 18,11 16,-4 10,-18 10,-18z"/>
		<path class="" d="M306 213l8 -6c0,0 -3,-4 -9,-10l-7 7c2,3 5,6 8,9z"/>
		<path class="" d="M305 197c-8,-10 -30,-39 -48,-66l-9 8c3,4 20,31 50,65l7 -7z"/>
		<path class="" d="M344 160c0,4 0,7 -2,7 -2,1 -4,-2 -5,-5 -1,-4 0,-7 2,-7 2,-1 4,2 5,5z"/>
		<path class="" d="M384 152c1,3 0,6 -2,7 -2,0 -4,-3 -5,-6 0,-3 1,-7 2,-7 2,0 4,2 5,6z"/>
		<path class="" d="M223 102c-5,8 -11,15 -16,21 17,3 31,11 41,23l5 -6c2,-3 3,-7 5,-10 -9,-12 -20,-22 -35,-28z"/>
		<path class="" d="M247 140l0 0c-3,-3 -7,-6 -10,-9 2,1 5,-1 7,-3 1,-3 2,-7 0,-9 3,2 6,5 9,8 -1,2 -1,5 1,7 -1,2 -2,3 -3,5 -1,-2 -3,-1 -4,1zm-16 -12c-4,-2 -8,-4 -13,-6l0 0c2,-2 1,-5 -2,-5 2,-2 4,-5 5,-7 3,1 6,0 7,-2 4,2 8,4 12,7 -3,0 -6,1 -8,4 -2,3 -2,7 -1,9zm24 7c0,-2 1,-3 2,-5 -1,-1 -2,-3 -3,-4 -7,-8 -15,-15 -25,-20 -2,0 -3,-1 -5,-2 -2,2 -3,4 -4,5 -2,3 -4,5 -6,7 -2,2 -3,4 -5,6 3,1 5,1 7,2 12,3 22,9 30,18 1,1 2,2 3,3l2 -2c0,-1 0,-2 1,-2 1,-2 2,-4 3,-6z"/>
		<path class="" d="M227 99c-7,7 -13,13 -19,19 16,5 31,14 41,28l4 -6c2,-2 4,-5 6,-8 -8,-14 -19,-25 -32,-33z"/>
		<path class="" d="M224 107c2,1 5,0 7,-2 4,3 8,6 11,9 -3,-1 -6,0 -9,3 -2,3 -2,6 -1,8 -4,-2 -8,-5 -13,-7l0 0c2,-2 2,-5 -1,-6 2,-2 4,-3 6,-5zm22 31l0 1c-3,-4 -6,-7 -9,-10 3,1 6,0 8,-2 1,-3 2,-6 1,-9 3,3 5,6 8,10 -1,2 -1,4 0,6 -1,2 -2,3 -3,5 -1,-2 -3,-2 -5,-1zm-19 -37c-1,1 -3,3 -5,4 -2,3 -4,5 -6,7 -2,2 -4,4 -6,5 3,1 5,2 7,3 11,4 21,11 29,20 1,2 2,3 3,4 1,-1 2,-2 3,-4 1,-1 2,-3 3,-5 1,-1 2,-2 3,-4 -1,-1 -2,-2 -3,-4 -6,-9 -14,-17 -23,-23 -2,-1 -3,-2 -5,-3z"/>
		<path class="" d="M249 145c3,-4 7,-8 11,-13 -7,-14 -17,-27 -29,-36 -7,6 -14,12 -21,18 16,6 30,16 39,31z"/>
		<path class="" d="M227 103c2,2 5,2 7,0 4,3 7,6 10,10 -3,-1 -6,-1 -9,2 -2,2 -3,5 -2,8 -4,-3 -8,-6 -12,-8l0 0c2,-2 2,-5 0,-6 2,-2 4,-4 6,-6zm20 34l0 0c-3,-4 -6,-7 -9,-10 3,1 6,0 8,-2 2,-2 3,-5 2,-8 2,4 5,7 7,11 -1,1 -1,4 0,6 -1,1 -2,3 -3,4 -2,-2 -4,-2 -5,-1zm-16 -39c-2,1 -4,3 -5,4 -3,2 -5,4 -7,6 -2,2 -5,4 -7,5 3,1 5,2 7,3 10,5 20,13 27,22 1,2 2,3 3,5 1,-1 2,-2 3,-4 1,-1 3,-2 4,-4 1,-1 2,-2 3,-3 -1,-2 -2,-3 -3,-5 -5,-10 -12,-18 -21,-25 -1,-2 -3,-3 -4,-4z"/>
		<path class="" d="M259 130c0,0 1,-7 -1,-7 -3,-1 -8,-2 -8,1 0,2 6,2 6,2l3 4z"/>
		<path class="" d="M434 231c-1,0 -1,-1 -1,-2 0,-1 0,-1 1,-1 1,0 2,0 2,1 0,1 -1,2 -2,2zm6 2c0,0 -1,0 -1,0 -1,-1 -1,-2 0,-2 0,-1 1,-1 1,-1 0,0 1,0 1,1 1,0 1,1 0,2 0,0 -1,0 -1,0zm-12 0c0,0 -1,0 -1,0 -1,-1 -1,-2 0,-2 0,-1 1,-1 1,-1 0,0 1,0 1,1 0,0 1,0 1,1 0,0 -1,1 -1,1 0,0 -1,0 -1,0zm15 6c-1,0 -2,0 -2,-1 0,-1 1,-2 2,-2 0,0 1,1 1,2 0,1 -1,1 -1,1zm-17 0c-1,0 -2,0 -2,-1 0,-1 1,-2 2,-2 0,0 1,1 1,2 0,1 -1,1 -1,1zm14 6c0,0 -1,0 -1,0 -1,-1 -1,-2 0,-2 0,-1 1,-1 1,-1 1,0 1,0 1,1 0,0 1,0 1,1 0,0 -1,1 -1,1 0,0 0,0 -1,0zm-12 0c0,0 -1,0 -1,0l0 0 0 0 0 0c-1,-1 -1,-2 0,-2 0,-1 1,-1 1,-1 0,0 1,0 1,1 1,0 1,1 0,2 0,0 -1,0 -1,0zm6 3c-1,0 -1,-1 -1,-2 0,-1 0,-1 1,-1 1,0 2,0 2,1 0,1 -1,2 -2,2z"/>
		<g id="_737166848">
		<path class="" d="M266 240c0,0 -1,-1 -1,-1l0 -16c0,-1 1,-1 1,-1 1,0 1,0 1,1l0 16c0,0 0,1 -1,1z"/>
		<path class="" d="M258 232c0,0 -1,-1 -1,-1 0,-1 1,-2 1,-2l16 0c1,0 1,1 1,2 0,0 0,1 -1,1l-16 0z"/>
		<path class="" d="M477 107c0,0 -1,-1 -1,-1l0 -15c0,-1 1,-1 1,-1 1,0 1,0 1,1l0 15c0,0 0,1 -1,1z"/>
		<path class="" d="M470 99c-1,0 -1,0 -1,-1 0,0 0,-1 1,-1l15 0c0,0 1,1 1,1 0,1 -1,1 -1,1l-15 0z"/>
		<path class="" d="M277 76c0,0 -1,0 -1,-1l0 -15c0,0 1,-1 1,-1 1,0 1,1 1,1l0 15c0,1 0,1 -1,1z"/>
		<path class="" d="M270 69c-1,0 -1,-1 -1,-1 0,-1 0,-1 1,-1l15 0c0,0 1,0 1,1 0,0 -1,1 -1,1l-15 0z"/>
		<path class="" d="M364 43c-2,0 -3,2 -3,3 0,2 1,3 3,3 1,0 2,-1 2,-3 0,-1 -1,-3 -2,-3zm0 8c-3,0 -5,-2 -5,-5 0,-2 2,-4 5,-4 2,0 4,2 4,4 0,3 -2,5 -4,5z"/>
		<path class="" d="M230 167c-1,0 -1,-1 -1,-2 0,0 0,-1 1,-1 1,0 2,1 2,1 0,1 -1,2 -2,2zm6 2c0,0 0,0 -1,0 0,-1 0,-2 0,-2 0,0 1,-1 1,-1 1,0 1,1 1,1 1,0 1,1 0,2 0,0 0,0 -1,0zm-12 0c0,0 -1,0 -1,0 0,-1 0,-2 0,-2 0,0 1,-1 1,-1 1,0 1,1 1,1 1,0 1,1 1,1 0,0 0,1 -1,1 0,0 0,0 -1,0zm15 6c-1,0 -2,0 -2,-1 0,-1 1,-2 2,-2 1,0 1,1 1,2 0,1 0,1 -1,1zm-17 1c-1,0 -2,-1 -2,-2 0,-1 1,-2 2,-2 1,0 1,1 1,2 0,1 0,2 -1,2zm14 6c0,0 0,-1 -1,-1 0,-1 0,-1 0,-2 1,0 1,0 1,0 1,0 1,0 1,0 1,0 1,1 1,1 0,0 0,1 -1,1 0,0 0,1 -1,1zm-12 0c0,0 0,-1 -1,-1l0 0 0 0 0 0c0,-1 0,-1 0,-2 0,0 1,0 1,0 1,0 1,0 1,0 1,1 1,1 0,2 0,0 0,1 -1,1zm6 2c-1,0 -1,-1 -1,-1 0,-1 0,-2 1,-2 1,0 2,1 2,2 0,0 -1,1 -2,1z"/>
		<path class="" d="M439 225c-1,0 -2,-1 -2,-2 0,-1 1,-1 2,-1 1,0 1,0 1,1 0,1 0,2 -1,2zm6 2c-1,0 -1,0 -1,0 -1,-1 -1,-2 0,-3 0,0 0,0 1,0 0,0 1,0 1,0 0,1 0,2 0,3 0,0 -1,0 -1,0zm-12 0c-1,0 -1,0 -1,0 -1,-1 -1,-2 0,-2 0,-1 0,-1 1,-1 0,0 1,0 1,1 0,0 0,0 0,1 0,0 0,0 0,1 0,0 -1,0 -1,0zm14 6c0,0 -1,-1 -1,-1 0,-1 1,-2 1,-2 1,0 2,1 2,2 0,0 -1,1 -2,1zm-17 0c-1,0 -1,-1 -1,-1 0,-1 0,-2 1,-2 1,0 2,1 2,2 0,0 -1,1 -2,1zm15 6c-1,0 -1,0 -1,0 -1,-1 -1,-2 0,-2 0,-1 0,-1 1,-1 0,0 1,0 1,1 0,0 0,0 0,1 0,0 0,0 0,1 0,0 -1,0 -1,0zm-12 0c0,0 -1,0 -1,0l0 0 0 0 0 0c-1,-1 -1,-2 0,-2 0,-1 0,-1 1,-1 0,0 1,0 1,1 0,0 0,1 0,2 0,0 -1,0 -1,0zm6 3c-1,0 -2,-1 -2,-2 0,-1 1,-1 2,-1 1,0 1,0 1,1 0,1 0,2 -1,2z"/>
		<path class="" d="M473 163c-1,0 -1,0 -1,-1l0 -6c0,0 0,-1 1,-1 0,0 1,1 1,1l0 6c0,1 -1,1 -1,1z"/>
		<path class="" d="M468 165c-1,0 -1,0 -1,-1l-4 -4c0,0 0,0 0,0 0,-1 0,-1 0,-1 0,0 0,0 1,0 0,0 0,0 0,0l4 4c1,0 1,1 0,1 0,1 0,1 0,1z"/>
		<path class="" d="M460 170c-1,0 -1,-1 -1,-1 0,-1 0,-1 1,-1l5 0c1,0 1,0 1,1 0,0 0,1 -1,1l-5 0z"/>
		<path class="" d="M463 179c0,0 0,-1 -1,-1 0,0 0,0 0,0 0,-1 0,-1 0,-1l4 -4c1,0 1,0 1,0 0,0 1,0 1,0 0,0 0,1 0,1l-4 4c0,0 -1,1 -1,1z"/>
		<path class="" d="M472 183c-1,0 -1,-1 -1,-1l0 -6c0,-1 0,-1 1,-1 0,0 1,0 1,1l0 6c0,0 -1,1 -1,1z"/>
		<path class="" d="M481 179c0,0 -1,0 -1,0l-4 -4c0,0 0,-1 0,-1 0,0 0,0 0,-1 0,0 1,0 1,0 0,0 0,0 1,0l4 4c0,1 0,1 0,1 0,0 0,1 0,1 -1,0 -1,0 -1,0z"/>
		<path class="" d="M479 170c0,0 -1,0 -1,-1 0,0 1,-1 1,-1l6 0c0,0 1,1 1,1 0,1 -1,1 -1,1l-6 0z"/>
		<path class="" d="M477 165c0,0 0,0 0,0 0,0 -1,0 -1,-1 0,0 1,0 1,0l4 -4c0,0 0,-1 1,-1 0,0 0,1 0,1 1,0 1,1 0,1l-4 4c0,0 0,0 -1,0z"/>
	</simbol>
	<simbol id="bman02" viewBox="0 0 728 644">
		<path class="" d="M205 91c-90,-9 -122,1 -152,40 -30,40 -25,102 -5,124 -26,21 -60,106 -31,168 29,61 118,81 176,86 14,52 55,107 122,115 67,7 99,-11 150,-60 81,6 148,-4 173,-35 25,-30 34,-87 15,-134 39,-22 64,-32 60,-105 -4,-72 -41,-108 -84,-125 -4,-52 -20,-72 -58,-95 -37,-22 -107,-13 -133,7 -19,-35 -58,-63 -114,-68 -57,-6 -107,36 -119,82z"/>
		<path class="" d="M500 127c-3,-2 -21,15 -23,17 -1,1 -39,35 -76,60l8 10c41,-28 77,-58 79,-59 2,-2 4,-3 4,-5 -1,-2 -2,-2 -3,-1 1,-1 2,-2 1,-3 0,-1 -2,-1 -2,-1 1,-1 2,-2 1,-3 0,-1 -2,-2 -3,-1 1,-1 15,-12 14,-14z"/>
		<path class="" d="M401 204l8 10c4,-3 8,-6 13,-9l-7 -10c-5,3 -9,6 -14,9z"/>
		<path class="" d="M402 204c3,-2 6,-4 9,-7l0 0c-3,3 -6,5 -9,7l0 0z"/>
		<path class="" d="M290 411l26 32c2,3 6,4 9,4 39,0 79,-14 114,-43 43,-35 67,-84 69,-130 0,-8 -6,-16 -14,-17 -45,-8 -98,6 -141,41 -35,28 -57,65 -66,103 -1,3 0,7 3,10z"/>
		<path class="" d="M334 448c13,16 12,39 -1,54 -2,2 -3,5 -1,7l1 1c1,2 4,3 7,1 6,-3 12,-7 18,-12 22,-18 36,-43 40,-69 -21,10 -43,16 -65,17 0,0 1,1 1,1z"/>
		<path class="" d="M288 392c-13,-16 -35,-20 -53,-10 -2,2 -5,1 -7,-1l0 0c-2,-2 -2,-5 0,-8 4,-5 10,-10 15,-15 23,-18 50,-26 76,-25 -14,19 -24,39 -30,60 0,0 0,-1 -1,-1z"/>
		<path class="" d="M494 257c-20,-3 -41,-3 -62,2l61 76c9,-20 14,-41 15,-61 0,-8 -6,-15 -14,-17z"/>
		<path class="" d="M443 266c0,0 0,0 0,0 -1,0 -2,0 -2,0 0,-1 -1,-2 0,-2 0,-1 0,-1 0,-2 1,0 1,0 2,0 0,0 0,0 0,0 1,0 2,1 2,2 0,1 0,1 -1,2 0,0 -1,0 -1,0z"/>
		<path class="" d="M451 276c-1,0 -1,0 -2,-1 -1,-1 -1,-2 0,-3 1,0 1,0 2,0 1,0 1,0 2,1 1,0 0,2 -1,3 0,0 -1,0 -1,0z"/>
		<path class="" d="M475 306c-1,0 -1,0 -2,-1 0,-1 0,-2 1,-3 0,0 1,-1 1,-1 1,0 1,1 2,1 1,1 1,3 0,4 -1,0 -1,0 -2,0zm-8 -10c-1,0 -1,0 -2,-1 -1,-1 0,-2 1,-3 0,0 1,-1 1,-1 1,0 1,1 2,1 1,1 1,3 0,4 -1,0 -1,0 -2,0zm-8 -10c-1,0 -1,0 -2,-1 -1,-1 0,-2 1,-3 0,0 0,0 1,0 1,0 1,0 2,0 1,1 0,3 -1,4 0,0 0,0 -1,0z"/>
		<path class="" d="M473 313l-43 -54c1,0 1,0 2,0l42 53c0,0 0,0 -1,1z"/>
		<path class="" d="M288 392c0,0 0,0 0,0 0,0 0,0 0,0zm0 0c0,0 0,0 0,0 0,0 0,0 0,0zm0 0c-1,-2 -2,-3 -4,-4 0,0 0,0 0,0 2,1 3,2 4,4zm31 -59c0,0 -1,0 -1,0 0,0 1,0 1,0l0 0z"/>
		<path class="" d="M319 333c0,0 0,0 0,0l0 0c0,0 0,0 0,0l0 0z"/>
		<path class="" d="M289 393c0,0 0,-1 -1,-1l0 0c0,0 0,0 0,0 0,0 0,0 0,0 0,0 0,0 0,0 0,0 0,0 0,0 0,0 0,0 0,0 -1,-2 -2,-3 -4,-4 7,-19 16,-38 29,-55 0,0 0,0 1,0 1,0 3,0 4,0 0,0 1,0 1,0 0,0 0,0 0,0 -13,18 -23,37 -29,56 0,1 -1,3 -1,4z"/>
		<path class="" d="M337 453c-1,-2 -2,-3 -3,-5 1,2 2,3 3,5 0,0 0,0 0,0zm-3 -5c0,0 0,0 0,0l0 0zm0 0c0,0 0,0 0,0 0,0 0,0 0,0zm0 0c0,0 0,0 0,0 0,0 0,0 0,0zm64 -18c0,0 0,0 0,0 0,0 0,0 0,0zm0 0c0,0 0,0 0,0l0 0c0,0 0,0 0,0z"/>
		<path class="" d="M337 453c-1,-2 -2,-3 -3,-5 0,0 0,0 0,0l0 0c0,0 0,0 0,0 0,0 0,0 0,0 0,0 0,0 0,0 0,0 0,0 0,0 0,0 0,0 0,0l0 0c0,0 -1,-1 -1,-1 2,0 4,0 6,0 20,-2 40,-8 59,-17 0,0 0,0 0,0 0,0 0,0 0,0 0,0 0,0 0,0 0,2 -1,4 -1,6 -20,9 -40,15 -60,17z"/>
		<path class="" d="M297 476c-29,23 -86,25 -86,25 0,0 14,-55 43,-78 14,-12 31,-6 43,8 12,15 14,33 0,45z"/>
		<path class="" d="M295 469c-12,9 -36,13 -46,2 -9,-12 -1,-35 11,-45 12,-9 25,-4 34,8 10,11 12,25 1,35z"/>
		<path class="" d="M294 455c-7,6 -22,8 -28,1 -5,-6 0,-20 7,-26 7,-6 13,-1 19,6 5,7 8,14 2,19z"/>
		<path class="" d="M287 401c-1,3 0,7 3,10l26 32c2,3 6,4 9,4 3,0 6,0 8,0l-44 -54c-1,3 -1,5 -2,8z"/>
		<polygon class="" points="293,398 293,397 "/>
		<path class="" d="M287 404c0,-1 0,-1 0,-2l6 -5 0 1 1 0 -7 6z"/>
		<path class="" d="M289 410c0,0 0,-1 0,-1l8 -7 1 1 -9 7z"/>
		<polygon class="" points="293,415 292,414 301,407 302,408 "/>
		<polygon class="" points="297,420 297,420 296,419 305,412 306,413 "/>
		<polygon class="" points="301,425 301,424 300,424 309,417 310,418 "/>
		<polygon class="" points="314,423 313,422 "/>
		<polygon class="" points="305,430 304,429 313,422 314,423 314,423 "/>
		<path class="" d="M310 434c0,0 -1,0 -1,0l8 -7 1 1 -8 6c0,0 0,0 0,0z"/>
		<path class="" d="M325 447c-3,0 -7,-1 -9,-4l-8 -10 0 0 1 1 0 1 7 8c2,3 6,4 9,4 0,0 0,0 0,0l0 0c3,0 6,0 8,0l0 0c-2,0 -5,0 -8,0 0,0 0,0 0,0z"/>
		<path class="" d="M325 447c3,0 6,0 8,0l-3 -4 -1 -1 -4 -5 0 0 -4 -5 0 0 -1 -1c27,-13 60,-33 93,-59 23,-20 44,-40 60,-59l20 24c0,-1 0,-2 0,-2l-19 -23 19 23c9,-20 14,-41 15,-61 0,0 0,0 0,0 0,0 0,0 0,0 -2,46 -26,95 -69,130 -31,25 -66,39 -100,43 -2,0 -4,0 -6,0l0 0c0,0 0,0 0,0 -2,0 -5,0 -8,0z"/>
		<path class="" d="M493 335l-19 -23c13,-16 23,-30 30,-43 1,-3 1,-5 0,-6 3,3 4,7 4,11 0,0 0,0 0,0 -1,20 -6,41 -15,61zm-2 -14c0,0 -1,0 -1,1 -1,0 -1,1 -1,1 0,1 0,2 0,2 1,1 1,1 2,1 0,0 0,0 0,0 1,0 1,0 2,-1 0,0 1,-1 1,-1 0,-1 -1,-3 -2,-3 -1,0 -1,0 -1,0zm-8 -10c0,0 -1,1 -1,1 -1,1 -1,2 -1,3 1,1 2,1 2,1 1,0 1,0 2,-1 1,0 1,-2 0,-3 0,0 -1,-1 -2,-1z"/>
		<path class="" d="M483 316c0,0 -1,0 -2,-1 0,-1 0,-2 1,-3 0,0 1,-1 1,-1 1,0 2,1 2,1 1,1 1,3 0,3 -1,1 -1,1 -2,1z"/>
		<path class="" d="M491 326c0,0 0,0 0,0 -1,0 -1,0 -2,-1 0,0 0,-1 0,-2 0,0 0,-1 1,-1 0,-1 1,-1 1,-1 0,0 0,0 1,0 1,0 2,2 2,3 0,0 -1,1 -1,1 -1,1 -1,1 -2,1z"/>
		<path class="" d="M493 337l-20 -24c1,-1 1,-1 1,-1l19 23c0,0 0,1 0,2z"/>
		<path class="" d="M333 447l0 0c0,0 0,0 0,0 2,0 4,0 6,0 -2,0 -4,0 -6,0z"/>
		<path class="" d="M325 447c-3,0 -7,-1 -9,-4l-7 -8 1 -1c1,0 2,0 4,-1 2,-1 4,-2 6,-2l1 1 -9 7 1 1 9 -7 -1 -1 4 5 -8 7c0,0 0,0 0,0l9 -6 -1 -1 4 5 -7 5c1,0 1,0 2,0l6 -4 3 4c-2,0 -5,0 -8,0l0 0c0,0 0,0 0,0zm-16 -13l-1 -1 0 0c0,0 0,0 1,1l-1 0 1 0z"/>
		<polygon class="2" points="309,435 309,434 "/>
		<path class="" d="M309 435l0 -1 -1 0 1 0c0,0 1,0 1,0 0,0 0,0 0,0l-1 1z"/>
		<polygon class="0" points="321,432 321,432 321,432 "/>
		<polygon class="1" points="313,440 312,439 321,432 321,432 322,433 "/>
		<polygon class="0" points="325,437 325,437 "/>
		<path class="1" d="M317 444c0,0 0,0 0,0l8 -7 0 0 1 1 -9 6z"/>
		<polygon class="0" points="330,443 329,442 329,442 "/>
		<path class="1" d="M324 447c-1,0 -1,0 -2,0l7 -5 1 1 -6 4z"/>
		<path class="" d="M306 212l104 -8c0,14 -1,32 5,48 -13,16 -64,47 -83,48 -13,-22 -23,-55 -26,-88z"/>
		<path class="" d="M415 252l-83 48 11 19 -19 23c0,0 17,35 21,18 4,-19 -13,-19 -13,-19l21 -19 -6 -21c0,0 30,-21 62,-37l1 1c4,-1 7,-2 11,-3l-6 -10z"/>
		<path class="" d="M410 204c0,0 7,-107 -76,-81 0,0 -26,31 -28,89 70,19 104,-8 104,-8z"/>
		<path class="" d="M403 73c7,29 12,72 -75,76l-1 23c0,0 -10,-8 -12,3 -1,11 11,5 11,5 0,0 -10,20 -20,32 -1,1 -46,-92 1,-97 0,0 2,-24 35,-27 30,-4 45,23 61,-15z"/>
		<path class="" d="M362 189c0,0 13,-4 31,-5 0,0 2,16 -13,19 -16,3 -18,-14 -18,-14z"/>
		<path class="" d="M356 169c1,4 0,8 -2,8 -2,1 -4,-2 -6,-7 -1,-4 0,-8 2,-8 2,-1 5,2 6,7z"/>
		<path class="" d="M398 158c1,5 0,9 -2,9 -2,1 -5,-2 -6,-7 -1,-4 0,-8 2,-8 2,-1 5,2 6,6z"/>
		<path class="3" d="M372 285c-3,-1 -5,-2 -8,-4l17 -9c3,1 5,2 7,3 -6,4 -11,7 -16,10z"/>
		<path class="" d="M318 225c43,42 79,53 81,53 2,1 6,2 6,4 -1,1 -1,1 -3,1 1,0 2,1 2,2 0,1 -2,1 -3,1 0,0 0,0 0,0 0,0 0,0 0,0 1,1 2,1 2,2 0,1 -1,2 -2,2 1,0 1,0 1,1 0,3 -4,2 -6,1 -2,0 -40,-12 -86,-58l8 -9z"/>
		<path class="" d="M318 225l-8 9c4,3 7,6 10,9l8 -9c-3,-3 -7,-6 -10,-9z"/>
		<path class="" d="M402 216l3 3 -1 5c0,0 3,26 -31,34l-11 -7 8 -10c29,1 28,-15 28,-15l-4 -4 1 -3 7 -3z"/>
		<path class="4" d="M249 253c-1,0 -1,-1 -1,-1l0 -3c0,-1 0,-1 1,-1 0,0 0,0 0,1l0 3c0,0 0,1 0,1z"/>
		<path class="4" d="M246 254c-1,0 -1,0 -1,0l-2 -3c0,0 0,0 0,0 0,0 0,-1 0,-1 0,0 0,0 0,0 0,0 0,0 1,0l2 3c0,0 0,0 0,0 0,0 0,1 0,1 0,0 0,0 0,0z"/>
		<path class="4" d="M241 257c-1,0 -1,-1 -1,-1 0,0 0,0 1,0l3 0c1,0 1,0 1,0 0,0 0,1 -1,1l-3 0z"/>
		<path class="4" d="M243 262c0,0 -1,0 -1,0 0,0 0,0 0,0 0,0 0,0 0,-1l3 -2c0,0 0,0 0,0 0,0 1,0 1,0 0,0 0,0 0,0 0,0 0,1 0,1l-3 2c0,0 0,0 0,0z"/>
		<path class="4" d="M248 265c0,0 0,0 0,-1l0 -3c0,-1 0,-1 0,-1 1,0 1,0 1,1l0 3c0,1 0,1 -1,1z"/>
		<path class="4" d="M254 263c0,0 0,0 -1,0l-2 -3c0,0 0,0 0,0 0,0 0,-1 0,-1 0,0 0,0 0,0 0,0 1,0 1,0l2 3c0,0 0,0 0,0 0,0 0,1 0,1 0,0 0,0 0,0z"/>
		<path class="4" d="M253 257c-1,0 -1,0 -1,0 0,-1 0,-1 1,-1l3 0c1,0 1,0 1,1 0,0 0,0 -1,0l-3 0z"/>
		<path class="4" d="M252 254c0,0 -1,0 -1,0 0,0 0,0 0,0 0,-1 0,-1 0,-1l3 -2c0,0 0,-1 0,-1 0,0 1,1 1,1 0,0 0,0 0,1l-3 2c0,0 0,0 0,0z"/>
		<path class="4" d="M544 163c0,0 -1,0 -1,-1l0 -11c0,0 1,-1 1,-1 1,0 1,1 1,1l0 11c0,1 0,1 -1,1z"/>
		<path class="4" d="M539 158c-1,0 -1,-1 -1,-1 0,-1 0,-1 1,-1l11 0c0,0 1,0 1,1 0,0 -1,1 -1,1l-11 0z"/>
		<path class="4" d="M223 170c-1,0 -1,0 -1,-1l0 -9c0,0 0,-1 1,-1 0,0 0,1 0,1l0 9c0,1 0,1 0,1z"/>
		<path class="4" d="M218 165c0,0 -1,0 -1,0 0,-1 1,-1 1,-1l10 0c0,0 0,0 0,1 0,0 0,0 0,0l-10 0z"/>
		<path class="4" d="M605 232c-1,0 -1,0 -1,-1l0 -14c0,0 0,-1 1,-1 1,0 1,1 1,1l0 14c0,1 0,1 -1,1z"/>
		<path class="4" d="M598 225c0,0 -1,0 -1,-1 0,0 1,-1 1,-1l14 0c0,0 1,1 1,1 0,1 -1,1 -1,1l-14 0z"/>
		<path class="4" d="M280 43c-1,0 -2,1 -2,2 0,1 1,2 2,2 1,0 2,-1 2,-2 0,-1 -1,-2 -2,-2zm0 6c-2,0 -4,-2 -4,-4 0,-2 2,-3 4,-3 2,0 3,1 3,3 0,2 -1,4 -3,4z"/>
		<path class="4" d="M520 230c-1,0 -2,0 -2,1 0,2 1,2 2,2 1,0 2,0 2,-1 0,-1 -1,-2 -2,-2zm0 5c-2,0 -3,-2 -3,-4 0,-1 2,-3 3,-3 2,0 3,2 3,4 0,1 -1,3 -3,3z"/>
		<path class="4" d="M149 102c-2,0 -3,1 -3,2 0,2 1,3 3,3 2,0 3,-1 3,-3 0,-1 -1,-2 -3,-2zm0 7c-2,0 -4,-2 -4,-5 0,-2 2,-4 4,-4 2,0 4,2 4,4 0,3 -2,5 -4,5z"/>
		<path class="4" d="M573 79c-1,0 -2,0 -2,-1 0,-1 1,-1 2,-1 0,0 1,0 1,1 0,1 -1,1 -1,1zm5 2c0,0 -1,0 -1,0 0,-1 0,-1 0,-2 0,0 1,0 1,0 0,0 1,0 1,0 0,1 0,1 0,2 0,0 -1,0 -1,0zm-11 0c0,0 0,0 -1,0 0,-1 0,-1 0,-2 1,0 1,0 1,0 1,0 1,0 1,0 1,0 1,1 1,1 0,0 0,1 -1,1 0,0 0,0 -1,0zm13 6c-1,0 -1,-1 -1,-2 0,0 0,-1 1,-1 1,0 1,1 1,1 0,1 0,2 -1,2zm-15 0c-1,0 -1,-1 -1,-2 0,0 0,-1 1,-1 1,0 2,1 2,1 0,1 -1,2 -2,2zm13 5c0,0 -1,0 -1,0 0,-1 0,-2 0,-2 0,-1 1,-1 1,-1 0,0 1,0 1,1 0,0 0,0 0,1 0,0 0,0 0,1 0,0 -1,0 -1,0zm-11 0c0,0 0,0 0,0l0 0 0 0 -1 0c0,-1 0,-2 0,-2 1,-1 1,-1 1,-1 1,0 1,0 1,1 1,0 1,1 0,2 0,0 0,0 -1,0zm6 2c-1,0 -2,0 -2,-1 0,-1 1,-1 2,-1 0,0 1,0 1,1 0,1 -1,1 -1,1z"/>
		<path class="4" d="M138 228c-1,0 -1,-1 -1,-1 0,-1 0,-2 1,-2 1,0 2,1 2,2 0,0 -1,1 -2,1zm6 2c-1,0 -1,0 -1,0 -1,-1 -1,-1 0,-2 0,0 0,0 1,0 0,0 0,0 1,0 0,1 0,1 0,2 -1,0 -1,0 -1,0zm-11 0c-1,0 -1,0 -1,0 -1,-1 -1,-1 0,-2 0,0 0,0 1,0 0,0 0,0 1,0 0,0 0,1 0,1 0,0 0,1 0,1 -1,0 -1,0 -1,0zm13 6c-1,0 -1,-1 -1,-1 0,-1 0,-2 1,-2 1,0 2,1 2,2 0,0 -1,1 -2,1zm-16 0c-1,0 -1,-1 -1,-1 0,-1 0,-2 1,-2 1,0 2,1 2,2 0,0 -1,1 -2,1zm14 6c-1,0 -1,-1 -1,-1 -1,0 -1,-1 0,-2 0,0 0,0 1,0 0,0 1,0 1,0 0,1 0,1 0,1 0,1 0,1 0,1 0,1 -1,1 -1,1zm-11 0c-1,0 -1,0 -1,-1l0 0 0 0 0 0c-1,0 -1,-1 0,-2 0,0 0,0 1,0 0,0 0,0 1,0 0,1 0,2 0,2 -1,1 -1,1 -1,1zm5 2c-1,0 -1,-1 -1,-1 0,-1 0,-2 1,-2 1,0 2,1 2,2 0,0 -1,1 -2,1z"/>
		<path class="4" d="M443 40c0,0 -1,-1 -1,-1l0 -5c0,0 1,-1 1,-1 1,0 1,1 1,1l0 5c0,0 0,1 -1,1z"/>
		<path class="4" d="M439 41c0,0 0,0 0,0l-4 -4c0,0 0,0 0,0 0,0 0,-1 0,-1 0,0 1,0 1,0 0,0 0,0 0,0l4 4c0,0 0,0 0,1 0,0 -1,0 -1,0z"/>
		<path class="4" d="M433 45c-1,0 -1,0 -1,-1 0,0 0,-1 1,-1l4 0c1,0 1,1 1,1 0,1 0,1 -1,1l-4 0z"/>
		<path class="4" d="M435 52c0,0 0,0 0,0 0,0 -1,0 -1,0 0,-1 1,-1 1,-1l3 -3c0,0 0,-1 1,-1 0,0 0,1 0,1 1,0 1,1 0,1l-3 3c0,0 0,0 -1,0z"/>
		<path class="4" d="M443 56c-1,0 -1,-1 -1,-1l0 -5c0,0 0,-1 1,-1 0,0 0,1 0,1l0 5c0,0 0,1 0,1z"/>
		<path class="4" d="M450 53c0,0 0,0 -1,0l-3 -4c0,0 0,0 0,0 0,0 0,-1 0,-1 0,0 1,0 1,0 0,0 0,0 0,0l4 4c0,0 0,0 0,0 0,0 0,1 0,1 0,0 -1,0 -1,0z"/>
		<path class="4" d="M449 46c-1,0 -1,-1 -1,-1 0,-1 0,-1 1,-1l4 0c1,0 1,0 1,1 0,0 0,1 -1,1l-4 0z"/>
		<path class="4" d="M447 42c0,0 0,-1 0,-1 0,0 -1,0 -1,0 0,0 1,-1 1,-1l3 -3c0,0 0,0 1,0 0,0 0,0 0,0 1,0 1,1 0,1l-3 3c0,0 -1,1 -1,1z"/>
		<path class="" d="M201 350c-1,0 -2,0 -2,0 0,0 0,0 0,-1 0,-8 -7,-16 -16,-16 -8,0 -14,6 -16,13 0,0 0,0 0,0 -8,0 -14,6 -14,13 0,8 6,14 14,14l34 0c6,0 11,-5 11,-12 0,-6 -5,-11 -11,-11z"/>
		<path class="" d="M580 368c-1,0 -1,0 -2,0 0,0 0,-1 0,-1 0,-8 -6,-14 -14,-14 -7,0 -12,5 -14,11 0,0 0,0 0,0 -7,0 -12,5 -12,12 0,7 5,12 12,12l30 0c5,0 10,-5 10,-10 0,-6 -5,-10 -10,-10z"/>
		<path class="" d="M620 477c0,0 0,0 -1,0 0,-1 0,-1 0,-2 0,-7 -5,-13 -12,-13 -7,0 -12,6 -13,12 -1,0 -1,0 -2,0 -5,0 -9,4 -9,9 0,5 4,9 9,9l28 0c5,0 8,-3 8,-8 0,-4 -3,-7 -8,-7z"/>
		<path class="" d="M152 461c0,0 -1,0 -1,0 0,0 0,-1 0,-1 0,-7 -5,-12 -12,-12 -6,0 -11,5 -12,11 0,0 -1,0 -2,0 -4,0 -8,3 -8,8 0,5 4,9 8,9l27 0c4,0 8,-4 8,-8 0,-4 -4,-7 -8,-7z"/>
		<path class="" d="M473 519c-1,0 -1,0 -1,0 0,0 0,-1 0,-1 0,-6 -5,-11 -11,-11 -5,0 -10,5 -10,10 -1,0 -1,0 -2,0 -4,0 -8,3 -8,7 0,4 4,8 8,8l24 0c3,0 6,-3 6,-7 0,-3 -3,-6 -6,-6z"/>
	</simbol>
	<simbol id="bman03" viewBox="0 0 728 644">
		<path class="" d="M201 85c-90,-9 -122,1 -152,40 -30,40 -25,102 -5,124 -25,21 -60,106 -31,168 29,61 119,81 176,86 14,52 56,107 123,115 67,7 99,-11 149,-60 82,6 148,-4 173,-35 26,-30 35,-87 15,-134 39,-22 64,-32 60,-105 -4,-72 -40,-108 -83,-125 -5,-52 -21,-72 -58,-95 -38,-22 -108,-13 -134,7 -19,-35 -58,-63 -114,-68 -56,-6 -106,36 -119,82z"/>
		<polygon class="" points="500,261 453,281 458,297 510,274 "/>
		<path class="" d="M277 122l309 233c0,0 2,-12 6,-18l-304 -230 -11 15z"/>
		<path class="" d="M299 93l-11 14 304 230c4,-6 16,-11 16,-11l-309 -233z"/>
		<path class="" d="M608 326c0,0 -1,-6 2,-10 3,-3 7,-4 9,-5 -1,0 -1,-1 -2,-1 0,0 -279,-211 -307,-232l-11 15 309 233z"/>
		<path class="" d="M454 278c-1,0 -1,-1 -2,-1l-1 -4c-1,0 -2,1 -3,1 -69,-52 -146,-110 -174,-131 3,-5 7,-9 13,-14l161 121c4,15 6,26 6,28z"/>
		<path class="" d="M425 165c-22,-17 -43,-32 -60,-46 17,14 38,29 60,46l0 0zm-61 -46c0,0 0,0 0,0 0,0 0,0 0,0zm0 0c0,0 0,0 0,0 0,0 0,0 0,0zm0 0c0,0 0,0 0,0 0,0 0,0 0,0zm0 0c0,0 0,-1 -1,-1 1,0 1,1 1,1z"/>
		<path class="" d="M650 378l-10 -21 -7 11 17 12c0,0 0,-1 0,-2z"/>
		<path class="" d="M625 378l22 3c1,0 2,0 3,-1l-17 -12 -8 10z"/>
		<path class="" d="M298 69c-2,-2 -4,-3 -4,-3 -16,-12 -34,-5 -46,11l28 21 22 -29z"/>
		<path class="" d="M248 77c-13,16 -14,35 2,47 0,1 2,2 4,4l22 -30 -28 -21z"/>
		<path class="" d="M288 107l-12 -9 -22 30c3,2 7,5 12,9l11 -15 11 -15z"/>
		<path class="" d="M288 107l11 -14 11 -15c-5,-4 -9,-7 -12,-9l-22 29 12 9z"/>
		<path class="" d="M608 326c0,0 -12,5 -16,11l41 31 7 -11 -18 -41c-1,-2 -2,-3 -3,-5 -2,1 -6,2 -9,5 -3,4 -2,10 -2,10z"/>
		<path class="" d="M592 337c-4,6 -6,18 -6,18 0,0 -6,1 -9,5 -2,3 -2,8 -2,9 1,1 3,2 5,2l45 7 8 -10 -41 -31z"/>
		<path class="" d="M586 355l-309 -233 -11 15c27,20 307,231 307,231 0,1 1,1 2,1 0,-1 0,-6 2,-9 3,-4 9,-5 9,-5z"/>
		<path class="" d="M532 382c-7,-16 -21,14 -21,14 0,0 1,-24 -6,-31 -6,-6 -19,6 -22,9l-149 55 10 23 -18 1c0,0 -9,29 5,29 14,-1 2,-19 2,-19 0,0 14,5 23,1 7,-3 -2,-23 -4,-30 100,-20 143,-54 144,-55 0,0 6,24 10,36 0,0 34,-16 26,-33z"/>
		<path class="" d="M451 273c0,0 -41,-183 -161,-79 0,0 -33,47 -4,137 144,-17 165,-58 165,-58z"/>
		<path class="" d="M398 86c0,0 86,99 -92,127l0 41c0,0 -19,-11 -19,7 1,17 19,5 19,5 0,0 -4,48 -20,65 0,0 -104,-145 -30,-160 0,0 -4,-29 39,-50 48,-24 101,32 103,-35z"/>
		<path class="" d="M451 273l32 101c0,0 -58,34 -149,55l-48 -98c0,0 115,-21 165,-58z"/>
		<path class="" d="M419 299l6 5 -2 9c0,0 8,46 -52,64l-19 -13 13 -17c51,-2 48,-30 48,-30l-8 -6 1 -6 13 -6z"/>
		<polygon class="" points="312,335 313,351 344,348 342,332 "/>
		<path class="" d="M522 318l-180 14 2 16 180 -14c0,0 5,0 5,-2 0,-3 -4,-2 -4,-2 0,0 5,0 5,-3 -1,-2 -6,-1 -6,-1 0,0 5,0 5,-3 0,-3 -5,-2 -5,-2 0,0 4,0 4,-2 0,-2 -6,-1 -6,-1z"/>
		<path class="" d="M349 245c2,7 1,12 -2,13 -2,1 -6,-2 -8,-9 -3,-7 -1,-12 1,-13 3,-1 7,2 9,9z"/>
		<path class="" d="M417 223c2,7 1,11 -2,12 -3,1 -7,-2 -9,-9 -2,-7 -1,-11 2,-12 3,-1 6,2 9,9z"/>
		<path class="" d="M361 271c5,13 20,20 33,15 13,-5 20,-20 15,-33l-48 18z"/>
		<path class="" d="M126 572c-1,0 -1,0 -1,0 2,0 1,0 1,0z"/>
		<polygon class="" points="138,566 138,566 140,565 "/>
		<path class="" d="M150 562c-1,0 -4,2 -6,2l-1 0 0 1c2,-1 6,-3 7,-3z"/>
		<path class="" d="M158 562c-1,-1 1,-1 -2,0 0,0 0,0 0,0 1,0 1,0 2,0z"/>
		<path class="" d="M156 562c-1,0 1,0 0,0z"/>
		<path class="" d="M162 560l-1 1c0,0 1,-1 1,0 2,-1 1,-1 0,-1z"/>
		<path class="" d="M164 559l-1 0c0,0 0,0 1,0z"/>
		<path class="" d="M161 560l2 -1c-1,0 -1,0 -1,0 0,0 0,0 -1,1z"/>
		<path class="" d="M160 560c-1,0 -2,1 -1,0 -3,1 -2,1 1,0z"/>
		<path class="" d="M151 561l-2 0 -1 1c1,-1 3,-1 3,-1z"/>
		<path class="" d="M173 557c0,-1 -1,-1 -1,-1l-1 1c0,0 2,-1 2,0z"/>
		<path class="" d="M172 556l2 -1c-2,1 -2,1 -2,1z"/>
		<polygon class="" points="163,558 161,559 164,557 "/>
		<polygon class="" points="180,554 179,555 181,554 "/>
		<path class="" d="M184 552c0,1 2,1 1,1 1,0 2,-1 3,-2 -1,1 -2,1 -4,1z"/>
		<path class="" d="M190 550c-1,1 -1,1 -2,1 1,0 1,0 2,-1z"/>
		<path class="" d="M177 554c0,0 0,0 1,0l-1 0c0,0 0,0 0,0z"/>
		<path class="" d="M177 554l0 0c1,0 2,-1 2,-1 0,0 -1,1 -2,1z"/>
		<path class="" d="M177 554c0,0 0,0 0,0 0,0 0,0 0,0z"/>
		<path class="" d="M168 556c1,0 4,-1 1,-1 0,1 1,0 -1,1z"/>
		<path class="" d="M175 554l-2 0c0,1 1,1 0,1l2 -1z"/>
		<polygon class="" points="176,553 175,554 176,554 "/>
		<path class="" d="M186 551c1,0 2,-1 3,-1 -1,0 -3,1 -4,1 0,0 0,1 1,0z"/>
		<path class="" d="M182 552c0,0 0,0 0,0 0,0 0,0 0,0z"/>
		<path class="" d="M199 546c0,0 0,0 0,0l0 0 0 0z"/>
		<path class="" d="M185 551c-1,0 -1,0 -2,1 1,-1 2,-1 2,-1 0,0 0,0 0,0z"/>
		<path class="" d="M192 549c0,0 -1,0 -1,0 0,0 1,0 1,0z"/>
		<path class="" d="M182 552l0 0c1,0 0,0 0,0z"/>
		<path class="" d="M182 552c1,0 1,0 1,0 0,0 -1,0 -1,0 0,0 0,0 0,0z"/>
		<path class="" d="M201 542c0,1 -2,2 -4,2 -2,1 0,2 2,2 0,0 0,0 2,-1 -1,0 -5,1 -3,0 2,-1 2,-1 3,-1 -1,0 3,-2 2,-3l-2 2c0,-1 1,-1 0,-1z"/>
		<path class="" d="M195 547l-1 1c1,0 2,0 3,-1 2,0 2,0 2,-1l-4 2 0 -1z"/>
		<path class="" d="M191 549c0,-1 2,-2 1,-2 -3,1 -2,1 -3,2 4,-1 -1,1 2,0 -1,0 -2,1 -2,1 0,0 1,0 2,-1l0 0 0 0 0 0c0,0 -1,0 0,0l0 0c0,0 0,0 0,0 1,0 0,0 0,0l0 0 0 0 3 -1c0,0 -1,0 -3,1z"/>
		<path class="" d="M171 553c0,0 0,0 0,0 0,0 0,0 0,0z"/>
		<path class="" d="M173 553c-1,0 -1,0 -2,1 -1,0 0,-1 0,-1 0,1 -2,1 0,1l0 0c2,-1 4,-1 4,0 -1,-1 -1,-1 -2,-1z"/>
		<path class="" d="M182 551l3 -1 -2 0 0 0c-2,0 -1,1 -1,1z"/>
		<polygon class="" points="200,546 199,547 201,546 "/>
		<polygon class="" points="204,545 204,545 205,545 "/>
		<path class="" d="M432 457l1 -1c0,1 -1,1 -1,1z"/>
		<path class="" d="M426 459l0 1c0,-1 0,-1 0,-1z"/>
		<path class="" d="M304 509c2,0 3,0 3,0l-1 0c0,0 -1,0 -2,0z"/>
		<path class="" d="M372 482c0,0 0,0 -1,0 0,0 0,0 0,0 0,0 0,0 1,0z"/>
		<path class="" d="M372 479l2 0c-1,0 -1,0 -2,0z"/>
		<path class="" d="M469 443l0 -1c-1,1 0,1 0,1z"/>
		<path class="" d="M246 530c1,0 2,-1 3,-1 -2,0 -3,0 -3,1z"/>
		<path class="" d="M432 463c0,0 0,0 0,-1 0,1 -1,1 0,1z"/>
		<path class="" d="M252 528c0,0 -1,0 -1,0 -1,1 -1,1 -2,1 1,0 2,0 3,-1z"/>
		<path class="" d="M601 395c0,0 0,0 0,0 0,0 0,0 0,0z"/>
		<path class="" d="M641 386c0,0 -1,0 -1,1 0,0 0,-1 1,-1z"/>
		<path class="" d="M220 539c-1,1 0,0 0,0z"/>
		<path class="" d="M215 539c0,0 1,0 1,-1 0,1 -1,1 -1,1z"/>
		<path class="" d="M259 522l1 0c-1,0 -1,0 -1,0z"/>
		<path class="" d="M219 540c0,-1 1,-1 1,-1 0,0 -1,0 -1,1z"/>
		<path class="" d="M219 540c0,0 0,0 -1,0 0,0 0,0 1,0z"/>
		<path class="" d="M221 539c0,0 -1,0 -1,0 0,0 0,0 0,0 0,0 1,0 1,0z"/>
		<path class="" d="M531 422c0,0 0,0 0,0 1,0 0,0 0,0z"/>
		<polygon class="" points="325,496 325,496 325,496 "/>
		<path class="" d="M328 495c-1,1 -2,1 -3,1l1 1 2 -2z"/>
		<path class="" d="M541 423l0 0c1,-1 0,-1 0,0zm-314 113c-1,0 -1,1 -1,1 1,-1 1,-1 2,-1 0,0 -1,0 -1,0zm3 0l0 -1c1,0 1,0 0,1zm137 -54c0,0 1,0 2,0 -1,0 -2,0 -2,0zm49 -19c0,0 1,-1 2,-1 0,1 -1,1 -2,1zm32 -12l-2 0c2,-1 4,-2 2,-2 0,2 -8,3 -8,5l-2 0c1,0 1,0 1,0 -3,0 -2,2 -5,3 -2,0 -2,0 -2,0l-2 1c-1,1 -1,0 0,0l-4 2 0 0c-1,0 -2,1 -3,1 -1,0 1,0 0,0l-2 1c-1,0 1,-1 2,-2 -2,0 -1,1 -6,2l2 -1c-2,0 -4,1 -6,1 0,0 5,0 3,1 -1,0 -2,1 -3,1 -1,0 -2,0 -4,1l0 -1c-1,1 -1,1 -2,2 -2,1 -3,0 -3,0 -4,1 2,0 -2,2 -2,0 -4,1 -7,3 -2,1 0,0 -1,0l-1 1c-1,0 -1,0 -1,0 -1,0 0,0 -2,1 0,1 -5,1 -7,3 -1,0 0,-1 0,-1 -4,2 -3,2 -6,3l-3 1c2,0 0,1 -2,3 1,0 1,0 2,0l-4 1c0,0 0,0 1,-1 -1,1 -1,1 -1,1 -1,0 -1,-1 0,-1 0,0 1,0 1,0 1,-1 2,-2 1,-2 0,0 0,0 -1,0 0,0 1,0 0,0 0,0 0,0 -1,1l-1 -1 0 0 -4 2c-3,2 -6,4 -11,6 1,-1 0,-1 0,-2 2,0 4,-2 7,-2 -2,0 -2,0 -1,-1l-5 3c0,-1 -1,0 -2,0 1,1 -4,2 -6,3 0,0 1,-1 3,-2 -3,0 -3,3 -6,3 1,0 1,0 1,0 -1,0 -4,1 -4,1l1 -1c-4,2 -12,5 -12,6 0,0 0,-2 0,-2l-6 6c1,-1 -2,-2 1,-4 -1,0 -2,1 -4,2 0,-1 2,0 1,1 -3,-1 -2,0 -5,0 1,0 0,1 -1,2 0,0 -1,-1 0,-2l-3 3c0,-1 -1,-1 -2,-1 1,0 -3,1 -4,1l2 0c-4,1 -4,3 -8,5 1,-1 1,-2 -1,-2 -1,1 -3,5 -7,7l-1 0 -2 1c1,-2 5,-5 8,-7 -2,0 -1,0 -3,0 -1,0 1,-1 2,-1l-6 2c1,1 -4,2 -3,3l5 -3c1,0 -2,3 -6,4 -1,0 0,-1 0,-1 -1,0 -4,1 -4,1l1 -1c-2,1 -3,3 -6,3 -1,0 -3,0 -3,0 2,1 3,3 3,4 -1,0 -5,1 -7,1 -1,0 2,-2 1,-3 0,1 -1,1 -1,1 -1,1 0,0 -2,0 0,1 -4,2 -1,1 -2,1 -2,1 -4,2 0,0 -2,2 -4,3 0,0 0,0 -1,0 -4,1 -6,2 -10,3 0,0 -2,0 -1,0 -1,0 -1,1 -3,1 -2,0 3,-1 1,-1 0,0 -3,1 -4,2 0,1 4,-1 5,-2 0,1 -2,3 -6,5 -3,1 -1,0 -2,0 -6,2 -4,4 -10,5 -2,0 0,-1 -1,-2 3,-1 4,-1 6,-1l-2 0c1,0 2,-1 3,-1 -2,0 -10,3 -15,4 0,1 -2,1 -1,1l2 0c1,0 -3,1 -1,1 -2,1 -4,2 -7,3l0 0c0,0 2,-1 2,-1 -1,1 -4,0 -5,2l2 0c-2,1 -4,2 -7,3 2,0 1,0 3,0 -2,-1 6,-2 3,-3 3,1 4,0 6,0 0,-1 -1,0 1,-1 0,0 1,0 1,0 0,0 0,0 0,0l0 0c0,-1 0,-1 0,0 -1,0 -1,0 -2,0 1,-1 5,-2 6,-3 1,0 -1,0 0,0l1 -1c1,1 4,0 1,1l3 0c1,-1 3,-1 5,-2 1,0 2,-2 2,-1l3 -2 1 1c4,-2 7,-4 12,-5 2,0 3,-1 5,-2l1 1c1,-1 5,-2 6,-3 2,1 8,-2 11,-3l0 -1c2,0 4,-1 6,-2l0 -1c2,-1 6,-2 9,-3 0,0 -1,1 -1,1 4,-1 8,-4 12,-5 1,0 2,0 3,-1 -1,1 -1,1 -1,1 0,0 1,0 1,-1 0,0 1,0 1,0 0,0 -1,0 -1,0 1,0 2,0 3,-1l0 1c1,-1 1,-1 1,-1 1,0 0,0 0,0 0,-1 1,-1 1,-1 1,0 3,-2 4,-1 1,-1 6,-2 6,-3 0,0 0,0 0,0 1,-1 2,-1 3,-1l1 0 2 -2c2,0 3,0 1,1 4,-2 3,-1 6,-3l0 0c1,0 3,-2 4,-1 3,0 13,-5 20,-7 -2,0 3,0 3,-1 1,0 2,0 1,1 3,-2 5,-2 7,-4 1,1 -1,1 0,1 0,0 1,0 1,0 1,0 0,0 -1,0 4,-1 4,-2 4,-3 2,0 3,-1 4,-2 0,0 1,0 -1,1 2,0 8,-2 8,-3 0,0 2,0 2,-1 3,0 3,0 6,-2l-1 1c0,-2 2,-1 4,-2l0 0c5,-1 2,-1 7,-2l0 -1c0,-1 4,-1 7,-2l-1 0c1,-1 5,0 6,0 1,0 0,0 0,0 4,-1 0,-1 3,-2 0,0 -1,1 1,1 2,0 6,-4 9,-4 -1,0 -1,0 0,-1 2,-1 6,-1 8,-3 0,0 0,0 0,0 2,0 6,-2 6,-3 3,2 10,-4 11,-3l5 -2 0 1c3,-1 4,-2 5,-3 1,0 0,0 0,0 5,-1 6,-1 9,-4l1 1c1,-1 7,-2 12,-4 0,0 0,0 -1,0 5,-2 13,-3 15,-6l3 -1c-5,1 0,-2 -2,-1 2,-1 5,-1 3,0l0 0c-1,1 5,-2 5,-1 9,-3 18,-6 26,-9l-1 0 3 -1c1,-1 1,0 -1,1 1,0 3,-2 3,-2 5,-1 -1,1 0,1l2 -1 0 0c1,-1 1,-1 3,-2 2,0 1,0 2,0 0,0 0,0 1,0l4 -1 -2 -1c1,-1 3,-1 1,-1 3,0 14,-4 16,-5 2,-1 4,-2 7,-3 -1,0 -2,0 1,-1 -1,2 4,-1 7,-1 -2,0 6,-2 3,-2 2,-1 1,0 2,0 5,-2 11,-3 17,-6 0,0 -2,0 0,-1l3 0c1,0 1,-1 3,-1 0,0 -1,-1 0,-1 12,-3 23,-9 35,-12 -2,1 -1,0 1,0 -1,0 0,-1 -1,-1l5 -1c1,-1 6,-2 6,-3l-2 1c2,-2 -3,-1 -3,-2 -2,1 -7,0 -10,3 -1,0 0,0 0,0 -1,0 -2,1 -4,1l0 0c-6,3 -9,3 -16,5l1 1c-1,0 -2,0 -2,0 -2,1 4,-1 3,0 -3,0 -11,4 -12,3 -3,1 0,0 -2,1l0 0 -1 1c-1,0 -2,0 -2,0 0,0 1,-1 1,-1 -2,0 -5,2 -6,2l2 0c-6,2 -13,5 -19,7l1 1c-5,2 -4,1 -9,3l0 -1c-1,1 -2,2 -3,2 1,-1 -3,0 -1,0 -5,2 -3,1 -5,3l-1 0c-1,1 -1,1 -4,2 2,-1 -2,0 1,-2 -6,1 -8,4 -11,4 -2,2 5,-1 4,-1 1,0 -2,2 -3,2 -2,1 -4,0 -8,2 0,-1 0,-1 1,-1 -2,0 -3,2 -5,2 -1,1 -3,1 -3,2l4 -2c-2,1 -4,3 -7,4 0,-1 1,-1 2,-2 -2,1 -2,1 -4,1 0,-1 5,-1 7,-3 -1,0 -4,2 -3,1 -1,2 -4,1 -7,3l0 0c0,0 -1,0 -2,1l1 -2c-2,2 -4,2 -6,3 4,-2 1,0 3,0 -5,2 -4,-1 -10,2 1,0 3,-1 2,0 -1,0 -3,1 -4,1 -4,1 1,0 0,1 -2,0 -2,1 -4,2l0 -1c-5,2 -1,2 -6,3l2 -1 -2 1 0 -1c-2,1 -3,1 -5,2 0,0 0,1 -3,2 -1,0 1,-1 -2,0 1,0 1,-1 3,-1 0,0 0,-1 0,-1 -1,0 -4,1 -5,2 1,0 1,0 2,0l-4 2c-1,0 -1,0 0,-1 -1,1 -2,1 -3,2 0,-1 0,-1 2,-2l-4 2c-1,0 -2,0 -2,0 -2,0 -5,2 -8,3 -1,0 -1,1 -2,1 -2,1 -5,1 -8,3l-2 0c-3,1 2,0 -2,2 -3,1 -1,0 -2,0 -2,1 -4,3 -7,3 1,-1 1,-1 2,-1z"/>
		<path class="" d="M372 480c0,0 0,0 0,0 1,0 1,-1 0,0z"/>
		<path class="" d="M468 443l1 0c0,0 0,0 0,0l-1 0z"/>
		<path class="" d="M270 516c1,-1 1,-1 2,-1 0,0 -1,0 -2,1z"/>
		<path class="" d="M211 543l2 -1c-1,0 -1,0 -2,0 0,0 1,1 0,1z"/>
		<path class="" d="M194 545c-1,0 -1,0 -1,0l0 1c1,-1 2,-1 1,-1z"/>
		<path class="" d="M209 541c0,0 -2,1 -3,1 0,0 0,0 0,0 0,1 2,0 3,-1z"/>
		<path class="" d="M206 542c-1,0 -1,1 -1,1 0,0 0,0 1,-1z"/>
		<path class="" d="M223 538c-1,0 0,1 -1,1 0,0 4,-3 1,-1z"/>
		<polygon class="" points="207,540 208,541 209,540 "/>
		<path class="" d="M218 537l-2 1c0,0 0,0 -1,0 2,0 3,-1 3,-1z"/>
		<path class="" d="M215 538c0,0 -1,1 -1,1 0,0 1,-1 1,-1z"/>
		<polygon class="" points="210,539 211,539 212,539 "/>
		<path class="" d="M241 529l2 -1c0,0 -1,0 -2,0 0,1 -1,1 0,1z"/>
		<path class="" d="M233 530c1,0 1,0 1,0l0 -1 -1 1z"/>
		<path class="" d="M240 528c0,-1 3,-2 0,-1 0,0 -2,1 0,1z"/>
		<polygon class="" points="275,516 274,516 275,518 "/>
		<path class="" d="M304 503c-3,0 0,1 -3,1 0,1 2,0 2,0 1,-1 2,-1 1,-1z"/>
		<path class="" d="M303 504c-1,0 -1,0 -1,1 0,-1 1,-1 1,-1z"/>
		<polygon class="" points="648,384 650,384 648,384 "/>
		<path class="" d="M651 382l1 1 0 -1c0,0 -1,0 -1,0z"/>
		<path class="" d="M410 463l0 1c1,0 1,0 2,-1l-2 0z"/>
		<polygon class="" points="434,455 434,455 435,456 "/>
		<path class="" d="M454 447c-1,1 -2,1 -3,1 2,0 3,0 3,-1z"/>
	</simbol>
	<simbol id="bman04" viewBox="0 0 728 644">
		<path class="" d="M201 85c-90,-9 -122,1 -152,40 -30,40 -25,102 -5,124 -25,21 -60,106 -31,168 29,61 119,81 176,86 14,52 56,107 123,115 67,7 99,-11 149,-60 82,6 148,-4 173,-35 26,-30 35,-87 15,-134 39,-22 64,-32 60,-105 -4,-72 -40,-108 -83,-125 -5,-52 -21,-72 -58,-95 -38,-22 -108,-13 -134,7 -19,-35 -58,-63 -114,-68 -56,-6 -106,36 -119,82z"/>
		<path class="" d="M526 85l3 -20c0,-2 1,-3 3,-3 1,1 2,2 2,3l-3 20 0 13 -1 10 -9 -2 1 -10 4 -11z"/>
		<polygon class="" points="513,176 519,137 515,125 517,105 538,108 525,196 505,193 505,187 "/>
		<polygon class="" points="480,120 483,100 517,105 515,125 519,137 513,176 505,187 505,193 470,188 471,182 479,171 485,132 "/>
		<polygon class="" points="504,142 504,146 496,145 497,141 "/>
		<polygon class="" points="504,141 497,140 498,137 505,138 "/>
		<polygon class="" points="504,151 511,152 511,156 504,155 "/>
		<polygon class="" points="496,149 496,146 504,147 503,150 "/>
		<polygon class="" points="496,140 489,139 489,135 496,137 "/>
		<polygon class="" points="513,143 506,142 506,138 513,139 "/>
		<polygon class="" points="504,150 505,147 512,148 512,152 "/>
		<polygon class="" points="495,145 495,149 487,148 488,144 "/>
		<polygon class="" points="505,146 505,142 513,143 512,147 "/>
		<polygon class="" points="496,141 495,145 488,144 489,140 "/>
		<polygon class="" points="487,149 495,150 494,153 487,152 "/>
		<polygon class="" points="496,150 503,151 502,155 495,154 "/>
		<polygon class="" points="501,163 501,167 493,166 494,162 "/>
		<polygon class="" points="501,162 494,161 495,158 502,159 "/>
		<polygon class="" points="493,170 493,166 501,168 500,171 "/>
		<polygon class="" points="493,161 486,160 486,156 493,157 "/>
		<polygon class="" points="510,164 502,163 503,159 510,160 "/>
		<polygon class="" points="501,171 502,168 509,169 508,172 "/>
		<polygon class="" points="492,166 492,170 484,169 485,165 "/>
		<polygon class="" points="502,167 502,163 510,164 509,168 "/>
		<polygon class="" points="493,162 492,166 485,165 485,161 "/>
		<path class="" d="M486 115c-1,2 0,3 2,4l20 2c1,1 3,-1 3,-2l1 -9c0,-1 -1,-3 -2,-3l-20 -3c-1,0 -3,1 -3,3l-1 8z"/>
		<path class="" d="M508 110c-1,0 -1,0 -1,-1 0,0 0,0 1,0 0,0 0,0 0,1 0,0 0,0 0,0l0 0zm-4 0c-1,0 -1,-1 -1,-1 0,-1 0,-1 1,-1 0,0 0,1 0,1 0,0 0,1 0,1l0 0zm-5 -1c0,0 0,0 0,-1 0,0 0,0 1,0 0,0 0,0 0,0 0,1 0,1 -1,1l0 0zm-4 -1c0,0 0,0 0,0 0,-1 0,-1 1,-1 0,0 0,0 0,1 0,0 0,0 -1,0l0 0zm-4 0c0,0 0,-1 0,-1 0,0 0,-1 0,-1 1,0 1,1 1,1 0,1 0,1 -1,1l0 0z"/>
		<path class="" d="M505 112c0,0 0,0 0,-1 0,0 0,0 0,0 1,0 1,0 1,0 0,1 0,1 -1,1l0 0zm-4 -1c0,0 -1,0 0,0 0,-1 0,-1 0,-1 1,0 1,1 1,1 0,0 0,1 -1,0l0 0zm-4 0c0,0 -1,-1 -1,-1 1,0 1,-1 1,0 1,0 1,0 1,0 0,1 -1,1 -1,1l0 0zm-4 -1c0,0 -1,0 -1,-1 0,0 1,0 1,0 1,0 1,0 1,1 0,0 -1,0 -1,0l0 0z"/>
		<path class="" d="M507 115c0,-1 -1,-1 -1,-1 0,-1 1,-1 1,-1 1,0 1,1 1,1 0,0 -1,1 -1,1l0 0zm-4 -1c-1,0 -1,0 -1,-1 0,0 1,0 1,0 0,0 1,0 1,0 0,1 -1,1 -1,1l0 0zm-4 -1c-1,0 -1,0 -1,0 0,-1 1,-1 1,-1 0,0 1,0 1,1 -1,0 -1,0 -1,0l0 0zm-4 0c-1,0 -1,-1 -1,-1 0,0 0,-1 1,-1 0,0 1,1 0,1 0,1 0,1 0,1l0 0zm-4 -1c-1,0 -1,0 -1,-1 0,0 0,0 1,0 0,0 0,0 0,1 0,0 0,0 0,0l0 0z"/>
		<path class="" d="M506 119c0,0 0,0 0,-1 0,0 0,-1 1,0 0,0 0,0 0,0 0,1 0,1 -1,1l0 0zm-4 -1c0,0 0,0 0,0 0,-1 0,-1 0,-1 1,0 1,0 1,1 0,0 0,0 -1,0l0 0zm-4 0c0,0 -1,-1 0,-1 0,0 0,-1 0,-1 1,0 1,1 1,1 0,1 0,1 -1,1l0 0zm-4 -1c0,0 -1,0 -1,-1 1,0 1,0 1,0 1,0 1,0 1,1 0,0 -1,0 -1,0l0 0zm-4 0c0,-1 -1,-1 -1,-1 0,-1 1,-1 1,-1 1,0 1,1 1,1 0,0 -1,1 -1,1l0 0z"/>
		<path class="" d="M505 116c-1,0 -1,0 -1,0 0,-1 0,-1 1,-1 0,0 0,0 0,1 0,0 0,0 0,0l0 0zm-5 0c0,0 0,-1 0,-1 0,0 0,-1 1,-1 0,1 0,1 0,1 0,1 0,1 -1,1l0 0zm-4 -1c0,0 0,0 0,-1 0,0 0,0 1,0 0,0 0,0 0,1 0,0 0,0 -1,0l0 0zm-4 0c0,0 0,-1 0,-1 0,-1 0,-1 1,-1 0,0 0,1 0,1 0,0 0,1 -1,1l0 0z"/>
		<path class="" d="M481 188l14 2c0,0 1,-1 1,-1 0,-1 -1,-2 -1,-2l-14 -2c0,0 -1,1 -1,1 0,1 0,1 1,2z"/>
		<path class="" d="M218 129c-1,7 -1,17 1,30 2,12 5,22 8,29 8,21 18,18 21,17l3 0c3,0 4,-3 4,-5l-3 -15c0,-3 -2,-4 -4,-4l-3 1c-5,0 -7,-1 -8,-4l0 0c-2,-5 -3,-12 -5,-21 -1,-10 -2,-17 -2,-22l0 0c0,-3 2,-5 6,-6l3 0c3,0 4,-3 4,-5l-2 -15c-1,-3 -3,-4 -5,-4l-3 0c-3,1 -14,1 -15,24z"/>
		<polygon class="" points="480,421 266,421 266,301 480,301 "/>
		<path class="" d="M386 361c0,7 -6,12 -13,12 -7,0 -13,-5 -13,-12 0,-7 6,-13 13,-13 7,0 13,6 13,13z"/>
		<polygon class="" points="480,430 266,430 266,421 480,421 "/>
		<polygon class="" points="187,510 273,471 236,407 170,428 "/>
		<polygon class="" points="266,445 205,473 206,474 265,447 "/>
		<polygon class="" points="263,441 203,469 204,470 264,442 "/>
		<polygon class="" points="264,442 204,470 205,473 266,445 "/>
		<polygon class="" points="206,474 206,473 204,472 205,470 203,469 199,473 200,475 "/>
		<polygon class="" points="200,475 199,473 196,476 "/>
		<path class="" d="M456 502c-3,0 -7,-1 -11,-2 -5,-2 -12,-1 -18,0 -3,0 -7,1 -10,1 0,0 0,0 0,0 -7,0 -16,-3 -18,-10 -2,-7 3,-15 8,-17 4,-2 8,-2 12,-3 1,0 3,0 4,0l0 0c8,-1 14,-2 18,-8 3,-6 4,-14 4,-19 0,-4 0,-9 -1,-15l2 0c1,6 1,11 1,15 0,6 0,14 -4,20 -4,8 -12,9 -19,9l-1 0c-1,1 -2,1 -3,1 -4,0 -9,1 -12,2 -4,2 -9,8 -7,14 2,6 9,8 16,8 0,0 0,0 0,0 3,0 7,0 10,-1 6,-1 13,-2 19,1 9,2 15,2 21,-1 6,-4 11,-10 16,-16 1,-1 1,-2 2,-3 2,-3 4,-6 7,-9 2,-1 4,-3 6,-4 2,-2 4,-4 6,-6l1 2c-2,2 -4,4 -6,5 -2,2 -3,3 -5,5 -3,3 -5,6 -7,9 -1,0 -2,1 -2,2 -5,6 -10,12 -17,17 -4,2 -7,3 -12,3l0 0z"/>
		<path class="" d="M539 453c-11,13 -27,17 -36,10 -9,-8 -8,-24 3,-37 10,-13 26,-17 35,-10 9,7 8,24 -2,37z"/>
		<path class="" d="M301 249c0,0 -14,-117 75,-109 86,8 74,111 74,111 0,0 -78,16 -149,-2z"/>
		<path class="" d="M267 110c0,0 10,84 151,64l5 24c0,0 11,-16 16,-4 6,15 -9,16 -9,16l21 34c0,0 40,-149 -15,-122 0,0 -9,-31 -55,-31 -61,0 -75,60 -114,19z"/>
		<path class="" d="M206 353c0,-52 58,-65 92,-65l0 13 154 0 0 -13c35,1 91,14 91,65 0,19 -12,41 -22,56l31 18c9,-16 18,-40 18,-74 0,-42 -37,-72 -85,-81 52,-3 95,-18 95,-66 0,-37 -20,-53 -36,-60l-8 27c10,3 21,12 21,30 0,50 -69,51 -103,51l0 -11c-86,19 -156,0 -156,0l0 11c-35,0 -103,-1 -103,-51 0,-16 9,-24 17,-29l-6 -27c-16,8 -34,24 -34,59 0,47 42,62 92,66 -48,9 -85,39 -85,81 0,36 11,62 20,77l28 -22c-9,-15 -21,-36 -21,-55z"/>
		<path class="" d="M227 408l-28 22c6,12 12,17 12,17 1,2 6,7 10,5 2,-2 2,-4 1,-6 2,1 4,2 6,1 2,-1 2,-3 1,-5 2,1 4,1 6,0 1,-1 1,-4 1,-6 1,2 4,2 6,1 4,-3 -3,-12 -4,-13 0,0 -5,-6 -11,-16z"/>
		<path class="" d="M521 409c-6,9 -10,15 -10,15 -2,1 -8,10 -4,13 2,1 4,1 6,-1 0,2 -1,5 1,6 2,1 4,1 6,0 -1,2 -1,4 1,5 2,1 4,0 6,-1 -1,2 -1,4 1,6 4,2 9,-3 10,-5 0,0 7,-6 14,-20l-31 -18z"/>
		<path class="" d="M229 169c2,0 10,0 10,-4 0,-2 -2,-3 -4,-3 2,-1 3,-2 3,-4 0,-2 -1,-3 -3,-3 2,-1 3,-2 3,-3 0,-2 -2,-3 -4,-4 2,0 3,-1 3,-3 0,-4 -6,-4 -8,-4 0,0 -10,1 -23,6l6 27c9,-4 17,-5 17,-5z"/>
		<path class="" d="M523 141c-2,0 -8,0 -8,4 0,2 1,3 3,3 -2,1 -4,2 -4,4 0,1 1,2 3,3 -2,0 -3,1 -3,3 0,2 1,3 3,4 -2,0 -4,1 -4,3 0,4 8,4 10,4 0,0 6,1 13,4l8 -27c-12,-5 -21,-5 -21,-5z"/>
		<polygon class="" points="170,326 88,326 88,319 170,319 "/>
		<polygon class="" points="170,319 88,319 99,252 159,252 "/>
		<path class="" d="M129 303c-9,0 -17,-8 -17,-17 0,-10 8,-17 17,-17 10,0 17,7 17,17 0,9 -7,17 -17,17zm0 -45c-15,0 -28,12 -28,28 0,15 13,28 28,28 16,0 28,-13 28,-28 0,-16 -12,-28 -28,-28z"/>
		<path class="" d="M130 267c0,0 0,0 0,0 -1,0 -2,0 -3,-1 0,-1 -1,-2 -1,-3 0,-2 2,-4 4,-4 3,0 4,2 4,5 0,2 -2,3 -4,3l0 0zm-10 2c-2,0 -3,-1 -4,-2 0,-1 0,-2 0,-3 0,-1 1,-2 2,-2 1,0 1,-1 2,-1 1,0 3,1 3,3 1,2 0,4 -1,5 -1,0 -2,0 -2,0l0 0zm20 1c0,0 -1,0 -2,0 -1,-1 -1,-2 -1,-3 -1,-1 -1,-2 0,-3 1,-1 2,-2 3,-2 1,0 2,0 2,1 2,1 3,3 2,5 -1,1 -2,2 -4,2l0 0zm-28 6c-1,0 -2,0 -3,-1 -1,-1 -1,-2 -1,-3 0,-1 0,-2 0,-2 1,-1 2,-2 4,-2 0,0 1,0 2,1 1,0 1,1 1,2 1,2 0,3 0,3 -1,1 -2,2 -3,2l0 0zm36 1c-1,0 -3,0 -3,-1 -1,-2 -1,-5 1,-6 1,0 1,0 2,0 1,0 3,0 3,1 2,2 1,5 -1,6 0,0 -1,0 -2,0l0 0zm-41 9c0,0 0,0 -1,-1 -2,0 -3,-2 -3,-4 1,-2 2,-3 4,-3 0,0 1,0 1,0 2,0 4,2 3,4 0,2 -2,4 -4,4l0 0zm1 10c-2,0 -4,-1 -4,-3 0,-1 0,-2 0,-3 1,-1 2,-1 3,-2 0,0 0,0 1,0 1,0 3,1 4,3 0,2 -1,4 -3,5 0,0 -1,0 -1,0l0 0zm5 9l0 0c-1,0 -2,0 -3,-1 -1,-1 -1,-2 -1,-3 0,-1 1,-2 1,-3 1,0 2,-1 3,-1 1,0 2,1 3,2 1,0 1,1 1,2 0,1 0,2 -1,3 -1,1 -2,1 -3,1l0 0zm9 6l0 0c0,0 -1,0 -1,0 -1,-1 -2,-1 -3,-2 0,-1 0,-2 0,-3 1,-2 2,-3 4,-3 0,0 1,0 1,0l0 0c1,1 2,1 3,2 0,1 0,2 0,3 -1,2 -2,3 -4,3l0 0zm10 1c-1,0 -3,-2 -3,-4 -1,-1 0,-2 0,-2 1,-1 2,-2 3,-2 0,0 0,0 0,0 2,0 4,1 4,3 1,3 -1,5 -3,5 0,0 0,0 -1,0l0 0z"/>
		<polygon class="" points="148,308 144,311 138,301 141,299 "/>
		<polygon class="" points="116,246 109,246 109,258 116,258 "/>
		<polygon class="" points="150,246 143,246 143,258 150,258 "/>
		<path class="" d="M246 206c2,7 1,15 -5,20 -4,4 -11,6 -17,6 -10,1 -21,0 -31,6 -11,7 -13,22 -11,34 1,7 4,16 2,23 -2,7 -10,9 -16,11l0 2c6,-1 11,-3 15,-7 5,-5 4,-12 3,-18 -1,-8 -3,-16 -2,-24 0,-8 5,-16 13,-20 11,-6 24,-3 36,-6 5,-1 10,-5 13,-9 4,-5 4,-13 2,-18 0,0 -1,0 -2,0z"/>
		<path class="" d="M371 227c0,0 -17,-5 -39,-6 0,0 -3,20 16,24 21,3 23,-18 23,-18z"/>
		<path class="" d="M323 196c-1,5 0,9 2,10 2,0 5,-3 6,-8 1,-4 0,-8 -2,-9 -2,0 -5,3 -6,7z"/>
		<path class="" d="M382 200c-1,5 -1,9 2,9 2,1 4,-2 5,-7 1,-4 1,-9 -2,-9 -2,-1 -4,3 -5,7z"/>
	</simbol>
</svg>