<?xml version="1.0" encoding="UTF-8"?>
<svg xmlns="http://www.w3.org/2000/svg"  width="1000" height="230" version="1.1"
viewBox="0 0 532 66">
 <g d="topCloud1" style="fill:#d6dde8">
  <path class="fil0" d="M532 35l0 0c-5,3 -10,2 -12,1 -1,-1 -6,-5 -3,-13 -8,4 -15,-2 -18,-4 2,2 4,3 6,4 -3,3 -4,5 -8,4 -1,3 -5,4 -8,4 -6,0 -9,-2 -14,-9 4,-1 4,-1 8,-4 -3,2 -10,5 -15,5 -6,-1 -7,-4 -9,-8 -1,6 -6,10 -11,11 -5,2 -10,0 -16,-3 1,3 1,7 -4,7 1,2 -2,5 -5,7 -2,1 -9,2 -15,0 2,1 3,1 7,2 -2,3 -6,5 -10,6 -4,1 -10,0 -11,-2 -2,3 -6,8 -14,10 -9,1 -18,-4 -22,-10 -2,4 -7,6 -14,5 -5,0 -7,-5 -8,-6 5,-1 7,-1 10,-3 -3,1 -6,2 -10,2 -4,1 -9,-2 -11,-3 0,4 -1,7 -4,8 -2,2 -8,2 -9,0 0,2 0,6 -4,9 -5,2 -7,1 -11,0 0,1 -3,3 -6,2 -3,-2 -3,-3 -4,-6 -2,4 -4,6 -7,7 -5,1 -8,1 -10,0 -1,0 -4,-1 -6,-2 2,1 4,2 6,3 0,1 -4,5 -11,5 -7,0 -10,-3 -11,-5 -3,1 -9,1 -12,-3 -2,5 -8,7 -13,6 -2,-1 -4,-2 -5,-4 -1,1 -4,1 -5,0 -2,-2 -2,-3 -1,-5 -3,1 -7,0 -9,-2 -3,-2 -3,-5 -4,-10 5,-1 8,-1 12,-2 -6,1 -14,2 -19,1 -5,-1 -9,-2 -10,-5 -1,5 -7,10 -11,11 -2,0 -3,1 -4,1 0,2 0,2 -1,3 -1,1 -3,1 -5,1 -1,1 -2,2 -3,2 -2,1 -6,1 -8,-1 -1,2 -3,5 -8,5 -5,0 -7,-5 -9,-6 -1,5 -8,7 -12,5 1,3 0,7 -7,9 -6,2 -10,-2 -12,-4 -2,0 -4,1 -7,0 -4,-1 -5,-2 -6,-4 3,-2 4,-2 8,-4 -7,2 -11,6 -17,7 -7,2 -8,0 -11,-1 -3,6 -6,7 -11,7 -5,-1 -6,-4 -11,-8 -1,3 -12,2 -10,-6 -6,1 -11,-1 -16,-4 3,2 6,3 8,4 -9,13 -18,4 -17,-1 -4,-1 -7,-6 -6,-10 -6,1 -6,-4 -6,-7l0 -34 532 0 0 35z"/>
 </g>
</svg>
